<svg xmlns="http://www.w3.org/2000/svg" viewBox="0 0 149.65 210.13"><defs><style>.cls-1{fill:#4f8bc3;}.cls-2{fill:#fff;}.cls-3{fill:#405174;}</style></defs><title>Ресурс 1</title><g id="Слой_2" data-name="Слой 2"><g id="Слой_1-2" data-name="Слой 1"><rect class="cls-1" width="149.65" height="149.65" rx="19.28"/><polygon class="cls-2" points="17.36 67.22 12.11 67.22 17.36 75.32 17.36 67.22"/><polygon class="cls-2" points="12.13 93.94 17.49 93.94 17.36 79 12 70.73 12.13 93.94"/><polygon class="cls-2" points="23.63 93.94 31.24 93.94 31.24 76.49 23.63 64.75 23.63 93.94"/><polygon class="cls-2" points="12.13 61.08 23.63 61.08 23.63 61.08 31.24 72.81 31.24 61.08 42.8 61.08 42.8 55.7 12.13 55.7 12.13 61.08"/><polygon class="cls-2" points="80.2 85.82 74.81 77.5 74.84 93.94 92.86 93.94 92.86 86.19 80.2 86.19 80.2 85.82"/><polygon class="cls-2" points="80.2 70.36 92.83 70.36 92.83 62.61 74.78 62.61 74.8 73.82 80.2 82.14 80.2 82.14 92.86 82.18 92.86 74.43 80.23 74.43 80.2 70.36"/><polygon class="cls-2" points="95.09 93.94 100.13 93.94 100.13 83.81 95.07 76 95.09 93.94"/><polygon class="cls-2" points="108.92 69.33 108.78 69.53 108.78 82.5 95.86 62.61 95.06 62.61 95.07 72.32 105.87 88.98 105.86 88.99 109.07 93.94 113.83 93.94 113.83 61.77 108.92 69.33"/><polygon class="cls-2" points="124.16 93.94 129.52 93.94 129.52 79.22 124.16 70.95 124.16 93.94"/><polygon class="cls-2" points="137.65 67.28 137.65 61.95 116.03 61.95 116.03 67.28 124.16 67.28 124.16 67.29 124.16 67.28 129.52 75.55 129.52 67.28 137.65 67.28"/><polygon class="cls-2" points="62.83 62.67 57.41 62.67 57.41 74.16 62.83 82.51 62.83 62.67"/><polygon class="cls-2" points="63.64 86.19 62.85 86.19 62.84 86.2 62.83 86.19 62.83 86.19 62.83 86.19 57.41 77.83 57.41 93.94 67.39 93.94 69.06 93.94 72.63 93.94 72.63 86.19 63.64 86.19"/><polygon class="cls-2" points="62.84 86.2 62.85 86.19 62.83 86.19 62.84 86.2"/><polygon class="cls-2" points="40.95 71.82 43.52 79.33 38.54 93.83 33.45 93.83 40.95 71.82"/><polygon class="cls-2" points="55.17 93.89 50.08 93.89 49.04 90.81 41.76 69.46 44.29 62.03 55.17 93.89"/><path class="cls-3" d="M25.2,180.09a15,15,0,1,0,15,15A15,15,0,0,0,25.2,180.09Zm8.93,15.41a9,9,0,1,1-16.32-5.7,1.39,1.39,0,0,1,1.29-.66s.07.13.18.39.27.4.41.4.47-.25.69-.75a3.45,3.45,0,0,1,.86-1.32,3.44,3.44,0,0,1,.94-.53l.33-.05c.15,0,.23-.1.23-.17a.58.58,0,0,0-.27-.45,7.5,7.5,0,0,1,2.88-.48,6.83,6.83,0,0,1,1.6.15c.77.2,1.36.57,1.33.82s-.4.37-.81.31a2.21,2.21,0,0,0-1.49.64c-.43.41-.71.89-.63,1.08a1,1,0,0,0,.33.41.86.86,0,0,1,.3.24.24.24,0,0,0,.3.08.53.53,0,0,0,.15-.45,1,1,0,0,1,.43-.67c.24-.19.43-.08.43.24A1.81,1.81,0,0,1,27,190a3.34,3.34,0,0,1-.91.66c-.36.16-1.44,0-1.74.35s.37.5,0,.69-.47,0-.58.23-.17.59,0,.74.86-.09.9-.32.26-.28.44-.24a.69.69,0,0,0,.55-.15.42.42,0,0,1,.5,0,1.39,1.39,0,0,1,.41.56c.07.19.11.34-.15.49-.09.05-.07.17,0,.22a.78.78,0,0,0,.52,0,.75.75,0,0,0,.21-.39c0-.09.22,0,.31-.07s0-.12-.13-.34-.48-.3-.54-.67c0-.13.34-.19.65-.17a.91.91,0,0,1,.75.78c.07.41.24.77.37.77s.15.71-.13.78a2.64,2.64,0,0,1-1.28,0c-.81-.22-1.8-.42-2.08-.46s-.55-.28-.82-.3a1.82,1.82,0,0,0-1.08.45,1.62,1.62,0,0,0-1.15,1.08,2.53,2.53,0,0,0,.07,1.27,1.7,1.7,0,0,0,1.06.71,3.56,3.56,0,0,1,1.61,1.28,19.37,19.37,0,0,1,.45,2.35,3.13,3.13,0,0,0,.61,1.76,1.6,1.6,0,0,0,1.68-.79c.37-.7.24-2.64.35-3S29,197,29.12,196.66a1.94,1.94,0,0,0-.08-.8,4.78,4.78,0,0,1-.47-1.44c.06,0,.28.3.47.75a.85.85,0,0,0,1,.58c.34-.13.41-.66.13-1.18a13.24,13.24,0,0,1,2.35,0,3.07,3.07,0,0,1,1.46.51A.56.56,0,0,1,34.13,195.5Z"/><path class="cls-3" d="M46.2,191.72a3.64,3.64,0,0,1,1.07-3,3.57,3.57,0,0,1,2.5-.92,3.52,3.52,0,0,1,2.5.92,3.69,3.69,0,0,1,1.06,3v6.73a3.44,3.44,0,0,1-3.56,3.94,3.48,3.48,0,0,1-2.5-.92,3.7,3.7,0,0,1-1.07-3Zm5.08-.3a1.53,1.53,0,0,0-.43-1.23,1.68,1.68,0,0,0-2.2,0,1.55,1.55,0,0,0-.43,1.23v7.35a1.53,1.53,0,0,0,.43,1.23,1.54,1.54,0,0,0,2.63-1.23Z"/><path class="cls-3" d="M58.39,188a4.68,4.68,0,0,1,2.68.69,3.69,3.69,0,0,1,1.31,3.26,3.05,3.05,0,0,1-.62,2.22,3.13,3.13,0,0,1-.76.65,2.14,2.14,0,0,1,1,.9,2.91,2.91,0,0,1,.41,1.79v1.08a3.52,3.52,0,0,1-1.21,3,4,4,0,0,1-2.41.67H55.68V188h2.71Zm-.71,5.87h1a1.63,1.63,0,0,0,1.3-.52,1.91,1.91,0,0,0,.4-1.21v-.88a1.45,1.45,0,0,0-.4-1,1.79,1.79,0,0,0-1.32-.47h-1Zm0,6.49h.91a1.61,1.61,0,0,0,1.38-.63,2.7,2.7,0,0,0,.38-1.44v-.67a1.83,1.83,0,0,0-.55-1.56,1.51,1.51,0,0,0-1.08-.38h-1v4.68Z"/><path class="cls-3" d="M64.51,191.72a3.63,3.63,0,0,1,1.06-3,3.59,3.59,0,0,1,2.5-.92,3.52,3.52,0,0,1,2.5.92,3.69,3.69,0,0,1,1.06,3v6.73a3.44,3.44,0,0,1-3.56,3.94,3.5,3.5,0,0,1-2.5-.92,3.69,3.69,0,0,1-1.06-3Zm5.07-.3a1.53,1.53,0,0,0-.43-1.23,1.68,1.68,0,0,0-2.2,0,1.55,1.55,0,0,0-.43,1.23v7.35A1.53,1.53,0,0,0,67,200a1.54,1.54,0,0,0,2.63-1.23Z"/><path class="cls-3" d="M80.05,188v1.56l-4.26,10.82H80v1.83H73.67v-1.79l4.16-10.6H74V188Z"/><path class="cls-3" d="M84.84,188c1,0,2.54-.06,3.49,1.12a3.82,3.82,0,0,1,.75,2.48v1.08a3.58,3.58,0,0,1-.75,2.26,2.77,2.77,0,0,1-1.08.72l2.24,6.55H87.38l-2-6.12h-1.2v6.12h-2V188h2.65Zm-.63,6.25h1.15a1.66,1.66,0,0,0,1.25-.47,1.47,1.47,0,0,0,.43-1.29v-1a2,2,0,0,0-.46-1.3,1.67,1.67,0,0,0-1.33-.37H84.19v4.44Z"/><path class="cls-3" d="M91.2,188h6v1.92h-4v4.18h3.52v1.82H93.24v4.35h4v1.92H91.2Z"/><path class="cls-3" d="M103,202.18H101.2L98.2,188h2.24l1.64,9.81h.07l1.7-9.81H106Z"/><path class="cls-3" d="M111.41,202.18l-.68-3h-2.59l-.67,3h-2L108.53,188h1.79l3.1,14.19Zm-2-10.24-1.06,5.39h2.14Z"/><path class="cls-3" d="M120,188v1.92h-2.52v12.27h-2V189.91h-2.51V188Z"/><path class="cls-3" d="M121.63,188h6v1.92h-4v4.18h3.53v1.82h-3.53v4.35h4v1.92h-6.08Z"/><path class="cls-3" d="M131.67,188v12.27H136v1.92h-6.33V188Z"/><path class="cls-3" d="M46.41,185.13v-4.9h4a1.36,1.36,0,0,1,1,.39,1.67,1.67,0,0,1,.37,1.17,1.7,1.7,0,0,1-.37,1.18,1.37,1.37,0,0,1-1,.39H47.14v1.77Zm.73-2.44h3.22a.65.65,0,0,0,.51-.23,1,1,0,0,0,.18-.69,1,1,0,0,0-.18-.69.64.64,0,0,0-.51-.22H47.14Z"/><path class="cls-3" d="M55.89,185.21a7.61,7.61,0,0,1-2.13-.21,1,1,0,0,1-.76-.74,6.59,6.59,0,0,1-.12-1.57,6.31,6.31,0,0,1,.12-1.57,1.11,1.11,0,0,1,.78-.76,7.81,7.81,0,0,1,2.13-.21,7.57,7.57,0,0,1,2.12.21,1.17,1.17,0,0,1,.79.74,7.33,7.33,0,0,1,.11,1.57,7.14,7.14,0,0,1-.11,1.57,1.12,1.12,0,0,1-.77.74A7.19,7.19,0,0,1,55.89,185.21Zm0-.66a4.33,4.33,0,0,0,2-.24c.21-.17.3-.71.3-1.6s-.09-1.46-.3-1.63a4.45,4.45,0,0,0-2-.24,4.51,4.51,0,0,0-2,.24c-.2.17-.3.71-.3,1.63s.1,1.43.3,1.6A4.74,4.74,0,0,0,55.89,184.55Z"/><path class="cls-3" d="M62.57,184.42h.07l1.79-4.18h.62l1.79,4.18h.09l1.89-4.18h.76l-2.22,4.89h-.93l-1.7-3.92-1.68,3.92h-.93l-2.22-4.89h.76Z"/><path class="cls-3" d="M70.77,180.23h4.69v.65h-4v1.43h3.83V183H71.5v1.49h4v.65H70.77Z"/><path class="cls-3" d="M76.86,180.23h4.4a1.14,1.14,0,0,1,.95.42,1.84,1.84,0,0,1,.34,1.14,1.75,1.75,0,0,1-.19.92.81.81,0,0,1-.43.33,1.18,1.18,0,0,1,.41.28.86.86,0,0,1,.22.6v1.21h-.72v-1.21a.49.49,0,0,0-.23-.41.91.91,0,0,0-.56-.17H77.62v1.77h-.73v-4.88Zm.72,2.46h3.36a1,1,0,0,0,.58-.13.88.88,0,0,0,.28-.77.87.87,0,0,0-.28-.76,1,1,0,0,0-.6-.15H77.56v1.81Z"/><path class="cls-3" d="M83.87,180.23h4.68v.65h-4v1.43h3.82V183H84.6v1.49h4v.65H83.87Z"/><path class="cls-3" d="M90,180.23h4.11a1.74,1.74,0,0,1,1.23.33,4.88,4.88,0,0,1,0,4.22,1.78,1.78,0,0,1-1.23.33H90Zm.73,4.25h3.38a.82.82,0,0,0,.8-.36,3.43,3.43,0,0,0,.2-1.43,3.55,3.55,0,0,0-.2-1.44.84.84,0,0,0-.8-.37H90.7Z"/><path class="cls-3" d="M106.26,183.7a1.41,1.41,0,0,1-.39,1.08,1.69,1.69,0,0,1-1.16.35h-3.94v-4.9h3.77a1.71,1.71,0,0,1,1.16.35,1.33,1.33,0,0,1,.39,1,.92.92,0,0,1-.56.95,1,1,0,0,1,.5.35A1.59,1.59,0,0,1,106.26,183.7Zm-.92-2.08a.77.77,0,0,0-.16-.52.86.86,0,0,0-.66-.22h-3v1.4h3a1,1,0,0,0,.66-.17A.61.61,0,0,0,105.34,181.62ZM101.48,183v1.53h3.19a1,1,0,0,0,.64-.21.7.7,0,0,0,.2-.56.76.76,0,0,0-.22-.56.88.88,0,0,0-.62-.22h-3.19Z"/><path class="cls-3" d="M112.6,180.23h1l-2.89,2.94v2H110v-2l-2.89-2.94h1l2.27,2.33Z"/></g></g></svg>