<svg xmlns="http://www.w3.org/2000/svg" viewBox="0 0 290.85 143.68"><defs><style>.cls-1{fill:#4f8bc3;}.cls-2{fill:#fff;}.cls-3{fill:#405174;}</style></defs><title>Ресурс 2</title><g id="Слой_2" data-name="Слой 2"><g id="Слой_1-2" data-name="Слой 1"><rect class="cls-1" width="143.68" height="143.68" rx="16.4"/><polygon class="cls-2" points="16.67 64.54 11.63 64.54 16.67 72.32 16.67 64.54"/><polygon class="cls-2" points="11.65 90.2 16.79 90.2 16.67 75.85 11.52 67.91 11.65 90.2"/><polygon class="cls-2" points="22.69 90.2 30 90.2 30 73.44 22.69 62.17 22.69 90.2"/><polygon class="cls-2" points="11.65 58.64 22.69 58.64 22.69 58.64 30 69.91 30 58.64 41.09 58.64 41.09 53.48 11.65 53.48 11.65 58.64"/><polygon class="cls-2" points="77 82.39 71.82 74.41 71.85 90.2 89.15 90.2 89.15 82.75 77 82.75 77 82.39"/><polygon class="cls-2" points="77 67.56 89.12 67.56 89.12 60.11 71.8 60.11 71.82 70.87 77 78.86 77 78.86 89.15 78.9 89.15 71.46 77.03 71.46 77 67.56"/><polygon class="cls-2" points="91.29 90.2 96.14 90.2 96.14 80.46 91.28 72.97 91.29 90.2"/><polygon class="cls-2" points="104.58 66.56 104.44 66.75 104.44 79.21 92.04 60.11 91.26 60.11 91.27 69.44 101.64 85.43 101.63 85.44 104.72 90.2 109.28 90.2 109.28 59.31 104.58 66.56"/><polygon class="cls-2" points="119.2 90.2 124.35 90.2 124.35 76.06 119.2 68.12 119.2 90.2"/><polygon class="cls-2" points="132.16 64.59 132.16 59.47 111.4 59.47 111.4 64.59 119.2 64.59 119.2 64.6 119.21 64.6 124.35 72.53 124.35 64.59 132.16 64.59"/><polygon class="cls-2" points="60.32 60.17 55.12 60.17 55.12 71.2 60.32 79.22 60.32 60.17"/><polygon class="cls-2" points="61.1 82.75 60.34 82.75 60.33 82.76 60.32 82.75 60.32 82.75 60.32 82.75 55.12 74.73 55.12 90.2 64.7 90.2 66.3 90.2 69.73 90.2 69.73 82.75 61.1 82.75"/><polygon class="cls-2" points="60.33 82.76 60.34 82.75 60.32 82.75 60.33 82.76"/><polygon class="cls-2" points="39.32 68.95 41.78 76.16 37 90.08 32.11 90.08 39.32 68.95"/><polygon class="cls-2" points="52.97 90.14 48.08 90.14 47.08 87.18 40.09 66.69 42.53 59.56 52.97 90.14"/><path class="cls-3" d="M184.51,61.76a14.42,14.42,0,1,0,14.42,14.42A14.42,14.42,0,0,0,184.51,61.76Zm8.58,14.8a8.65,8.65,0,0,1-17.29-.45,8.55,8.55,0,0,1,1.61-5,1.34,1.34,0,0,1,1.24-.63s.07.13.18.38.25.37.39.37.45-.23.67-.71a3.16,3.16,0,0,1,.82-1.27,3,3,0,0,1,.9-.51l.32,0c.14,0,.21-.09.21-.16a.55.55,0,0,0-.25-.43,7.13,7.13,0,0,1,2.76-.47,6.35,6.35,0,0,1,1.54.15c.74.19,1.31.55,1.27.78s-.37.36-.77.31a2.08,2.08,0,0,0-1.43.61c-.41.39-.68.86-.61,1a.88.88,0,0,0,.32.39.89.89,0,0,1,.29.23.24.24,0,0,0,.29.08.5.5,0,0,0,.14-.43,1,1,0,0,1,.41-.65c.23-.18.41-.07.41.23a1.72,1.72,0,0,1-.3.9,3.11,3.11,0,0,1-.88.63c-.34.16-1.38,0-1.66.34s.35.48,0,.66-.44,0-.55.21-.16.58,0,.72.82-.09.86-.3.25-.27.43-.24a.62.62,0,0,0,.52-.14.39.39,0,0,1,.48,0,1.37,1.37,0,0,1,.39.54c.08.18.11.32-.14.46-.09.06-.07.16,0,.22a.86.86,0,0,0,.5,0,.71.71,0,0,0,.2-.38c0-.09.21,0,.3-.07s0-.1-.13-.32-.46-.29-.51-.64c0-.13.32-.18.62-.17a.88.88,0,0,1,.72.76c.07.39.23.73.36.73s.14.68-.13.75a2.67,2.67,0,0,1-1.23,0,17.8,17.8,0,0,0-2-.45c-.32-.06-.54-.27-.79-.29a1.78,1.78,0,0,0-1,.43,1.59,1.59,0,0,0-1.11,1,2.58,2.58,0,0,0,.07,1.22,1.6,1.6,0,0,0,1,.68,3.41,3.41,0,0,1,1.54,1.23,15.79,15.79,0,0,1,.43,2.26,3,3,0,0,0,.59,1.68,1.53,1.53,0,0,0,1.62-.75c.35-.68.23-2.54.34-2.88s1.11-1.15,1.18-1.47a1.86,1.86,0,0,0-.07-.77,4.47,4.47,0,0,1-.45-1.38c.05,0,.27.29.45.72a.8.8,0,0,0,.93.55c.32-.12.39-.62.12-1.13a11.4,11.4,0,0,1,2.26,0,2.86,2.86,0,0,1,1.4.48A.58.58,0,0,1,193.09,76.56Z"/><path class="cls-3" d="M204.68,72.92a3.49,3.49,0,0,1,1-2.9,3.44,3.44,0,0,1,2.4-.88,3.39,3.39,0,0,1,2.4.88,3.56,3.56,0,0,1,1,2.9v6.47a3.49,3.49,0,0,1-1,2.9,3.44,3.44,0,0,1-2.4.88,3.35,3.35,0,0,1-2.4-.88,3.52,3.52,0,0,1-1-2.9Zm4.87-.28a1.4,1.4,0,0,0-1.47-1.58,1.5,1.5,0,0,0-1.06.39,1.52,1.52,0,0,0-.41,1.19v7a1.39,1.39,0,0,0,1.47,1.58,1.47,1.47,0,0,0,1-.39,1.49,1.49,0,0,0,.42-1.19Z"/><path class="cls-3" d="M216.37,69.34A4.55,4.55,0,0,1,219,70a3.55,3.55,0,0,1,1.25,3.14,2.93,2.93,0,0,1-.59,2.13,3.2,3.2,0,0,1-.73.63,2,2,0,0,1,.93.86,2.81,2.81,0,0,1,.39,1.72v1A3.37,3.37,0,0,1,219,82.36a3.76,3.76,0,0,1-2.31.65h-3V69.38h2.6ZM215.69,75h.93a1.62,1.62,0,0,0,1.26-.5,1.89,1.89,0,0,0,.37-1.16v-.84a1.47,1.47,0,0,0-.37-.94,1.76,1.76,0,0,0-1.28-.44h-.91Zm0,6.24h.88a1.56,1.56,0,0,0,1.32-.61,2.56,2.56,0,0,0,.36-1.38v-.65a1.76,1.76,0,0,0-.52-1.5,1.5,1.5,0,0,0-1-.36h-1v4.5Z"/><path class="cls-3" d="M222.25,72.92a3.49,3.49,0,0,1,1-2.9,3.44,3.44,0,0,1,2.4-.88,3.39,3.39,0,0,1,2.4.88,3.56,3.56,0,0,1,1,2.9v6.47a3.49,3.49,0,0,1-1,2.9,3.44,3.44,0,0,1-2.4.88,3.35,3.35,0,0,1-2.4-.88,3.56,3.56,0,0,1-1-2.9Zm4.87-.28a1.5,1.5,0,0,0-.41-1.19,1.48,1.48,0,0,0-2.53,1.19v7a1.5,1.5,0,0,0,.41,1.19,1.48,1.48,0,0,0,2.53-1.19Z"/><path class="cls-3" d="M237.17,69.34v1.51l-4.09,10.38h4V83h-6V81.27l4-10.17h-3.72V69.34Z"/><path class="cls-3" d="M241.77,69.34c1,0,2.44,0,3.35,1.08a3.67,3.67,0,0,1,.72,2.38v1a3.41,3.41,0,0,1-.72,2.16,2.49,2.49,0,0,1-1,.7L246.23,83h-2l-1.89-5.88h-1.14V83h-2V69.36h2.54Zm-.61,6h1.11a1.58,1.58,0,0,0,1.2-.45,1.41,1.41,0,0,0,.41-1.23v-1a1.84,1.84,0,0,0-.45-1.25,1.55,1.55,0,0,0-1.27-.36h-1v4.26Z"/><path class="cls-3" d="M247.88,69.34h5.78v1.85h-3.83v4h3.38V77h-3.38v4.18h3.89V83h-5.84Z"/><path class="cls-3" d="M259.2,83h-1.72l-2.89-13.63h2.15l1.58,9.42h.07L260,69.34h2Z"/><path class="cls-3" d="M267.27,83l-.64-2.92h-2.49L263.5,83h-2l3-13.63h1.72l3,13.63Zm-1.93-9.83-1,5.17h2.06Z"/><path class="cls-3" d="M275.53,69.34v1.85h-2.42V83h-1.95V71.19h-2.42V69.34Z"/><path class="cls-3" d="M277.09,69.34h5.79v1.85H279v4h3.39V77H279v4.18h3.89V83h-5.84Z"/><path class="cls-3" d="M286.73,69.34V81.13h4.12V83h-6.08V69.34Z"/><path class="cls-3" d="M204.87,66.6V61.89h3.84a1.29,1.29,0,0,1,1,.38,1.94,1.94,0,0,1,0,2.25,1.3,1.3,0,0,1-1,.38h-3.12v1.7Zm.7-2.35h3.1a.6.6,0,0,0,.48-.21,1,1,0,0,0,.18-.66,1,1,0,0,0-.18-.67.6.6,0,0,0-.48-.21h-3.1Z"/><path class="cls-3" d="M214,66.67a7.66,7.66,0,0,1-2-.19,1,1,0,0,1-.74-.72,6.93,6.93,0,0,1-.1-1.51,6.64,6.64,0,0,1,.1-1.5A1.06,1.06,0,0,1,212,62a7.25,7.25,0,0,1,2-.2,7.15,7.15,0,0,1,2,.2,1.09,1.09,0,0,1,.75.71,6.73,6.73,0,0,1,.11,1.51,6.43,6.43,0,0,1-.11,1.5,1.06,1.06,0,0,1-.73.72A7.11,7.11,0,0,1,214,66.67Zm0-.62a4.21,4.21,0,0,0,1.92-.24c.19-.16.28-.68.28-1.54s-.09-1.39-.28-1.56a8.13,8.13,0,0,0-3.84,0c-.19.17-.28.68-.28,1.56s.09,1.38.28,1.54A4.4,4.4,0,0,0,214,66.05Z"/><path class="cls-3" d="M220.38,65.92h.07l1.72-4h.6l1.71,4h.09l1.81-4h.74L225,66.6h-.9l-1.63-3.76-1.61,3.76H220l-2.13-4.69h.74Z"/><path class="cls-3" d="M228.26,61.89h4.5v.63H229V63.9h3.67v.62H229V66h3.8v.62h-4.5Z"/><path class="cls-3" d="M234.1,61.89h4.23a1.1,1.1,0,0,1,.91.41,1.71,1.71,0,0,1,.33,1.09,1.68,1.68,0,0,1-.18.88.82.82,0,0,1-.41.32,1.34,1.34,0,0,1,.39.27.83.83,0,0,1,.21.58V66.6h-.69V65.44a.5.5,0,0,0-.22-.4.85.85,0,0,0-.54-.16h-3.29v1.7h-.7V61.89Zm.7,2.36H238a.9.9,0,0,0,.55-.12.86.86,0,0,0,.27-.74.86.86,0,0,0-.27-.73,1,1,0,0,0-.57-.14h-3.23v1.73Z"/><path class="cls-3" d="M240.84,61.89h4.49v.63h-3.79V63.9h3.67v.62h-3.67V66h3.79v.62h-4.49Z"/><path class="cls-3" d="M246.69,61.89h3.95a1.67,1.67,0,0,1,1.18.32,3.16,3.16,0,0,1,.46,2,3.13,3.13,0,0,1-.46,2,1.65,1.65,0,0,1-1.18.32h-3.95Zm.7,4.08h3.25a.8.8,0,0,0,.77-.34,5.07,5.07,0,0,0,0-2.75.81.81,0,0,0-.77-.36h-3.25Z"/><path class="cls-3" d="M262.33,65.22a1.33,1.33,0,0,1-.37,1,1.63,1.63,0,0,1-1.12.34h-3.77V61.89h3.61a1.6,1.6,0,0,1,1.11.34,1.28,1.28,0,0,1,.38,1,.88.88,0,0,1-.54.91,1.06,1.06,0,0,1,.49.34A1.5,1.5,0,0,1,262.33,65.22Zm-.88-2a.73.73,0,0,0-.16-.5.8.8,0,0,0-.62-.21h-2.91v1.34h2.91a.91.91,0,0,0,.62-.16A.58.58,0,0,0,261.45,63.23Zm-3.7,1.27V66h3.06a.93.93,0,0,0,.61-.19.72.72,0,0,0,.19-.54.75.75,0,0,0-.21-.54.8.8,0,0,0-.59-.21h-3.06Z"/><path class="cls-3" d="M268.42,61.89h.95l-2.78,2.83V66.6h-.69V64.72l-2.78-2.83h.95l2.18,2.24Z"/></g></g></svg>