<svg xmlns="http://www.w3.org/2000/svg" viewBox="0 0 264.37 43.51"><defs><style>.cls-1{fill:#6baddc;}.cls-2{fill:#4f8bc3;}.cls-3{fill:#405174;}</style></defs><title>Ресурс 4</title><g id="Слой_2" data-name="Слой 2"><g id="Слой_1-2" data-name="Слой 1"><polygon class="cls-1" points="6.1 13.11 0.13 13.11 6.1 22.32 6.1 13.11"/><polygon class="cls-2" points="0.14 43.52 6.25 43.52 6.1 26.51 0 17.1 0.14 43.52"/><polygon class="cls-2" points="13.23 43.52 21.89 43.52 21.89 23.65 13.23 10.3 13.23 43.52"/><polygon class="cls-1" points="0.14 6.12 13.23 6.12 13.23 6.11 21.89 19.47 21.89 6.12 35.05 6.12 35.05 0 0.14 0 0.14 6.12"/><polygon class="cls-2" points="77.61 34.27 71.47 24.81 71.5 43.52 92.01 43.52 92.01 34.69 77.61 34.69 77.61 34.27"/><polygon class="cls-1" points="77.61 16.68 91.97 16.68 91.97 7.86 71.44 7.86 71.46 20.61 77.61 30.09 77.61 30.08 92.01 30.13 92.01 21.31 77.64 21.31 77.61 16.68"/><polygon class="cls-2" points="94.55 43.52 100.29 43.52 100.29 31.98 94.53 23.1 94.55 43.52"/><polygon class="cls-1" points="110.29 15.5 110.13 15.73 110.13 30.49 95.43 7.86 94.51 7.86 94.52 18.91 106.81 37.86 106.8 37.87 110.46 43.52 115.87 43.52 115.87 6.91 110.29 15.5"/><polygon class="cls-2" points="127.63 43.52 133.73 43.52 133.73 26.76 127.63 17.35 127.63 43.52"/><polygon class="cls-1" points="142.98 13.17 142.98 7.1 118.38 7.1 118.38 13.17 127.63 13.17 127.63 13.18 127.63 13.18 133.73 22.58 133.73 13.17 142.98 13.17"/><polygon class="cls-1" points="57.84 7.92 51.67 7.92 51.67 21 57.84 30.51 57.84 7.92"/><polygon class="cls-2" points="58.76 34.69 57.86 34.69 57.85 34.7 57.84 34.69 57.84 34.69 57.84 34.69 51.67 25.18 51.67 43.52 63.03 43.52 64.93 43.52 69 43.52 69 34.69 58.76 34.69"/><polygon class="cls-1" points="57.85 34.7 57.86 34.69 57.84 34.69 57.85 34.7"/><polygon class="cls-2" points="32.95 18.33 35.86 26.88 30.2 43.38 24.4 43.38 32.95 18.33"/><polygon class="cls-1" points="49.12 43.45 43.33 43.45 42.15 39.95 33.86 15.65 36.75 7.2 49.12 43.45"/><path class="cls-3" d="M172.11,12.3a12.51,12.51,0,1,0,12.51,12.51A12.51,12.51,0,0,0,172.11,12.3Zm7.44,12.83A7.5,7.5,0,1,1,166,20.38a1.16,1.16,0,0,1,1.07-.55,2.29,2.29,0,0,1,.16.33c.09.22.22.33.34.33s.39-.21.58-.63a2.25,2.25,0,0,1,1.49-1.53l.28,0c.12,0,.19-.08.19-.14a.46.46,0,0,0-.22-.37,6.14,6.14,0,0,1,2.39-.41,5.54,5.54,0,0,1,1.34.13c.63.17,1.13.48,1.1.68s-.33.31-.67.26a1.86,1.86,0,0,0-1.24.53c-.36.34-.59.75-.53.9a.89.89,0,0,0,.28.35.67.67,0,0,1,.25.2.19.19,0,0,0,.25.06.42.42,0,0,0,.12-.37.84.84,0,0,1,.36-.56c.2-.16.36-.06.36.2a1.61,1.61,0,0,1-.27.78,2.75,2.75,0,0,1-.76.54c-.29.14-1.19,0-1.44.3s.31.42,0,.57-.39,0-.48.19-.14.49,0,.62.72-.08.75-.27.21-.23.37-.2a.57.57,0,0,0,.45-.12.36.36,0,0,1,.42,0,1.15,1.15,0,0,1,.34.46c.06.16.09.28-.12.41s-.07.14,0,.19a.7.7,0,0,0,.43,0,.53.53,0,0,0,.17-.33c0-.07.19,0,.27-.06s0-.09-.11-.28-.4-.25-.45-.56c0-.11.28-.15.54-.14a.76.76,0,0,1,.62.65c.07.35.21.64.32.64s.12.59-.11.65a2.18,2.18,0,0,1-1.08,0,16.39,16.39,0,0,0-1.72-.39c-.28-.05-.47-.23-.68-.25a1.58,1.58,0,0,0-.91.38,1.34,1.34,0,0,0-1,.9,2.13,2.13,0,0,0,.06,1.05,1.37,1.37,0,0,0,.89.59,3,3,0,0,1,1.33,1.08,15.51,15.51,0,0,1,.38,1.95,2.7,2.7,0,0,0,.51,1.47,1.34,1.34,0,0,0,1.4-.66,11.34,11.34,0,0,0,.29-2.5c.08-.29,1-1,1-1.27a1.63,1.63,0,0,0-.06-.67,3.57,3.57,0,0,1-.39-1.2c.05,0,.23.25.39.62a.69.69,0,0,0,.81.48c.28-.1.34-.54.11-1a9.83,9.83,0,0,1,2,0,2.5,2.5,0,0,1,1.22.42A.46.46,0,0,1,179.55,25.13Z"/><path class="cls-3" d="M189.61,22a3,3,0,0,1,.88-2.52,3.24,3.24,0,0,1,4.17,0,3.08,3.08,0,0,1,.88,2.52v5.61a2.86,2.86,0,0,1-3,3.28,2.93,2.93,0,0,1-2.08-.76,3.09,3.09,0,0,1-.88-2.52Zm4.22-.25a1.29,1.29,0,0,0-.35-1,1.29,1.29,0,0,0-2.2,1v6.12a1.3,1.3,0,0,0,.36,1,1.28,1.28,0,0,0,2.19-1Z"/><path class="cls-3" d="M199.75,18.87a4,4,0,0,1,2.24.57,3.1,3.1,0,0,1,1.09,2.72,2.53,2.53,0,0,1-.51,1.85,2.65,2.65,0,0,1-.64.55,1.74,1.74,0,0,1,.81.74,2.45,2.45,0,0,1,.34,1.5v.9a2.93,2.93,0,0,1-1,2.47,3.22,3.22,0,0,1-2,.56H197.5V18.9h2.25Zm-.59,4.89H200a1.38,1.38,0,0,0,1.09-.43,1.65,1.65,0,0,0,.33-1v-.73a1.21,1.21,0,0,0-.33-.81,1.49,1.49,0,0,0-1.1-.39h-.8Zm0,5.41h.77a1.36,1.36,0,0,0,1.15-.53,2.23,2.23,0,0,0,.31-1.19v-.56a1.56,1.56,0,0,0-.45-1.31,1.36,1.36,0,0,0-.91-.31h-.85v3.9Z"/><path class="cls-3" d="M204.85,22a3,3,0,0,1,.89-2.52,3,3,0,0,1,2.08-.76,2.91,2.91,0,0,1,2.08.76,3.09,3.09,0,0,1,.89,2.52v5.61a3,3,0,0,1-.89,2.52,3,3,0,0,1-2.08.76,2.91,2.91,0,0,1-2.08-.76,3.1,3.1,0,0,1-.89-2.52Zm4.23-.25a1.27,1.27,0,0,0-.36-1,1.28,1.28,0,0,0-2.19,1v6.12a1.27,1.27,0,0,0,.36,1,1.28,1.28,0,0,0,2.19-1Z"/><path class="cls-3" d="M217.8,18.87v1.3l-3.55,9h3.47v1.52h-5.24V29.22L216,20.39h-3.23V18.87Z"/><path class="cls-3" d="M221.79,18.87a3.43,3.43,0,0,1,2.91.93,3.21,3.21,0,0,1,.62,2.07v.9a2.94,2.94,0,0,1-.62,1.88,2.29,2.29,0,0,1-.9.61l1.86,5.45h-1.75l-1.64-5.1h-1v5.1h-1.7V18.88h2.21Zm-.53,5.21h1a1.38,1.38,0,0,0,1-.39,1.25,1.25,0,0,0,.36-1.08v-.83a1.66,1.66,0,0,0-.39-1.09,1.4,1.4,0,0,0-1.11-.31h-.88v3.7Z"/><path class="cls-3" d="M227.09,18.87h5v1.6h-3.32V24h2.93v1.52h-2.93V29.1h3.37v1.6h-5.07Z"/><path class="cls-3" d="M236.91,30.7h-1.49l-2.5-11.83h1.86L236.15,27h.06l1.42-8.17h1.77Z"/><path class="cls-3" d="M243.92,30.7l-.56-2.54H241.2l-.56,2.54H239l2.58-11.83H243L245.6,30.7Zm-1.68-8.54-.88,4.5h1.79Z"/><path class="cls-3" d="M251.09,18.87v1.6H249V30.7h-1.7V20.47H245.2v-1.6Z"/><path class="cls-3" d="M252.44,18.87h5v1.6h-3.33V24h2.94v1.52h-2.94V29.1h3.37v1.6h-5.06Z"/><path class="cls-3" d="M260.8,18.87V29.1h3.57v1.6h-5.26V18.87Z"/><path class="cls-3" d="M189.78,16.49V12.4h3.32a1.12,1.12,0,0,1,.86.33,1.4,1.4,0,0,1,.31,1,1.42,1.42,0,0,1-.31,1,1.13,1.13,0,0,1-.87.33h-2.71v1.47Zm.6-2h2.69a.55.55,0,0,0,.42-.19.86.86,0,0,0,.16-.58.83.83,0,0,0-.16-.57.52.52,0,0,0-.42-.19h-2.69Z"/><path class="cls-3" d="M197.67,16.55a6.35,6.35,0,0,1-1.77-.17.88.88,0,0,1-.64-.62,6,6,0,0,1-.09-1.3,5.82,5.82,0,0,1,.09-1.31,1,1,0,0,1,.66-.64,6.45,6.45,0,0,1,1.77-.17,6.35,6.35,0,0,1,1.77.17,1,1,0,0,1,.65.62,5.87,5.87,0,0,1,.1,1.31,5.68,5.68,0,0,1-.1,1.31.91.91,0,0,1-.64.62A6.17,6.17,0,0,1,197.67,16.55Zm0-.54a3.66,3.66,0,0,0,1.66-.2c.18-.14.25-.59.25-1.34s-.07-1.21-.25-1.35a7,7,0,0,0-3.32,0c-.17.14-.25.59-.25,1.35s.08,1.2.25,1.34A4,4,0,0,0,197.67,16Z"/><path class="cls-3" d="M203.24,15.9h.06l1.49-3.48h.51l1.49,3.48h.08l1.57-3.48h.64l-1.85,4.07h-.78L205,13.23l-1.4,3.26h-.78L201,12.42h.64Z"/><path class="cls-3" d="M210.07,12.4H214V13h-3.29v1.19h3.19v.55h-3.19v1.24H214v.55h-3.9Z"/><path class="cls-3" d="M215.14,12.4h3.67a1,1,0,0,1,.79.36,1.47,1.47,0,0,1,.28,1,1.41,1.41,0,0,1-.16.76.66.66,0,0,1-.35.28,1,1,0,0,1,.34.23.74.74,0,0,1,.19.5v1h-.61v-1a.39.39,0,0,0-.19-.34.76.76,0,0,0-.46-.14h-2.86v1.48h-.61V12.4Zm.61,2.06h2.79a.89.89,0,0,0,.49-.11.76.76,0,0,0,.23-.64.76.76,0,0,0-.23-.64.86.86,0,0,0-.5-.12h-2.8v1.51Z"/><path class="cls-3" d="M221,12.4h3.9V13h-3.29v1.19h3.19v.55h-3.19v1.24h3.29v.55H221Z"/><path class="cls-3" d="M226.07,12.4h3.41a1.46,1.46,0,0,1,1,.28,2.73,2.73,0,0,1,.4,1.76,2.73,2.73,0,0,1-.4,1.76,1.49,1.49,0,0,1-1,.28h-3.41Zm.6,3.55h2.81a.7.7,0,0,0,.67-.3,2.81,2.81,0,0,0,.17-1.19,2.93,2.93,0,0,0-.17-1.2.71.71,0,0,0-.67-.31h-2.81Z"/><path class="cls-3" d="M239.63,15.29a1.21,1.21,0,0,1-.32.91,1.41,1.41,0,0,1-1,.29h-3.28V12.4h3.14a1.44,1.44,0,0,1,1,.3,1.12,1.12,0,0,1,.32.85.77.77,0,0,1-.46.8.89.89,0,0,1,.42.29A1.29,1.29,0,0,1,239.63,15.29Zm-.76-1.72a.66.66,0,0,0-.14-.44.7.7,0,0,0-.54-.18h-2.52v1.16h2.52a.78.78,0,0,0,.54-.14A.49.49,0,0,0,238.87,13.57Zm-3.22,1.1V16h2.66a.77.77,0,0,0,.53-.17.63.63,0,0,0,.17-.47.63.63,0,0,0-.19-.47.69.69,0,0,0-.51-.18h-2.66Z"/><path class="cls-3" d="M244.92,12.4h.82l-2.41,2.46v1.63h-.6V14.86l-2.41-2.46h.82l1.9,1.95Z"/></g></g></svg>