<svg xmlns="http://www.w3.org/2000/svg" viewBox="0 0 142.87 81.89"><defs><style>.cls-1{fill:#365177;}.cls-2{fill:#0c8cc6;}.cls-3{fill:#39aedf;}.cls-4{fill:#14b6ec;}.cls-5{fill:#0092d3;}</style></defs><title>iTalent_logo_vertical</title><g id="Layer_2" data-name="Layer 2"><g id="Слой_1" data-name="Слой 1"><path class="cls-1" d="M24.16,55.63A13.13,13.13,0,1,0,37.29,68.76,13.13,13.13,0,0,0,24.16,55.63ZM32,69.1a7.88,7.88,0,0,1-15.74-.41,7.79,7.79,0,0,1,1.47-4.58,1.21,1.21,0,0,1,1.13-.57s.06.11.16.34.23.34.36.34.41-.21.6-.65a3.09,3.09,0,0,1,.75-1.16,2.79,2.79,0,0,1,.82-.45l.29-.05c.13,0,.2-.08.2-.15a.48.48,0,0,0-.23-.39,6.5,6.5,0,0,1,2.51-.43,5.62,5.62,0,0,1,1.4.14c.67.17,1.19.5,1.16.71s-.34.33-.7.28a1.88,1.88,0,0,0-1.3.56c-.38.35-.62.78-.56.94a.87.87,0,0,0,.29.36.76.76,0,0,1,.27.21.21.21,0,0,0,.26.07.48.48,0,0,0,.13-.39.83.83,0,0,1,.37-.59c.21-.16.38-.07.38.21a1.64,1.64,0,0,1-.28.82,3,3,0,0,1-.8.57c-.31.14-1.26,0-1.52.31s.33.44,0,.6-.41,0-.51.2-.14.52,0,.65.75-.08.79-.28.23-.24.39-.21a.59.59,0,0,0,.47-.13A.36.36,0,0,1,25,66a1.21,1.21,0,0,1,.36.49c.07.16.1.29-.13.42-.08.05-.06.15,0,.2a.73.73,0,0,0,.46,0,.63.63,0,0,0,.18-.34c0-.08.2,0,.28-.07s0-.09-.12-.29-.42-.26-.47-.59c0-.11.29-.16.57-.14a.78.78,0,0,1,.65.68c.07.36.22.67.33.67s.13.62-.11.69a2.55,2.55,0,0,1-1.13,0,17.21,17.21,0,0,0-1.81-.41c-.29,0-.49-.24-.72-.26a1.63,1.63,0,0,0-.95.39,1.46,1.46,0,0,0-1,.95,2.24,2.24,0,0,0,.07,1.11,1.48,1.48,0,0,0,.93.62,3.07,3.07,0,0,1,1.4,1.12,14.33,14.33,0,0,1,.39,2.06,2.73,2.73,0,0,0,.54,1.53,1.41,1.41,0,0,0,1.47-.68,12.09,12.09,0,0,0,.31-2.63c.08-.31,1-1,1.08-1.34a1.71,1.71,0,0,0-.07-.7,4,4,0,0,1-.41-1.25c.05,0,.25.26.41.65a.73.73,0,0,0,.85.5c.29-.11.36-.57.11-1a10.18,10.18,0,0,1,2.06,0,2.68,2.68,0,0,1,1.27.44A.49.49,0,0,1,32,69.1Z"/><path class="cls-1" d="M42.53,65.79a3,3,0,0,1,3.12-3.44,3,3,0,0,1,2.18.8,3.22,3.22,0,0,1,.93,2.64v5.89a3.16,3.16,0,0,1-.93,2.64,3.12,3.12,0,0,1-2.18.8,3.06,3.06,0,0,1-2.19-.8,3.22,3.22,0,0,1-.93-2.64ZM47,65.53a1.37,1.37,0,0,0-2.3-1.08,1.33,1.33,0,0,0-.38,1.08V72A1.37,1.37,0,0,0,46.59,73,1.36,1.36,0,0,0,47,72Z"/><path class="cls-1" d="M53.18,62.53a4.18,4.18,0,0,1,2.35.6A3.23,3.23,0,0,1,56.67,66a2.69,2.69,0,0,1-.53,1.94,3.13,3.13,0,0,1-.67.57,1.79,1.79,0,0,1,.84.78,2.54,2.54,0,0,1,.36,1.57v.94a3.07,3.07,0,0,1-1.06,2.6,3.42,3.42,0,0,1-2.1.58H50.82V62.56h2.36Zm-.62,5.14h.85a1.45,1.45,0,0,0,1.14-.46,1.75,1.75,0,0,0,.35-1.06v-.77a1.3,1.3,0,0,0-.35-.85,1.57,1.57,0,0,0-1.16-.4h-.83Zm0,5.67h.8a1.43,1.43,0,0,0,1.21-.55,2.45,2.45,0,0,0,.33-1.26V71a1.65,1.65,0,0,0-.48-1.38,1.38,1.38,0,0,0-.94-.32h-.9v4.09Z"/><path class="cls-1" d="M58.53,65.79a3.19,3.19,0,0,1,.93-2.64,3.15,3.15,0,0,1,2.19-.8,3.06,3.06,0,0,1,2.19.8,3.26,3.26,0,0,1,.93,2.64v5.89a3.19,3.19,0,0,1-.93,2.64,3.15,3.15,0,0,1-2.19.8,3.06,3.06,0,0,1-2.19-.8,3.26,3.26,0,0,1-.93-2.64ZM63,65.53a1.35,1.35,0,0,0-.37-1.08,1.4,1.4,0,0,0-1-.36,1.27,1.27,0,0,0-1.33,1.44V72a1.27,1.27,0,0,0,1.33,1.43A1.27,1.27,0,0,0,63,72Z"/><path class="cls-1" d="M72.12,62.53V63.9L68.4,73.36H72V75h-5.5V73.39l3.64-9.26H66.79v-1.6Z"/><path class="cls-1" d="M76.32,62.53a3.61,3.61,0,0,1,3.05,1A3.42,3.42,0,0,1,80,65.68v.94a3.17,3.17,0,0,1-.65,2,2.33,2.33,0,0,1-1,.63l2,5.73H78.53l-1.71-5.35h-1V75H74V62.54h2.32ZM75.76,68h1a1.45,1.45,0,0,0,1.1-.41,1.29,1.29,0,0,0,.37-1.12v-.88a1.69,1.69,0,0,0-.41-1.14,1.44,1.44,0,0,0-1.16-.33h-.93V68Z"/><path class="cls-1" d="M81.88,62.53h5.27v1.68H83.66v3.65h3.08v1.6H83.66v3.8H87.2v1.68H81.88Z"/><path class="cls-1" d="M92.19,74.94H90.62L88,62.53h2l1.44,8.58h.06l1.49-8.58H94.8Z"/><path class="cls-1" d="M99.55,74.94,99,72.28H96.69l-.59,2.66H94.33L97,62.53H98.6l2.71,12.41Zm-1.77-9-.93,4.71h1.88Z"/><path class="cls-1" d="M107.07,62.53v1.68h-2.21V74.94h-1.77V64.21h-2.21V62.53Z"/><path class="cls-1" d="M108.49,62.53h5.27v1.68h-3.5v3.65h3.09v1.6h-3.09v3.8h3.54v1.68h-5.31Z"/><path class="cls-1" d="M117.26,62.53V73.26H121v1.68h-5.54V62.53Z"/><path class="cls-1" d="M42.71,60V55.74H46.2a1.21,1.21,0,0,1,.9.34,1.82,1.82,0,0,1,0,2.06,1.19,1.19,0,0,1-.92.34H43.35V60Zm.64-2.14h2.82a.56.56,0,0,0,.44-.19.93.93,0,0,0,.16-.61.92.92,0,0,0-.16-.6.56.56,0,0,0-.44-.19H43.35Z"/><path class="cls-1" d="M51,60.1a6.81,6.81,0,0,1-1.86-.18.92.92,0,0,1-.67-.66,9.43,9.43,0,0,1,0-2.74,1,1,0,0,1,.68-.66A6.62,6.62,0,0,1,51,55.68a6.43,6.43,0,0,1,1.86.18,1,1,0,0,1,.69.65,6.34,6.34,0,0,1,.1,1.37,6.15,6.15,0,0,1-.1,1.37,1,1,0,0,1-.67.65A6.37,6.37,0,0,1,51,60.1Zm0-.57a3.72,3.72,0,0,0,1.74-.22c.18-.14.26-.62.26-1.4s-.08-1.27-.26-1.42A3.75,3.75,0,0,0,51,56.28a3.77,3.77,0,0,0-1.75.21c-.18.15-.26.62-.26,1.42s.08,1.26.26,1.4A4.09,4.09,0,0,0,51,59.53Z"/><path class="cls-1" d="M56.84,59.41h.06l1.57-3.65H59l1.56,3.65h.08l1.65-3.65H63L61,60h-.82l-1.48-3.42L57.26,60h-.81l-2-4.27h.67Z"/><path class="cls-1" d="M64,55.74h4.1v.57H64.65v1.26H68v.57H64.65v1.3h3.46V60H64Z"/><path class="cls-1" d="M69.33,55.74h3.85a1,1,0,0,1,.84.38,1.58,1.58,0,0,1,.29,1,1.55,1.55,0,0,1-.16.8.79.79,0,0,1-.38.29,1,1,0,0,1,.36.25.75.75,0,0,1,.2.52V60h-.64V59a.44.44,0,0,0-.2-.36.77.77,0,0,0-.49-.14H70V60h-.63V55.74ZM70,57.89h2.94a.84.84,0,0,0,.5-.11.78.78,0,0,0,.25-.67.79.79,0,0,0-.25-.67.9.9,0,0,0-.52-.13H70v1.58Z"/><path class="cls-1" d="M75.47,55.74h4.09v.57H76.1v1.26h3.35v.57H76.1v1.3h3.46V60H75.47Z"/><path class="cls-1" d="M80.8,55.74h3.59a1.54,1.54,0,0,1,1.08.29,2.92,2.92,0,0,1,.42,1.85,2.86,2.86,0,0,1-.42,1.84,1.52,1.52,0,0,1-1.08.3H80.8Zm.64,3.72h3a.73.73,0,0,0,.7-.31,4.47,4.47,0,0,0,0-2.51.74.74,0,0,0-.7-.33h-3Z"/><path class="cls-1" d="M95,58.78a1.2,1.2,0,0,1-.34.94,1.45,1.45,0,0,1-1,.31H90.25V55.74h3.29a1.47,1.47,0,0,1,1,.31,1.16,1.16,0,0,1,.35.9.81.81,0,0,1-.49.83,1,1,0,0,1,.44.31A1.39,1.39,0,0,1,95,58.78ZM94.24,57a.64.64,0,0,0-.14-.45.74.74,0,0,0-.57-.2H90.88v1.23h2.65a.87.87,0,0,0,.57-.15A.53.53,0,0,0,94.24,57Zm-3.37,1.16v1.34h2.79a.78.78,0,0,0,.55-.18.63.63,0,0,0,.18-.49.67.67,0,0,0-.19-.49.74.74,0,0,0-.54-.19H90.87Z"/><path class="cls-1" d="M100.59,55.74h.86l-2.52,2.58V60h-.64V58.32l-2.53-2.58h.87l2,2Z"/><polygon class="cls-2" points="13.12 45.98 21.78 45.98 21.78 31.25 13.12 18.38 13.12 45.98"/><polygon class="cls-3" points="0.03 8.72 13.12 8.72 13.12 8.71 13.12 14.3 21.78 27.07 21.78 8.72 34.94 8.72 34.9 0 0 0 0.03 8.72"/><polygon class="cls-2" points="77.49 36.87 71.36 27.41 71.39 46.12 91.89 46.12 91.89 37.29 77.49 37.29 77.49 36.87"/><polygon class="cls-3" points="77.5 19.28 91.86 19.28 91.86 10.46 71.33 10.46 71.35 23.21 77.49 32.69 77.49 32.68 91.89 32.73 91.89 23.91 77.53 23.91 77.5 19.28"/><polygon class="cls-2" points="94.43 46.12 100.17 46.12 100.17 34.58 94.42 25.7 94.43 46.12"/><polygon class="cls-3" points="110.18 18.1 110.02 18.33 110.02 33.09 95.32 10.46 94.4 10.46 94.41 21.51 106.7 40.47 106.69 40.48 110.34 46.12 115.76 46.12 115.76 9.51 110.18 18.1"/><polygon class="cls-2" points="127.51 46.12 133.62 46.12 133.62 31.04 127.51 22.63 127.51 46.12"/><polygon class="cls-3" points="142.87 15.77 142.87 9.7 118.26 9.7 118.26 15.77 127.51 15.77 127.51 15.78 127.52 15.78 127.51 19.67 133.62 28.18 133.62 15.77 142.87 15.77"/><polygon class="cls-3" points="57.73 10.52 51.56 10.52 51.56 23.6 57.73 33.11 57.73 10.52"/><polygon class="cls-2" points="58.65 37.29 57.75 37.29 57.73 37.3 57.73 37.29 57.73 37.29 57.73 37.29 51.56 27.78 51.56 46.12 62.92 46.12 64.81 46.12 68.88 46.12 68.88 37.29 58.65 37.29"/><polygon class="cls-3" points="57.73 37.3 57.75 37.29 57.73 37.29 57.73 37.3"/><polygon class="cls-2" points="32.84 20.93 35.75 29.48 30.08 45.98 24.29 45.98 32.84 20.93"/><polygon class="cls-3" points="49.01 46.05 43.22 46.05 42.04 42.55 33.75 18.25 36.63 9.8 49.01 46.05"/><polygon class="cls-4" points="6.43 12.06 6.43 24.7 0 16.27 0 12.06 6.43 12.06"/><polygon class="cls-5" points="0 20.07 6.43 28.52 6.43 46.08 0 46.08 0 20.07"/></g></g></svg>