<svg xmlns="http://www.w3.org/2000/svg" viewBox="0 0 267.47 46.12"><defs><style>.cls-1{fill:#365177;}.cls-2{fill:#0c8cc6;}.cls-3{fill:#39aedf;}.cls-4{fill:#14b6ec;}.cls-5{fill:#0092d3;}</style></defs><title>iTalent_logo_hoeizontal</title><g id="Layer_2" data-name="Layer 2"><g id="Слой_1" data-name="Слой 1"><path class="cls-1" d="M175.2,16.48A12.52,12.52,0,1,0,187.71,29,12.52,12.52,0,0,0,175.2,16.48Zm7.44,12.84a7.5,7.5,0,0,1-15-.39,7.37,7.37,0,0,1,1.4-4.36,1.15,1.15,0,0,1,1.07-.55s.06.11.15.33.22.32.35.32.38-.2.57-.62a2.78,2.78,0,0,1,.72-1.1,3,3,0,0,1,.77-.44l.28,0c.13,0,.19-.08.19-.14a.5.5,0,0,0-.22-.38,6.34,6.34,0,0,1,2.39-.4,6,6,0,0,1,1.34.12c.64.18,1.14.49,1.1.69s-.32.31-.66.26a1.86,1.86,0,0,0-1.25.53c-.35.34-.59.75-.53.9a.85.85,0,0,0,.28.34.82.82,0,0,1,.25.21.2.2,0,0,0,.25.06.45.45,0,0,0,.13-.37.78.78,0,0,1,.35-.56c.2-.16.36-.07.36.2a1.64,1.64,0,0,1-.26.78,2.81,2.81,0,0,1-.77.54c-.29.14-1.19,0-1.44.29s.31.42,0,.58-.38,0-.48.19-.14.49,0,.62.72-.08.75-.27.22-.23.37-.2a.56.56,0,0,0,.45-.12.33.33,0,0,1,.42,0,1.07,1.07,0,0,1,.34.46c.07.16.1.28-.12.41s-.06.14,0,.18a.67.67,0,0,0,.44,0,.66.66,0,0,0,.17-.33c0-.08.18,0,.26-.06s0-.09-.11-.28-.4-.25-.45-.56c0-.11.28-.15.55-.14a.76.76,0,0,1,.62.65c.06.35.2.64.31.64s.12.59-.11.65a2.14,2.14,0,0,1-1.07,0,16.42,16.42,0,0,0-1.73-.39c-.28-.05-.46-.23-.68-.25a1.49,1.49,0,0,0-.9.37,1.39,1.39,0,0,0-1,.91,2.13,2.13,0,0,0,.07,1.05,1.32,1.32,0,0,0,.88.59,3.06,3.06,0,0,1,1.34,1.07,14.64,14.64,0,0,1,.37,2,2.62,2.62,0,0,0,.51,1.46,1.32,1.32,0,0,0,1.4-.65,12.15,12.15,0,0,0,.3-2.5c.08-.3,1-1,1-1.28a1.42,1.42,0,0,0-.06-.66,4.3,4.3,0,0,1-.39-1.2c.05,0,.24.25.39.62a.71.71,0,0,0,.81.48c.28-.11.34-.54.11-1a10.72,10.72,0,0,1,2,0,2.49,2.49,0,0,1,1.21.42A.46.46,0,0,1,182.64,29.32Z"/><path class="cls-1" d="M192.7,26.17a3,3,0,0,1,.88-2.52,3,3,0,0,1,2.09-.76,2.93,2.93,0,0,1,2.08.76,3.08,3.08,0,0,1,.89,2.52v5.61a3,3,0,0,1-.89,2.51,3,3,0,0,1-2.08.77,2.91,2.91,0,0,1-2.09-.77,3.09,3.09,0,0,1-.88-2.51Zm4.23-.25a1.27,1.27,0,0,0-.36-1,1.28,1.28,0,0,0-2.19,1V32a1.29,1.29,0,0,0,.35,1,1.41,1.41,0,0,0,1.84,0,1.29,1.29,0,0,0,.36-1Z"/><path class="cls-1" d="M202.85,23.06a4,4,0,0,1,2.24.57,3.08,3.08,0,0,1,1.08,2.72,2.54,2.54,0,0,1-.51,1.85,2.65,2.65,0,0,1-.64.55,1.7,1.7,0,0,1,.81.74,2.44,2.44,0,0,1,.34,1.49v.91a2.94,2.94,0,0,1-1,2.47,3.22,3.22,0,0,1-2,.56h-2.57V23.09h2.26ZM202.26,28h.8a1.38,1.38,0,0,0,1.09-.43,1.65,1.65,0,0,0,.33-1v-.73a1.21,1.21,0,0,0-.33-.81,1.49,1.49,0,0,0-1.1-.39h-.79Zm0,5.41H203a1.35,1.35,0,0,0,1.15-.53,2.25,2.25,0,0,0,.31-1.19v-.56a1.56,1.56,0,0,0-.45-1.31,1.3,1.3,0,0,0-.9-.31h-.86v3.9Z"/><path class="cls-1" d="M207.94,26.17a3,3,0,0,1,.89-2.52,3.24,3.24,0,0,1,4.17,0,3.1,3.1,0,0,1,.88,2.52v5.61a2.87,2.87,0,0,1-3,3.28,2.89,2.89,0,0,1-2.08-.77,3.07,3.07,0,0,1-.89-2.51Zm4.23-.25a1.21,1.21,0,0,0-1.27-1.37,1.32,1.32,0,0,0-.92.34,1.29,1.29,0,0,0-.36,1V32a1.27,1.27,0,0,0,.36,1,1.32,1.32,0,0,0,.92.34,1.27,1.27,0,0,0,.91-.34,1.29,1.29,0,0,0,.36-1Z"/><path class="cls-1" d="M220.89,23.06v1.3l-3.54,9h3.46V34.9h-5.23V33.41L219,24.58h-3.23V23.06Z"/><path class="cls-1" d="M224.88,23.06a3.43,3.43,0,0,1,2.91.93,3.21,3.21,0,0,1,.62,2.07V27a2.94,2.94,0,0,1-.62,1.88,2.29,2.29,0,0,1-.9.61l1.86,5.45H227l-1.63-5.1h-1v5.1h-1.69V23.07h2.2Zm-.52,5.2h1a1.37,1.37,0,0,0,1-.38,1.25,1.25,0,0,0,.36-1.08V26a1.6,1.6,0,0,0-.39-1.08,1.34,1.34,0,0,0-1.1-.31h-.89v3.69Z"/><path class="cls-1" d="M230.18,23.06h5v1.6h-3.32v3.48h2.94v1.52h-2.94v3.62h3.37v1.6h-5.07Z"/><path class="cls-1" d="M240,34.88h-1.5L236,23.06h1.87l1.36,8.17h.07l1.41-8.17h1.77Z"/><path class="cls-1" d="M247,34.88l-.56-2.53H244.3l-.56,2.53H242l2.58-11.82h1.49l2.58,11.82Zm-1.68-8.53-.89,4.49h1.79Z"/><path class="cls-1" d="M254.18,23.06v1.6h-2.1V34.88h-1.69V24.66h-2.1v-1.6Z"/><path class="cls-1" d="M255.53,23.06h5v1.6h-3.32v3.48h2.93v1.52h-2.93v3.62h3.37v1.6h-5.07Z"/><path class="cls-1" d="M263.89,23.06V33.28h3.58v1.6H262.2V23.06Z"/><path class="cls-1" d="M192.87,20.68V16.59h3.33a1.11,1.11,0,0,1,.85.33,1.4,1.4,0,0,1,.31,1,1.42,1.42,0,0,1-.31,1,1.13,1.13,0,0,1-.87.32h-2.7v1.48Zm.61-2h2.68a.52.52,0,0,0,.42-.18.86.86,0,0,0,.16-.58.83.83,0,0,0-.16-.57.5.5,0,0,0-.42-.19h-2.68Z"/><path class="cls-1" d="M200.76,20.74a6.35,6.35,0,0,1-1.77-.17.85.85,0,0,1-.63-.62,5.25,5.25,0,0,1-.1-1.31,5,5,0,0,1,.1-1.3.93.93,0,0,1,.65-.64,6.45,6.45,0,0,1,1.77-.17,6.25,6.25,0,0,1,1.77.17,1,1,0,0,1,.65.62,5.31,5.31,0,0,1,.1,1.31,5,5,0,0,1-.1,1.3.91.91,0,0,1-.63.63A6.3,6.3,0,0,1,200.76,20.74Zm0-.54a3.69,3.69,0,0,0,1.67-.2c.17-.14.25-.59.25-1.34s-.08-1.21-.25-1.35a7,7,0,0,0-3.33,0c-.17.14-.25.59-.25,1.35s.08,1.2.25,1.34A4,4,0,0,0,200.76,20.2Z"/><path class="cls-1" d="M206.33,20.09h.06l1.49-3.48h.52l1.49,3.48H210l1.56-3.48h.64l-1.85,4.07h-.77l-1.42-3.26-1.4,3.26H206l-1.85-4.07h.63Z"/><path class="cls-1" d="M213.17,16.59h3.9v.55h-3.3v1.19H217v.55h-3.19v1.24h3.3v.54h-3.9Z"/><path class="cls-1" d="M218.23,16.59h3.67a1,1,0,0,1,.79.36,1.47,1.47,0,0,1,.28.95,1.42,1.42,0,0,1-.15.76.74.74,0,0,1-.36.28,1,1,0,0,1,.34.23.69.69,0,0,1,.19.5v1h-.61v-1a.41.41,0,0,0-.18-.34.79.79,0,0,0-.47-.14h-2.86v1.47h-.61V16.59Zm.61,2.05h2.8a.86.86,0,0,0,.48-.1,1,1,0,0,0,0-1.28.86.86,0,0,0-.5-.12h-2.8v1.5Z"/><path class="cls-1" d="M224.08,16.59H228v.55h-3.3v1.19h3.19v.55h-3.19v1.24H228v.54h-3.9Z"/><path class="cls-1" d="M229.16,16.59h3.42a1.45,1.45,0,0,1,1,.28,2.66,2.66,0,0,1,.41,1.76,2.68,2.68,0,0,1-.41,1.76,1.47,1.47,0,0,1-1,.27h-3.42Zm.6,3.55h2.82a.71.71,0,0,0,.67-.3,3,3,0,0,0,.17-1.2,3.06,3.06,0,0,0-.17-1.19.72.72,0,0,0-.67-.31h-2.82Z"/><path class="cls-1" d="M242.73,19.48a1.18,1.18,0,0,1-.33.91,1.38,1.38,0,0,1-1,.29h-3.28V16.59h3.14a1.4,1.4,0,0,1,1,.3,1.09,1.09,0,0,1,.33.85.78.78,0,0,1-.47.8.89.89,0,0,1,.42.29A1.3,1.3,0,0,1,242.73,19.48ZM242,17.76a.61.61,0,0,0-.14-.44.69.69,0,0,0-.54-.18h-2.52V18.3h2.52a.76.76,0,0,0,.54-.14A.48.48,0,0,0,242,17.76Zm-3.21,1.1v1.28h2.65a.8.8,0,0,0,.53-.17.6.6,0,0,0,.17-.47.66.66,0,0,0-.18-.47.73.73,0,0,0-.52-.18h-2.65Z"/><path class="cls-1" d="M248,16.59h.82l-2.41,2.46v1.63h-.6V19.05l-2.41-2.46h.82l1.9,1.95Z"/><polygon class="cls-2" points="13.12 45.98 21.78 45.98 21.78 31.25 13.12 18.38 13.12 45.98"/><polygon class="cls-3" points="0.03 8.72 13.12 8.72 13.12 8.71 13.12 14.3 21.78 27.07 21.78 8.72 34.94 8.72 34.9 0 0 0 0.03 8.72"/><polygon class="cls-2" points="77.49 36.87 71.36 27.41 71.39 46.12 91.89 46.12 91.89 37.29 77.49 37.29 77.49 36.87"/><polygon class="cls-3" points="77.5 19.28 91.86 19.28 91.86 10.46 71.33 10.46 71.35 23.21 77.49 32.69 77.49 32.68 91.89 32.73 91.89 23.91 77.53 23.91 77.5 19.28"/><polygon class="cls-2" points="94.43 46.12 100.17 46.12 100.17 34.58 94.42 25.7 94.43 46.12"/><polygon class="cls-3" points="110.18 18.1 110.02 18.33 110.02 33.09 95.32 10.46 94.4 10.46 94.41 21.51 106.7 40.47 106.69 40.48 110.34 46.12 115.76 46.12 115.76 9.51 110.18 18.1"/><polygon class="cls-2" points="127.51 46.12 133.62 46.12 133.62 31.04 127.51 22.63 127.51 46.12"/><polygon class="cls-3" points="142.87 15.77 142.87 9.7 118.26 9.7 118.26 15.77 127.51 15.77 127.51 15.78 127.52 15.78 127.51 19.67 133.62 28.18 133.62 15.77 142.87 15.77"/><polygon class="cls-3" points="57.73 10.52 51.56 10.52 51.56 23.6 57.73 33.11 57.73 10.52"/><polygon class="cls-2" points="58.65 37.29 57.75 37.29 57.73 37.3 57.73 37.29 57.73 37.29 57.73 37.29 51.56 27.78 51.56 46.12 62.92 46.12 64.81 46.12 68.88 46.12 68.88 37.29 58.65 37.29"/><polygon class="cls-3" points="57.73 37.3 57.75 37.29 57.73 37.29 57.73 37.3"/><polygon class="cls-2" points="32.84 20.93 35.75 29.48 30.08 45.98 24.29 45.98 32.84 20.93"/><polygon class="cls-3" points="49.01 46.05 43.22 46.05 42.04 42.55 33.75 18.25 36.63 9.8 49.01 46.05"/><polygon class="cls-4" points="6.43 12.06 6.43 24.7 0 16.27 0 12.06 6.43 12.06"/><polygon class="cls-5" points="0 20.07 6.43 28.52 6.43 46.08 0 46.08 0 20.07"/></g></g></svg>