<svg xmlns="http://www.w3.org/2000/svg" viewBox="0 0 150.09 95.14"><defs><style>.cls-1{fill:#6baddc;}.cls-2{fill:#4f8bc3;}.cls-3{fill:#405174;}</style></defs><title>Ресурс 3</title><g id="Слой_2" data-name="Слой 2"><g id="Слой_1-2" data-name="Слой 1"><polygon class="cls-1" points="6.41 13.76 0.13 13.76 6.41 23.43 6.41 13.76"/><polygon class="cls-2" points="0.15 45.68 6.56 45.68 6.41 27.83 0 17.95 0.15 45.68"/><polygon class="cls-2" points="13.89 45.68 22.98 45.68 22.98 24.83 13.89 10.81 13.89 45.68"/><polygon class="cls-1" points="0.15 6.42 13.89 6.42 13.89 6.42 22.98 20.44 22.98 6.42 36.79 6.42 36.79 0 0.15 0 0.15 6.42"/><polygon class="cls-2" points="81.46 35.97 75.02 26.04 75.06 45.68 96.58 45.68 96.58 36.41 81.46 36.41 81.46 35.97"/><polygon class="cls-1" points="81.47 17.51 96.55 17.51 96.55 8.25 74.99 8.25 75.02 21.64 81.46 31.58 81.46 31.57 96.58 31.63 96.58 22.37 81.5 22.37 81.47 17.51"/><polygon class="cls-2" points="99.25 45.68 105.27 45.68 105.27 33.57 99.23 24.25 99.25 45.68"/><polygon class="cls-1" points="115.78 16.27 115.6 16.51 115.6 32.01 100.18 8.25 99.21 8.25 99.22 19.85 112.13 39.75 112.11 39.76 115.95 45.68 121.63 45.68 121.63 7.25 115.78 16.27"/><polygon class="cls-2" points="133.97 45.68 140.38 45.68 140.38 28.09 133.97 18.21 133.97 45.68"/><polygon class="cls-1" points="150.09 13.83 150.09 7.46 124.26 7.46 124.26 13.83 133.97 13.83 133.97 13.84 133.98 13.83 140.38 23.7 140.38 13.83 150.09 13.83"/><polygon class="cls-1" points="60.72 8.32 54.24 8.32 54.24 22.04 60.72 32.02 60.72 8.32"/><polygon class="cls-2" points="61.68 36.41 60.73 36.41 60.72 36.42 60.72 36.41 60.72 36.41 60.72 36.41 54.24 26.43 54.24 45.68 66.17 45.68 68.16 45.68 72.42 45.68 72.42 36.41 61.68 36.41"/><polygon class="cls-1" points="60.72 36.42 60.73 36.41 60.72 36.41 60.72 36.42"/><polygon class="cls-2" points="34.59 19.25 37.64 28.22 31.7 45.54 25.61 45.54 34.59 19.25"/><polygon class="cls-1" points="51.56 45.61 45.48 45.61 44.24 41.93 35.55 16.43 38.57 7.56 51.56 45.61"/><path class="cls-3" d="M26.48,68.87A13.14,13.14,0,1,0,39.62,82,13.13,13.13,0,0,0,26.48,68.87ZM34.3,82.35a7.88,7.88,0,1,1-14.28-5,1.21,1.21,0,0,1,1.13-.57s.06.12.16.35.23.34.36.34.41-.21.6-.65A2.83,2.83,0,0,1,23,75.66a2.89,2.89,0,0,1,.81-.46l.29,0c.13,0,.2-.08.2-.14a.51.51,0,0,0-.23-.4,6.71,6.71,0,0,1,2.51-.42,6.08,6.08,0,0,1,1.41.13c.67.18,1.19.51,1.16.72s-.35.32-.71.28a1.87,1.87,0,0,0-1.3.55c-.38.36-.62.78-.56.95a1,1,0,0,0,.3.36.83.83,0,0,1,.26.21.21.21,0,0,0,.26.06.45.45,0,0,0,.13-.39c0-.16.16-.42.38-.59s.37-.06.37.22a1.63,1.63,0,0,1-.28.81,2.57,2.57,0,0,1-.8.57c-.31.15-1.25,0-1.51.31s.32.44,0,.61-.4,0-.5.19-.15.52,0,.65.75-.08.78-.27.23-.25.39-.21a.6.6,0,0,0,.48-.14.39.39,0,0,1,.44,0,1.19,1.19,0,0,1,.35.49c.07.17.1.3-.13.43-.08.05-.06.14,0,.19a.69.69,0,0,0,.45,0,.59.59,0,0,0,.18-.35c0-.08.2,0,.28-.06s0-.1-.11-.29S28,79.35,27.9,79c0-.12.3-.16.57-.15a.81.81,0,0,1,.66.69c.06.36.21.67.32.67s.13.62-.11.68a2.28,2.28,0,0,1-1.13,0c-.7-.19-1.56-.37-1.81-.4s-.49-.25-.72-.26a1.59,1.59,0,0,0-.94.39,1.41,1.41,0,0,0-1,.94,2.25,2.25,0,0,0,.06,1.11,1.41,1.41,0,0,0,.93.62,3.1,3.1,0,0,1,1.4,1.13,15.07,15.07,0,0,1,.4,2A2.75,2.75,0,0,0,27.05,88a1.41,1.41,0,0,0,1.47-.69,12,12,0,0,0,.31-2.62c.08-.31,1-1,1.08-1.34a1.68,1.68,0,0,0-.07-.7,4.15,4.15,0,0,1-.4-1.26s.24.26.4.65a.75.75,0,0,0,.85.51c.3-.12.36-.57.12-1a11.76,11.76,0,0,1,2.05,0,2.55,2.55,0,0,1,1.27.45A.51.51,0,0,1,34.3,82.35Z"/><path class="cls-3" d="M44.85,79a3.21,3.21,0,0,1,.93-2.65,3.15,3.15,0,0,1,2.19-.8,3.06,3.06,0,0,1,2.18.8A3.24,3.24,0,0,1,51.08,79v5.88a3.18,3.18,0,0,1-.93,2.65,3.38,3.38,0,0,1-4.37,0,3.24,3.24,0,0,1-.93-2.65Zm4.44-.27A1.28,1.28,0,0,0,48,77.34a1.33,1.33,0,0,0-1,.36,1.36,1.36,0,0,0-.38,1.07V85.2a1.37,1.37,0,0,0,2.3,1.08,1.33,1.33,0,0,0,.38-1.08Z"/><path class="cls-3" d="M55.51,75.77a4.11,4.11,0,0,1,2.34.61A3.23,3.23,0,0,1,59,79.23a2.67,2.67,0,0,1-.54,1.94,2.63,2.63,0,0,1-.67.57,1.94,1.94,0,0,1,.85.79A2.53,2.53,0,0,1,59,84.09v1a3.06,3.06,0,0,1-1.06,2.59,3.4,3.4,0,0,1-2.11.59H53.14V75.8h2.37Zm-.62,5.14h.84a1.43,1.43,0,0,0,1.15-.46,1.7,1.7,0,0,0,.34-1.06v-.76a1.3,1.3,0,0,0-.34-.85,1.59,1.59,0,0,0-1.16-.41h-.83Zm0,5.68h.8a1.39,1.39,0,0,0,1.2-.56,2.3,2.3,0,0,0,.33-1.25v-.59a1.62,1.62,0,0,0-.47-1.37,1.38,1.38,0,0,0-1-.33h-.9v4.1Z"/><path class="cls-3" d="M60.86,79a3.18,3.18,0,0,1,.93-2.65,3.38,3.38,0,0,1,4.37,0A3.24,3.24,0,0,1,67.09,79v5.88a3.21,3.21,0,0,1-.93,2.65,3.15,3.15,0,0,1-2.19.8,3.06,3.06,0,0,1-2.18-.8,3.24,3.24,0,0,1-.93-2.65Zm4.43-.27A1.27,1.27,0,0,0,64,77.34a1.27,1.27,0,0,0-1.34,1.43V85.2A1.35,1.35,0,0,0,63,86.28a1.4,1.4,0,0,0,1,.36,1.27,1.27,0,0,0,1.33-1.44Z"/><path class="cls-3" d="M74.45,75.77v1.37L70.73,86.6h3.63v1.6H68.87V86.64l3.63-9.27H69.11v-1.6Z"/><path class="cls-3" d="M78.64,75.77a3.59,3.59,0,0,1,3,1,3.36,3.36,0,0,1,.65,2.17v1a3.11,3.11,0,0,1-.65,2,2.46,2.46,0,0,1-1,.64l2,5.72H80.86l-1.72-5.35h-1V88.2H76.32V75.79h2.32Zm-.56,5.47h1a1.43,1.43,0,0,0,1.09-.41,1.28,1.28,0,0,0,.37-1.13v-.88a1.78,1.78,0,0,0-.4-1.14A1.45,1.45,0,0,0,79,77.35h-.93v3.89Z"/><path class="cls-3" d="M84.2,75.77h5.27v1.68H86v3.66h3.08v1.6H86v3.8h3.54v1.68H84.2Z"/><path class="cls-3" d="M94.51,88.19H93L90.32,75.77h2l1.43,8.58h.07l1.48-8.58h1.86Z"/><path class="cls-3" d="M101.87,88.19l-.59-2.66H99l-.58,2.66H96.65l2.71-12.42h1.56l2.71,12.42Zm-1.76-9L99.18,84h1.87Z"/><path class="cls-3" d="M109.39,75.77v1.68h-2.2V88.19h-1.78V77.45h-2.2V75.77Z"/><path class="cls-3" d="M110.81,75.77h5.27v1.68h-3.49v3.66h3.08v1.6h-3.08v3.8h3.54v1.68h-5.32Z"/><path class="cls-3" d="M119.59,75.77V86.51h3.75v1.68h-5.53V75.77Z"/><path class="cls-3" d="M45,73.28V69h3.49a1.17,1.17,0,0,1,.9.34,1.48,1.48,0,0,1,.33,1,1.45,1.45,0,0,1-.33,1,1.18,1.18,0,0,1-.91.35H45.67v1.55Zm.64-2.14h2.82a.56.56,0,0,0,.44-.2,1.2,1.2,0,0,0,0-1.2.56.56,0,0,0-.44-.2H45.67Z"/><path class="cls-3" d="M53.32,73.34a6.43,6.43,0,0,1-1.86-.18.89.89,0,0,1-.67-.65,6.41,6.41,0,0,1-.1-1.37,6.15,6.15,0,0,1,.1-1.37,1,1,0,0,1,.69-.67,7,7,0,0,1,1.86-.18,6.92,6.92,0,0,1,1.86.18,1,1,0,0,1,.68.65,5.79,5.79,0,0,1,.1,1.37,5.57,5.57,0,0,1-.1,1.37,1,1,0,0,1-.67.66A6.36,6.36,0,0,1,53.32,73.34Zm0-.57a3.83,3.83,0,0,0,1.75-.21c.17-.15.26-.62.26-1.4s-.09-1.28-.26-1.42a3.75,3.75,0,0,0-1.75-.22,3.72,3.72,0,0,0-1.75.22c-.18.14-.26.62-.26,1.42s.08,1.25.26,1.4A4.16,4.16,0,0,0,53.32,72.77Z"/><path class="cls-3" d="M59.16,72.66h.07L60.79,69h.54l1.57,3.66H63L64.63,69h.66l-1.94,4.28h-.81l-1.49-3.43-1.47,3.43h-.81L56.83,69h.67Z"/><path class="cls-3" d="M66.34,69h4.09v.57H67v1.25h3.35v.57H67v1.31h3.46v.57H66.34Z"/><path class="cls-3" d="M71.66,69h3.85a1,1,0,0,1,.83.37,1.63,1.63,0,0,1,.29,1,1.55,1.55,0,0,1-.16.8.76.76,0,0,1-.38.29,1,1,0,0,1,.36.24.76.76,0,0,1,.2.53v1.06H76V72.22a.41.41,0,0,0-.19-.36.79.79,0,0,0-.49-.15h-3v1.55h-.64V69Zm.63,2.15h2.94a.8.8,0,0,0,.5-.11.77.77,0,0,0,.25-.67.75.75,0,0,0-.25-.67.9.9,0,0,0-.52-.13H72.28v1.58Z"/><path class="cls-3" d="M77.79,69h4.09v.57H78.43v1.25h3.34v.57H78.43v1.31h3.45v.57H77.79Z"/><path class="cls-3" d="M83.12,69h3.59a1.47,1.47,0,0,1,1.08.29,2.8,2.8,0,0,1,.42,1.84A2.85,2.85,0,0,1,87.79,73a1.55,1.55,0,0,1-1.08.29H83.12Zm.64,3.72h2.95a.75.75,0,0,0,.71-.31,3.18,3.18,0,0,0,.17-1.26,3.22,3.22,0,0,0-.17-1.26.75.75,0,0,0-.71-.32H83.76Z"/><path class="cls-3" d="M97.37,72A1.25,1.25,0,0,1,97,73a1.44,1.44,0,0,1-1,.31H92.57V69h3.3a1.44,1.44,0,0,1,1,.31,1.13,1.13,0,0,1,.34.89.81.81,0,0,1-.49.84.87.87,0,0,1,.44.31A1.27,1.27,0,0,1,97.37,72Zm-.8-1.81a.67.67,0,0,0-.15-.46.73.73,0,0,0-.57-.19H93.21v1.22h2.64a.83.83,0,0,0,.57-.15A.51.51,0,0,0,96.57,70.21Zm-3.38,1.16v1.34H96a.82.82,0,0,0,.55-.18.6.6,0,0,0,.18-.49.66.66,0,0,0-.19-.49.73.73,0,0,0-.54-.2H93.19Z"/><path class="cls-3" d="M102.91,69h.87l-2.53,2.57v1.72h-.64V71.56L98.08,69H99l2,2Z"/></g></g></svg>