<svg width="1610" height="1948" viewBox="0 0 1610 1948" fill="none" xmlns="http://www.w3.org/2000/svg">
<path d="M7.62939e-06 204.5C-2.28882e-05 51.5 -2.28882e-05 183.5 -2.28882e-05 12.2178C51.9592 0.657673 107.226 -3.29115 162.207 2.93627C366.022 26.0269 378.072 167.706 706.221 331.792C871.473 414.431 973.374 465.374 1102.53 449.662C1245.85 432.229 1294.66 348.282 1472.52 340.043C1500.89 338.73 1552.42 336.341 1604 345.604C1604 427 1604 373 1604 480C1604 587 1604 472.843 1604 803.741C1623.42 804.498 1582.32 806.472 1604 803.741C1371.98 794.693 1287.83 555.649 1020.64 540.422C894.726 533.243 780.512 605.886 505.872 706.618C289.143 786.109 207.527 812.594 94.936 800.913C60.8103 797.373 29.1443 789.583 -2.28882e-05 778.958C-6.10352e-05 501 -2.28882e-05 552 -6.10352e-05 501C0 257 -1.52588e-05 430.5 7.62939e-06 204.5Z" fill="url(#paint0_linear)" fill-opacity="0.35"/>
<path d="M1206.77 1339.58C1120.99 1474.86 900.622 1497.35 527.431 1353.8C297.035 1265.18 112.476 1249.29 3.50012 1256C3.50012 1338.3 1.08313 1385.92 3.50012 1342L3.07434 1701.29C3.05701 1704.1 3.04688 1711.31 3.04688 1724.5L3.07434 1701.29C3.17261 1685.4 3.50012 1811.43 3.50012 1794C90.4799 1736.63 287.839 1671.99 287.839 1671.99C287.839 1671.99 545.623 1570.24 821.251 1815.53C967.366 1945.57 1432.4 2038.61 1605.01 1803V1732.83C1605.01 1716.34 1605.01 1699 1605.01 1681.41L1605.01 1566L1605.01 1373C1605.01 1375.88 1605.01 1374.2 1605.01 1329C1605.01 1279.23 1605.01 1315.88 1605.01 1304.43V1210.63C1475.69 1214.55 1267.67 1243.54 1206.77 1339.58Z" fill="url(#paint1_linear)" fill-opacity="0.3"/>
<defs>
<linearGradient id="paint0_linear" x1="1568.5" y1="242.002" x2="184.502" y2="786.002" gradientUnits="userSpaceOnUse">
<stop stop-color="#ACB6E5"/>
<stop offset="1" stop-color="#74EBD5" stop-opacity="0"/>
</linearGradient>
<linearGradient id="paint1_linear" x1="802.518" y1="2038.13" x2="802.518" y2="1208.27" gradientUnits="userSpaceOnUse">
<stop stop-color="#4F80FE"/>
<stop offset="1" stop-color="#4F80FE" stop-opacity="0"/>
</linearGradient>
</defs>
</svg>
