<svg width="442" height="172" viewBox="0 0 442 172" fill="none" xmlns="http://www.w3.org/2000/svg">
<path d="M252.38 3.19823C243.64 7.77823 240.38 15.5082 240.38 36.8782C240.38 36.8782 244.81 32.5982 251.37 30.2182C256.16 28.4882 260.24 25.8482 262.61 24.1182C270 18.7082 271.14 11.7382 271.14 0.00822698C271.14 0.00822698 259.09 -0.321771 252.38 3.19823Z" fill="black"/>
<path d="M200.53 8.2082C193.4 14.4982 191.32 24.5082 191.32 24.5082L167.72 115.948L148.09 41.1082C146.18 33.1482 142.73 23.3182 137.28 16.6682C130.33 8.19819 116.21 7.66819 114.71 7.66819C113.21 7.66819 99.09 8.19819 92.14 16.6682C86.69 23.3182 83.24 33.1582 81.33 41.1082L61.7 115.948L38.1 24.5082C38.1 24.5082 36.02 14.4982 28.89 8.2082C17.33 -1.9818 0 0.19819 0 0.19819L45.2 171.088C45.2 171.088 60.11 172.158 67.57 168.358C77.37 163.358 82.03 159.508 87.97 136.258C93.26 115.528 108.04 54.6382 109.42 50.3082C110.1 48.1682 110.97 43.0482 114.73 43.0482C118.58 43.0482 119.37 48.1682 120.04 50.3082C121.4 54.6482 136.2 115.528 141.49 136.258C147.42 159.508 152.09 163.358 161.88 168.358C169.34 172.158 184.25 171.088 184.25 171.088L229.45 0.19819C229.43 0.19819 212.09 -1.9818 200.53 8.2082Z" fill="black"/>
<path d="M271.12 28.0981C271.12 28.0981 268.29 32.4681 261.84 36.0781C257.7 38.3981 253.72 39.9681 249.46 42.0081C242.31 45.4381 240.38 49.2582 240.38 55.0882V57.0282V66.0282V66.2681V68.2981V171.088C240.38 171.088 251.78 172.528 259.24 168.728C268.84 163.838 271.05 159.118 271.13 137.858V34.2781H271.12V28.0981Z" fill="black"/>
<path d="M383.78 86.0582L441.13 0.76818C441.13 0.76818 416.93 -3.35183 404.94 7.55817C397.27 14.5382 388.7 27.0882 388.7 27.0882L367.6 57.5082C366.58 59.0882 365.24 60.8082 363.1 60.8082C360.96 60.8082 359.62 59.0882 358.6 57.5082L337.5 27.0882C337.5 27.0882 328.93 14.5382 321.26 7.55817C309.28 -3.35183 285.07 0.76818 285.07 0.76818L342.42 86.0582L285.22 171.088C285.22 171.088 310.42 174.268 322.41 163.358C330.08 156.378 337.5 145.028 337.5 145.028L358.6 114.608C359.62 113.028 360.97 111.308 363.1 111.308C365.24 111.308 366.58 113.028 367.6 114.608L388.7 145.028C388.7 145.028 396.56 156.378 404.23 163.358C416.21 174.268 440.98 171.088 440.98 171.088L383.78 86.0582Z" fill="black"/>
</svg>
