<svg width="154" height="146" viewBox="0 0 154 146" fill="none" xmlns="http://www.w3.org/2000/svg">
<path d="M146.489 52.4995H7.77466V139.449H146.489V52.4995Z" fill="#F6C358"/>
<path d="M140.715 66.6375H132.44V80.9849H140.715V66.6375Z" fill="#2D93BA"/>
<path d="M132.44 80.9845V66.6377H140.716L132.44 80.9845Z" fill="#27A2DB"/>
<path d="M140.715 89.0986H132.44V103.446H140.715V89.0986Z" fill="#2D93BA"/>
<path d="M132.44 103.443V89.0955H140.716L132.44 103.443Z" fill="#27A2DB"/>
<path d="M140.715 111.551H132.44V125.899H140.715V111.551Z" fill="#2D93BA"/>
<path d="M132.44 125.9V111.553H140.716L132.44 125.9Z" fill="#27A2DB"/>
<path d="M127.085 66.6375H118.81V80.9849H127.085V66.6375Z" fill="#2D93BA"/>
<path d="M118.815 80.9845V66.6377H127.091L118.815 80.9845Z" fill="#27A2DB"/>
<path d="M127.085 89.0986H118.81V103.446H127.085V89.0986Z" fill="#2D93BA"/>
<path d="M118.815 103.443V89.0955H127.091L118.815 103.443Z" fill="#27A2DB"/>
<path d="M127.085 111.551H118.81V125.899H127.085V111.551Z" fill="#2D93BA"/>
<path d="M118.815 125.9V111.553H127.091L118.815 125.9Z" fill="#27A2DB"/>
<path d="M113.471 66.6375H105.196V80.9849H113.471V66.6375Z" fill="#2D93BA"/>
<path d="M105.191 80.9845V66.6377H113.467L105.191 80.9845Z" fill="#27A2DB"/>
<path d="M113.471 89.0986H105.196V103.446H113.471V89.0986Z" fill="#2D93BA"/>
<path d="M105.191 103.443V89.0955H113.467L105.191 103.443Z" fill="#27A2DB"/>
<path d="M113.471 111.551H105.196V125.899H113.471V111.551Z" fill="#2D93BA"/>
<path d="M105.191 125.9V111.553H113.467L105.191 125.9Z" fill="#27A2DB"/>
<path d="M125.46 26.4922H28.8069L7.77502 52.4947H146.492L125.46 26.4922Z" fill="#64798A"/>
<path d="M102.573 22.0376C102.573 22.0376 96.4702 11.5099 85.4847 17.918C82.3102 19.7698 83.1962 15.2245 78.161 19.1651V0.982192C78.161 0.982192 78.6084 7.71047 89.2991 2.6607C92.3442 1.22249 96.9279 -0.390772 102.573 1.89774C102.573 1.89774 107.608 9.22105 102.573 22.0376Z" fill="#44C4A1"/>
<path d="M78.7292 0.982422H75.0677V34.8541H78.7292V0.982422Z" fill="#DC8744"/>
<path d="M98.5643 44.6191V139.439H55.2327V44.6191V41.8725L76.8985 28.355L98.5643 41.8725V44.6191Z" fill="#FCD462"/>
<path d="M76.6985 67.8786C84.8652 67.8786 91.4856 61.2582 91.4856 53.0915C91.4856 44.9248 84.8652 38.3044 76.6985 38.3044C68.5318 38.3044 61.9114 44.9248 61.9114 53.0915C61.9114 61.2582 68.5318 67.8786 76.6985 67.8786Z" fill="white"/>
<path d="M76.6984 68.8669C67.9993 68.8669 60.9224 61.7899 60.9224 53.0912C60.9224 44.3924 67.9993 37.3154 76.6984 37.3154C85.3969 37.3154 92.4738 44.3924 92.4738 53.0912C92.4738 61.7899 85.3969 68.8669 76.6984 68.8669ZM76.6984 39.2916C69.0888 39.2916 62.8986 45.4819 62.8986 53.0912C62.8986 60.7004 69.0888 66.8907 76.6984 66.8907C84.3073 66.8907 90.4976 60.7004 90.4976 53.0912C90.4976 45.4819 84.3073 39.2916 76.6984 39.2916Z" fill="#3A556A"/>
<path d="M74.7982 40.6685H75.8307V43.511H75.3754V41.0956H74.7986V40.6685H74.7982Z" fill="#2F4859"/>
<path d="M77.7381 41.7787C77.8194 41.6675 77.8604 41.5548 77.8604 41.4411C77.8604 41.327 77.8165 41.23 77.7299 41.1502C77.6436 41.07 77.5338 41.03 77.4012 41.03C77.1677 41.03 76.9737 41.1495 76.8197 41.388L76.4332 41.1641C76.5577 40.9773 76.6953 40.8361 76.8461 40.7412C76.9962 40.6464 77.1901 40.5986 77.4276 40.5986C77.6647 40.5986 77.8729 40.6739 78.0515 40.8243C78.2301 40.9748 78.3199 41.1801 78.3199 41.4404C78.3199 41.5866 78.2818 41.7263 78.2062 41.8593C78.1299 41.9919 77.9905 42.1631 77.7873 42.3716L77.1206 43.0508H78.4098V43.51H76.4657V43.1032L77.3277 42.2372C77.5195 42.0429 77.6568 41.8896 77.7381 41.7787Z" fill="#2F4859"/>
<path d="M65.2217 54.12C65.4738 54.12 65.6592 54.0345 65.7786 53.864C65.898 53.6933 65.959 53.4626 65.9619 53.1728C65.8941 53.2487 65.7964 53.3196 65.6688 53.3863C65.5415 53.4526 65.4003 53.4861 65.246 53.4861C64.9911 53.4861 64.7775 53.4013 64.6057 53.2319C64.4338 53.0626 64.3475 52.8376 64.3475 52.557C64.3475 52.2768 64.4406 52.0508 64.626 51.88C64.8121 51.7092 65.0456 51.624 65.328 51.624C65.7836 51.624 66.0977 51.8272 66.2713 52.2337C66.3687 52.4668 66.4175 52.7296 66.4175 53.0227C66.4175 53.3154 66.3861 53.5592 66.3241 53.7546C66.2621 53.95 66.1761 54.104 66.0681 54.2181C65.8563 54.4402 65.5971 54.5514 65.2895 54.5514C64.9814 54.5514 64.703 54.4555 64.4538 54.2626L64.6937 53.909C64.7557 53.9632 64.8395 54.012 64.944 54.0555C65.0477 54.0983 65.1408 54.12 65.2217 54.12ZM65.3094 53.0629C65.4734 53.0629 65.6103 53.0177 65.7201 52.9264C65.8299 52.8355 65.8849 52.7178 65.8849 52.5727C65.8849 52.428 65.8321 52.3028 65.7262 52.1987C65.6203 52.0943 65.488 52.0422 65.3294 52.0422C65.1707 52.0422 65.0403 52.0889 64.9372 52.1827C64.8342 52.2765 64.7825 52.3962 64.7825 52.5424C64.7825 52.689 64.8288 52.8123 64.9226 52.9128C65.0164 53.0134 65.1451 53.0629 65.3094 53.0629Z" fill="#2F4859"/>
<path d="M76.8885 63.2525C76.6365 63.2525 76.4504 63.338 76.3313 63.5088C76.2119 63.6796 76.1509 63.9099 76.1487 64.2001C76.2161 64.1241 76.3142 64.0532 76.4411 63.9865C76.5687 63.9202 76.7096 63.8867 76.8639 63.8867C77.1188 63.8867 77.3324 63.9716 77.5042 64.1409C77.6768 64.3103 77.7624 64.5356 77.7624 64.8158C77.7624 65.0964 77.6693 65.3221 77.4839 65.4932C77.2978 65.6636 77.0643 65.7492 76.7826 65.7492C76.3274 65.7492 76.0122 65.546 75.8393 65.1395C75.742 64.9064 75.6931 64.6432 75.6931 64.3505C75.6931 64.0578 75.7238 63.814 75.7862 63.6186C75.8489 63.4232 75.9341 63.2689 76.0429 63.1551C76.2539 62.9327 76.5142 62.8218 76.8215 62.8218C77.1292 62.8218 77.4076 62.9177 77.6572 63.1102L77.4169 63.4639C77.3549 63.4097 77.2711 63.3612 77.167 63.3177C77.0622 63.2742 76.9695 63.2525 76.8885 63.2525ZM76.8008 64.3099C76.6368 64.3099 76.4996 64.3552 76.3898 64.4461C76.2799 64.537 76.225 64.655 76.225 64.7998C76.225 64.9449 76.2782 65.0696 76.3841 65.1741C76.4892 65.2786 76.6222 65.3306 76.7823 65.3306C76.942 65.3306 77.0753 65.2839 77.1805 65.1902C77.2864 65.0967 77.3392 64.9773 77.3392 64.8322C77.3392 64.6875 77.2903 64.5637 77.193 64.4621C77.0957 64.3605 76.9645 64.3099 76.8008 64.3099Z" fill="#2F4859"/>
<path d="M87.1799 52.7621V52.335H88.843V52.7093L88.1557 53.478C88.4163 53.4862 88.6195 53.5682 88.7657 53.724C88.9118 53.8801 88.9853 54.0662 88.9853 54.283C88.9853 54.5732 88.8865 54.801 88.6904 54.9661C88.4936 55.1315 88.2405 55.2142 87.9318 55.2142C87.6227 55.2142 87.32 55.1151 87.0248 54.9173L87.228 54.5311C87.4612 54.6937 87.7054 54.775 87.9603 54.775C88.1257 54.775 88.2616 54.7365 88.3685 54.6591C88.4755 54.5818 88.5293 54.4705 88.5293 54.3258C88.5293 54.1807 88.4694 54.0648 88.35 53.9778C88.2305 53.8912 88.0655 53.8477 87.8541 53.8477C87.7482 53.8477 87.6469 53.8627 87.5489 53.8923V53.5265L88.2077 52.7621H87.1799Z" fill="#2F4859"/>
<path d="M77.4087 46.0349H76.8019V53.7169H77.4087V46.0349Z" fill="#2F4859"/>
<path d="M76.4978 53.3975H70.9075V54.056H76.4978V53.3975Z" fill="#2F4859"/>
<path d="M83.3164 60.9094L83.6031 60.6572L74.9231 50.7848L74.6363 51.0369L83.3164 60.9094Z" fill="#E56353"/>
<path d="M77.085 54.7055C77.631 54.7055 78.0736 54.2629 78.0736 53.7169C78.0736 53.1709 77.631 52.7283 77.085 52.7283C76.5389 52.7283 76.0963 53.1709 76.0963 53.7169C76.0963 54.2629 76.5389 54.7055 77.085 54.7055Z" fill="#27A2DB"/>
<path d="M153.067 139.434H0.950867V145.435H153.067V139.434Z" fill="#3A556A"/>
<path d="M85.9485 111.612H67.8468V139.444H85.9485V111.612Z" fill="white"/>
<path d="M49.7135 66.6375H41.4382V80.9849H49.7135V66.6375Z" fill="#2D93BA"/>
<path d="M41.4382 80.9845V66.6377H49.7142L41.4382 80.9845Z" fill="#27A2DB"/>
<path d="M49.7135 89.0986H41.4382V103.446H49.7135V89.0986Z" fill="#2D93BA"/>
<path d="M41.4382 103.443V89.0955H49.7142L41.4382 103.443Z" fill="#27A2DB"/>
<path d="M49.7135 111.551H41.4382V125.899H49.7135V111.551Z" fill="#2D93BA"/>
<path d="M41.4382 125.9V111.553H49.7142L41.4382 125.9Z" fill="#27A2DB"/>
<path d="M36.0882 66.6375H27.813V80.9849H36.0882V66.6375Z" fill="#2D93BA"/>
<path d="M27.8137 80.9845V66.6377H36.0893L27.8137 80.9845Z" fill="#27A2DB"/>
<path d="M36.0882 89.0986H27.813V103.446H36.0882V89.0986Z" fill="#2D93BA"/>
<path d="M27.8137 103.443V89.0955H36.0893L27.8137 103.443Z" fill="#27A2DB"/>
<path d="M36.0882 111.551H27.813V125.899H36.0882V111.551Z" fill="#2D93BA"/>
<path d="M27.8137 125.9V111.553H36.0893L27.8137 125.9Z" fill="#27A2DB"/>
<path d="M22.4648 66.6375H14.1896V80.9849H22.4648V66.6375Z" fill="#2D93BA"/>
<path d="M14.1888 80.9845V66.6377H22.4644L14.1888 80.9845Z" fill="#27A2DB"/>
<path d="M22.4648 89.0986H14.1896V103.446H22.4648V89.0986Z" fill="#2D93BA"/>
<path d="M14.1888 103.443V89.0955H22.4644L14.1888 103.443Z" fill="#27A2DB"/>
<path d="M22.4648 111.551H14.1896V125.899H22.4648V111.551Z" fill="#2D93BA"/>
<path d="M14.1888 125.9V111.553H22.4644L14.1888 125.9Z" fill="#27A2DB"/>
<path d="M73.3215 78.4963H60.9149V89.2997H73.3215V78.4963Z" fill="#2D93BA"/>
<path d="M60.9224 89.2988V78.4951H73.3282L60.9224 89.2988Z" fill="#27A2DB"/>
<path d="M92.1534 78.4963H79.7468V89.2997H92.1534V78.4963Z" fill="#2D93BA"/>
<path d="M79.7463 89.2988V78.4951H92.1522L79.7463 89.2988Z" fill="#27A2DB"/>
<path d="M73.5921 93.6621H61.1855V104.465H73.5921V93.6621Z" fill="#2D93BA"/>
<path d="M61.1863 104.463V93.6589H73.5922L61.1863 104.463Z" fill="#27A2DB"/>
<path d="M92.4165 93.6621H80.0099V104.465H92.4165V93.6621Z" fill="#2D93BA"/>
<path d="M80.0103 104.463V93.6589H92.4161L80.0103 104.463Z" fill="#27A2DB"/>
</svg>
