<svg width="160" height="159" viewBox="0 0 160 159" fill="none" xmlns="http://www.w3.org/2000/svg">
<path d="M95.0653 19.894L80.2075 17.4177V7.51245L95.0653 9.98876V19.894Z" fill="#FFB632"/>
<path d="M80.2075 34.7518C79.5507 34.7518 78.9209 34.4909 78.4565 34.0265C77.9921 33.5621 77.7312 32.9323 77.7312 32.2755V7.51244C77.7312 6.85568 77.9921 6.22582 78.4565 5.76143C78.9209 5.29703 79.5507 5.03613 80.2075 5.03613C80.8642 5.03613 81.4941 5.29703 81.9585 5.76143C82.4229 6.22582 82.6838 6.85568 82.6838 7.51244V32.2755C82.6838 32.9323 82.4229 33.5621 81.9585 34.0265C81.4941 34.4909 80.8642 34.7518 80.2075 34.7518Z" fill="#95573A"/>
<path d="M107.447 151.138H52.9681V47.1332L80.2075 27.3228L107.447 47.1332V151.138Z" fill="#FFB632"/>
<path d="M80.2075 74.3727C87.0456 74.3727 92.589 68.8293 92.589 61.9912C92.589 55.153 87.0456 49.6096 80.2075 49.6096C73.3694 49.6096 67.826 55.153 67.826 61.9912C67.826 68.8293 73.3694 74.3727 80.2075 74.3727Z" fill="#E9EEF2"/>
<path d="M107.447 47.1333H147.068V151.138H107.447V47.1333Z" fill="#F7B030"/>
<path d="M82.6838 64.4675H80.2075C79.5507 64.4675 78.9209 64.2066 78.4565 63.7422C77.9921 63.2778 77.7312 62.6479 77.7312 61.9912V57.0386C77.7312 56.3818 77.9921 55.7519 78.4565 55.2875C78.9209 54.8231 79.5507 54.5623 80.2075 54.5623C80.8642 54.5623 81.4941 54.8231 81.9585 55.2875C82.4229 55.7519 82.6838 56.3818 82.6838 57.0386V59.5149C83.3406 59.5149 83.9704 59.7758 84.4348 60.2402C84.8992 60.7046 85.1601 61.3344 85.1601 61.9912C85.1601 62.6479 84.8992 63.2778 84.4348 63.7422C83.9704 64.2066 83.3406 64.4675 82.6838 64.4675Z" fill="#EB423F"/>
<path d="M62.8733 84.2778H97.5416V94.1831H62.8733V84.2778Z" fill="#D13330"/>
<path d="M80.2075 106.565C84.148 106.565 87.9272 108.13 90.7136 110.916C93.5 113.703 95.0653 117.482 95.0653 121.423V151.138H65.3496V121.423C65.3496 117.482 66.915 113.703 69.7014 110.916C72.4878 108.13 76.2669 106.565 80.2075 106.565Z" fill="#EB423F"/>
<path d="M95.0653 121.423V151.138H80.2075V106.565C84.148 106.565 87.9272 108.13 90.7136 110.916C93.5 113.703 95.0653 117.482 95.0653 121.423Z" fill="#D13330"/>
<path d="M13.3472 47.1333H52.9681V151.138H13.3472V47.1333Z" fill="#F7B030"/>
<path d="M25.7287 59.5149H40.5866V79.3253H25.7287V59.5149Z" fill="#E9EEF2"/>
<path d="M43.0629 81.8017H23.2524C22.5957 81.8017 21.9658 81.5408 21.5014 81.0764C21.037 80.612 20.7761 79.9822 20.7761 79.3254C20.7761 78.6687 21.037 78.0388 21.5014 77.5744C21.9658 77.11 22.5957 76.8491 23.2524 76.8491H43.0629C43.7196 76.8491 44.3495 77.11 44.8139 77.5744C45.2783 78.0388 45.5392 78.6687 45.5392 79.3254C45.5392 79.9822 45.2783 80.612 44.8139 81.0764C44.3495 81.5408 43.7196 81.8017 43.0629 81.8017Z" fill="#95573A"/>
<path d="M25.7287 89.2305H40.5866V109.041H25.7287V89.2305Z" fill="#DADCDE"/>
<path d="M43.0629 111.517H23.2524C22.5957 111.517 21.9658 111.256 21.5014 110.792C21.037 110.328 20.7761 109.698 20.7761 109.041C20.7761 108.384 21.037 107.754 21.5014 107.29C21.9658 106.826 22.5957 106.565 23.2524 106.565H43.0629C43.7196 106.565 44.3495 106.826 44.8139 107.29C45.2783 107.754 45.5392 108.384 45.5392 109.041C45.5392 109.698 45.2783 110.328 44.8139 110.792C44.3495 111.256 43.7196 111.517 43.0629 111.517Z" fill="#95573A"/>
<path d="M25.7287 118.946H40.5866V138.757H25.7287V118.946Z" fill="#E9EEF2"/>
<path d="M43.0629 141.233H23.2524C22.5957 141.233 21.9658 140.972 21.5014 140.508C21.037 140.043 20.7761 139.413 20.7761 138.757C20.7761 138.1 21.037 137.47 21.5014 137.006C21.9658 136.541 22.5957 136.28 23.2524 136.28H43.0629C43.7196 136.28 44.3495 136.541 44.8139 137.006C45.2783 137.47 45.5392 138.1 45.5392 138.757C45.5392 139.413 45.2783 140.043 44.8139 140.508C44.3495 140.972 43.7196 141.233 43.0629 141.233Z" fill="#95573A"/>
<path d="M119.828 59.5149H134.686V79.3253H119.828V59.5149Z" fill="#E9EEF2"/>
<path d="M137.163 81.8017H117.352C116.695 81.8017 116.065 81.5408 115.601 81.0764C115.137 80.612 114.876 79.9822 114.876 79.3254C114.876 78.6687 115.137 78.0388 115.601 77.5744C116.065 77.11 116.695 76.8491 117.352 76.8491H137.163C137.819 76.8491 138.449 77.11 138.914 77.5744C139.378 78.0388 139.639 78.6687 139.639 79.3254C139.639 79.9822 139.378 80.612 138.914 81.0764C138.449 81.5408 137.819 81.8017 137.163 81.8017Z" fill="#95573A"/>
<path d="M119.828 89.2305H134.686V109.041H119.828V89.2305Z" fill="#DADCDE"/>
<path d="M137.163 111.517H117.352C116.695 111.517 116.065 111.256 115.601 110.792C115.137 110.328 114.876 109.698 114.876 109.041C114.876 108.384 115.137 107.754 115.601 107.29C116.065 106.826 116.695 106.565 117.352 106.565H137.163C137.819 106.565 138.449 106.826 138.914 107.29C139.378 107.754 139.639 108.384 139.639 109.041C139.639 109.698 139.378 110.328 138.914 110.792C138.449 111.256 137.819 111.517 137.163 111.517Z" fill="#95573A"/>
<path d="M119.828 118.946H134.686V138.757H119.828V118.946Z" fill="#E9EEF2"/>
<path d="M137.163 141.233H117.352C116.695 141.233 116.065 140.972 115.601 140.508C115.137 140.043 114.876 139.414 114.876 138.757C114.876 138.1 115.137 137.47 115.601 137.006C116.065 136.541 116.695 136.281 117.352 136.281H137.163C137.819 136.281 138.449 136.541 138.914 137.006C139.378 137.47 139.639 138.1 139.639 138.757C139.639 139.414 139.378 140.043 138.914 140.508C138.449 140.972 137.819 141.233 137.163 141.233Z" fill="#95573A"/>
<path d="M152.02 153.615H8.39459C7.73783 153.615 7.10797 153.354 6.64358 152.889C6.17918 152.425 5.91828 151.795 5.91828 151.138C5.91828 150.482 6.17918 149.852 6.64358 149.387C7.10797 148.923 7.73783 148.662 8.39459 148.662H152.02C152.677 148.662 153.307 148.923 153.771 149.387C154.236 149.852 154.497 150.482 154.497 151.138C154.497 151.795 154.236 152.425 153.771 152.889C153.307 153.354 152.677 153.615 152.02 153.615Z" fill="#95573A"/>
<path d="M8.39459 47.1335C7.73783 47.1335 7.10797 47.3944 6.64357 47.8588C6.17918 48.3232 5.91828 48.9531 5.91828 49.6099C5.91828 50.2666 6.17918 50.8965 6.64357 51.3609C7.10797 51.8253 7.73783 52.0862 8.39459 52.0862H52.9681V47.1335H8.39459Z" fill="#95573A"/>
<path d="M152.02 47.1335H107.447V52.0862H152.02C152.677 52.0862 153.307 51.8253 153.771 51.3609C154.236 50.8965 154.497 50.2666 154.497 49.6099C154.497 48.9531 154.236 48.3232 153.771 47.8588C153.307 47.3944 152.677 47.1335 152.02 47.1335Z" fill="#95573A"/>
<path d="M107.445 52.086C106.922 52.0863 106.413 51.9205 105.99 51.6124L80.2075 32.8612L54.4248 51.6124C53.8936 51.9987 53.2308 52.1583 52.582 52.0559C51.9333 51.9535 51.3517 51.5975 50.9654 51.0664C50.5791 50.5352 50.4195 49.8724 50.5219 49.2236C50.6243 48.5748 50.9803 47.9933 51.5114 47.607L78.7508 27.7965C79.1741 27.4886 79.6841 27.3228 80.2075 27.3228C80.7309 27.3228 81.2409 27.4886 81.6642 27.7965L108.904 47.607C109.327 47.9146 109.641 48.3483 109.803 48.8458C109.964 49.3433 109.964 49.8791 109.802 50.3764C109.64 50.8738 109.325 51.307 108.901 51.6142C108.478 51.9213 107.968 52.0864 107.445 52.086Z" fill="#95573A"/>
</svg>
