<svg xmlns="http://www.w3.org/2000/svg" xmlns:xlink="http://www.w3.org/1999/xlink" viewBox="0 0 655.45 132.68"><defs><style>.cls-1,.cls-11,.cls-12,.cls-13,.cls-2,.cls-3,.cls-4,.cls-5,.cls-6,.cls-7,.cls-8,.cls-9{fill-rule:evenodd;}.cls-1{fill:url(#GradientFill_1);}.cls-2{fill:url(#GradientFill_1-2);}.cls-3{fill:url(#GradientFill_1-3);}.cls-4{fill:url(#GradientFill_1-4);}.cls-5{fill:url(#GradientFill_1-5);}.cls-6{fill:url(#GradientFill_1-6);}.cls-7{fill:url(#GradientFill_1-7);}.cls-8{fill:url(#GradientFill_1-8);}.cls-10,.cls-9{fill:#c53d19;}.cls-11{fill:url(#GradientFill_1-9);}.cls-12{fill:#264883;}.cls-13{fill:#1b1b1b;}</style><linearGradient id="GradientFill_1" x1="88.72" y1="82.91" x2="9.93" y2="9.43" gradientUnits="userSpaceOnUse"><stop offset="0" stop-color="#c53d19"/><stop offset="1" stop-color="#792014"/></linearGradient><linearGradient id="GradientFill_1-2" x1="109.69" y1="31.62" x2="109.69" y2="69.18" xlink:href="#GradientFill_1"/><linearGradient id="GradientFill_1-3" x1="189.09" y1="12.23" x2="170.58" y2="47.04" xlink:href="#GradientFill_1"/><linearGradient id="GradientFill_1-4" x1="276.35" y1="57.54" x2="242.12" y2="25.62" xlink:href="#GradientFill_1"/><linearGradient id="GradientFill_1-5" x1="324.54" y1="-30.65" x2="324.54" y2="33.29" xlink:href="#GradientFill_1"/><linearGradient id="GradientFill_1-6" x1="314.68" y1="36.23" x2="532.79" y2="66.88" xlink:href="#GradientFill_1"/><linearGradient id="GradientFill_1-7" x1="467.72" y1="46.35" x2="467.72" y2="29.56" xlink:href="#GradientFill_1"/><linearGradient id="GradientFill_1-8" x1="539.5" y1="-31.36" x2="539.5" y2="33.06" xlink:href="#GradientFill_1"/><linearGradient id="GradientFill_1-9" x1="634.56" y1="57.54" x2="600.32" y2="25.62" xlink:href="#GradientFill_1"/></defs><title>Ресурс 1</title><g id="Слой_2" data-name="Слой 2"><g id="Слой_1-2" data-name="Слой 1"><polygon class="cls-1" points="35.5 20.27 0 46.92 35.88 73.83 47.08 65.43 22.58 47.05 40.57 33.55 71.68 33.55 71.68 20.27 35.5 20.27"/><polygon class="cls-2" points="129.96 40.26 89.45 40.26 89.42 20.27 76.14 20.27 76.14 40.26 94.23 53.83 116.2 53.83 105.23 62.08 116.42 70.47 138.6 53.83 138.6 53.83 143.25 50.34 143.25 40.26 143.25 20.27 129.96 20.27 129.96 40.26"/><polygon class="cls-3" points="201.42 40.26 147.73 40.26 165.82 53.83 201.42 53.83 214.84 53.83 214.84 40.26 214.84 33.55 214.84 20.27 161.15 20.27 161.15 0 147.73 0 147.73 23.49 161.15 33.55 201.42 33.55 201.42 40.26"/><polygon class="cls-4" points="250.34 20.27 214.84 46.92 250.72 73.83 262.04 65.52 246.47 53.84 266.96 53.84 266.96 40.26 246.47 40.26 255.41 33.55 286.52 33.55 286.52 20.27 250.34 20.27"/><path class="cls-5" d="M291,20.27H304.4V33.74l18-13.47h35.73V33.55H326.94c-12,9.05-23.95,17.94-36,26.94Z"/><polygon class="cls-6" points="415.56 73.83 353.71 73.83 407.43 33.55 362.57 33.55 362.57 20.27 429.68 20.27 429.7 33.57 393.74 60.55 415.56 60.55 415.56 73.83"/><path class="cls-7" d="M487.86,33.55H447.59v7h40.27v-7ZM434.17,20.27h49.39l17.72,13.28V53.83H434.17Z"/><path class="cls-8" d="M573.2,20.27V53.83H559.78V33.55h-18c-12,9.05-23.94,17.94-35.95,26.94V20.27h13.42V33.74l17.95-13.47Z"/><polygon class="cls-9" points="35.54 20.27 0 46.92 11.38 55.45 58.28 20.27 35.54 20.27"/><polygon class="cls-9" points="143.25 40.26 76.14 40.26 94.23 53.83 138.6 53.83 143.25 50.34 143.25 40.26"/><polygon class="cls-9" points="214.84 20.27 147.73 20.27 147.73 23.49 161.15 33.55 214.84 33.55 214.84 20.27"/><polygon class="cls-9" points="214.84 40.26 147.73 40.26 165.82 53.83 214.84 53.83 214.84 40.26"/><polygon class="cls-9" points="250.37 20.27 214.84 46.92 226.21 55.45 273.12 20.27 250.37 20.27"/><polygon class="cls-9" points="322.36 20.27 290.98 43.8 290.98 60.58 344.72 20.27 322.36 20.27"/><polygon class="cls-9" points="429.68 20.27 425.13 20.27 353.71 73.83 376.03 73.83 429.7 33.57 429.68 20.27"/><polygon class="cls-9" points="483.56 20.27 434.17 20.27 434.17 33.55 501.28 33.55 483.56 20.27"/><rect class="cls-10" x="434.17" y="40.26" width="67.11" height="13.57"/><polygon class="cls-9" points="537.17 20.27 505.8 43.8 505.8 60.58 559.54 20.27 537.17 20.27"/><polygon class="cls-11" points="608.54 20.27 573.04 46.92 608.92 73.83 620.24 65.52 604.67 53.84 625.16 53.84 625.16 40.26 604.67 40.26 613.61 33.55 644.72 33.55 644.72 20.27 608.54 20.27"/><polygon class="cls-9" points="608.58 20.27 573.04 46.92 584.41 55.45 631.32 20.27 608.58 20.27"/><path class="cls-12" d="M651.41,99.36a4.14,4.14,0,0,1,2,.52,3.73,3.73,0,0,1,1.51,1.49,4.12,4.12,0,0,1,.54,2,4,4,0,0,1-.54,2,3.71,3.71,0,0,1-1.49,1.5,4.14,4.14,0,0,1-2,.53,4.07,4.07,0,0,1-2-.53,3.73,3.73,0,0,1-1.5-1.5,4,4,0,0,1-.54-2,4.13,4.13,0,0,1,.55-2,3.67,3.67,0,0,1,1.51-1.49,4.1,4.1,0,0,1,2-.52Zm0,.67a3.42,3.42,0,0,0-1.65.43,3.1,3.1,0,0,0-1.26,1.25,3.33,3.33,0,0,0-.46,1.69,3.38,3.38,0,0,0,.45,1.67,3.2,3.2,0,0,0,1.25,1.25,3.45,3.45,0,0,0,1.67.44,3.48,3.48,0,0,0,1.68-.44,3.17,3.17,0,0,0,1.24-1.25,3.38,3.38,0,0,0,.45-1.67,3.42,3.42,0,0,0-.45-1.69,3.1,3.1,0,0,0-1.26-1.25,3.45,3.45,0,0,0-1.66-.43Zm-1.77,5.6h.7v-1.85h.42a.91.91,0,0,1,.56.15,3.59,3.59,0,0,1,.73,1l.39.69h.85l-.53-.85a4.72,4.72,0,0,0-.64-.86,1.11,1.11,0,0,0-.37-.23,1.35,1.35,0,0,0,.9-.4,1.15,1.15,0,0,0,.34-.83,1.18,1.18,0,0,0-.2-.64,1.09,1.09,0,0,0-.55-.42,3.64,3.64,0,0,0-1.11-.12h-1.49v4.35Zm.7-2.45h.85A1.41,1.41,0,0,0,652,103a.61.61,0,0,0,.22-.48.63.63,0,0,0-.11-.35.64.64,0,0,0-.29-.22,2.23,2.23,0,0,0-.71-.08h-.8Z"/><path class="cls-12" d="M573.58,99.09h.13v9.28h-9.38V99.09Zm-40.81,19.63,21.68,1.34a1.64,1.64,0,0,1,1.64,1.64h0a1.64,1.64,0,0,1-1.64,1.64H523.54V111.26c1,3.73,4.22,6.78,9.23,7.46Zm-9.23,14h31.6a9.54,9.54,0,0,0,9.33-7.69,9.29,9.29,0,0,0,9.11,7.69h20.19a9.28,9.28,0,0,0,9.08-7.59v7.59h32.37a9.53,9.53,0,0,0,9.5-9.51v-1.34a9.52,9.52,0,0,0-9.5-9.5l-1.77-.08c-10.07-.44-20.11-1-30.17-1.47.78,4,4.11,7.23,9.33,7.94l21.92,1.34a1.65,1.65,0,0,1,1.64,1.64h0a1.64,1.64,0,0,1-1.64,1.64H603V110.77l-9.38-.49V121a2.75,2.75,0,0,1-2.74,2.74H576.45a2.75,2.75,0,0,1-2.74-2.74V109.26l-9.38-.49v10.66a9.44,9.44,0,0,0-9.19-6.94l-41.29-2.7v22.89Zm39.3-24.3V99H532.77a9.55,9.55,0,0,0-9.23,7.22V99.09H505.59l-6.12,9.28h63.37Zm-53,1.18-14.83,23.12h-11.6l15.65-23.74,10.78.62Zm134.84-1.18V99H612.61a9.53,9.53,0,0,0-9.5,9.33Zm-51.09,0V99.09H603v9.28Z"/><path class="cls-13" d="M356.32,99.07h-2.61v17.26h2.76V110a4.72,4.72,0,0,0,4.1,2c3.39,0,5.59-2.59,5.59-6.57s-2.24-6.72-5.74-6.72a4.69,4.69,0,0,0-4.1,2V99.07Zm3.54,1.88c2.15,0,3.49,1.73,3.49,4.47s-1.31,4.35-3.44,4.35-3.54-1.67-3.54-4.4,1.29-4.42,3.49-4.42Zm14.56-2.25c-3.91,0-6.43,2.62-6.43,6.67s2.49,6.69,6.43,6.69,6.3-2.59,6.3-6.69-2.45-6.67-6.3-6.67Zm-.05,2.2c2.19,0,3.54,1.69,3.54,4.45s-1.32,4.54-3.52,4.54-3.59-1.69-3.59-4.52,1.37-4.47,3.57-4.47Zm7.52-1.83,3.9,12.6h2.93l2.35-9.35,2.37,9.35h2.85l4-12.6h-2.84l-2.61,9.45-2.32-9.45H389.7l-2.37,9.45-2.49-9.45Zm31.45,8.67h-2.66a2.89,2.89,0,0,1-3,2.29c-2.15,0-3.39-1.44-3.46-4h9.3v-.29c0-4.35-2.29-7.06-6-7.06-3.54,0-6.11,2.86-6.11,6.82,0,3.76,2.32,6.56,6.21,6.56a5.53,5.53,0,0,0,5.71-4.34Zm-2.61-3.54h-6.47c.26-2.22,1.41-3.42,3.24-3.42s3.06,1.29,3.23,3.42Zm12-5.37a4.34,4.34,0,0,0-.53,0,4.47,4.47,0,0,0-4.23,2.8V99.07h-2.61v12.6h2.76v-5.54c0-2.64.88-4.72,3.64-4.72a9,9,0,0,1,1,.08V98.83Zm12.31,8.91h-2.66a2.88,2.88,0,0,1-3,2.29c-2.15,0-3.4-1.44-3.47-4h9.3v-.29c0-4.35-2.29-7.06-6-7.06-3.54,0-6.1,2.86-6.1,6.82,0,3.76,2.32,6.56,6.2,6.56a5.52,5.52,0,0,0,5.71-4.34Zm-2.61-3.54H426c.27-2.22,1.41-3.42,3.25-3.42s3.05,1.29,3.22,3.42Zm16.85-9.92h-2.74v6.43a4.53,4.53,0,0,0-4-2c-3.49,0-5.71,2.56-5.71,6.62s2.24,6.66,5.81,6.66a4.32,4.32,0,0,0,4-2.07v1.73h2.61V94.28ZM443.08,101c2.25,0,3.57,1.62,3.57,4.38s-1.3,4.42-3.47,4.42-3.52-1.71-3.52-4.47S441,101,443.08,101Zm18.78-6.69H459.1v17.39h2.61V110a4.55,4.55,0,0,0,4.13,2.05c3.44,0,5.71-2.68,5.71-6.74s-2.19-6.52-5.56-6.52a4.91,4.91,0,0,0-4.13,2V94.28Zm3.42,6.69c2.12,0,3.47,1.69,3.47,4.35s-1.37,4.45-3.47,4.45-3.52-1.67-3.52-4.38,1.32-4.44,3.52-4.42Zm19.83-1.9H482.2L479,108.35l-3.37-9.28H472.6l4.84,12.23c-.37,1.1-.73,2.86-2.15,2.86a6.91,6.91,0,0,1-1.47-.17v2.34a12.21,12.21,0,0,0,1.93.15c3.11,0,3.79-2.64,4.69-5Z"/></g></g></svg>