<svg width="708" height="253" viewBox="0 0 708 253" fill="none" xmlns="http://www.w3.org/2000/svg">
<path d="M55.9142 56.6079V196.388C63.2529 197.087 68.1454 197.087 76.1773 197.087C124.403 197.087 155.156 170.877 155.156 124.398C155.156 79.3231 121.957 55.5595 76.5326 55.5595C70.5917 55.5595 62.9035 55.5596 55.9142 56.6079ZM0 4.18838H4.89249C17.8227 4.18838 61.1562 3.13999 77.2315 3.13999C175.075 3.13999 214.565 59.4036 214.565 124.398C214.565 192.893 167.737 249.506 74.4358 249.506C61.5056 249.506 29.355 248.807 5.94089 248.807H0V4.18838Z" fill="#292929"/>
<path d="M357.261 200.58C403.74 200.58 427.847 167.731 427.847 126.5C427.847 81.7686 396.745 52.4137 357.261 52.4137C316.723 52.4137 286.675 81.7686 286.675 126.5C286.675 168.43 318.121 200.58 357.261 200.58ZM357.261 -7.49468e-05C431.691 -7.49468e-05 487.256 48.5696 487.256 126.5C487.256 200.58 431.691 253 357.261 253C282.831 253 227.267 204.425 227.267 126.5C227.267 55.5588 279.331 -7.49468e-05 357.261 -7.49468e-05Z" fill="#292929"/>
<path d="M707.767 147.814C707.767 222.593 660.245 252.997 607.826 252.997C544.922 252.997 501.245 217.002 501.245 145.368V4.19027H557.159V133.486C557.159 171.578 568.686 200.583 607.826 200.583C641.724 200.583 651.852 175.771 651.852 136.631V4.19027H707.767V147.814Z" fill="#292929"/>
</svg>
