<svg xmlns="http://www.w3.org/2000/svg" viewBox="0 0 799.08 181.68"><defs><style>.cls-1{fill:#ef0025;}</style></defs><title>Ресурс 1</title><g id="Слой_2" data-name="Слой 2"><g id="Слой_1-2" data-name="Слой 1"><path d="M127.32,174c32.11-14.77,54.36-45.17,54.36-83.19A90.84,90.84,0,1,0,54.53,174.11v-1.54l1.24-7.09,1.06-11.71.54-8L61.45,135l.17-14.37,1.78-8.16-1.78-2.31-.71-6.92L57,93.62l-2.48.71-1.78,4.44,1.25,3-5,21.83.65,5.73L52.87,136,52.64,139l-.83,2.25v5.44L49,148l-2.9-1.18-14-11.95v-8.52l3-3.19L36.9,120l-1.77-2.25-.35-19.16,1.65-6.15,5.91-5.8,1.78-1.3-.83-1.77-.71-8-1.89-3.31-.47-5.56,4.85-4.25,2.84,1.06,4.84-7.69,7-9.58.36-4.61L71.44,29.16l3.08-.71,1.06-1.19L75.82,24S77.24,12,89.48,12,103.14,24,103.14,24l.24,3.31,1.06,1.19,3.08.71,11.35,12.42.36,4.61,7,9.58,4.85,7.69,2.83-1.06,4.85,4.25-.47,5.56-1.89,3.31-.71,8-.83,1.77,1.78,1.3,5.91,5.8,1.66,6.15-.36,19.16L142.06,120l1.77,3.19,3,3.19v8.52l-14,11.95-2.9,1.18-2.78-1.3Z"/><path class="cls-1" d="M127.15,146.73v-5.44l-.82-2.25-.24-3.07,3.19-6.63.28-2.48a.19.19,0,0,0,0-.08l-1.83-2.91-2.66-21.6,0-.7,1.16-2.8-1.15-2.87-.27-1.45-2-6L122,84.74c-2.19-6.32-12.54-14.9-12.54-14.9l-2.25-2.54-.47-3.43.59-2.19.83-2.25,1-1,.3-2.25V51.45c-1.36-6-7.39-6.39-7.39-6.39-5.09.65-6.63,6.27-6.63,6.27L93.91,54l0,3.55,2.42,3.31v4.32l-3.37,4L89.24,70l-4.79,1.54-5.26,6.8-5.68,9.82-1.06,11.94-.54,5.38,1.84,9.29-.18,4.14L73,121.41l-.61,1.46-.77,1.48.59,2.07,4.63,3.69h2.66l1.19-1.36v-7.93l-.71-2.3-.48-2.79.74-13.24.36-2.48,1.24-2.58,3.16.5.89,1.6.53,11.18,1.78,1.06v10.29L87,125.79l-1.07,3.55.18,2.66.89,2.84v4.61l-2,4.08-2.84,18.1L78.66,179v1.83a92.27,92.27,0,0,0,12.18.83c2.15,0,4.28-.1,6.39-.25l.71-3.36,4.73-27.32,2.48-.36,2.13,3,3.9,24.72.47,1.19A121,121,0,0,0,127.32,174Z"/><path d="M232.16,77.92c3.37,0,6.57.07,9.62.07q7.82,0,12.24-.07-.47,5.06-1,14.31t-.61,14q-4.24.78-7,1.13t-6.7.63c-2.6.18-4.93.27-7,.27a59.39,59.39,0,0,1-9.84-.81,32.59,32.59,0,0,1-8.65-2.62,18.13,18.13,0,0,1-6.36-4.9A22.26,22.26,0,0,1,203,92.56a28.17,28.17,0,0,1-1.38-8.77,27.28,27.28,0,0,1,3.72-13.91A26.69,26.69,0,0,1,216,59.72q7-3.73,18-3.74a91.69,91.69,0,0,1,17.89,2q0,5.37.48,12c-1.77-.59-3.2-1-4.3-1.35s-2.37-.59-3.83-.84-2.85-.45-4.17-.58-2.49-.18-3.52-.18A25,25,0,0,0,229,68.13a16.37,16.37,0,0,0-6.21,3.58,15.12,15.12,0,0,0-3.89,5.77,19.37,19.37,0,0,0-1.29,7.08A15,15,0,0,0,219,91.32a9.79,9.79,0,0,0,4.68,4.52,16.31,16.31,0,0,0,7.16,1.55,30.4,30.4,0,0,0,7.19-1l.42-8c-1.6-.07-2.55-.11-2.85-.11l-3.91,0,.25-4.54c0-.49.06-1.2.11-2.12S232.16,79.52,232.16,77.92Z"/><path d="M251.1,107.27l3.06-5.31,19.07-35.91,2-4c.59-1.18,1.42-2.88,2.47-5.09q6.5.08,9.48.07,5.19,0,9.62-.07l5.38,15.37,11,29.58,2.14,5.38q-6.39-.08-7.76-.07-3.09,0-9.11.07-1.62-6.08-4.68-14.31H275.19q-3.21,6.5-6.63,14.31-6.87-.08-8.42-.07Q257.33,107.2,251.1,107.27Zm28.55-25H291.1q-4.28-13-4.68-14.33-2.43,5.41-4.12,8.88Z"/><path d="M314.54,107.27l.92-7.45L317.72,74l1.14-17q6.81.08,10.69.07,3.22,0,9.85-.07c.31,2.11.58,3.72.81,4.81s.76,3.23,1.63,6.42,1.57,5.94,2.1,8.26,1.32,6.3,2.37,11.93q1.62-5.79,3-10t3.32-9.48c1.33-3.54,2.17-5.85,2.53-7s.84-2.77,1.46-5q5.54.08,10.84.07,3.61,0,10-.07-.7,12.42-.92,21.35-.48,17.47-.48,24c0,.91,0,2.56.07,4.94-3.24,0-5.52-.07-6.82-.07q-2.83,0-7,.07.3-3.31.75-15.8t.45-16c0-1,0-2.41-.07-4.2l-4.84,15-6.94,20.94q-4.8-.08-6.61-.07-2.28,0-7,.07L333.52,87l-2.66-10.8c-.1-.42-.21-.94-.33-1.55s-.32-1.7-.59-3.25L329,81.61l-1.23,20.94-.11,4.72c-3.39,0-5.56-.07-6.49-.07Q319.26,107.2,314.54,107.27Z"/><path d="M381.12,107.27q.93-9.51,1.35-15.93t.85-17q.44-10.64.43-14.11l0-3.24q8.7.08,21.06.07,11.39,0,20.09-.07l-.07,1.21c0,.3-.09,1.36-.19,3.2l-.22,4c-.05.85-.07,1.72-.07,2.61q-7.12-.3-11.95-.3l-7.17,0c-1.25,0-3.18.07-5.81.16l-.45,8.49q4.35.1,10.14.11,2.07,0,11-.26c-.24,3.14-.48,6.89-.7,11.24-4.25-.05-7.51-.07-9.8-.07-3.39,0-7.18.09-11.39.26l-.43,9H402c1.25,0,3.85,0,7.78-.11l7.63-.19c1.13,0,3-.12,5.67-.29q-.44,5.46-.74,11.28-9-.08-19.72-.07l-16.23,0Z"/><path class="cls-1" d="M427.31,107.27q2.13-29.61,2.13-45.57l0-4.76q6.47.08,8.64.07l7.93-.07q-.66,8.3-1.07,15.71Q444.38,83,444.16,92t-.22,15.32l-7.56-.07C434.91,107.2,431.88,107.22,427.31,107.27Z"/><path class="cls-1" d="M449.24,107.27l.74-7.74,1.44-26.26.4-10.58V56.94q5.73.08,10.12.07c2.09,0,5,0,8.83-.07l15.74,28.62,2.17,4.21q.42-6.19.85-17.37T490,56.94c3,.05,5.43.07,7.25.07.84,0,3.24,0,7.22-.07l-.88,11L501.9,98.46l-.22,8.81q-4.8-.08-9-.07-3.46,0-9.59.07c-1.28-2.41-2.23-4.15-2.84-5.24l-6.19-10.51q-3.06-5.16-5.63-9.89-1.69-3-3.5-6.56l-.79,17.48-.38,14.72q-4.57-.08-7-.07Q454.81,107.2,449.24,107.27Z"/><path class="cls-1" d="M507,106.5q-.48-7.86-1.11-12.58a39.87,39.87,0,0,0,7.37,2.57,26.6,26.6,0,0,0,5.68.72,11.74,11.74,0,0,0,5.11-.94,3,3,0,0,0,1.9-2.79,4,4,0,0,0-.18-1.2A4.91,4.91,0,0,0,525,91a9.87,9.87,0,0,0-1.48-1.56l-6.95-6.05c-1.62-1.38-2.76-2.37-3.4-3a22.5,22.5,0,0,1-3.05-3.5A11.86,11.86,0,0,1,508.08,70a12.67,12.67,0,0,1,.79-4.41,13.3,13.3,0,0,1,2.38-4,13.55,13.55,0,0,1,4.2-3.25,18.72,18.72,0,0,1,5.61-1.86,37.53,37.53,0,0,1,6.15-.5,70.93,70.93,0,0,1,13.58,1.44c.07,1.69.16,3.25.25,4.66s.34,3.89.7,7.43a33.92,33.92,0,0,0-6.19-1.9,26.88,26.88,0,0,0-4.83-.53,9.69,9.69,0,0,0-4.78,1.07A3.1,3.1,0,0,0,524,70.8a3.57,3.57,0,0,0,.3,1.44,6.3,6.3,0,0,0,1.11,1.64A19.38,19.38,0,0,0,527.58,76q1.33,1.13,4.17,3.34l2.66,2.1c.78.64,1.63,1.41,2.54,2.32a25.38,25.38,0,0,1,2.36,2.69,15.79,15.79,0,0,1,1.53,2.44,10.08,10.08,0,0,1,.79,2.23,10.86,10.86,0,0,1,.26,2.41,13.5,13.5,0,0,1-6.08,11.27,19,19,0,0,1-6.4,2.71,34.25,34.25,0,0,1-7.36.77A84.09,84.09,0,0,1,507,106.5Z"/><path class="cls-1" d="M545.53,107.27q2.12-29.61,2.12-45.57l0-4.76q6.45.08,8.63.07l7.94-.07q-.68,8.3-1.08,15.71Q562.6,83,562.37,92t-.22,15.32l-7.56-.07Q552.39,107.2,545.53,107.27Z"/><path class="cls-1" d="M567.49,107.27c.54-5.6.92-10.09,1.11-13.46q.45-7.52.89-19.47.35-9.14.34-13.09V56.94c2.87.07,5.36.11,7.45.11s4.65,0,7.92-.17,6.34-.16,9.22-.16a55.14,55.14,0,0,1,8.66.59A20.2,20.2,0,0,1,610,59.74a17.13,17.13,0,0,1,5.4,4.83,22,22,0,0,1,3.32,7,29.92,29.92,0,0,1,1.14,8.24,35.71,35.71,0,0,1-.88,8,29.64,29.64,0,0,1-2.48,7,22.5,22.5,0,0,1-3.7,5.33,21.82,21.82,0,0,1-4.85,3.82,21.12,21.12,0,0,1-4.09,1.84,30.63,30.63,0,0,1-5.65,1.07,81.19,81.19,0,0,1-9,.44l-14.9-.11Q572.21,107.16,567.49,107.27Zm15.94-11.1c1.35.13,2.77.19,4.24.19a30.23,30.23,0,0,0,6.71-.67,10.52,10.52,0,0,0,5.17-2.84,13,13,0,0,0,3.3-5.58,23,23,0,0,0,1.07-7,15.77,15.77,0,0,0-1.58-7.39,9,9,0,0,0-4.22-4.19,17.86,17.86,0,0,0-7.18-1.18c-1.77,0-3.86.08-6.27.22Z"/><path class="cls-1" d="M622,107.27q.93-9.51,1.35-15.93t.85-17q.43-10.64.43-14.11l0-3.24q8.7.08,21,.07,11.4,0,20.1-.07l-.08,1.21c0,.3-.08,1.36-.18,3.2l-.22,4c0,.85-.08,1.72-.08,2.61q-7.11-.3-11.94-.3l-7.18,0c-1.24,0-3.17.07-5.8.16l-.45,8.49q4.35.1,10.14.11,2.07,0,11-.26c-.24,3.14-.48,6.89-.7,11.24q-6.37-.08-9.8-.07-5.09,0-11.39.26l-.44,9h4.24c1.25,0,3.85,0,7.78-.11l7.63-.19c1.13,0,3-.12,5.67-.29q-.44,5.46-.74,11.28-9-.08-19.73-.07l-16.22,0Z"/><path class="cls-1" d="M668,107.27q.3-4.93.52-13.35l7.59.11c.82,0,3,0,6.42-.11-.2,2.69-.42,7.13-.66,13.35l-6.42-.07Z"/><path class="cls-1" d="M688.77,56.94q5.76.08,8.11.07c2,0,4.58,0,7.85-.07l-1.09,15.67c-.23,3-.39,5.72-.5,8.3s-.16,4.36-.16,5.35a22.84,22.84,0,0,0,.4,4.68,7.35,7.35,0,0,0,1.48,3.19,6.47,6.47,0,0,0,3,2,12,12,0,0,0,4,.66,11.15,11.15,0,0,0,3.32-.48,7.52,7.52,0,0,0,2.17-1.1,7.11,7.11,0,0,0,1.47-1.53A10.85,10.85,0,0,0,720.11,91a15.92,15.92,0,0,0,.88-3.86c.23-1.61.52-5.27.89-11q.48-7.29.74-13.35c.14-3.92.28-5.88.4-5.88h16.26l-1.79,26.18c0,.49,0,.9,0,1.22a54.62,54.62,0,0,1-1,10.82,14.18,14.18,0,0,1-2.63,5.48,16.76,16.76,0,0,1-5.39,4.18,27.15,27.15,0,0,1-8,2.64,54.29,54.29,0,0,1-9.11.77,52.9,52.9,0,0,1-8-.59,31,31,0,0,1-6.38-1.71,22.77,22.77,0,0,1-4.94-2.64,12.62,12.62,0,0,1-2.95-2.86A11.67,11.67,0,0,1,687.47,97a17.66,17.66,0,0,1-.66-4.91c0-.59,0-1.48.07-2.67s.16-2.91.34-5.14l.48-5.9q.18-2.33.41-6.83Z"/><path class="cls-1" d="M734.88,107.27l3.06-5.31L757,66.05l2-4q.88-1.77,2.47-5.09Q768,57,771,57q5.21,0,9.63-.07L786,72.31l10.94,29.58,2.14,5.38q-6.39-.08-7.75-.07-3.11,0-9.12.07-1.62-6.08-4.67-14.31H759q-3.21,6.5-6.63,14.31c-4.58,0-7.38-.07-8.42-.07Q741.12,107.2,734.88,107.27Zm28.55-25h11.45q-4.26-13-4.67-14.33-2.43,5.41-4.13,8.88Z"/></g></g></svg>