<svg xmlns="http://www.w3.org/2000/svg" viewBox="0 0 756.56 186.28"><defs><style>.cls-1{fill:#000b8c;}.cls-2{fill:#ff671d;}</style></defs><title>Ресурс 1</title><g id="Слой_2" data-name="Слой 2"><g id="Слой_1-2" data-name="Слой 1"><circle class="cls-1" cx="13.37" cy="13.4" r="11.42"/><circle class="cls-1" cx="104.4" cy="58.91" r="11.42"/><circle class="cls-1" cx="104.4" cy="104.43" r="11.42"/><circle class="cls-1" cx="58.89" cy="104.43" r="11.42"/><path class="cls-2" d="M22.83,113.88a13.37,13.37,0,0,0,0-18.9h0a18.83,18.83,0,0,1,0-26.6h0a18.83,18.83,0,0,1,26.61,0,13.35,13.35,0,0,0,18.9,0h0a13.37,13.37,0,0,0,0-18.91h0a18.79,18.79,0,0,1,0-26.59h0a18.79,18.79,0,0,1,26.59,0h0a13.37,13.37,0,0,0,18.9,0h0a18.79,18.79,0,0,1,26.59,0h0a13.39,13.39,0,0,0,18.91,0h0a13.37,13.37,0,0,0,0-18.9h0a13.39,13.39,0,0,0-18.91,0h0a18.73,18.73,0,0,1-13.29,5.5A18.76,18.76,0,0,1,113.86,4h0a13.37,13.37,0,0,0-18.9,0A18.73,18.73,0,0,1,81.64,9.45,18.73,18.73,0,0,1,68.35,4h0a13.37,13.37,0,0,0-18.9,0h0a13.35,13.35,0,0,0,0,18.9h0a18.82,18.82,0,0,1,0,26.59h0a18.81,18.81,0,0,1-26.6,0h0a13.37,13.37,0,0,0-18.9,0h0a13.37,13.37,0,0,0,0,18.9A18.76,18.76,0,0,1,9.43,81.67,18.76,18.76,0,0,1,3.91,95a13.37,13.37,0,0,0,0,18.9h0a13.37,13.37,0,0,0,18.9,0Z"/><circle class="cls-1" cx="149.91" cy="58.91" r="11.42"/><path class="cls-2" d="M159.37,95a13.39,13.39,0,0,0-18.91,0h0a13.37,13.37,0,0,0,0,18.9h0a13.39,13.39,0,0,0,18.91,0h0a13.37,13.37,0,0,0,0-18.9Z"/><path class="cls-2" d="M4,162.47v8.34h11.3v3.28H4v11.84H0V159.19H17.76v3.28Z"/><path class="cls-2" d="M33.84,185.93h-4V159.19h4Z"/><path class="cls-2" d="M71.56,185.93H66.78L52.45,164.64v21.29h-4V159.19h4.77L67.6,180.47V159.19h4Z"/><path class="cls-2" d="M102.4,162.47H94.13v23.46h-4V162.47H81.9v-3.28h20.5Z"/><path class="cls-2" d="M131.21,182.65v3.28H112.75V159.19h17.79v3.28H116.7v7.91H128v3.32H116.7v9Z"/><path class="cls-2" d="M165.37,182.22a13,13,0,0,1-9.87,4.06,13.71,13.71,0,0,1,0-27.41,13.07,13.07,0,0,1,9.91,4.1l-2.61,2.6a8.74,8.74,0,0,0-7.3-3.42c-5.53,0-9.63,4.92-9.63,10.41,0,5,3.71,10.44,9.63,10.44,2.56,0,5.84-1,7.27-3.38Z"/><path class="cls-2" d="M197.68,159.19v26.74h-4V174.2H181.13v11.73h-3.95V159.19h3.95v11.73h12.59V159.19Z"/><path class="cls-2" d="M246,185.93l-1.89-2.14c-2.07,1.85-4.25,2.49-8.1,2.49a9,9,0,0,1-9.12-9.16,9.55,9.55,0,0,1,4.42-8.13,6.47,6.47,0,0,1-1.43-4.06,6.17,6.17,0,0,1,12.34,0,6.68,6.68,0,0,1-1.39,4.06,6.19,6.19,0,0,1-2,1.61,7.22,7.22,0,0,1-1.1.42l6.24,7a11,11,0,0,0,1-2.85l3.63.64a15.14,15.14,0,0,1-1.35,4,6.48,6.48,0,0,1-.68,1.18l4.49,5ZM241.68,181l-8.1-9.06a5.84,5.84,0,0,0-3,5.17,5.38,5.38,0,0,0,5.49,5.49A8.48,8.48,0,0,0,241.68,181Zm-8.1-15.73a2.51,2.51,0,1,0,2.5-2.7A2.62,2.62,0,0,0,233.58,165.28Z"/><path class="cls-2" d="M296.62,159.19v18.29c0,4.31-2.1,8.8-8.66,8.8s-8.73-4.49-8.73-8.8h3.95c0,1.6.15,5.52,4.78,5.52s4.67-3.92,4.67-5.52V159.19Z"/><path class="cls-2" d="M330.64,185.93h-4.28l-2.67-7H313.17l-2.64,7h-4.28l11-26.74h2.43Zm-8.2-10.27-4-10.55-4,10.55Z"/><path class="cls-2" d="M348.79,185.93l-10.3-26.74h4.24l7.2,19.68,7.17-19.68h4.24L351,185.93Z"/><path class="cls-2" d="M393.22,185.93h-4.28l-2.68-7H375.75l-2.64,7h-4.28l11-26.74h2.42ZM385,175.66l-4-10.55-4,10.55Z"/><path class="cls-2" d="M440.21,182.65v3.28H421.74V159.19h17.79v3.28H425.7v7.91H437v3.32H425.7v9Z"/><path class="cls-2" d="M475.8,185.93H471l-14.33-21.29v21.29h-4V159.19h4.78l14.37,21.28V159.19h4Z"/><path class="cls-2" d="M514.73,171v15h-4V182.5a13.08,13.08,0,0,1-9.62,3.78,13.71,13.71,0,0,1,0-27.41,13,13,0,0,1,9.91,4.1l-2.6,2.6a9.31,9.31,0,0,0-7.31-3.42c-5.74,0-9.59,4.6-9.59,10.41,0,5,3.67,10.44,9.59,10.44a8.68,8.68,0,0,0,6.74-2.74,11.4,11.4,0,0,0,2.78-6h-6.81V171Z"/><path class="cls-2" d="M531.53,185.93h-4V159.19h4Z"/><path class="cls-2" d="M569.25,185.93h-4.78l-14.33-21.29v21.29h-4V159.19h4.78l14.36,21.28V159.19h4Z"/><path class="cls-2" d="M601.27,182.65v3.28H582.8V159.19h17.79v3.28H586.76v7.91h11.3v3.32h-11.3v9Z"/><path class="cls-2" d="M631.86,182.65v3.28H613.4V159.19h17.79v3.28H617.35v7.91h11.31v3.32H617.35v9Z"/><path class="cls-2" d="M657.72,177.44l5.74,8.49h-4.39l-5.24-7.77h-6.24v7.77h-4V159.19H654a9.52,9.52,0,0,1,3.71,18.25Zm-10.13-2.57H654c3,0,5.53-2.56,5.53-6.2s-2.5-6.2-5.53-6.2h-6.38Z"/><path class="cls-2" d="M679.9,185.93h-4V159.19h4Z"/><path class="cls-2" d="M717.62,185.93h-4.78l-14.33-21.29v21.29h-4V159.19h4.78l14.37,21.28V159.19h4Z"/><path class="cls-2" d="M756.56,171v15h-4V182.5a13.12,13.12,0,0,1-9.63,3.78,13.71,13.71,0,0,1,0-27.41,13,13,0,0,1,9.91,4.1l-2.6,2.6a9.31,9.31,0,0,0-7.31-3.42c-5.74,0-9.59,4.6-9.59,10.41,0,5,3.67,10.44,9.59,10.44a8.66,8.66,0,0,0,6.74-2.74,11.32,11.32,0,0,0,2.78-6h-6.81V171Z"/><path class="cls-1" d="M680.19,0a19.14,19.14,0,0,0-18.87,19.13v1.53H698.6V117.8h20.68V20.67h37.28V0Z"/><path class="cls-1" d="M505,0A19.15,19.15,0,0,0,486.9,13h0L452.72,117.8h21.75l12-36.7h26.17l-6.67-20.67H493.19l11.86-36.38,18.38,57,6.67,20.68,5.17,16H557L519,0Z"/><path class="cls-1" d="M318.8,81.39,268.54,0h-3.35a19.14,19.14,0,0,0-19.14,19.14V117.8h20.68V36.43L317,117.8h22.49V0H318.8Z"/><path class="cls-1" d="M204.7,19.15V117.8h20.68V0h-1.54A19.14,19.14,0,0,0,204.7,19.15Z"/><path class="cls-1" d="M447.49,36.27A38.26,38.26,0,0,0,444,21.39a32.67,32.67,0,0,0-8.9-11.48,41.11,41.11,0,0,0-13.72-7.32,58.25,58.25,0,0,0-18-2.58,55.49,55.49,0,0,0-17.88,2.58,38.4,38.4,0,0,0-12.73,7A27.37,27.37,0,0,0,365.16,20a33,33,0,0,0-2.5,12.81q0,9,2.83,14.8a25.24,25.24,0,0,0,8.82,9.9,54.59,54.59,0,0,0,15.22,6.82q9.23,2.74,21.87,5.41a49.68,49.68,0,0,1,8.65,2.57,17.51,17.51,0,0,1,5.24,3.25,9.39,9.39,0,0,1,2.58,4.07,17.4,17.4,0,0,1,.66,4.91,12.55,12.55,0,0,1-5.65,10.81q-5.67,4-16.64,4-10.14,0-16.88-4.91A16.08,16.08,0,0,1,382.46,81H360.17q.66,18.28,12.81,27.61,10.65,8.18,30.55,9.17h9.92a55.58,55.58,0,0,0,11.92-2.1,41.4,41.4,0,0,0,13.31-6.49,31.76,31.76,0,0,0,9-10.39A29.27,29.27,0,0,0,451,84.68a41.87,41.87,0,0,0-1.33-11.31,28.14,28.14,0,0,0-3.58-8,20.93,20.93,0,0,0-5.49-5.57,35.94,35.94,0,0,0-6.9-3.74,107.14,107.14,0,0,0-14.31-5q-7.81-2.16-18.46-4.66-9-2.16-13.06-5.41A9.91,9.91,0,0,1,383.79,33q0-13.49,19.63-13.48,10.63,0,16,4.16a14.42,14.42,0,0,1,3.28,3.8h0a19,19,0,0,0,16.23,8.83Z"/><path class="cls-1" d="M588.68,117.8H568V19.15A19.14,19.14,0,0,1,587.14,0h27.32a40.49,40.49,0,0,1,26.43,71l15.89,46.83H635L622.22,80.29a40.26,40.26,0,0,1-8.05.81H599V60.43h15.16a19.88,19.88,0,0,0,0-39.76H588.68Z"/></g></g></svg>