<svg width="425" height="128" viewBox="0 0 425 128" fill="none" xmlns="http://www.w3.org/2000/svg">
<path d="M421.184 24.1406V23.0469H421.867C422.418 23.0469 422.621 23.25 422.621 23.5938C422.621 23.9375 422.418 24.1406 421.867 24.1406H421.184ZM423.035 23.5938C423.035 22.9062 422.555 22.6328 421.867 22.6328H420.77V25.7891H421.184V24.5508H421.867L422.621 25.7891H423.102L422.281 24.4844C422.758 24.418 423.035 24.1406 423.035 23.5938ZM421.867 26.8828C420.359 26.8828 419.195 25.7188 419.195 24.2109C419.195 22.7695 420.359 21.6055 421.867 21.6055C423.309 21.6055 424.473 22.7695 424.473 24.2109C424.473 25.7188 423.309 26.8828 421.867 26.8828ZM421.867 21.1914C420.156 21.1914 418.785 22.5664 418.785 24.2109C418.785 25.9258 420.156 27.2969 421.867 27.2969C423.512 27.2969 424.883 25.9258 424.883 24.2109C424.883 22.5664 423.512 21.1914 421.867 21.1914ZM175.438 0C169.727 0 165.234 4.49219 165.234 10.3242C165.234 16.0352 169.727 20.5312 175.438 20.5312C181.391 20.5312 185.887 16.0352 185.887 10.3242C185.887 4.49219 181.391 0 175.438 0ZM213.953 8.86719H198.402V28.0625H190.016V41.9141H198.402V90.3906H213.953V41.9141H222.457V28.0625H213.953V8.86719ZM328.039 41.1836C334.598 41.1836 339.945 44.5859 344.074 49.3281L354.887 38.6328C348.812 30.9805 339.215 26.1211 328.281 26.1211C309.449 26.1211 294.625 40.457 294.625 59.168C294.625 77.8789 309.449 92.2148 328.281 92.2148C339.215 92.2148 348.812 87.3555 354.887 79.6992L344.074 69.0078C340.066 73.625 334.598 77.1484 327.914 77.1484C317.953 77.1484 310.297 69.375 310.297 59.168C310.297 48.9609 317.953 41.1836 328.039 41.1836ZM395.102 26.1211C387.449 26.1211 380.887 29.0352 376.27 34.0156V1.69922H360.719V90.3906H376.27V56.4922C376.27 47.5039 381.98 41.3086 391.457 41.3086C400.328 41.3086 405.184 46.7734 405.184 56.4922V90.3906H420.738V53.6992C420.738 36.4492 409.926 26.1211 395.102 26.1211ZM257.449 26.1211C238.738 26.1211 224.523 40.457 224.523 59.5312C224.523 78.3633 237.523 92.2148 257.691 92.2148C268.867 92.2148 278.832 88.082 286.121 80.3086L275.672 69.9805C270.57 74.8398 265.102 78.3633 258.055 78.3633C249.551 78.3633 243.109 73.5039 240.926 65.3633H289.402V61.5977C289.402 40.3359 276.281 26.1211 257.449 26.1211ZM240.559 52.7266C242.625 44.4648 248.941 39.8477 257.082 39.8477C265.223 39.8477 271.297 44.3438 273.242 52.7266H240.559ZM127.934 112.504C117.969 112.504 110.074 104.73 110.074 94.6445H94.2812C94.2812 113.355 109.102 127.691 127.934 127.691C146.766 127.691 161.59 113.355 161.59 94.6445H145.793C145.793 104.73 137.895 112.504 127.934 112.504ZM167.785 90.3906H183.336V28.0625H167.785V90.3906ZM0 90.3906H15.5508V1.69922H0V90.3906ZM55.2773 26.1211C36.4492 26.1211 21.625 40.457 21.625 59.168C21.625 77.8789 36.4492 92.2148 55.2773 92.2148C74.1133 92.2148 88.9336 77.8789 88.9336 59.168C88.9336 40.457 74.1133 26.1211 55.2773 26.1211ZM55.2773 77.1484C45.3164 77.1484 37.418 69.2539 37.418 59.0469C37.418 48.9609 45.3164 41.1836 55.2773 41.1836C65.3633 41.1836 73.2617 48.9609 73.2617 59.168C73.2617 69.375 65.3633 77.1484 55.2773 77.1484ZM160.98 40.457V28.0625H139.109C135.586 26.8516 131.82 26.1211 127.934 26.1211C109.102 26.1211 94.2812 40.457 94.2812 59.168C94.2812 77.8789 109.102 92.2148 127.934 92.2148C146.766 92.2148 161.59 77.8789 161.59 59.168C161.59 52.8477 159.887 46.6523 156.484 42.0352L160.98 40.457ZM127.934 77.1484C117.969 77.1484 110.074 69.2539 110.074 59.0469C110.074 48.9609 117.969 41.1836 127.934 41.1836C138.016 41.1836 145.914 48.9609 145.914 59.168C145.914 69.375 138.016 77.1484 127.934 77.1484Z" fill="#1B1A19"/>
</svg>
