<?xml version="1.0" encoding="UTF-8"?>
<svg xmlns="http://www.w3.org/2000/svg" xmlns:xlink="http://www.w3.org/1999/xlink" width="410pt" height="96pt" viewBox="0 0 410 96" version="1.1">
<defs>
<clipPath id="clip1">
  <path d="M 121 31 L 155 31 L 155 73 L 121 73 Z M 121 31 "/>
</clipPath>
<clipPath id="clip2">
  <path d="M 125.808594 70.746094 C 124.308594 70.171875 123.324219 68.957031 123.324219 67.339844 C 123.324219 65.375 124.941406 63.757813 126.90625 63.757813 C 127.480469 63.757813 127.941406 63.871094 128.347656 64.042969 C 130.890625 65.199219 133.601563 65.894531 136.894531 65.894531 C 142.898438 65.894531 145.726563 63.003906 145.726563 57.457031 L 145.726563 55.953125 C 143.128906 59.074219 140.300781 60.980469 135.625 60.980469 C 128.40625 60.980469 121.878906 55.722656 121.878906 46.53125 L 121.878906 46.417969 C 121.878906 37.171875 128.519531 31.96875 135.625 31.96875 C 140.414063 31.96875 143.246094 33.992188 145.609375 36.59375 L 145.609375 36.535156 C 145.609375 34.164063 147.574219 32.203125 150 32.203125 C 152.425781 32.203125 154.386719 34.164063 154.386719 36.59375 L 154.386719 56.53125 C 154.386719 62.082031 153.0625 66.125 150.460938 68.726563 C 147.574219 71.617188 143.128906 72.886719 137.125 72.886719 C 133.023438 72.886719 129.445313 72.195313 125.808594 70.746094 Z M 145.726563 46.53125 L 145.726563 46.417969 C 145.726563 42.199219 142.4375 39.25 138.164063 39.25 C 133.890625 39.25 130.65625 42.199219 130.65625 46.417969 L 130.65625 46.53125 C 130.65625 50.808594 133.890625 53.699219 138.164063 53.699219 C 142.4375 53.699219 145.726563 50.753906 145.726563 46.53125 Z M 145.726563 46.53125 "/>
</clipPath>
<clipPath id="clip3">
  <path d="M 159 32 L 179 32 L 179 64 L 159 64 Z M 159 32 "/>
</clipPath>
<clipPath id="clip4">
  <path d="M 159.355469 36.59375 C 159.355469 34.164063 161.316406 32.203125 163.742188 32.203125 C 166.167969 32.203125 168.128906 34.164063 168.128906 36.59375 L 168.128906 37.976563 C 169.402344 34.976563 171.480469 32.203125 174.078125 32.203125 C 176.792969 32.203125 178.351563 33.992188 178.351563 36.476563 C 178.351563 38.789063 176.847656 40.175781 175.0625 40.582031 C 170.613281 41.621094 168.128906 45.03125 168.128906 51.273438 L 168.128906 59.476563 C 168.128906 61.90625 166.167969 63.871094 163.742188 63.871094 C 161.316406 63.871094 159.355469 61.90625 159.355469 59.476563 L 159.355469 36.59375 "/>
</clipPath>
<clipPath id="clip5">
  <path d="M 177 32 L 206 32 L 206 65 L 177 65 Z M 177 32 "/>
</clipPath>
<clipPath id="clip6">
  <path d="M 177.3125 54.625 L 177.3125 54.507813 C 177.3125 47.746094 182.449219 44.625 189.785156 44.625 C 192.902344 44.625 195.152344 45.144531 197.347656 45.898438 L 197.347656 45.375 C 197.347656 41.738281 195.09375 39.710938 190.707031 39.710938 C 188.28125 39.710938 186.320313 40.0625 184.644531 40.582031 C 184.125 40.753906 183.78125 40.8125 183.375 40.8125 C 181.355469 40.8125 179.738281 39.25 179.738281 37.226563 C 179.738281 35.667969 180.71875 34.339844 182.105469 33.816406 C 184.875 32.777344 187.878906 32.203125 191.976563 32.203125 C 196.769531 32.203125 200.234375 33.472656 202.425781 35.667969 C 204.738281 37.976563 205.777344 41.390625 205.777344 45.550781 L 205.777344 59.652344 C 205.777344 62.023438 203.871094 63.871094 201.503906 63.871094 C 198.964844 63.871094 197.289063 62.082031 197.289063 60.230469 L 197.289063 60.171875 C 195.152344 62.542969 192.210938 64.101563 187.933594 64.101563 C 182.105469 64.101563 177.3125 60.75 177.3125 54.625 Z M 197.464844 52.601563 L 197.464844 51.039063 C 195.960938 50.347656 194 49.882813 191.859375 49.882813 C 188.109375 49.882813 185.800781 51.386719 185.800781 54.164063 L 185.800781 54.277344 C 185.800781 56.648438 187.765625 58.035156 190.589844 58.035156 C 194.691406 58.035156 197.464844 55.78125 197.464844 52.601563 Z M 197.464844 52.601563 "/>
</clipPath>
<clipPath id="clip7">
  <path d="M 210 31 L 258 31 L 258 64 L 210 64 Z M 210 31 "/>
</clipPath>
<clipPath id="clip8">
  <path d="M 210.457031 36.59375 C 210.457031 34.164063 212.417969 32.203125 214.84375 32.203125 C 217.269531 32.203125 219.234375 34.164063 219.234375 36.59375 L 219.234375 36.941406 C 221.253906 34.339844 223.910156 31.96875 228.355469 31.96875 C 232.394531 31.96875 235.457031 33.761719 237.070313 36.882813 C 239.785156 33.703125 243.019531 31.96875 247.234375 31.96875 C 253.761719 31.96875 257.6875 35.898438 257.6875 43.355469 L 257.6875 59.476563 C 257.6875 61.90625 255.722656 63.871094 253.296875 63.871094 C 250.871094 63.871094 248.910156 61.90625 248.910156 59.476563 L 248.910156 46.246094 C 248.910156 42.082031 247.0625 39.945313 243.769531 39.945313 C 240.480469 39.945313 238.460938 42.082031 238.460938 46.246094 L 238.460938 59.476563 C 238.460938 61.90625 236.496094 63.871094 234.070313 63.871094 C 231.644531 63.871094 229.679688 61.90625 229.679688 59.476563 L 229.679688 46.246094 C 229.679688 42.082031 227.835938 39.945313 224.542969 39.945313 C 221.253906 39.945313 219.234375 42.082031 219.234375 46.246094 L 219.234375 59.476563 C 219.234375 61.90625 217.269531 63.871094 214.84375 63.871094 C 212.417969 63.871094 210.457031 61.90625 210.457031 59.476563 L 210.457031 36.59375 "/>
</clipPath>
<clipPath id="clip9">
  <path d="M 262 31 L 310 31 L 310 64 L 262 64 Z M 262 31 "/>
</clipPath>
<clipPath id="clip10">
  <path d="M 262.421875 36.59375 C 262.421875 34.164063 264.386719 32.203125 266.8125 32.203125 C 269.234375 32.203125 271.199219 34.164063 271.199219 36.59375 L 271.199219 36.941406 C 273.21875 34.339844 275.878906 31.96875 280.320313 31.96875 C 284.363281 31.96875 287.421875 33.761719 289.039063 36.882813 C 291.753906 33.703125 294.988281 31.96875 299.199219 31.96875 C 305.726563 31.96875 309.652344 35.898438 309.652344 43.355469 L 309.652344 59.476563 C 309.652344 61.90625 307.691406 63.871094 305.265625 63.871094 C 302.839844 63.871094 300.875 61.90625 300.875 59.476563 L 300.875 46.246094 C 300.875 42.082031 299.027344 39.945313 295.738281 39.945313 C 292.445313 39.945313 290.425781 42.082031 290.425781 46.246094 L 290.425781 59.476563 C 290.425781 61.90625 288.464844 63.871094 286.035156 63.871094 C 283.613281 63.871094 281.648438 61.90625 281.648438 59.476563 L 281.648438 46.246094 C 281.648438 42.082031 279.804688 39.945313 276.511719 39.945313 C 273.21875 39.945313 271.199219 42.082031 271.199219 46.246094 L 271.199219 59.476563 C 271.199219 61.90625 269.234375 63.871094 266.8125 63.871094 C 264.386719 63.871094 262.421875 61.90625 262.421875 59.476563 L 262.421875 36.59375 "/>
</clipPath>
<clipPath id="clip11">
  <path d="M 312 32 L 342 32 L 342 65 L 312 65 Z M 312 32 "/>
</clipPath>
<clipPath id="clip12">
  <path d="M 312.542969 54.625 L 312.542969 54.507813 C 312.542969 47.746094 317.683594 44.625 325.011719 44.625 C 328.132813 44.625 330.382813 45.144531 332.578125 45.898438 L 332.578125 45.375 C 332.578125 41.738281 330.328125 39.710938 325.9375 39.710938 C 323.511719 39.710938 321.550781 40.0625 319.875 40.582031 C 319.355469 40.753906 319.011719 40.8125 318.605469 40.8125 C 316.582031 40.8125 314.96875 39.25 314.96875 37.226563 C 314.96875 35.667969 315.949219 34.339844 317.335938 33.816406 C 320.105469 32.777344 323.109375 32.203125 327.207031 32.203125 C 332 32.203125 335.464844 33.472656 337.65625 35.667969 C 339.96875 37.976563 341.007813 41.390625 341.007813 45.550781 L 341.007813 59.652344 C 341.007813 62.023438 339.101563 63.871094 336.734375 63.871094 C 334.195313 63.871094 332.519531 62.082031 332.519531 60.230469 L 332.519531 60.171875 C 330.382813 62.542969 327.4375 64.101563 323.167969 64.101563 C 317.335938 64.101563 312.542969 60.75 312.542969 54.625 Z M 332.691406 52.601563 L 332.691406 51.039063 C 331.191406 50.347656 329.226563 49.882813 327.09375 49.882813 C 323.339844 49.882813 321.03125 51.386719 321.03125 54.164063 L 321.03125 54.277344 C 321.03125 56.648438 322.992188 58.035156 325.820313 58.035156 C 329.921875 58.035156 332.691406 55.78125 332.691406 52.601563 Z M 332.691406 52.601563 "/>
</clipPath>
<clipPath id="clip13">
  <path d="M 345 32 L 365 32 L 365 64 L 345 64 Z M 345 32 "/>
</clipPath>
<clipPath id="clip14">
  <path d="M 345.683594 36.59375 C 345.683594 34.164063 347.648438 32.203125 350.074219 32.203125 C 352.5 32.203125 354.460938 34.164063 354.460938 36.59375 L 354.460938 37.976563 C 355.730469 34.976563 357.808594 32.203125 360.410156 32.203125 C 363.121094 32.203125 364.679688 33.992188 364.679688 36.476563 C 364.679688 38.789063 363.179688 40.175781 361.390625 40.582031 C 356.945313 41.621094 354.460938 45.03125 354.460938 51.273438 L 354.460938 59.476563 C 354.460938 61.90625 352.5 63.871094 350.074219 63.871094 C 347.648438 63.871094 345.683594 61.90625 345.683594 59.476563 L 345.683594 36.59375 "/>
</clipPath>
<clipPath id="clip15">
  <path d="M 367 20 L 377 20 L 377 64 L 367 64 Z M 367 20 "/>
</clipPath>
<clipPath id="clip16">
  <path d="M 367.339844 25.378906 C 367.339844 22.953125 369.300781 20.988281 371.726563 20.988281 C 374.152344 20.988281 376.117188 22.953125 376.117188 25.378906 L 376.117188 59.476563 C 376.117188 61.90625 374.152344 63.871094 371.726563 63.871094 C 369.300781 63.871094 367.339844 61.90625 367.339844 59.476563 L 367.339844 25.378906 "/>
</clipPath>
<clipPath id="clip17">
  <path d="M 379 32 L 410 32 L 410 73 L 379 73 Z M 379 32 "/>
</clipPath>
<clipPath id="clip18">
  <path d="M 383.101563 72.136719 C 381.828125 71.675781 380.328125 70.632813 380.328125 68.496094 C 380.328125 66.355469 382.003906 64.910156 383.796875 64.910156 C 384.488281 64.910156 384.890625 65.027344 385.238281 65.140625 C 385.988281 65.375 386.449219 65.492188 387.085938 65.492188 C 388.644531 65.492188 389.394531 65.199219 390.203125 63.640625 L 390.492188 62.945313 L 379.925781 38.441406 C 379.695313 37.863281 379.464844 36.996094 379.464844 36.417969 C 379.464844 33.933594 381.371094 32.203125 383.796875 32.203125 C 385.988281 32.203125 387.257813 33.414063 388.007813 35.492188 L 394.707031 53.527344 L 401.171875 35.550781 C 401.867188 33.703125 403.132813 32.203125 405.386719 32.203125 C 407.640625 32.203125 409.542969 33.933594 409.542969 36.246094 C 409.542969 36.941406 409.3125 37.921875 409.140625 38.328125 L 398.34375 64.277344 C 395.746094 70.574219 393.148438 72.945313 387.894531 72.945313 C 385.929688 72.945313 384.546875 72.65625 383.101563 72.136719 "/>
</clipPath>
<clipPath id="clip19">
  <path d="M 1 0 L 98 0 L 98 96 L 1 96 Z M 1 0 "/>
</clipPath>
<clipPath id="clip20">
  <path d="M 97.59375 48 C 97.59375 74.507813 76.128906 96 49.640625 96 C 23.160156 96 1.6875 74.507813 1.6875 48 C 1.6875 21.488281 23.160156 0 49.640625 0 C 76.128906 0 97.59375 21.488281 97.59375 48 "/>
</clipPath>
<clipPath id="clip21">
  <path d="M 21 19 L 77 19 L 77 77 L 21 77 Z M 21 19 "/>
</clipPath>
<clipPath id="clip22">
  <path d="M 55.910156 58.363281 C 56.191406 59.933594 57.667969 61.011719 59.265625 61.011719 L 64.289063 61.011719 L 67.203125 60.601563 C 62.542969 67.445313 54.449219 70.59375 45.601563 69.207031 C 38.402344 68.074219 32.214844 63.199219 29.605469 56.386719 C 23.679688 40.921875 34.960938 26.160156 49.664063 26.160156 C 57.324219 26.160156 64.046875 30.648438 67.894531 36.070313 C 69.003906 37.636719 70.949219 38.085938 72.421875 37.0625 C 73.824219 36.089844 74.234375 34.242188 73.390625 32.789063 C 68.0625 24.464844 58.484375 19.136719 47.71875 19.855469 C 33.695313 20.796875 22.351563 32.28125 21.542969 46.328125 C 20.605469 62.667969 33.554688 76.007813 49.664063 76.007813 C 58.125 76.007813 65.699219 72.320313 70.859375 66.355469 L 70.246094 69.777344 L 70.246094 72.871094 C 70.246094 74.464844 71.320313 75.945313 72.890625 76.226563 C 74.953125 76.597656 76.746094 75.023438 76.746094 73.027344 L 76.746094 54.503906 L 59.101563 54.503906 C 57.109375 54.503906 55.535156 56.300781 55.910156 58.363281 Z M 55.910156 58.363281 "/>
</clipPath>
</defs>
<g id="surface1">
<g clip-path="url(#clip1)" clip-rule="nonzero">
<g clip-path="url(#clip2)" clip-rule="evenodd">
<path style=" stroke:none;fill-rule:nonzero;fill:rgb(28.999329%,28.999329%,28.999329%);fill-opacity:1;" d="M 111.878906 82.886719 L 164.386719 82.886719 L 164.386719 21.96875 L 111.878906 21.96875 Z M 111.878906 82.886719 "/>
</g>
</g>
<g clip-path="url(#clip3)" clip-rule="nonzero">
<g clip-path="url(#clip4)" clip-rule="evenodd">
<path style=" stroke:none;fill-rule:nonzero;fill:rgb(28.999329%,28.999329%,28.999329%);fill-opacity:1;" d="M 149.355469 73.871094 L 188.351563 73.871094 L 188.351563 22.203125 L 149.355469 22.203125 Z M 149.355469 73.871094 "/>
</g>
</g>
<g clip-path="url(#clip5)" clip-rule="nonzero">
<g clip-path="url(#clip6)" clip-rule="evenodd">
<path style=" stroke:none;fill-rule:nonzero;fill:rgb(28.999329%,28.999329%,28.999329%);fill-opacity:1;" d="M 167.3125 74.101563 L 215.777344 74.101563 L 215.777344 22.203125 L 167.3125 22.203125 Z M 167.3125 74.101563 "/>
</g>
</g>
<g clip-path="url(#clip7)" clip-rule="nonzero">
<g clip-path="url(#clip8)" clip-rule="evenodd">
<path style=" stroke:none;fill-rule:nonzero;fill:rgb(28.999329%,28.999329%,28.999329%);fill-opacity:1;" d="M 200.457031 73.871094 L 267.6875 73.871094 L 267.6875 21.96875 L 200.457031 21.96875 Z M 200.457031 73.871094 "/>
</g>
</g>
<g clip-path="url(#clip9)" clip-rule="nonzero">
<g clip-path="url(#clip10)" clip-rule="evenodd">
<path style=" stroke:none;fill-rule:nonzero;fill:rgb(28.999329%,28.999329%,28.999329%);fill-opacity:1;" d="M 252.421875 73.871094 L 319.652344 73.871094 L 319.652344 21.96875 L 252.421875 21.96875 Z M 252.421875 73.871094 "/>
</g>
</g>
<g clip-path="url(#clip11)" clip-rule="nonzero">
<g clip-path="url(#clip12)" clip-rule="evenodd">
<path style=" stroke:none;fill-rule:nonzero;fill:rgb(28.999329%,28.999329%,28.999329%);fill-opacity:1;" d="M 302.542969 74.101563 L 351.007813 74.101563 L 351.007813 22.203125 L 302.542969 22.203125 Z M 302.542969 74.101563 "/>
</g>
</g>
<g clip-path="url(#clip13)" clip-rule="nonzero">
<g clip-path="url(#clip14)" clip-rule="evenodd">
<path style=" stroke:none;fill-rule:nonzero;fill:rgb(28.999329%,28.999329%,28.999329%);fill-opacity:1;" d="M 335.683594 73.871094 L 374.679688 73.871094 L 374.679688 22.203125 L 335.683594 22.203125 Z M 335.683594 73.871094 "/>
</g>
</g>
<g clip-path="url(#clip15)" clip-rule="nonzero">
<g clip-path="url(#clip16)" clip-rule="evenodd">
<path style=" stroke:none;fill-rule:nonzero;fill:rgb(28.999329%,28.999329%,28.999329%);fill-opacity:1;" d="M 357.339844 73.871094 L 386.117188 73.871094 L 386.117188 10.988281 L 357.339844 10.988281 Z M 357.339844 73.871094 "/>
</g>
</g>
<g clip-path="url(#clip17)" clip-rule="nonzero">
<g clip-path="url(#clip18)" clip-rule="evenodd">
<path style=" stroke:none;fill-rule:nonzero;fill:rgb(28.999329%,28.999329%,28.999329%);fill-opacity:1;" d="M 369.464844 82.945313 L 419.542969 82.945313 L 419.542969 22.203125 L 369.464844 22.203125 Z M 369.464844 82.945313 "/>
</g>
</g>
<g clip-path="url(#clip19)" clip-rule="nonzero">
<g clip-path="url(#clip20)" clip-rule="evenodd">
<path style=" stroke:none;fill-rule:nonzero;fill:rgb(6.698608%,76.499939%,59.999084%);fill-opacity:1;" d="M 0 96 L 107.59375 96 L 107.59375 -10 L 0 -10 Z M 0 96 "/>
</g>
</g>
<g clip-path="url(#clip21)" clip-rule="nonzero">
<g clip-path="url(#clip22)" clip-rule="evenodd">
<path style=" stroke:none;fill-rule:nonzero;fill:rgb(99.598694%,100%,99.598694%);fill-opacity:1;" d="M 11.496094 86.28125 L 86.746094 86.28125 L 86.746094 9.792969 L 11.496094 9.792969 Z M 11.496094 86.28125 "/>
</g>
</g>
</g>
</svg>
