<svg width="1600" height="8840" viewBox="0 0 1600 8840" fill="none" xmlns="http://www.w3.org/2000/svg">
<mask id="mask0" mask-type="alpha" maskUnits="userSpaceOnUse" x="0" y="0" width="1600" height="8840">
<rect width="1600" height="8840" fill="white"/>
</mask>
<g mask="url(#mask0)">
<path d="M1028 21C1012.81 30.8276 989.02 44.3024 958.186 53.8654C893.703 73.8573 805.958 63.0838 762.413 183.724C731.65 268.958 779.327 308.372 775.008 424.604C771.158 528.17 672.803 634.622 424.848 606.165C277.075 589.203 286.411 794.893 176.533 816.985C98.7637 832.624 25.2839 784.456 -24.998 740.833V21H1028Z" fill="url(#paint0_linear)"/>
<path d="M1038 21.4004L-14.998 21V737.296C78.5644 789.643 147.703 789.506 195.602 777.335C308.162 748.739 308.126 652.501 439.984 605.167C539.663 569.389 596.008 604.166 664.241 540.304C675.209 530.038 711.665 495.06 728.93 437.004C754.044 352.546 712.657 306.285 738.993 197.571C746.281 167.486 792.901 71.0486 855.434 60.6385C914.474 50.813 931.624 54.2323 943.843 51.8299C988.572 43.0374 1003.54 39.0095 1038 21.4004Z" fill="url(#paint1_radial)"/>
<path d="M-14.998 311.222C12.0764 308.137 53.1447 308.401 82.8007 336.727C120.424 372.666 104.856 420.544 144.644 477.757C150.433 486.082 192.601 546.725 250.353 549.874C321.926 553.777 346.066 465.473 409.276 474.552C460.362 481.892 466.093 542.646 513.547 541.861C563.36 541.036 585.537 473.614 627.166 481.763C649.832 486.203 665.689 512.045 674.627 530.643C701.953 503.399 725.768 479.76 735.751 410.447C744.884 347.04 726.022 317.103 732.515 252.189C739.369 183.702 772.584 98.5072 834.988 68.29C868.341 52.1437 881.766 67.7051 955.08 49.86C994.846 40.1803 1029.38 24.4907 1050 15.4039L-14.998 13V311.222Z" fill="url(#paint2_linear)"/>
<g opacity="0.348">
<circle r="46" transform="matrix(-1 0 0 1 179 320)" fill="white"/>
<circle r="46" transform="matrix(-1 0 0 1 179 320)" fill="url(#paint3_linear)"/>
</g>
<ellipse rx="54" ry="54.5" transform="matrix(-1 0 0 1 107 354.5)" fill="white"/>
<path d="M518.69 671.86L534.651 676.997L536.303 656.347L526.198 649.287L518.69 671.86Z" fill="url(#paint4_linear)"/>
<path d="M609.707 700.869L589.096 689.475L599.233 671.746L615.498 678.6L609.707 700.869Z" fill="url(#paint5_linear)"/>
<path d="M610.697 671.485C597.826 662.906 582.126 650.296 567.443 632.24C534.998 592.345 526.764 549.531 524.244 528.372L482.348 551.73C485.118 564.365 489.342 578.256 495.809 592.715C521.35 649.854 566.459 681.636 591.172 696.188L610.697 671.485Z" fill="url(#paint6_linear)"/>
<path d="M530.24 652.111L518.69 671.86C518.69 671.86 442.526 651.726 439.18 632.846C435.833 613.967 467.191 541.14 467.191 541.14L501.014 527.179L515.617 539.637C515.617 539.637 510.553 590.987 475.676 613.986C475.676 613.986 519.777 638.033 530.24 652.111Z" fill="url(#paint7_linear)"/>
<path d="M401.059 348.797L545.19 282.075C548.028 280.757 549.263 277.388 547.954 274.548L500.79 172.684C499.473 169.846 496.102 168.611 493.262 169.92L349.132 236.642C346.293 237.96 345.058 241.33 346.367 244.169L393.531 346.033C394.848 348.871 398.219 350.106 401.059 348.797Z" fill="white"/>
<path d="M422.287 382.696C422.287 382.696 405.457 362.666 404.848 359.234C404.24 355.801 403.675 342.624 401.654 341.212C399.633 339.8 398.427 347.98 397.417 347.274C396.406 346.568 389.735 338.899 389.127 335.467C388.518 332.034 387.16 339.356 387.312 340.214C387.464 341.072 387.421 350.816 390.604 353.792C393.788 356.769 395.809 358.181 397.275 361.461C398.742 364.742 403.859 388.618 408.912 392.148C413.964 395.678 422.287 382.696 422.287 382.696Z" fill="url(#paint8_linear)"/>
<path d="M503.311 511.565C511.201 514.026 545.633 526.024 554.35 529.054C555.426 529.43 556.588 528.791 556.86 527.68L568.167 480.686C568.406 479.687 567.82 478.676 566.838 478.381L552.755 474.203C552.147 474.019 551.481 474.155 550.985 474.552L545.591 478.934C545.103 479.33 544.445 479.464 543.84 479.297L510.533 469.8C509.424 469.483 508.278 470.208 508.099 471.346L501.98 509.402C501.824 510.368 502.392 511.277 503.311 511.565Z" fill="url(#paint9_linear)"/>
<path d="M452.61 558.771C452.61 558.771 464.681 561.942 478.36 554.207C492.04 546.472 512.586 537.519 520.061 539.735C527.536 541.95 535.109 539.723 535.109 539.723C535.109 539.723 526.113 528.926 523.983 516.912C521.854 504.897 509.131 438.113 510.946 433.366C512.76 428.619 500.787 421.005 491.899 420.81C483.012 420.615 461.955 421.692 446.896 406.658C431.837 391.625 427.795 388.801 427.795 388.801L415.181 402.543C415.181 402.543 434.444 436.304 441.517 441.246C448.591 446.188 453.491 448.86 454.251 453.151C455.012 457.442 452.198 476.528 462.204 488.031C472.211 499.534 459.89 499.948 462.726 510.952C465.561 521.956 467.387 532.254 465.268 535.285C463.149 538.316 462.704 550.786 460.585 553.817C458.466 556.848 452.61 558.771 452.61 558.771Z" fill="#EEF2F5"/>
<path d="M486.293 419.148C487.974 415.345 486.551 410.313 483.153 406.428L482.784 384.365C476.665 377.165 468.988 373.56 463.487 375.394C462.552 375.71 457.653 377.34 456.523 381.054C456.154 382.27 456.562 382.472 456.121 383.78C454.871 387.472 450.81 388.183 451.025 389.994C451.147 391.035 452.495 390.849 453.198 392.265C454.164 394.218 452.234 395.817 451.84 399.586C451.664 401.29 451.38 403.987 452.904 405.593C454.526 407.298 456.567 406.077 460.38 407.809C461.304 408.229 463.143 409.063 464.421 410.633C467.53 414.437 464.352 418.833 466.399 421.789C469.395 426.108 483.014 426.571 486.293 419.148Z" fill="url(#paint10_linear)"/>
<path d="M487.803 412.685C486.399 415.606 474.377 415.108 469.419 408.862C468.609 407.837 467.014 405.482 467.198 402.927C467.359 400.686 468.604 399.27 468.604 399.27C468.604 399.27 474.308 396.489 472.135 394.219C469.962 391.949 468.093 391.395 466.529 392.557C464.964 393.719 466.627 388.114 466.627 388.114C466.627 388.114 467.735 384.377 465.866 383.823C461.073 382.407 458.158 380.543 455.762 376.763C453.306 372.897 455.483 366.05 459.489 362.826C460.093 362.338 463.022 359.987 466.203 360.751C466.564 360.837 468.525 361.313 469.235 362.869C469.812 364.129 469.134 365.197 468.985 366.453C468.529 370.225 473.014 373.705 473.939 374.426C479.021 378.376 482.672 375.746 486.314 379.314C488.81 381.757 489.231 385.081 489.552 387.591C490.227 392.897 488.621 398.723 487.694 402.082C487.284 403.563 486.762 405.213 486.89 407.536C487.071 410.752 488.321 411.61 487.803 412.685Z" fill="#483766"/>
<path d="M531.861 486.085C535.208 484.943 538.078 482.7 539.953 479.694C541.92 476.557 543.564 472.398 541.975 468.573C538.889 461.154 516.344 428.86 510.585 426.34C504.827 423.82 495.581 421.255 495.581 421.255L502.686 466.685L514.268 492.071L531.861 486.085Z" fill="#EEF2F5"/>
<path d="M407.354 390.45C407.354 390.45 406.087 396.189 409.422 400.024C412.758 403.858 417.506 405.672 418.212 404.662C418.918 403.651 430.515 392.355 431.1 391.561C431.685 390.767 432.391 389.757 430.218 387.486C428.045 385.216 425.416 380.372 422.689 379.97C419.962 379.568 407.354 390.45 407.354 390.45Z" fill="url(#paint11_linear)"/>
<path d="M557.11 658.855L556.544 715.603C556.544 715.603 548.23 713.748 544.195 699.726C542.675 694.446 541.604 687.9 538.443 683.406C536.585 680.762 533.17 679.181 531.271 675.906C530.762 675.031 534.717 655.238 534.717 655.238C534.717 655.238 550.037 653.913 557.11 658.855Z" fill="#86A8E7"/>
<path d="M634.137 682.758L631.078 739.425C631.078 739.425 622.851 737.21 619.442 723.024C618.159 717.684 617.372 711.097 614.41 706.47C612.671 703.751 609.326 702.016 607.572 698.663C607.103 697.764 611.924 678.162 611.924 678.162C611.924 678.162 627.284 677.511 634.137 682.758Z" fill="#86A8E7"/>
<path d="M486.965 414.949C486.965 414.949 492.251 420.296 491.696 422.164C491.142 424.033 466.707 431.019 463.415 417.441C463.415 417.441 464.333 414.88 465.872 414.925C467.402 414.964 478.615 418.287 481.19 417.831C483.765 417.374 485.167 414.294 486.965 414.949Z" fill="url(#paint12_linear)"/>
<path d="M384.594 279.424L448.457 249.313L469.647 294.243L405.784 324.354L384.594 279.424Z" fill="#F7D5E1"/>
<path d="M440.642 216.382L488.737 193.706L505.838 229.965L457.743 252.641L440.642 216.382Z" fill="#F7D5E1"/>
<path d="M424.414 268.831L433.087 264.742L448.329 297.06L439.656 301.149L424.414 268.831Z" fill="white"/>
<path d="M406.285 277.38L414.958 273.291L430.199 305.609L421.527 309.698L406.285 277.38Z" fill="white"/>
<path d="M457.138 287.131C445.315 277.915 439.837 277.629 437.046 279.265C433.092 281.577 434.718 287.609 429.77 290.406C425.505 292.818 418.812 291.419 414.601 288.891C411.292 286.902 410.1 284.573 406.524 284.029C403.957 283.634 401.711 284.395 400.26 285.051" stroke="#C43535" stroke-width="2" stroke-miterlimit="10" stroke-linecap="round"/>
<path d="M377.32 259.466L433.303 233.071C434.177 232.659 434.551 231.619 434.141 230.754C433.729 229.88 432.689 229.506 431.823 229.916L375.84 256.311C374.966 256.723 374.592 257.763 375.002 258.628C375.405 259.504 376.446 259.877 377.32 259.466Z" fill="#F2F2F2"/>
<path d="M407.502 245.238L433.295 233.072C434.169 232.66 434.543 231.621 434.132 230.755C433.721 229.881 432.681 229.508 431.815 229.918L406.022 242.084C405.148 242.496 404.774 243.535 405.184 244.401C405.596 245.275 406.636 245.648 407.502 245.238Z" fill="#E5524D"/>
<path d="M379.924 268.714L435.907 242.319C436.781 241.907 437.155 240.867 436.745 240.002C436.333 239.128 435.293 238.754 434.427 239.165L378.444 265.559C377.57 265.971 377.196 267.011 377.606 267.876C378.01 268.752 379.05 269.125 379.924 268.714Z" fill="#F2F2F2"/>
<path d="M393.414 262.357L437.485 241.579C438.359 241.167 438.732 240.127 438.322 239.262C437.911 238.388 436.871 238.015 436.005 238.425L391.934 259.203C391.06 259.615 390.686 260.655 391.096 261.52C391.499 262.396 392.539 262.769 393.414 262.357Z" fill="#CBDAEA"/>
<path d="M537.038 483.176C533.509 486.244 528.523 488.482 522.258 490C521.636 490.287 519.067 491.672 518.487 489.102L512.883 461.78C512.885 461.789 521.794 492.074 537.038 483.176Z" fill="#C8CFDA"/>
<g clip-path="url(#clip0)">
<path d="M476.595 215.268C478.784 219.763 477.838 224.673 475.14 225.986C472.443 227.299 467.995 225.016 465.806 220.521C463.617 216.026 464.102 212.453 467.698 210.702C471.294 208.951 474.406 210.772 476.595 215.268ZM468.729 240.23L490.307 229.724C486.367 221.632 480.535 223.359 475.14 225.986C469.746 228.613 464.789 232.139 468.729 240.23Z" stroke="#E5524D" stroke-width="2" stroke-linecap="round" stroke-linejoin="round"/>
</g>
<path d="M-202.008 5216.66C-117.1 5145.27 21.9453 5097.39 159.207 5112.94C363.022 5136.03 375.072 5277.71 703.222 5441.79C868.474 5524.43 970.374 5575.37 1099.53 5559.66C1242.85 5542.23 1291.66 5458.28 1469.52 5450.04C1516.87 5447.85 1628.75 5442.66 1697.66 5493.65C1835.91 5595.97 1802.54 5893.28 1662.56 5910.91C1381.78 5946.27 1307.2 5666.92 1017.64 5650.42C891.726 5643.24 777.512 5715.89 502.872 5816.62C286.143 5896.11 204.527 5922.59 91.936 5910.91C-111.324 5889.83 -227.322 5718 -242.955 5694.03C-329.061 5562.08 -359.845 5349.37 -202.008 5216.66Z" fill="url(#paint13_linear)" fill-opacity="0.35"/>
<ellipse rx="78" ry="80" transform="matrix(1 -8.74228e-08 -8.74228e-08 -1 1430 7006)" fill="white"/>
<path d="M165.599 315.557C161.849 311.855 153.793 304.995 141.721 302.54C120.622 298.246 105.714 322.663 95.796 317.684C92.6421 316.098 89.2431 311.4 89.6145 296.544C89.8695 286.463 81.6401 278.018 71.5657 278.302C67.9606 278.404 63.8747 279.265 59.3381 281.337L69.4609 279.875L77.4816 286.783L77.1909 294.995L77.1356 305.846L77.8419 313.764L101.545 331.707C101.545 331.707 129.249 314.793 130.178 314.563C131.107 314.332 146.764 308.646 146.764 308.646L167.023 320.945L165.599 315.557Z" fill="#E9A391"/>
<path d="M160.965 316.379C158.391 313.36 153.7 308.744 146.825 306.997C126.462 301.831 108.73 327.404 92.7465 320.206C87.1005 317.664 84.1483 312.146 83.5344 311C77.5372 299.796 85.227 289.298 80.2409 283.257C77.9577 280.489 72.6197 278.165 58.5955 281.502C58.5955 281.502 72.4967 279.035 74.8455 287.012C77.1943 294.988 69.2232 315.754 73.6825 319.859C78.1418 323.964 95.6244 331.819 95.6244 331.819L93.2813 342.26L100.438 344.488L111.7 342.256L121.139 326.476L135.037 314.801L145.596 313.86L163.665 323.71L160.965 316.379Z" fill="#FF743F"/>
<path d="M156.3 318.64C153.607 314.904 147.28 310.785 139.928 311.189C133.525 311.54 129.127 315.17 126.555 317.292C120.894 321.965 121.305 324.943 112.424 335.537C107.857 340.982 105.466 342.926 102.631 342.753C100.232 342.609 97.5733 340.959 96.529 338.59C94.8666 334.822 98.6147 332.261 97.2297 328.091C96.174 324.929 92.7065 322.445 89.5436 322.227C86.0886 321.993 84.9075 324.605 81.5669 324.575C78.2756 324.547 75.5348 321.973 73.5291 319.357C73.5291 319.357 76.8168 328.682 84.9709 330.616C93.125 332.55 88.8763 345.719 73.8284 338.771C75.8266 341.786 80.1273 347.21 87.2644 349.444C98.7408 353.038 110.869 346.299 117.382 339.495C125.087 331.441 122.097 326.254 129.871 321.192C136.049 317.168 146.639 314.772 152.981 318.723C154.327 319.557 157.041 321.656 157.499 321.186C157.867 320.817 156.575 319.025 156.3 318.64Z" fill="#F1532B"/>
<path d="M155.47 321.979C154.704 321.314 156.025 318.539 158.421 315.781C160.817 313.024 163.38 311.328 164.146 311.993C164.912 312.659 163.591 315.434 161.195 318.191C158.8 320.949 156.236 322.645 155.47 321.979Z" fill="white"/>
<path d="M189.62 319.862C190.894 320.95 193.122 323.219 194.902 328.601C198.978 340.917 197.131 358.819 189.809 360.979C183.623 362.805 175.567 352.798 172.354 347.698C167.568 340.092 161.777 324.639 169.118 318.312C174.092 314.026 183.893 314.966 189.62 319.862Z" fill="#FFC5BB"/>
<path d="M164.072 312.214C166.615 310.896 172.193 308.019 178.619 310.099C183.194 311.58 188.162 315.242 189.238 316.724C189.238 316.724 194.401 319.539 195.927 322.882C197.453 326.225 194.933 332.384 194.933 332.384C194.933 332.384 197.16 325.228 194.285 322.823C191.41 320.419 189.005 323.294 189.005 323.294L185.029 322.265C184.987 322.25 184.941 322.242 184.899 322.227C181.724 321.434 178.456 323.235 177.315 326.296C175.164 332.054 171.709 339.805 168.649 340.028C168.759 340.549 168.833 340.874 168.833 340.874L164.252 344.118C162.939 343.394 158.197 340.575 156.037 334.618C154.325 329.91 155.191 325.896 155.388 325.057C157.194 317.353 161.885 313.34 164.072 312.214Z" fill="#FF743F"/>
<path d="M167.072 338.959C166.233 337.581 164.951 334.48 162.377 332.215C162.078 331.951 161.591 331.569 160.928 331.526C159.186 331.405 157.583 333.67 156.982 335.97C156.22 338.903 158.627 345.237 160.857 347.29C163.087 349.342 164.494 346.761 164.494 346.761C166.469 351.169 166.06 353.424 165.2 354.679C163.986 356.462 160.582 359.327 159.541 361.221C158.374 363.347 160.933 363.059 161.566 364.417C163.648 368.891 169.749 376.695 178.581 376.203C186.608 375.758 190.721 372.667 189.812 370.188C189.335 368.882 189.667 365.723 186.261 363.649C181.544 360.785 180.089 355.606 179.982 355.204C178.687 350.346 181.441 348.918 179.979 345.995C177.648 341.334 170.287 344.211 167.072 338.959Z" fill="#FFC5BB"/>
<path d="M172.501 348.196C175.716 353.448 177.856 341.306 180.191 345.96C181.653 348.883 178.899 350.311 180.193 355.169C180.301 355.571 181.756 360.749 186.473 363.614C189.879 365.688 190.038 367.591 190.515 368.898C191.424 371.377 186.814 375.719 178.792 376.167C178.792 376.167 186.001 375.644 182.596 369.603C179.192 363.562 176.434 357.874 174.262 354.179C172.091 350.484 172.501 348.196 172.501 348.196Z" fill="#F49593"/>
<path d="M194.85 328.957C198.926 341.274 197.079 359.175 189.757 361.336C183.571 363.162 174.356 354.238 171.152 349.135" fill="#FFC5BB"/>
<path d="M200.875 485.032C200.875 485.032 193.898 496.295 192.314 494.594C190.73 492.894 191.84 480.107 191.84 480.107L195.593 476.293L200.875 485.032Z" fill="#4F2494"/>
<path d="M331.958 521.75C331.958 521.75 332.019 529.316 334.836 533.363C337.652 537.41 321.405 541.108 321.405 541.108L314.628 532.81C314.628 532.81 316.356 525.801 315.769 523.806C315.182 521.812 331.958 521.75 331.958 521.75Z" fill="#FFC5BB"/>
<path d="M319.377 525.095C316.86 525.398 315.012 525.855 315.215 526.543C315.802 528.537 314.074 535.547 314.074 535.547L320.851 543.845C320.851 543.845 327.656 542.649 330.755 541.601C330.755 541.601 327.47 541.485 322.775 534.741C318.907 529.183 319.377 525.095 319.377 525.095Z" fill="#F29595"/>
<path d="M332.484 516.178L333.67 520.206C334.043 521.472 333.639 522.842 332.645 523.715C329.307 526.658 321.13 532.354 311.915 527.59C311.162 527.205 310.628 526.495 310.457 525.673L309.312 520.295L332.484 516.178Z" fill="#FFF8FF"/>
<path d="M375.509 513.265C375.509 513.265 382.724 513.85 387.535 517.309C392.346 520.769 400.146 514.139 400.146 514.139L398.91 502.584C398.91 502.584 386.884 498.54 385.3 496.839C383.715 495.139 375.509 513.265 375.509 513.265Z" fill="#FFC5BB"/>
<path d="M372.869 513.5C372.869 513.5 376.977 518.25 381.081 513.791C385.186 509.333 388.321 499.742 387.441 496.751C386.56 493.76 379.14 494.318 379.14 494.318L372.869 513.5Z" fill="#FFF8FF"/>
<path d="M332.807 517.735C330.597 520.146 321.53 531.45 309.638 522.063C308.876 521.464 308.32 520.641 308.007 519.726L292.382 473.802L214.425 473.995L225.676 434.929C228.558 434.524 277.003 427.811 296.24 429.869C301.492 430.43 305.946 431.795 309.205 435.262C312.923 439.222 313.587 444.33 313.725 446.933L333.39 513.717C333.786 515.079 333.762 516.69 332.807 517.735Z" fill="#8A50FF"/>
<path d="M309.697 522.137C309.018 521.449 308.379 520.716 308.066 519.8L292.441 473.876L214.485 474.07L225.735 435.003C228.617 434.599 277.062 427.886 296.299 429.943C299.854 431.27 305.573 434.077 308.385 439.837C309.866 442.879 310.059 445.764 309.094 456.964C307.645 473.735 306.746 472.651 307.047 477.611C307.364 482.881 308.414 484.701 313.155 500.192C315.375 507.437 320.067 521.68 321.14 525.47C321.136 525.477 314.104 526.599 309.697 522.137Z" fill="#6834CC"/>
<path d="M186.148 473.656C186.148 473.656 193.769 493.706 213.33 500.56C222.391 503.733 230.279 502.483 240.767 500.918C251.56 499.302 261.971 495.376 282.352 487.595C298.599 481.393 298.653 480.786 302 480.728C316.392 480.479 322.961 491.509 341.366 502.186C348.102 506.093 358.297 511.039 372.366 514.423C374.652 514.974 377.039 513.99 378.284 511.998C381.592 506.712 386.958 496.454 381.834 492.447C374.793 486.935 317.006 456.272 311.549 452.46C306.093 448.649 289.433 445.427 280.753 449.065C272.072 452.704 221.04 454.181 221.04 454.181L186.148 473.656Z" fill="#8A50FF"/>
<path d="M312.432 543.75C312.432 543.75 310.731 545.334 311.025 546.331C311.439 547.737 313.196 550.026 317.772 550.846C322.347 551.666 324.048 550.082 328.272 551.547C332.495 553.013 340.475 559.874 347.632 562.101C354.789 564.328 359.775 562.861 360.772 562.567C361.161 562.453 361.645 562.148 362.101 561.819C362.854 561.267 362.935 560.164 362.261 559.512L362.032 559.287L315.365 544.512L312.432 543.75Z" fill="#FFF8FF"/>
<path d="M312.414 543.322C311.603 540.662 311.275 536.365 314.785 531.724C314.809 531.695 314.855 531.687 314.89 531.715C321.867 537.912 328.056 536.816 333.78 531.415C333.78 531.415 342.702 543.502 348.452 548.311C354.202 553.119 356.197 552.532 359.072 554.936C361.25 556.76 361.911 558.711 362.105 559.553C362.168 559.821 362.063 560.091 361.844 560.247C360.47 561.231 354.764 564.189 342.883 556.993C329.037 548.608 324.109 548.433 322.467 548.375C321.258 548.335 318.976 548.606 316.444 547.661C314.483 546.927 313.017 545.316 312.414 543.322Z" fill="#8A50FF"/>
<path d="M433.139 506.595C433.9 506.842 434.516 507.554 434.723 508.295C435.464 510.959 431.199 515.297 426.514 517.213C421.751 519.162 420.669 516.939 413.961 518.74C409.634 519.906 405.426 522.081 404.284 522.672C400.565 524.596 399.377 525.731 396.601 526.017C393.623 526.32 389.898 525.536 389.444 523.79C389.229 522.97 389.746 521.946 391.202 520.564C393.312 518.567 398.914 514.372 417.479 512.288C422.25 511.75 424.451 511.736 427.098 509.998C429.526 508.4 431.318 506.004 433.139 506.595Z" fill="#FFF8FF"/>
<path d="M396.475 501.676C403.045 501.909 408.857 504.592 412.138 505.192C418.703 506.401 422.752 507.144 428.211 506.42C430.501 506.119 432.465 505.633 433.138 506.595C434.077 507.943 432.112 511.61 429.269 513.693C425.963 516.118 423.506 514.912 417.01 516.218C413.721 516.877 413.92 515.253 405.69 520.091C401.996 522.262 395.259 523.763 391.789 522.558C387.565 521.092 386.097 516.107 386.097 516.107C386.097 516.107 393.664 516.047 396.83 510.239C399.19 505.909 396.475 501.676 396.475 501.676Z" fill="#8A50FF"/>
<path d="M186.022 473.596C186.022 473.596 193.643 493.645 213.204 500.499C222.264 503.672 230.153 502.423 240.641 500.858C251.434 499.241 261.844 495.316 282.226 487.534C298.473 481.333 298.527 480.726 301.874 480.667C316.266 480.418 322.835 491.449 341.24 502.126C347.976 506.032 358.171 510.979 372.24 514.362C374.526 514.914 376.913 513.93 378.157 511.938C362.665 507.419 351.95 500.984 344.88 495.74C334.445 487.993 329.97 481.385 316.659 475.335C310.198 472.399 303.501 469.451 295.13 470.295C285.875 471.226 284.232 475.822 272.023 481.972C255.6 490.246 240.733 490.922 230.906 491.366C220.246 491.85 214.428 492.035 208.322 488.263C198.92 482.46 196.082 471.756 195.235 467.736L186.022 473.596Z" fill="#6F3ADB"/>
<path d="M348.66 552.768C348.987 552.829 349.32 552.692 349.54 552.444C349.957 551.985 350.663 550.997 350.477 549.741C350.477 549.741 350.024 549.083 349.989 549.884C349.954 550.686 349.281 551.935 348.793 552.078C348.304 552.222 348.135 552.532 348.452 552.704C348.52 552.733 348.585 552.752 348.66 552.768Z" fill="white"/>
<path d="M343.004 547.818C343.33 547.879 343.664 547.743 343.883 547.494C344.301 547.035 345.007 546.047 344.821 544.791C344.821 544.791 344.367 544.133 344.332 544.935C344.298 545.736 343.625 546.985 343.137 547.129C342.648 547.272 342.479 547.582 342.795 547.755C342.863 547.783 342.935 547.806 343.004 547.818Z" fill="white"/>
<path d="M345.879 550.222C346.205 550.283 346.539 550.147 346.758 549.898C347.176 549.439 347.882 548.451 347.696 547.195C347.696 547.195 347.242 546.538 347.207 547.339C347.173 548.14 346.5 549.389 346.012 549.533C345.523 549.677 345.354 549.986 345.67 550.159C345.738 550.188 345.81 550.21 345.879 550.222Z" fill="white"/>
<path d="M339.788 544.441C340.096 544.567 340.447 544.507 340.72 544.313C341.226 543.953 342.126 543.146 342.217 541.873C342.217 541.873 341.915 541.139 341.713 541.908C341.511 542.677 340.579 543.759 340.074 543.794C339.57 543.828 339.34 544.096 339.604 544.333C339.655 544.377 339.72 544.413 339.788 544.441Z" fill="white"/>
<path d="M337.01 540.876C337.311 541.015 337.668 540.959 337.945 540.775C338.46 540.428 339.386 539.652 339.516 538.383C339.516 538.383 339.237 537.637 339.012 538.402C338.788 539.167 337.817 540.211 337.309 540.236C336.805 540.254 336.563 540.515 336.824 540.758C336.881 540.806 336.942 540.847 337.01 540.876Z" fill="white"/>
<path d="M333.863 536.884C334.094 537.119 334.443 537.2 334.771 537.136C335.378 537.007 336.52 536.616 337.112 535.483C337.112 535.483 337.121 534.684 336.635 535.315C336.149 535.945 334.857 536.564 334.386 536.399C333.909 536.231 333.587 536.39 333.74 536.708C333.771 536.775 333.815 536.833 333.863 536.884Z" fill="white"/>
<path d="M423.87 510.038C424.168 509.891 424.359 509.585 424.391 509.251C424.459 508.635 424.442 507.421 423.557 506.511C423.557 506.511 422.803 506.251 423.247 506.911C423.691 507.572 423.88 508.989 423.57 509.389C423.26 509.789 423.31 510.143 423.66 510.1C423.736 510.099 423.803 510.068 423.87 510.038Z" fill="white"/>
<path d="M416.388 509.374C416.686 509.227 416.877 508.921 416.909 508.587C416.977 507.971 416.961 506.757 416.075 505.848C416.075 505.848 415.321 505.587 415.765 506.248C416.209 506.908 416.398 508.326 416.088 508.726C415.778 509.126 415.828 509.48 416.178 509.436C416.257 509.429 416.321 509.405 416.388 509.374Z" fill="white"/>
<path d="M420.128 509.622C420.426 509.475 420.618 509.169 420.65 508.835C420.717 508.219 420.701 507.005 419.816 506.095C419.816 506.095 419.062 505.835 419.506 506.496C419.949 507.156 420.139 508.574 419.829 508.974C419.519 509.374 419.569 509.727 419.919 509.684C419.995 509.683 420.062 509.653 420.128 509.622Z" fill="white"/>
<path d="M412.035 508.559C412.346 508.435 412.56 508.15 412.621 507.823C412.734 507.216 412.823 506.008 412.009 505.029C412.009 505.029 411.28 504.707 411.67 505.405C412.06 506.103 412.128 507.529 411.792 507.899C411.453 508.275 411.471 508.628 411.83 508.614C411.902 508.603 411.972 508.583 412.035 508.559Z" fill="white"/>
<path d="M407.679 507.322C407.995 507.218 408.219 506.93 408.293 506.611C408.429 506.007 408.567 504.802 407.797 503.788C407.797 503.788 407.076 503.437 407.443 504.147C407.809 504.857 407.817 506.285 407.463 506.644C407.108 507.003 407.112 507.365 407.467 507.357C407.539 507.363 407.609 507.343 407.679 507.322Z" fill="white"/>
<path d="M403.423 506.191C403.737 506.077 403.957 505.796 404.028 505.466C404.158 504.859 404.286 503.656 403.496 502.648C403.496 502.648 402.778 502.307 403.148 503.011C403.518 503.715 403.549 505.146 403.201 505.509C402.852 505.872 402.86 506.227 403.215 506.22C403.284 506.232 403.356 506.222 403.423 506.191Z" fill="white"/>
<path d="M160.126 360.426C172.034 371.136 180.904 365.491 184.644 361.931L188.026 364.803L176.938 376.144L156.816 368.524L158.339 362.658L160.126 360.426Z" fill="white"/>
<path d="M147.406 368.894C151.143 365.155 155.444 363.331 158.491 362.38C175.624 380.09 187.058 363.723 187.058 363.723C187.058 363.723 206.657 377.37 214.342 391.989C217.624 398.239 210.241 405.656 207.72 411.816C205.639 416.908 215.811 424.186 220.63 428.06C228.017 433.996 237.472 432.562 249.934 441.104C249.934 441.104 193.074 472.468 191.964 485.255C191.535 490.203 191.672 492.947 192.009 494.462C185.292 486.975 158.723 456.521 154.467 438.867C153.153 433.43 152.492 428.039 152.209 423.03C144.571 428.811 130.537 445.911 130.537 445.911C130.159 444.868 129.576 443.128 129.069 440.926C125.419 425 131.229 417.076 136.679 393.179C139.593 380.387 141.399 374.893 147.406 368.894Z" fill="#F39B44"/>
<path d="M191.841 485.188C191.413 490.136 191.549 492.88 191.887 494.395C185.169 486.908 158.6 456.455 154.344 438.8C153.03 433.363 152.369 427.973 152.086 422.964C153.402 411.427 154.722 399.9 156.038 388.364C156.038 388.364 154.567 406.404 160.273 426.665C163.566 438.361 171.615 449.395 177.624 461.744C180.996 468.672 191.841 485.188 191.841 485.188Z" fill="#E46832"/>
<path d="M178.348 370.041C183.914 368.354 187.122 363.758 187.122 363.758C187.122 363.758 206.722 377.405 214.407 392.024C216.111 395.271 214.942 398.828 213.067 402.359C211.333 405.633 208.998 408.888 207.785 411.851C207.267 413.108 207.506 414.511 208.225 415.958C210.415 420.34 217.068 425.181 220.694 428.095C228.082 434.031 237.536 432.597 249.998 441.139C249.998 441.139 238.147 447.678 225.163 456.002C223.507 455.676 197.349 450.19 191.731 431.918C190.955 429.395 187.79 419.107 192.722 413.207C194.786 410.742 196.719 410.882 199.173 407.516C199.505 407.061 201.951 400.761 199.785 394.876C197.091 387.548 178.348 370.041 178.348 370.041Z" fill="#D37D44"/>
<path d="M272.414 429.026L229.545 460.064L177.02 431.432C176.768 431.295 176.689 431.01 176.773 430.779L178.215 428.318L272.414 429.026Z" fill="#7DB1DF"/>
<path d="M273.828 426.449L238.404 407.139C237.54 406.668 236.51 406.592 235.586 406.934L178.504 427.881C178.074 428.04 178.027 428.633 178.433 428.855L230.958 457.487L273.828 426.449Z" fill="#BEEDFF"/>
<path d="M224.774 446.164L210.945 438.625C210.215 438.228 210.27 437.161 211.034 436.833L247.211 421.666C247.839 421.406 248.539 421.411 249.161 421.683L263.732 428.06L229.631 446.192C228.113 446.996 226.291 446.991 224.774 446.164Z" fill="#73A3E7"/>
<path d="M202.967 415.159C213.871 414.767 220.343 413.783 224.435 412.632C225.621 412.3 228.674 411.369 231.005 412.866C231.507 413.189 231.923 413.592 233.822 416.912C236.306 421.263 236.639 420.959 238.868 423.011C239.531 423.623 240.099 424.285 240.735 424.363C241.026 424.397 241.222 424.085 241.059 423.845C239.947 422.184 236.878 417.448 237.459 416.383C238.162 415.093 241.095 415.855 244.616 418.611C248.136 421.367 250.717 422.774 250.717 422.774C250.717 422.774 247.549 419.373 243.441 414.622C239.334 409.872 234.581 404.77 231.296 404.654C229.072 404.572 219.748 404.846 212.374 403.647C208.852 403.075 202.967 415.159 202.967 415.159Z" fill="#FFC5BB"/>
<path d="M207.745 414.934C215.823 414.458 220.978 413.602 224.436 412.632C225.622 412.3 228.674 411.369 231.006 412.866C231.507 413.189 231.924 413.592 233.822 416.912C236.306 421.263 236.639 420.959 238.869 423.011C239.531 423.623 240.1 424.285 240.735 424.363C241.027 424.397 241.222 424.085 241.059 423.845C239.947 422.184 236.879 417.448 237.459 416.383C238.163 415.093 241.096 415.855 244.616 418.611C248.136 421.367 250.718 422.774 250.718 422.774C245.563 417.319 240.457 414.293 237.819 413.098C236.893 412.677 236.55 412.431 233.301 410.635C231.672 409.739 230.281 408.989 230.075 408.876C228.902 408.262 226.586 407.644 221.691 408.684C217.201 409.643 212.689 410.456 208.142 411.058C206.8 411.23 206.252 415.016 207.745 414.934Z" fill="#F29693"/>
<path d="M234.584 421.688L221.134 427.012C220.854 427.127 220.532 427.103 220.268 426.959L209.955 421.337C209.155 420.901 209.282 419.715 210.153 419.453L224.547 414.133C224.796 414.059 225.068 414.082 225.304 414.202L234.683 419.817C235.458 420.223 235.404 421.365 234.584 421.688Z" fill="#73A3E7"/>
<path d="M137.288 438.116C133.301 442.622 130.303 446.278 130.303 446.278C129.926 445.235 129.343 443.494 128.835 441.292C125.186 425.367 130.995 417.443 136.446 393.546C134.28 413.106 130.007 436.717 137.288 438.116Z" fill="#E56936"/>
<path d="M317.738 381.983L229.622 460.107L225.744 457.9C225.125 457.438 224.813 456.581 225.214 455.754L249.34 405.843C249.472 405.572 249.696 405.36 249.973 405.251L313.25 379.913C313.617 379.762 313.86 379.869 314.256 380.018C314.564 380.128 317.738 381.983 317.738 381.983Z" fill="url(#paint14_linear)"/>
<path d="M292.572 434.139L318.271 383.479C318.727 382.581 317.831 381.599 316.89 381.973L253.617 407.304C253.34 407.413 253.112 407.632 252.984 407.897L228.858 457.807C228.17 459.223 229.589 460.75 231.054 460.167L289.218 437.19C290.669 436.617 291.862 435.535 292.572 434.139Z" fill="url(#paint15_linear)"/>
<path d="M274.162 424.104C273.025 423.199 273.005 421.333 274.117 419.935C275.229 418.538 277.052 418.138 278.189 419.043C279.327 419.948 279.347 421.815 278.235 423.212C277.123 424.61 275.299 425.009 274.162 424.104Z" fill="#9176DA"/>
<path d="M150.997 426.036C153.47 425.032 153.435 425.54 176.044 424.623C185.451 424.243 188.29 424.041 192.233 422.566C196.933 420.809 198.176 419.127 202.907 418.341C207.447 417.584 211.17 418.325 215.05 419.101C219.919 420.073 226.572 421.874 226.431 422.793C226.273 423.804 213.107 421.942 212.939 422.972C212.881 423.309 214.286 423.405 215.022 424.526C216.585 426.91 214.34 432.75 210.743 433.912C208.041 434.783 206.521 432.381 201.298 431.275C197.871 430.544 195.228 430.878 192.089 431.277C178.305 433.021 164.103 445.1 144.17 447.007C137.748 447.624 136.243 446.653 135.664 445.718C133.324 441.948 140.586 430.254 150.997 426.036Z" fill="#FFC5BB"/>
<path d="M136.92 439.33C135.701 439.494 134.416 443.724 135.959 445.87C137.46 447.969 141.319 447.461 144.464 447.159C164.398 445.251 178.6 433.172 192.383 431.428C195.522 431.03 198.165 430.696 201.593 431.426C206.816 432.533 208.518 435.369 211.037 434.064C214.578 432.236 215.692 428.658 214.695 428.951C214.695 428.951 209.031 433.966 202.929 429.803C196.828 425.64 188.147 429.279 188.147 429.279C175.714 433.659 169.496 435.852 169.496 435.852C163.541 438.147 158.673 440.289 150.845 442.426C147.411 443.366 142.192 444.631 139.348 442.017C138.052 440.817 137.697 439.226 136.92 439.33Z" fill="#F29693"/>
<path d="M160.556 347.628L161.721 349.36C161.99 349.757 162.526 349.865 162.923 349.596L164.655 348.431C165.053 348.162 165.16 347.627 164.892 347.229L163.726 345.497C163.457 345.1 162.922 344.992 162.524 345.261L160.792 346.426C160.395 346.695 160.293 347.234 160.556 347.628Z" fill="white"/>
<path d="M137.542 448.416C137.542 448.416 129.566 450.764 127.804 444.781C126.042 438.799 151.845 416.035 152.49 416.387C153.136 416.739 153.49 425.302 153.49 425.302C153.49 425.302 136.72 443.782 137.542 448.416Z" fill="white"/>
<path d="M206.896 417.167L200.09 414.294L206.48 401.037L212.346 402.561C212.166 402.906 212.288 404.203 212.288 404.203C210.804 407.11 209.154 409.291 208.067 411.946C207.549 413.204 207.52 414.778 208.244 416.228L206.896 417.167Z" fill="#D37D44"/>
</g>
<defs>
<linearGradient id="paint0_linear" x1="15.3082" y1="247.05" x2="1052.63" y2="387.573" gradientUnits="userSpaceOnUse">
<stop stop-color="#91EAE4"/>
<stop offset="1" stop-color="#91EAE4" stop-opacity="0"/>
</linearGradient>
<radialGradient id="paint1_radial" cx="0" cy="0" r="1" gradientUnits="userSpaceOnUse" gradientTransform="translate(511.502 402.5) rotate(130.343) scale(500.195 760.086)">
<stop stop-color="#00B1FF"/>
<stop offset="1" stop-color="#6DEEFF"/>
</radialGradient>
<linearGradient id="paint2_linear" x1="1052.78" y1="25.5245" x2="-13.1441" y2="317.981" gradientUnits="userSpaceOnUse">
<stop stop-color="#56CBFF"/>
<stop offset="0.324" stop-color="#CBCCE2"/>
<stop offset="1" stop-color="#43C5FF"/>
</linearGradient>
<linearGradient id="paint3_linear" x1="66.3607" y1="70.8852" x2="46" y2="92" gradientUnits="userSpaceOnUse">
<stop stop-color="#6EE8FF"/>
<stop offset="1" stop-color="white" stop-opacity="0"/>
</linearGradient>
<linearGradient id="paint4_linear" x1="537.287" y1="661.923" x2="517.545" y2="665.422" gradientUnits="userSpaceOnUse">
<stop stop-color="#FFD6D2"/>
<stop offset="0.6941" stop-color="#FABDC3"/>
<stop offset="1" stop-color="#F7B1BB"/>
</linearGradient>
<linearGradient id="paint5_linear" x1="616.483" y1="684.175" x2="589.016" y2="689.044" gradientUnits="userSpaceOnUse">
<stop stop-color="#FFD6D2"/>
<stop offset="0.6941" stop-color="#FABDC3"/>
<stop offset="1" stop-color="#F7B1BB"/>
</linearGradient>
<linearGradient id="paint6_linear" x1="598.904" y1="604.975" x2="495.044" y2="623.384" gradientUnits="userSpaceOnUse">
<stop stop-color="#2E9FD8"/>
<stop offset="0.1146" stop-color="#2894CC"/>
<stop offset="0.7134" stop-color="#0B5F91"/>
<stop offset="1" stop-color="#004A7A"/>
</linearGradient>
<linearGradient id="paint7_linear" x1="474.695" y1="529.503" x2="487.524" y2="674.613" gradientUnits="userSpaceOnUse">
<stop stop-color="#2E9FD8"/>
<stop offset="0.1146" stop-color="#2894CC"/>
<stop offset="0.7134" stop-color="#0B5F91"/>
<stop offset="1" stop-color="#004A7A"/>
</linearGradient>
<linearGradient id="paint8_linear" x1="423.201" y1="382.236" x2="379.88" y2="344.638" gradientUnits="userSpaceOnUse">
<stop stop-color="#FFD6D2"/>
<stop offset="0.6941" stop-color="#FABDC3"/>
<stop offset="1" stop-color="#F7B1BB"/>
</linearGradient>
<linearGradient id="paint9_linear" x1="570.459" y1="492.72" x2="501.091" y2="505.015" gradientUnits="userSpaceOnUse">
<stop stop-color="#F89599"/>
<stop offset="0.9524" stop-color="#F67C97"/>
<stop offset="1" stop-color="#F67B97"/>
</linearGradient>
<linearGradient id="paint10_linear" x1="485.097" y1="397.437" x2="451.827" y2="403.334" gradientUnits="userSpaceOnUse">
<stop stop-color="#FFD6D2"/>
<stop offset="0.6941" stop-color="#FABDC3"/>
<stop offset="1" stop-color="#F7B1BB"/>
</linearGradient>
<linearGradient id="paint11_linear" x1="431.759" y1="390.361" x2="407.192" y2="394.716" gradientUnits="userSpaceOnUse">
<stop stop-color="#FDFFFF"/>
<stop offset="0.8135" stop-color="#E4EBF1"/>
<stop offset="1" stop-color="#DEE6EE"/>
</linearGradient>
<linearGradient id="paint12_linear" x1="490.914" y1="417.101" x2="464.19" y2="421.838" gradientUnits="userSpaceOnUse">
<stop stop-color="white"/>
<stop offset="0.7907" stop-color="#E6ECED"/>
<stop offset="1" stop-color="#DFE6E8"/>
</linearGradient>
<linearGradient id="paint13_linear" x1="1565.5" y1="5352" x2="181.501" y2="5896" gradientUnits="userSpaceOnUse">
<stop stop-color="#ACB6E5"/>
<stop offset="1" stop-color="#74EBD5" stop-opacity="0"/>
</linearGradient>
<linearGradient id="paint14_linear" x1="291.245" y1="430.577" x2="248.547" y2="407.302" gradientUnits="userSpaceOnUse">
<stop stop-color="#8BD8F7"/>
<stop offset="0.3885" stop-color="#8ABFED"/>
<stop offset="1" stop-color="#8891D9"/>
</linearGradient>
<linearGradient id="paint15_linear" x1="333.905" y1="397.584" x2="228.587" y2="438.874" gradientUnits="userSpaceOnUse">
<stop offset="0.2023" stop-color="white"/>
<stop offset="0.4939" stop-color="#F0E6FE"/>
<stop offset="1" stop-color="#D2B3FD"/>
</linearGradient>
<clipPath id="clip0">
<rect x="452" y="215.009" width="32" height="32" transform="rotate(-25.9623 452 215.009)" fill="white"/>
</clipPath>
</defs>
</svg>
