<svg width="539" height="520" viewBox="0 0 539 520" fill="none" xmlns="http://www.w3.org/2000/svg">
<g clip-path="url(#clip0)">
<path d="M533.401 235.814C497.953 352.37 400.725 260.091 298.887 372.633C139.353 548.942 -24.065 406.06 2.952 287.271C41.24 118.94 109.042 67.882 240.657 16.0264C414.19 -52.3432 570.891 112.558 533.401 235.814Z" fill="#E1E7F9"/>
<path opacity="0.66" d="M120.041 516.817C120.105 516.673 119.969 516.203 119.714 515.556C120.376 514.176 120.967 512.796 120.975 512.23C120.998 510.913 118.239 509.501 117.217 509.254C117.106 509.23 116.906 509.206 116.651 509.198C116.34 508.616 116.109 508.209 116.029 508.113C115.662 507.658 113.788 490.434 108.108 485.416C105.029 482.688 101.615 481.451 99.1344 480.877C98.5919 480.749 98.0974 480.662 97.6587 480.598C97.4752 480.279 97.2678 479.999 97.0365 479.784C95.0264 477.957 87.2013 477.718 87.2013 477.718C87.2013 477.718 96.6137 473.171 97.4274 470.115C98.233 467.06 102.732 465.879 102.564 464.993C102.532 464.81 102.062 464.403 101.328 463.876C103.705 463.693 106.313 461.698 106.656 460.941C107.047 460.071 110.812 449.189 110.812 449.189C110.884 449.03 109.767 448.24 108.204 447.235C108.276 446.844 108.316 446.381 108.363 445.815C108.451 444.682 108.228 444.562 108.324 443.389C108.411 442.281 108.674 441.539 109.033 440.549C109.528 439.193 109.727 439.161 110.206 437.949C110.828 436.369 110.685 435.914 111.115 434.678C111.69 433.01 112.184 433.154 113.237 431.223C113.899 430.019 114.282 428.91 114.697 427.944C115.247 426.66 117.433 416.058 118.789 415.395C119.076 415.252 119.475 415.092 120.105 414.996C122.386 414.653 128.983 412.531 130.578 411.734C132.254 410.896 134.894 409.899 133.003 408.638C132.429 408.255 130.371 409.133 127.388 407.745C123.352 405.87 120.089 409.332 117.545 408.096C116.715 407.689 113.724 406.237 112.543 406.62C112.2 406.731 112.136 406.955 112.057 407.705C111.889 409.205 111.482 410.393 111.434 410.936C111.323 412.18 109.839 417.318 109.041 418.914C108.395 420.198 106.648 422.105 105.053 423.7C102.971 425.782 100.722 426.429 98.1133 428.327C95.2657 430.402 94.9705 431.375 94.8748 431.75C94.6275 432.715 94.7233 433.712 94.8908 435.491C95.1301 438.084 95.5768 438.627 95.3454 439.448C95.3215 439.52 95.2976 439.6 95.2657 439.68C95.162 439.935 95.0264 440.142 94.8828 440.318C94.3244 440.111 93.782 439.903 93.2875 439.704C93.2875 439.704 90.1686 438.419 89.3151 439.05C88.4855 439.664 83.867 441.076 83.867 441.076C83.867 441.076 84.3536 439.991 84.7444 439.121C85.1353 438.252 83.7553 437.55 83.7553 437.55C83.7075 437.518 83.6596 437.486 83.6117 437.454C84.1781 436.233 85.0635 435.085 85.1193 434.614C85.1273 434.574 85.1273 434.542 85.1193 434.51C84.9359 433.649 85.231 433.505 84.9758 432.308C84.6009 430.537 84.9439 429.723 85.0555 428.351C85.1911 426.732 84.8641 426.038 84.6726 424.155C84.3137 420.605 85.231 420.717 85.5421 416.568C85.5581 416.329 85.574 416.081 85.59 415.818C85.7575 412.46 94.7073 407.402 97.0604 406.931C97.6268 406.819 104.311 406.508 101.735 404.777C99.6848 403.397 93.7581 406.883 91.4768 405.335C90.9343 404.968 86.3318 404.37 84.7046 404.546C84.2419 404.593 84.0186 404.873 83.9468 404.96C83.5798 405.423 83.8431 406.069 83.9228 406.277C84.1621 406.955 77.9563 410.816 77.4777 411.159C75.2283 412.747 72.3965 414.741 71.6547 417.797C71.4393 418.682 71.3915 419.44 71.4393 420.158C71.6946 424.075 72.9868 425.368 72.8512 427.737C72.8193 428.232 72.7236 428.646 72.588 428.989C72.1174 430.194 71.1362 430.657 70.6177 431.183C68.8788 430.553 67.7621 430.218 67.7621 430.218C67.8817 433.808 66.5576 435.803 65.2893 436.959C64.1726 437.988 62.9841 438.475 62.7049 440.182C62.6411 440.565 62.4656 442.049 63.6302 444.371C63.8136 444.73 64.021 445.113 64.2683 445.512C64.6193 446.07 65.0101 446.604 65.409 447.115C64.4677 446.708 63.8296 446.485 63.7817 446.596C63.7099 446.756 64.2045 447.626 64.8027 448.671C65.7998 450.394 67.1 452.588 66.6294 452.851C65.8716 453.266 62.4257 453.378 64.3082 456.736C66.3103 460.302 55.0154 459.177 49.0807 462.855C48.0836 463.477 45.2758 465.217 45.3556 467.905C45.3795 468.807 45.7305 469.812 46.584 470.921C47.9161 472.644 49.9741 473.984 51.9922 475.269C52.2953 475.46 52.5984 475.644 52.9015 475.827L53.5477 477.774L53.6115 477.965C53.6115 477.965 54.441 478.404 55.7253 479.026C55.6296 479.058 55.5099 479.09 55.3584 479.122C55.3424 479.122 55.3185 479.13 55.3025 479.13C53.8587 479.393 52.0799 478.907 51.5455 478.779C47.8044 477.861 44.4941 479.385 43.0344 480.055C41.3593 480.821 40.3143 481.3 40.1867 482.608C40.0033 484.411 41.6863 486.501 42.5079 487.523C44.2309 489.661 46.3607 491.28 47.7247 492.309C48.0836 492.58 51.3142 494.99 54.9914 496.936C56.515 497.742 57.3685 498.245 59.0436 499.266C60.0167 499.856 60.4076 500.119 60.7905 500.423C61.309 500.822 61.5164 501.045 62.4416 501.795C63.4627 502.624 63.6701 502.72 63.7259 502.712C63.8615 502.696 63.2872 502.122 63.4627 502.042C63.5983 501.986 64.1726 502.226 65.7679 503.215C65.7679 503.215 64.9862 500.822 64.0609 498.931C65.1218 498.931 65.9753 498.723 66.422 498.612C67.0362 498.46 68.3045 498.149 68.7831 497.144C68.9506 496.801 69.0304 496.362 69.4691 495.628C69.7164 495.221 69.9317 494.95 70.4183 494.774C70.9049 494.607 71.1681 494.703 71.6308 494.591C72.3008 494.431 72.4604 494.056 72.7794 493.306C72.923 492.963 73.1463 492.309 73.0985 491.336C73.0666 490.578 72.8751 489.956 72.7635 489.565C72.572 488.919 72.4763 488.6 72.229 488.225C71.6547 487.347 71.0565 487.124 70.3146 486.182C69.6685 485.361 69.509 484.754 69.4212 484.395C69.3734 484.196 69.2537 483.605 69.4771 482.999C69.517 482.879 69.5728 482.76 69.6446 482.64C69.6605 482.616 69.6765 482.592 69.6924 482.576C69.7802 482.6 69.8839 482.624 70.0195 482.664C71.1761 482.967 74.1913 483.741 77.9643 484.611C78.0759 485.887 80.7561 487.786 83.8909 492.556C85.1752 494.511 86.2281 496.139 86.5791 497.926C86.9859 500.016 86.252 501.396 85.4544 502.265C85.1512 502.593 85.1433 503.087 85.4703 503.662C85.9649 504.515 86.8423 505.8 88.1266 506.853C89.1396 508.089 90.6073 509.541 91.0939 510.02C91.1976 510.124 91.3332 510.211 91.4847 510.283L94.9546 511.855C93.6145 511.336 91.1098 510.171 91.1098 510.171C91.2135 510.275 91.3491 510.363 91.5007 510.435L95.7044 512.333C95.8719 512.413 96.0394 512.437 96.1511 512.405L97.22 512.078C97.2678 512.062 97.3316 512.078 97.4034 512.11L105.978 515.963C106.146 516.043 106.305 516.155 106.393 516.266L107.582 517.742C107.653 517.838 107.781 517.926 107.917 517.99L112.224 519.936C112.336 519.992 112.447 520.008 112.519 519.976C112.719 519.896 113.117 519.705 113.261 519.386C113.261 519.378 113.277 519.37 113.285 519.362C113.301 519.37 113.309 519.378 113.325 519.386C113.612 519.561 113.939 519.705 114.154 519.705C114.713 519.721 118.063 519.825 118.821 519.41C119.626 519.003 119.746 517.471 120.041 516.817ZM63.2154 498.939L63.2234 498.899C63.2313 498.899 63.2473 498.899 63.2553 498.899L63.2154 498.939ZM99.0147 487.985C99.0147 487.985 99.0147 487.802 99.0067 487.491C99.8044 487.371 100.522 487.156 100.522 487.156C100.522 487.156 107.709 500.143 109.161 501.954C110.613 503.757 109.512 507.467 109.025 508.552C108.874 508.887 108.395 509.126 107.797 509.294L97.7384 504.675C97.7384 504.675 96.3665 503.127 95.2577 501.763C95.2417 501.683 95.2258 501.603 95.1939 501.516C94.9067 500.598 94.1888 500.151 93.112 498.588C93.112 498.588 92.5775 497.814 91.8517 496.346C90.2404 493.091 90.7349 489.469 89.2991 486.916C92.8966 487.523 96.3425 487.953 99.0147 487.985Z" fill="#252963"/>
<path d="M369.623 163.321C370.413 168.355 370.836 176.772 368.738 184.59C359.126 220.426 303.84 244.862 256.642 242.198C225.11 240.419 215.841 227.59 184.644 231.787C163.155 234.675 146.396 243.61 135.468 250.838L134.583 250.391C145.511 243.155 162.27 234.228 183.759 231.34C214.956 227.144 224.224 239.972 255.756 241.751C302.954 244.415 358.241 219.988 367.852 184.143C369.95 176.325 369.528 169.241 368.738 164.207L369.623 163.321Z" fill="#001662"/>
<path d="M97.7782 261.496C96.4221 260.722 95.1299 260.315 93.9653 260.044C94.4838 262.445 95.114 263.69 96.2307 264.823C98.5918 267.224 102.269 268.245 102.875 267.479C103.131 267.16 102.708 266.705 102.508 265.485C101.974 265.285 100.594 263.091 97.7782 261.496Z" fill="#CC6E52"/>
<path d="M102.436 234.842L103.106 232.385C102.644 232.01 102.125 231.715 101.551 231.587C98.4241 230.861 94.4039 235.081 92.6889 239.118C91.5722 241.743 92.0747 246.075 93.1356 254.627C93.327 256.167 93.5025 257.451 93.686 258.544C94.715 258.664 95.8078 258.887 96.9006 259.278C98.6714 259.908 99.8599 260.754 100.634 261.472C101.878 260.355 104.064 258.767 104.662 258.169C105.547 257.284 105.994 257.284 106.433 249.753C106.863 242.222 102.436 234.842 102.436 234.842Z" fill="#CC6E52"/>
<path d="M93.6782 258.544C93.7739 259.086 93.8617 259.581 93.9654 260.036C95.13 260.315 96.4302 260.722 97.7782 261.488C100.594 263.091 101.974 265.277 102.508 265.477C102.484 265.341 102.469 265.205 102.453 265.046C101.264 263.977 100.004 262.82 99.7724 262.597C99.6288 262.453 100.012 262.014 100.618 261.464C99.8522 260.746 98.6636 259.9 96.8848 259.27C95.8 258.887 94.7152 258.664 93.6782 258.544Z" fill="#CC6E52"/>
<path d="M92.4655 259.725C91.7157 259.581 91.0457 259.485 90.4395 259.422C90.4474 259.446 90.4634 259.477 90.4714 259.501C91.7875 262.437 98.2008 264.839 100.099 263.163C99.469 262.605 98.7033 262.022 97.786 261.496C95.8157 260.379 93.9651 260.012 92.4655 259.725Z" fill="#2F1432"/>
<path d="M102.436 237.786C102.062 236.589 101.966 236.422 101.99 236.015C102.022 235.576 102.181 235.209 102.436 234.842L102.819 234.986L103.115 232.313L103.394 233.717C104.893 231.38 106.648 227.375 106.648 227.375C105.053 227.67 104.518 227.582 104.431 227.375C104.319 227.104 104.973 226.633 104.877 226.489C104.829 226.425 104.638 226.417 103.545 226.936C102.556 227.399 102.317 227.598 101.774 227.822C101.368 227.989 100.969 228.101 100.004 228.268C98.3285 228.547 97.4909 228.659 96.0153 228.715C92.4497 228.843 89.0755 230.119 88.7086 230.263C87.2808 230.813 85.0473 231.707 82.9495 233.805C81.9524 234.802 79.8944 236.86 79.4078 240.012C79.0489 242.293 79.703 243.969 80.7399 246.657C81.6413 249.003 83.6913 254.316 86.9458 255.959C87.4084 256.19 88.9718 256.901 90.0008 258.552C91.8435 258.337 94.3641 258.376 96.9086 259.286C98.6795 259.916 99.868 260.762 100.642 261.48C100.65 261.472 100.65 261.472 100.658 261.464C100.666 261.4 100.674 261.344 100.682 261.28C100.977 258.863 100.594 258.081 100.682 256.406C100.841 253.318 102.357 252.218 101.567 251.085C100.993 250.255 100.083 250.71 99.3495 249.752C98.3205 248.412 99.1581 246.258 99.3495 245.764C99.4213 245.572 100.267 243.442 101.12 243.546C102.109 243.665 102.237 246.665 102.891 246.649C103.322 246.641 103.673 245.341 103.777 244.431C103.912 243.282 103.705 242.389 103.33 240.889C103.138 240.155 102.819 239.006 102.436 237.786Z" fill="#2F1432"/>
<path d="M89.9849 258.552C90.0008 258.576 90.0168 258.592 90.0247 258.616C90.2401 258.975 90.3518 259.238 90.4316 259.422C91.0378 259.486 91.7158 259.573 92.4576 259.725C93.9652 260.02 95.8078 260.379 97.7781 261.496C98.6954 262.015 99.4612 262.605 100.091 263.163C100.131 263.123 100.179 263.092 100.211 263.052C100.219 263.044 100.219 263.044 100.227 263.036C100.004 262.828 99.8361 262.677 99.7723 262.605C99.6287 262.461 100.012 262.022 100.618 261.472C99.852 260.754 98.6635 259.908 96.8847 259.278C94.3481 258.369 91.8275 258.337 89.9849 258.552Z" fill="#2F1432"/>
<path d="M108.196 246.649C107.868 246.067 107.629 246.011 107.31 245.317C106.991 244.623 106.911 243.985 106.863 243.099C106.784 241.504 106.871 240.706 106.863 239.996C106.839 237.93 105.962 236.342 105.531 235.568C105.14 234.858 104.303 233.35 103.098 232.385L102.428 234.842C102.428 234.842 106.855 242.222 106.417 249.753C105.97 257.284 105.531 257.284 104.646 258.169C104.056 258.76 101.862 260.355 100.618 261.472C101.264 262.078 101.623 262.597 101.758 262.82C102.014 263.227 102.245 263.674 102.412 264.081C102.452 262.876 102.755 261.999 102.859 261.711C103.059 261.193 103.394 260.315 104.191 259.494C105.101 258.552 105.651 258.696 106.409 257.722C106.728 257.316 106.919 256.861 107.294 255.951C107.525 255.401 107.884 254.515 108.18 253.295C108.554 251.723 108.618 250.431 108.626 249.753C108.65 248.245 108.658 247.487 108.196 246.649Z" fill="#FA9E7B"/>
<path d="M100.626 261.472C100.012 262.022 99.6287 262.453 99.7802 262.605C100.004 262.828 101.272 263.985 102.46 265.054C102.452 264.974 102.444 264.902 102.444 264.823C102.428 264.567 102.428 264.32 102.436 264.089C102.269 263.682 102.038 263.235 101.782 262.828C101.623 262.597 101.272 262.078 100.626 261.472Z" fill="#FA9E7B"/>
<path d="M85.5979 358.761C84.8721 362.814 83.4123 363.875 81.825 370.169C81.5378 371.318 81.3065 372.626 81.1629 374.27C80.6684 379.974 82.1759 385.686 83.3804 390.225C83.6357 391.191 84.7205 395.196 84.7125 399.089C84.7046 402.017 84.6966 403.484 84.2658 404.41C84.1302 404.697 83.6995 405.551 83.8191 406.628C83.8431 406.835 83.9149 407.481 84.2658 407.96C85.4783 409.635 89.4746 408.55 90.025 408.407C92.3542 407.776 91.9234 407.194 94.0133 406.636C96.6377 405.934 97.7943 406.731 100.658 405.75C101.376 405.503 102.907 404.984 102.875 404.418C102.828 403.724 100.403 403.62 98.4484 403.532C95.6805 403.405 94.7073 403.357 93.1279 402.647C91.9314 402.104 91.3172 401.538 90.9104 400.876C89.2353 398.115 90.3042 395.084 91.3571 389.356C91.4369 388.901 91.5166 388.478 91.5804 388.071C91.2055 386.731 90.9104 384.848 90.9104 382.264C90.9104 375.171 93.5666 364.984 94.4521 362.766C95.2019 360.883 95.6326 359.958 95.7522 357.548C92.2744 357.213 88.7966 356.822 85.8293 356.463C85.8213 357.149 85.7495 357.907 85.5979 358.761Z" fill="#2F1432"/>
<path d="M97.4113 351.477C97.4113 350.608 97.4512 349.754 97.5549 349.012C98.185 344.592 87.8313 345.693 85.5898 348.565C84.0503 350.544 85.9169 352.291 85.8291 356.447C88.7885 356.798 92.2743 357.197 95.7521 357.532C95.7761 357.102 95.784 356.639 95.784 356.104C95.784 354.062 96.6615 352.466 97.4113 351.477Z" fill="#2F1432"/>
<path d="M94.4596 362.742C93.5742 364.96 90.918 375.147 90.918 382.24C90.918 384.824 91.2131 386.699 91.588 388.047C92.8084 380.899 92.0507 380.309 93.5742 374.709C94.3798 371.749 94.8824 370.863 95.345 368.063C95.7359 365.694 95.7598 364.05 96.6771 361.418C97.2993 359.631 97.1158 359.152 97.5625 357.876C97.5785 357.836 97.5865 357.772 97.5944 357.708C96.9802 357.652 96.366 357.596 95.7518 357.532C95.6402 359.934 95.2094 360.867 94.4596 362.742Z" fill="#FA9E7B"/>
<path d="M97.4111 351.477C96.6613 352.467 95.7839 354.062 95.7839 356.104C95.7839 356.639 95.7759 357.11 95.752 357.532C96.3662 357.588 96.9804 357.652 97.5946 357.708C97.7142 356.83 97.4031 354.054 97.4111 351.477Z" fill="#FA9E7B"/>
<path d="M119.714 353.001C118.837 351.35 117.026 350.759 115.726 350.344C114.354 349.898 112.663 349.658 111.075 349.706C111.626 351.031 112.064 352.259 112.391 353.368C114.928 353.272 117.257 354.054 117.72 355.889C118.166 357.66 117.72 362.981 116.834 364.752C115.949 366.523 114.617 367.856 115.502 370.512C116.388 373.169 118.278 393.544 118.366 393.807C118.382 391.861 118.478 389.691 118.382 387.13C118.23 383.037 117.8 382.862 117.935 379.599C118.039 377.182 118.31 376.543 118.382 373.392C118.438 370.975 118.294 370.744 118.382 368.071C118.446 366.124 118.501 364.665 118.829 362.75C119.172 360.724 119.387 360.724 119.714 358.761C120.193 355.881 120.44 354.381 119.714 353.001Z" fill="#FA9E7B"/>
<path d="M106.417 351.669C105.858 352.746 106.481 353.552 106.935 355.059C108.363 354.022 110.437 353.432 112.391 353.36C112.064 352.251 111.634 351.023 111.075 349.698C108.993 349.762 107.111 350.344 106.417 351.669Z" fill="#FA9E7B"/>
<path d="M133.45 408.83C133.37 408.511 132.995 408.503 131.233 407.944C129.015 407.242 128.848 407.019 127.244 406.612C125.737 406.237 125.92 406.444 125.027 406.165C124.436 405.982 121.82 405.12 120.153 402.623C119.698 401.937 119.443 401.323 119.268 400.852C118.438 398.602 118.342 396.392 118.366 393.791C118.278 393.528 116.388 373.153 115.503 370.496C114.617 367.84 115.949 366.507 116.835 364.736C117.72 362.965 118.167 357.644 117.72 355.873C117.265 354.038 114.928 353.264 112.392 353.352C112.894 355.051 113.149 356.455 113.189 357.421C113.213 358.171 110.828 358.394 107.287 358.314C107.175 359.878 106.64 360.404 105.532 364.513C104.774 367.329 104.351 368.909 104.2 370.72C104.144 371.414 104.032 373.281 105.532 379.136C106.904 384.505 107.685 387.585 109.52 391.542C110.389 393.417 111.195 394.845 111.738 397.302C112.152 399.192 112.535 400.892 112.184 403.062C112.033 404.011 111.698 405.303 111.299 407.936C111.099 409.252 111.067 409.675 111.299 410.154C112.089 411.789 114.936 411.893 115.726 411.925C118.151 412.013 118.31 411.143 121.046 411.039C122.307 410.992 122.107 411.183 125.92 411.486C128.744 411.71 129.326 411.638 129.908 411.486C131.823 410.992 133.641 409.595 133.45 408.83Z" fill="#2F1432"/>
<path d="M113.181 357.429C113.149 356.455 112.886 355.059 112.383 353.36C110.429 353.432 108.355 354.022 106.927 355.059C107.143 355.793 107.318 356.687 107.302 357.868C107.302 358.027 107.294 358.179 107.278 358.322C110.828 358.402 113.213 358.179 113.181 357.429Z" fill="#2F1432"/>
<path d="M119.714 321.975C118.406 321.186 111.817 319.63 106.202 318.393C105.555 319.877 104.798 321.13 104.072 322.087L107.661 323.1C107.661 323.1 101.328 333.727 106.202 340.819C111.027 347.839 113.046 354.421 113.181 357.349C114.457 357.229 116.196 356.99 117.848 356.711C117.816 356.391 117.776 356.112 117.72 355.889C117.776 356.112 117.816 356.391 117.848 356.711C120.448 356.264 122.817 355.681 122.817 355.227C122.817 355.227 123.702 333.958 123.702 332.187C123.702 330.416 121.924 323.308 119.714 321.975Z" fill="#1770B4"/>
<path d="M107.653 323.092L104.064 322.079C103.035 323.427 102.062 324.193 101.543 324.193C100.825 324.193 89.251 324.776 84.2496 323.332C82.5187 326.212 82.1358 328.82 82.0481 329.514C81.6652 332.578 82.423 334.389 82.9335 337.045C83.5158 340.045 83.8508 344.473 82.4868 350.336C82.4868 350.336 90.4635 353.44 97.5468 351.669C97.5468 351.669 98.8789 351.669 98.8789 349.898C98.8789 348.127 98.8789 345.909 98.8789 345.909C98.8789 345.909 101.99 352.163 102.421 353.887C102.867 355.658 105.755 356.16 105.755 356.16C107.733 356.543 110.525 357.429 111.721 357.429C112.064 357.429 112.567 357.397 113.165 357.341C113.029 354.421 111.011 347.831 106.185 340.811C101.328 333.719 107.653 323.092 107.653 323.092Z" fill="#252963"/>
<path d="M106.202 318.393C102.325 317.54 98.9109 316.846 98.0015 316.662C95.784 316.215 90.9103 317.109 90.9103 317.109C90.5034 317.316 89.9929 317.604 89.4346 317.963L104.064 322.087C104.798 321.13 105.555 319.885 106.202 318.393Z" fill="#1770B4"/>
<path d="M85.1509 321.975C84.8159 322.43 84.5127 322.877 84.2495 323.324C89.2589 324.776 100.825 324.185 101.543 324.185C102.061 324.185 103.035 323.419 104.064 322.071L89.4344 317.947C88.1501 318.8 86.5627 320.085 85.1509 321.975Z" fill="#252963"/>
<path d="M150.759 242.796C150.209 242.213 149.714 241.639 149.507 241.232L149.499 241.224C149.395 241.16 149.379 241.065 149.411 240.953C149.411 240.937 149.395 240.913 149.395 240.897C149.395 240.235 149.148 239.581 149.028 239.286C148.988 239.182 148.893 239.118 148.781 239.11L144.729 238.703C144.601 238.687 144.474 238.735 144.378 238.831L142.934 240.275C142.822 240.387 142.663 240.442 142.503 240.426L134.447 239.581C134.383 239.573 134.319 239.533 134.295 239.477L133.569 238.033C133.498 237.89 133.354 237.794 133.195 237.778L129.238 237.379C129.095 237.363 128.959 237.403 128.839 237.483C128.05 238.025 124.923 240.243 124.149 241.791C123.327 243.442 122.881 255.816 123.543 258.249C124.229 257.443 124.811 256.869 125.034 256.414C125.481 255.528 128.137 254.643 128.576 253.757C129.023 252.872 128.576 248.436 129.023 247.551C129.469 246.665 131.24 243.562 131.24 243.562H131.687L128.361 245.995L127.914 249.984L127.467 256.629C128.153 255.425 132.118 251.978 132.118 251.978L142.312 252.864C142.312 252.864 145.431 256.948 147.433 259.278C147.951 258.369 148.59 257.531 149.403 256.853C152.059 254.635 152.945 249.322 152.945 247.551C152.937 246.402 151.756 244.272 150.759 242.796Z" fill="#10151F"/>
<path d="M148.957 260.826C149.842 261.272 152.498 261.272 152.945 259.055C153.392 256.837 152.945 244.878 152.945 244.878C152.945 244.878 151.756 243.841 150.759 242.796C151.756 244.272 152.945 246.402 152.945 247.543C152.945 249.314 152.06 254.635 149.403 256.845C148.598 257.515 147.952 258.353 147.433 259.27C148.143 260.1 148.717 260.714 148.957 260.826Z" fill="#10151F"/>
<path d="M129.9 241.775C130.636 241.775 131.232 241.278 131.232 240.666C131.232 240.053 130.636 239.557 129.9 239.557C129.164 239.557 128.568 240.053 128.568 240.666C128.568 241.278 129.164 241.775 129.9 241.775Z" fill="#6A4854"/>
<path d="M127.244 245.325C127.979 245.325 128.576 244.728 128.576 243.993C128.576 243.257 127.979 242.66 127.244 242.66C126.508 242.66 125.912 243.257 125.912 243.993C125.912 244.728 126.508 245.325 127.244 245.325Z" fill="#D4707B"/>
<path d="M116.164 272.354C116.611 271.468 120.153 263.937 121.485 261.272C122.817 258.616 124.588 257.284 125.027 256.398C125.465 255.513 128.129 254.627 128.568 253.741C129.015 252.856 128.568 248.42 129.015 247.535C129.462 246.649 131.232 243.546 131.232 243.546H131.679C131.599 243.418 131.488 243.33 131.344 243.259C130.858 243.027 130.275 243.171 129.892 243.546C128.823 244.583 126.175 247.088 125.473 247.088C124.588 247.088 124.141 244.87 124.141 244.431C124.141 243.993 127.683 239.11 125.393 240.219C124.014 240.881 122.881 242.277 122.195 243.275C121.732 243.945 121.573 244.774 121.692 245.572C122.011 247.686 122.099 250.598 121.046 253.733C120.145 256.398 118.749 258.217 117.058 260.379C112.503 266.211 109.6 266.689 109.528 269.242C109.424 272.713 114.633 276.877 117.505 275.888C117.856 275.768 118.175 275.561 118.478 275.297C117.337 274.316 115.893 272.904 116.164 272.354Z" fill="#2F1432"/>
<path d="M124.588 260.826C125.673 258.999 126.359 258.169 126.359 258.169C127.754 256.486 128.472 256.35 129.015 255.066C129.39 254.196 129.414 253.422 129.461 251.962C129.517 250.12 129.198 249.92 129.461 248.859C129.597 248.317 129.685 248.341 130.794 246.202C131.719 244.407 131.902 243.905 131.679 243.546H131.232C131.232 243.546 129.461 246.649 129.015 247.535C128.568 248.42 129.015 252.856 128.568 253.742C128.121 254.627 125.465 255.513 125.026 256.398C124.588 257.284 122.809 258.616 121.485 261.273C120.153 263.929 116.611 271.468 116.164 272.354C115.885 272.904 117.337 274.324 118.462 275.305C121.102 272.952 121.884 265.381 124.588 260.826Z" fill="#FA9E7B"/>
<path d="M147.497 259.047C148.015 258.137 148.654 257.299 149.467 256.621C152.123 254.404 153.009 249.09 153.009 247.319C153.009 246.186 151.82 244.048 150.823 242.572C150.273 241.99 149.778 241.416 149.571 241.009L149.563 241.001C149.459 240.937 149.443 240.841 149.475 240.73C149.475 240.714 149.459 240.69 149.459 240.674C149.459 240.012 149.212 239.357 149.092 239.062C149.052 238.959 148.957 238.895 148.845 238.887L144.793 238.48C144.665 238.464 144.538 238.512 144.442 238.608L142.998 240.052C142.886 240.163 142.727 240.219 142.567 240.203L134.511 239.357C134.447 239.349 134.383 239.31 134.359 239.254L133.633 237.81C133.562 237.666 133.418 237.57 133.259 237.554L129.302 237.156C129.159 237.14 129.023 237.18 128.903 237.259C128.903 237.259 133.227 237.578 133.227 238.025C133.227 238.025 134.112 241.567 134.112 242.014C134.112 242.014 134.112 240.682 134.559 240.243C134.87 239.932 142.089 241.129 142.089 241.129C142.089 241.129 141.203 242.461 140.757 243.346C140.757 243.346 143.86 238.919 144.745 238.919C145.63 238.919 148.733 239.365 148.733 239.365L149.18 241.136C149.18 241.136 150.512 242.908 150.951 244.24C151.398 245.572 152.722 245.572 152.283 247.782C151.844 249.992 151.398 253.103 150.951 253.989C150.504 254.874 149.619 255.76 149.18 256.207C148.733 256.621 147.497 259.047 147.497 259.047Z" fill="#FFFFF5"/>
<path d="M149.499 241.216C149.34 241.121 149.379 240.929 149.523 240.722C149.076 240.793 148.685 241.057 148.957 241.328C149.403 241.775 150.289 243.985 150.289 244.87C150.289 245.756 150.289 247.088 149.403 248.412C148.518 249.745 146.747 252.401 146.3 252.401C145.854 252.401 144.968 252.401 144.53 251.516C144.091 250.63 141.427 247.088 140.103 247.973C138.77 248.859 139.217 249.306 139.217 249.306C139.217 249.306 142.32 252.848 142.32 255.066C142.32 257.284 141.873 264.368 140.103 266.147C138.332 267.918 128.137 283.427 128.137 283.427C128.137 283.427 126.805 280.77 125.92 280.323C125.035 279.877 121.932 290.519 121.932 290.519C121.932 290.519 123.04 291.724 124.843 292.689C125.92 292.29 131.24 293.176 132.565 291.851C133.897 290.519 140.095 281.656 140.541 278.56C140.988 275.457 144.968 268.365 145.415 265.708C145.862 263.051 146.747 259.063 149.403 256.845C152.06 254.627 152.945 249.314 152.945 247.543C152.945 245.772 150.041 241.551 149.499 241.216Z" fill="#2F1432"/>
<path d="M153.83 245.317C153.383 243.985 150.727 241.328 150.288 240.889C150.113 240.714 149.81 240.682 149.523 240.722C149.387 240.937 149.339 241.121 149.499 241.216C150.041 241.543 152.945 245.764 152.945 247.535C152.945 249.306 152.059 254.627 149.403 256.837C146.747 259.055 145.861 263.043 145.415 265.7C144.968 268.357 140.988 275.449 140.541 278.552C140.094 281.656 133.896 290.519 132.564 291.843C131.232 293.176 125.92 292.29 124.843 292.681C126.981 293.83 130.083 294.651 133.45 292.729C139.655 289.187 147.185 262.15 147.624 261.711C148.071 261.264 153.83 251.962 153.83 250.63C153.83 249.306 154.269 246.649 153.83 245.317Z" fill="#FA9E7B"/>
<path d="M102.732 265.102C102.756 265.293 102.732 265.429 102.66 265.485C102.5 265.596 102.189 265.261 101.679 264.727C97.6107 263.53 92.2185 260.834 86.0445 262.166C84.0105 262.605 81.9286 263.083 80.2854 264.823C79.2324 265.939 78.6023 267.32 78.2593 268.795C79.0171 268.277 79.9743 267.926 81.1708 267.926C86.0445 267.926 99.4453 271.444 100.219 275.457C102.875 289.195 98.887 297.172 101.104 301.6C103.322 306.028 107.749 314.811 106.202 318.401C105.571 319.845 104.838 321.066 104.128 322.015C105.428 322.398 106.664 322.781 107.653 323.108C108.467 323.379 109.121 323.603 109.52 323.762C111.737 324.648 121.485 323.316 121.924 321.991C122.37 320.659 119.267 314.899 119.706 309.139C120.145 303.379 114.386 287.87 114.386 287.87C114.386 287.87 120.592 294.077 122.801 292.745C125.019 291.413 127.228 280.778 127.228 280.778C120.376 273.558 105.508 266.402 102.732 265.102Z" fill="#6D90C6"/>
<path d="M104.128 322.007C104.838 321.066 105.571 319.845 106.202 318.393C107.749 314.811 103.322 306.028 101.105 301.592C98.887 297.165 102.875 289.187 100.219 275.449C99.4454 271.436 86.0446 267.918 81.1708 267.918C79.9743 267.918 79.0251 268.261 78.2594 268.788C77.2543 273.183 78.8337 278.449 79.392 280.323C82.7343 291.452 91.9553 299.135 89.1395 303.363C86.4833 307.352 89.1395 310.456 89.5862 311.78C89.8654 312.61 88.0707 315.154 86.6827 317.173L99.1104 320.675C100.658 321.034 102.445 321.521 104.128 322.007Z" fill="#45588D"/>
<path d="M95.3451 320.204C95.9114 320.061 97.3552 320.284 99.1101 320.683L86.6824 317.181C85.8448 318.401 85.1509 319.43 85.1509 319.757C85.1509 320.651 93.5742 320.651 95.3451 320.204Z" fill="#45588D"/>
<path d="M102.652 265.485C102.732 265.437 102.748 265.293 102.724 265.102C102.429 264.966 102.269 264.894 102.269 264.894C102.07 264.846 101.87 264.783 101.671 264.727C102.181 265.261 102.493 265.588 102.652 265.485Z" fill="#6D90C6"/>
<path d="M97.778 261.496C95.8078 260.379 93.9652 260.02 92.4576 259.725C90.5193 259.342 89.0356 259.31 88.1342 259.318L86.4751 263.044C92.0428 262.844 97.124 263.371 102.062 265.126C101.344 264.408 100.019 262.764 97.778 261.496Z" fill="#43588C"/>
<path d="M102.389 264.99C102.317 264.799 102.229 264.599 102.133 264.4C101.136 262.365 99.2938 260.881 97.1401 260.179C93.1119 258.871 88.2621 259.063 88.2621 259.063L88.1504 259.326C89.0518 259.318 90.5354 259.35 92.4737 259.733C93.9813 260.028 95.8239 260.387 97.7942 261.504C100.028 262.772 101.36 264.416 102.078 265.142C102.126 265.158 102.165 265.174 102.213 265.189C102.293 265.086 102.301 265.078 102.389 264.99Z" fill="#87A3D7"/>
<path opacity="0.54" d="M145.183 247.535C145.796 247.535 146.292 247.038 146.292 246.426C146.292 245.813 145.796 245.317 145.183 245.317C144.571 245.317 144.075 245.813 144.075 246.426C144.075 247.038 144.571 247.535 145.183 247.535Z" stroke="white" stroke-miterlimit="10"/>
<path opacity="0.54" d="M146.515 243.546C147.128 243.546 147.624 243.049 147.624 242.437C147.624 241.824 147.128 241.328 146.515 241.328C145.903 241.328 145.407 241.824 145.407 242.437C145.407 243.049 145.903 243.546 146.515 243.546Z" stroke="white" stroke-miterlimit="10"/>
<path opacity="0.54" d="M143.412 244.878C144.025 244.878 144.521 244.382 144.521 243.769C144.521 243.157 144.025 242.66 143.412 242.66C142.8 242.66 142.304 243.157 142.304 243.769C142.304 244.382 142.8 244.878 143.412 244.878Z" stroke="white" stroke-miterlimit="10"/>
<path opacity="0.54" d="M148.286 246.211C148.899 246.211 149.395 245.714 149.395 245.102C149.395 244.489 148.899 243.993 148.286 243.993C147.674 243.993 147.178 244.489 147.178 245.102C147.178 245.714 147.674 246.211 148.286 246.211Z" stroke="white" stroke-miterlimit="10"/>
<path d="M118.605 325.749C118.605 325.749 117.72 330.623 115.502 331.956L118.605 325.749Z" fill="#252963"/>
<path d="M469.132 229.481L462.855 233.582L458.866 229.593L465.957 225.604L469.132 229.481Z" fill="#001662"/>
<path d="M269.165 40.6787L275.451 36.2271L280.763 39.49L275.889 46.5822L269.165 40.6787Z" fill="#001662"/>
<path d="M466.843 229.393L277.979 153.078C276.017 152.288 274.421 150.046 274.421 148.084V38.3173C274.421 36.3547 276.017 35.4054 277.979 36.1952L466.843 112.511C468.805 113.3 470.4 115.542 470.4 117.505V227.271C470.4 229.234 468.805 230.183 466.843 229.393Z" fill="#001662"/>
<path d="M460.629 233.789L271.765 157.473C269.803 156.684 268.208 154.442 268.208 152.479V42.713C268.208 40.7505 269.803 39.8011 271.765 40.5909L460.629 116.906C462.591 117.696 464.186 119.938 464.186 121.9L463.74 231.802C463.74 233.773 461.969 233.135 460.629 233.789Z" fill="#6ED8F5"/>
<path d="M272.1 157.864L459.776 233.701C462.065 234.627 463.923 233.518 463.923 231.228V135.136C460.23 131.992 456.242 129.368 452.03 127.661C426.696 117.425 408.972 129.791 385.84 122.116C362.285 114.306 350.304 97.1535 331.024 82.3866C316.77 71.465 296.453 60.2642 267.937 56.0679V152.041C267.952 154.33 269.803 156.939 272.1 157.864Z" fill="#00B7FF"/>
<path d="M272.1 157.864L459.775 233.701C462.065 234.627 463.923 233.518 463.923 231.228V168.315C447.858 155.359 435.598 150.604 426.696 148.969C412.258 146.312 410.392 152.511 390.498 151.41C379.267 150.788 360.059 149.719 340.341 136.316C316.905 120.385 314.791 102.004 295.352 90.7312C288.492 86.7503 279.447 83.6469 267.944 84.8436V152.048C267.952 154.33 269.803 156.939 272.1 157.864Z" fill="#0090FF"/>
<path d="M303.114 138.335L329.485 148.993V116.412L303.114 105.754V90.7553L267.953 76.5469V124.126L296.908 135.83L303.114 138.335Z" fill="#0062D0"/>
<path d="M419.454 176.556L436.524 183.449V169.488L419.454 162.595V176.556Z" fill="#006CEE"/>
<path d="M432.902 132.599V181.989L463.924 194.53V145.14L432.902 132.599Z" fill="#0062D0"/>
<path d="M463.923 231.236V187.406C442.163 178.367 424.598 172.894 412.211 169.496C377.975 160.106 374.88 164.27 352.226 154.051C327.953 143.097 318.58 132.487 295.344 125.897C284.368 122.786 275.1 121.932 267.937 121.932V152.049C267.937 154.338 269.795 156.947 272.084 157.872L459.76 233.709C462.073 234.635 463.923 233.526 463.923 231.236Z" fill="#2065F1"/>
<path d="M379.562 182.452C379.562 180.083 376.396 175.639 376.396 174.841C376.396 174.051 377.975 173.9 377.975 172.312C377.975 170.733 374.808 171.036 376.396 169.297C377.975 167.565 375.231 159.46 376.021 158.989C376.547 158.678 379.132 161.965 380.791 164.191C382.099 165.938 383.806 167.366 385.593 168.092C387.316 168.786 389.047 168.89 389.047 166.504C389.047 161.758 374.808 140.975 374.018 139.867C373.723 139.452 374.76 140.409 375.757 138.989C376.451 138 377.05 134.21 376.794 132.687C376.627 131.689 376.372 130.03 375.502 128.801C374.369 127.206 370.636 124.693 368.259 124.326C361.934 123.352 365.316 135.566 365.316 135.566C365.316 135.566 358.99 134.593 358.201 133.484C357.483 132.471 363.298 126.264 364.367 125.14C364.462 125.044 364.423 124.844 364.295 124.693L359.325 119.132C359.174 118.965 358.966 118.965 358.935 119.132C358.552 121.358 356.55 132.878 355.832 133.309C355.042 133.779 354.252 132.671 354.252 132.671L351.261 125.475C351.173 125.267 350.95 125.14 350.814 125.219L348.134 126.815C348.014 126.887 347.999 127.078 348.11 127.254L351.046 132.104C351.07 132.152 351.086 132.2 351.086 132.24C351.078 132.631 351.006 134.593 350.296 135.016C349.506 135.487 349.506 138.654 349.506 138.654L350.296 139.763L347.927 145.132C343.97 141.159 338.434 141.295 338.434 141.295L340.014 149.057C341.593 148.116 345.55 150.501 345.55 150.501C345.55 150.501 339.224 162.18 337.637 164.709C336.057 167.238 338.426 170.565 338.426 170.565L332.556 182.284L334.358 183.01L336.209 179.101L337.637 180.529C337.637 180.529 347.129 160.633 348.708 161.271C350.288 161.909 351.811 164.901 351.811 164.901C348.254 170.581 351.724 176.756 353.678 179.492C354.412 180.513 354.787 181.678 354.739 182.691L354.356 191.092L381.844 202.197C380.847 196.668 379.283 188.387 378.765 187.653C377.975 186.56 379.562 184.829 379.562 182.452Z" fill="#2B005B"/>
<path d="M454.36 126.791L419.717 112.79V106.583L454.36 120.584V126.791Z" fill="#6297C8"/>
<path d="M428.587 116.372L419.717 112.79V106.583L428.587 110.173V116.372Z" fill="#2B005B"/>
<path d="M441.437 124.669L454.359 129.894V128.857L441.437 123.64V124.669Z" fill="#288BCC"/>
<path d="M451.256 219.142L418.161 205.771V172.671L451.256 186.042V219.142Z" fill="#0043B6"/>
<path d="M311.641 154.968L280.101 142.228V137.569L311.641 150.317V154.968Z" fill="#2E45C6"/>
<path d="M319.346 158.088L313.451 155.702V151.051L319.346 153.429V158.088Z" fill="#2E45C6"/>
<path d="M311.641 162.611L280.101 149.863V145.204L311.641 157.952V162.611Z" fill="#2E45C6"/>
<path d="M319.346 165.722L313.451 163.337V158.686L319.346 161.063V165.722Z" fill="#2E45C6"/>
<path opacity="0.6" d="M394.375 200.298L340.604 178.567V174.426L394.375 196.158V200.298Z" fill="white"/>
</g>
<defs>
<clipPath id="clip0">
<rect width="539" height="520" fill="white"/>
</clipPath>
</defs>
</svg>
