<svg width="1600" height="815" viewBox="0 0 1600 815" fill="none" xmlns="http://www.w3.org/2000/svg">
<path opacity="0.648" d="M704.995 671.718C595.015 661.137 484.555 687.505 393.925 744.975C257.735 831.342 92.1953 836.366 -13.8147 765.73C-114.325 698.758 -170.575 557.604 -117.815 466.503C-37.0647 327.081 263.215 366.697 291.185 370.387C399.215 384.641 401.315 412.515 507.185 422.072C679.885 437.668 817.405 376.408 854.185 359.506C1020.47 283.095 1006.16 205.685 1155.19 113.777C1289.66 30.855 1529.81 -47.0347 1649.19 35.7968C1801.21 141.27 1756.78 506.917 1537.19 671.428C1406.79 769.121 1212.27 797.657 1062.19 769.357C937.285 745.809 879.535 689.763 711.185 672.335C709.115 672.117 707.055 671.909 704.995 671.718Z" fill="url(#paint0_linear)"/>
<circle cx="1521.5" cy="439.5" r="104.5" fill="url(#paint1_linear)"/>
<defs>
<linearGradient id="paint0_linear" x1="800.344" y1="0.438477" x2="800.344" y2="814.626" gradientUnits="userSpaceOnUse">
<stop stop-color="#00B1FF"/>
<stop offset="1" stop-color="#6EEBFF"/>
</linearGradient>
<linearGradient id="paint1_linear" x1="1521.5" y1="335" x2="1521.5" y2="544" gradientUnits="userSpaceOnUse">
<stop stop-color="#9FF1FF"/>
<stop offset="1" stop-color="white" stop-opacity="0"/>
</linearGradient>
</defs>
</svg>
