<svg width="1600" height="805" viewBox="0 0 1600 805" fill="none" xmlns="http://www.w3.org/2000/svg">
<path d="M-202.008 106.661C-117.1 35.2679 21.9453 -12.6107 159.207 2.93627C363.022 26.0269 375.072 167.706 703.222 331.792C868.474 414.431 970.374 465.374 1099.53 449.662C1242.85 432.229 1291.66 348.282 1469.52 340.043C1516.87 337.851 1628.75 332.665 1697.66 383.655C1835.91 485.966 1802.54 783.28 1662.56 800.913C1381.78 836.274 1307.2 556.923 1017.64 540.422C891.726 533.243 777.512 605.886 502.872 706.618C286.143 786.109 204.527 812.594 91.936 800.913C-111.324 779.826 -227.322 607.996 -242.955 584.033C-329.061 452.078 -359.845 239.371 -202.008 106.661Z" fill="url(#paint0_linear)" fill-opacity="0.35"/>
<defs>
<linearGradient id="paint0_linear" x1="1565.5" y1="242.001" x2="181.501" y2="786.001" gradientUnits="userSpaceOnUse">
<stop stop-color="#ACB6E5"/>
<stop offset="1" stop-color="#74EBD5" stop-opacity="0"/>
</linearGradient>
</defs>
</svg>
