<svg width="320" height="923" viewBox="0 0 320 923" fill="none" xmlns="http://www.w3.org/2000/svg">
<rect x="310" y="18" width="887" height="300" rx="26" transform="rotate(90 310 18)" fill="white"/>
<mask id="mask0" mask-type="alpha" maskUnits="userSpaceOnUse" x="10" y="18" width="300" height="887">
<rect x="310" y="17.9999" width="887" height="300" rx="26" transform="rotate(90 310 17.9999)" fill="white"/>
</mask>
<g mask="url(#mask0)">
<circle cx="160" cy="248" r="279" transform="rotate(90 160 248)" fill="url(#paint0_linear)"/>
<circle cx="160" cy="248" r="279" transform="rotate(90 160 248)" fill="url(#paint1_linear)"/>
<circle cx="160" cy="248" r="279" transform="rotate(90 160 248)" fill="url(#paint2_linear)"/>
<circle cx="160" cy="498" r="279" transform="rotate(90 160 498)" fill="url(#paint3_linear)"/>
<circle cx="160" cy="498" r="279" transform="rotate(90 160 498)" fill="url(#paint4_linear)"/>
<circle cx="160" cy="498" r="279" transform="rotate(90 160 498)" fill="url(#paint5_linear)"/>
<circle cx="160" cy="738" r="279" transform="rotate(90 160 738)" fill="url(#paint6_linear)"/>
<circle cx="160" cy="738" r="279" transform="rotate(90 160 738)" fill="url(#paint7_linear)"/>
<circle cx="160" cy="738" r="279" transform="rotate(90 160 738)" fill="url(#paint8_linear)"/>
<circle cx="160" cy="978" r="279" transform="rotate(90 160 978)" fill="url(#paint9_linear)"/>
<circle cx="160" cy="978" r="279" transform="rotate(90 160 978)" fill="url(#paint10_linear)"/>
<circle cx="160" cy="978" r="279" transform="rotate(90 160 978)" fill="url(#paint11_linear)"/>
</g>
<g clip-path="url(#clip0)">
<path d="M87.9959 82.4739V104.16C87.9959 105.273 87.5226 106.274 86.7667 106.976C86.0809 107.611 85.1636 108 84.1556 108H51.8399C50.8319 108 49.9146 107.611 49.2297 106.976C48.4738 106.274 48.0005 105.273 48.0005 104.16V82.4739H87.9959Z" fill="#FEC970"/>
<path d="M87.9954 82.473L72.6222 69.6724C69.9427 67.4412 66.0527 67.4412 63.3732 69.6724L48 82.473H48.0003L52.5312 86.2456L63.3732 95.273C66.053 97.5047 69.9431 97.5047 72.6219 95.273L83.4648 86.2456L87.9957 82.473" fill="#FBA028"/>
<path d="M83.4648 74.4853V86.2465L72.6219 95.2739C69.9431 97.5056 66.053 97.5056 63.3732 95.2739L52.5312 86.2465V74.4853C52.5312 72.0332 54.5195 70.045 56.9722 70.045H79.0245C81.4772 70.045 83.4648 72.0332 83.4648 74.4853Z" fill="#BFDADD"/>
<path d="M83.4648 74.4853V83.5527L72.6219 92.5804C69.9431 94.8118 66.053 94.8118 63.3732 92.5804L52.5312 83.5527V74.4853C52.5312 72.0332 54.5195 70.045 56.9722 70.045H79.0245C81.4772 70.045 83.4648 72.0332 83.4648 74.4853Z" fill="#E4F5F7"/>
<path d="M76.9762 85.5705H59.0194C58.6813 85.5705 58.4072 85.2964 58.4072 84.9583C58.4072 84.6205 58.6813 84.3461 59.0194 84.3461H76.9762C77.3144 84.3461 77.5884 84.6205 77.5884 84.9583C77.5884 85.2964 77.3144 85.5705 76.9762 85.5705Z" fill="#4B5051"/>
<path d="M76.9762 89.1261H59.0194C58.6813 89.1261 58.4072 88.8521 58.4072 88.5139C58.4072 88.1758 58.6813 87.9017 59.0194 87.9017H76.9762C77.3144 87.9017 77.5884 88.1758 77.5884 88.5139C77.5884 88.8521 77.3144 89.1261 76.9762 89.1261Z" fill="#4B5051"/>
<path d="M76.9762 78.4599H59.0194C58.6813 78.4599 58.4072 78.1859 58.4072 77.8477C58.4072 77.5096 58.6813 77.2355 59.0194 77.2355H76.9762C77.3144 77.2355 77.5884 77.5096 77.5884 77.8477C77.5884 78.1859 77.3144 78.4599 76.9762 78.4599Z" fill="#4B5051"/>
<path d="M76.9762 82.0152H59.0194C58.6813 82.0152 58.4072 81.7411 58.4072 81.403C58.4072 81.0649 58.6813 80.7908 59.0194 80.7908H76.9762C77.3144 80.7908 77.5884 81.0649 77.5884 81.403C77.5884 81.7411 77.3144 82.0152 76.9762 82.0152Z" fill="#4B5051"/>
<path d="M87.1793 76.5706C87.1793 81.2816 83.3603 85.1005 78.6496 85.1005C73.9386 85.1005 70.1196 81.2816 70.1196 76.5706C70.1196 71.8599 73.9386 68.0409 78.6496 68.0409C83.3603 68.0409 87.1793 71.8599 87.1793 76.5706Z" fill="#26BF64"/>
<path d="M87.1793 76.5706C87.1793 81.0347 83.7512 84.6971 79.3845 85.0694C75.0168 84.6971 71.5894 81.0347 71.5894 76.5706C71.5894 72.1074 75.0168 68.4449 79.3845 68.0729C83.7512 68.4449 87.1793 72.1074 87.1793 76.5706Z" fill="#49D685"/>
<path d="M78.6086 81.8184C78.4295 81.8184 78.2574 81.7393 78.1402 81.5999L74.5901 77.3723C74.3728 77.1132 74.4064 76.7271 74.6652 76.5098C74.9243 76.2922 75.3103 76.3261 75.5276 76.5849L78.438 80.0508L81.7193 72.3945C81.8524 72.0839 82.2125 71.9398 82.5231 72.0732C82.8338 72.2062 82.9778 72.566 82.8445 72.877L79.1714 81.4473C79.0878 81.6429 78.9086 81.7808 78.6984 81.8116C78.6685 81.8162 78.6385 81.8184 78.6086 81.8184Z" fill="white"/>
<path d="M84.2678 105.508C84.1298 105.508 83.991 105.462 83.8765 105.366L74.1149 97.2389C73.8552 97.0225 73.8201 96.6365 74.0361 96.3768C74.2525 96.1171 74.6385 96.0817 74.8982 96.298L84.6596 104.425C84.9196 104.642 84.955 105.027 84.7386 105.287C84.6175 105.433 84.4432 105.508 84.2678 105.508Z" fill="#FBA028"/>
<path d="M61.8619 97.2551L53.8397 104.107C52.7347 105.051 53.2288 106.856 54.6609 107.105C56.9647 107.505 59.6567 107.955 60.3806 108H51.8402C50.8319 108 49.9146 107.612 49.2297 106.976C48.4738 106.275 48.0005 105.273 48.0005 104.161V82.4739H50.899V97.2569C50.9268 100.245 54.4299 101.849 56.727 99.9373L61.0977 96.2977C61.3623 96.0783 61.7581 96.1183 61.972 96.3917C62.1786 96.6551 62.1188 97.0411 61.8619 97.2551Z" fill="#FBA028"/>
</g>
<circle cx="160" cy="223" r="30" transform="rotate(90 160 223)" fill="#00B1FF"/>
<g clip-path="url(#clip1)">
<path d="M160.69 233.214L166.94 226.965C167.321 226.583 167.321 225.965 166.94 225.584C166.558 225.202 165.94 225.202 165.559 225.584L160.976 230.166L160.976 213.476C160.976 212.937 160.539 212.5 160 212.5C159.461 212.5 159.023 212.937 159.023 213.476L159.023 230.166L154.441 225.584C154.06 225.203 153.442 225.203 153.06 225.584C152.87 225.775 152.774 226.025 152.774 226.274C152.774 226.524 152.87 226.774 153.06 226.965L159.309 233.214C159.691 233.595 160.309 233.595 160.69 233.214Z" fill="white"/>
</g>
<circle cx="159" cy="460" r="30" transform="rotate(90 159 460)" fill="#00B1FF"/>
<g clip-path="url(#clip2)">
<path d="M159.69 470.214L165.94 463.965C166.321 463.583 166.321 462.965 165.94 462.584C165.558 462.202 164.94 462.202 164.559 462.584L159.976 467.166L159.976 450.476C159.976 449.937 159.539 449.5 159 449.5C158.461 449.5 158.023 449.937 158.023 450.476L158.023 467.166L153.441 462.584C153.06 462.203 152.442 462.203 152.06 462.584C151.87 462.775 151.774 463.025 151.774 463.274C151.774 463.524 151.87 463.774 152.06 463.965L158.309 470.214C158.691 470.595 159.309 470.595 159.69 470.214Z" fill="white"/>
</g>
<path d="M135.02 550.4C136.136 550.4 137.102 550.586 137.918 550.958C138.746 551.33 139.382 551.858 139.826 552.542C140.27 553.226 140.492 554.036 140.492 554.972C140.492 555.896 140.27 556.706 139.826 557.402C139.382 558.086 138.746 558.614 137.918 558.986C137.102 559.346 136.136 559.526 135.02 559.526H132.482V563H129.566V550.4H135.02ZM134.858 557.15C135.734 557.15 136.4 556.964 136.856 556.592C137.312 556.208 137.54 555.668 137.54 554.972C137.54 554.264 137.312 553.724 136.856 553.352C136.4 552.968 135.734 552.776 134.858 552.776H132.482V557.15H134.858ZM151.596 558.194C151.596 558.23 151.578 558.482 151.542 558.95H144.216C144.348 559.55 144.66 560.024 145.152 560.372C145.644 560.72 146.256 560.894 146.988 560.894C147.492 560.894 147.936 560.822 148.32 560.678C148.716 560.522 149.082 560.282 149.418 559.958L150.912 561.578C150 562.622 148.668 563.144 146.916 563.144C145.824 563.144 144.858 562.934 144.018 562.514C143.178 562.082 142.53 561.488 142.074 560.732C141.618 559.976 141.39 559.118 141.39 558.158C141.39 557.21 141.612 556.358 142.056 555.602C142.512 554.834 143.13 554.24 143.91 553.82C144.702 553.388 145.584 553.172 146.556 553.172C147.504 553.172 148.362 553.376 149.13 553.784C149.898 554.192 150.498 554.78 150.93 555.548C151.374 556.304 151.596 557.186 151.596 558.194ZM146.574 555.296C145.938 555.296 145.404 555.476 144.972 555.836C144.54 556.196 144.276 556.688 144.18 557.312H148.95C148.854 556.7 148.59 556.214 148.158 555.854C147.726 555.482 147.198 555.296 146.574 555.296ZM159.907 557.96C160.483 558.14 160.927 558.416 161.239 558.788C161.563 559.16 161.725 559.604 161.725 560.12C161.725 560.732 161.515 561.272 161.095 561.74C160.675 562.196 160.099 562.55 159.367 562.802C158.635 563.054 157.807 563.18 156.883 563.18C156.127 563.18 155.383 563.102 154.651 562.946C153.919 562.79 153.241 562.556 152.617 562.244L153.373 560.282C154.393 560.774 155.521 561.02 156.757 561.02C157.417 561.02 157.933 560.924 158.305 560.732C158.689 560.528 158.881 560.246 158.881 559.886C158.881 559.574 158.749 559.34 158.485 559.184C158.221 559.016 157.837 558.932 157.333 558.932H155.353V557.186H157.081C157.573 557.186 157.951 557.108 158.215 556.952C158.479 556.796 158.611 556.568 158.611 556.268C158.611 555.956 158.443 555.716 158.107 555.548C157.783 555.38 157.315 555.296 156.703 555.296C155.767 555.296 154.747 555.518 153.643 555.962L152.959 554.018C154.303 553.43 155.611 553.136 156.883 553.136C157.759 553.136 158.539 553.244 159.223 553.46C159.919 553.676 160.465 553.994 160.861 554.414C161.257 554.822 161.455 555.302 161.455 555.854C161.455 556.31 161.317 556.724 161.041 557.096C160.765 557.456 160.387 557.744 159.907 557.96ZM173.47 553.316L169.096 563.594C168.652 564.71 168.1 565.496 167.44 565.952C166.792 566.408 166.006 566.636 165.082 566.636C164.578 566.636 164.08 566.558 163.588 566.402C163.096 566.246 162.694 566.03 162.382 565.754L163.408 563.756C163.624 563.948 163.87 564.098 164.146 564.206C164.434 564.314 164.716 564.368 164.992 564.368C165.376 564.368 165.688 564.272 165.928 564.08C166.168 563.9 166.384 563.594 166.576 563.162L166.612 563.072L162.418 553.316H165.316L168.034 559.886L170.77 553.316H173.47ZM183.427 553.316V563H180.619V555.62H177.559L177.469 557.33C177.421 558.602 177.301 559.658 177.109 560.498C176.917 561.338 176.605 561.998 176.173 562.478C175.741 562.958 175.141 563.198 174.373 563.198C173.965 563.198 173.479 563.126 172.915 562.982L173.059 560.678C173.251 560.702 173.389 560.714 173.473 560.714C173.893 560.714 174.205 560.564 174.409 560.264C174.625 559.952 174.769 559.562 174.841 559.094C174.913 558.614 174.967 557.984 175.003 557.204L175.147 553.316H183.427ZM191.365 556.412C192.625 556.424 193.591 556.712 194.263 557.276C194.935 557.828 195.271 558.614 195.271 559.634C195.271 560.702 194.893 561.536 194.137 562.136C193.393 562.724 192.343 563.018 190.987 563.018L186.127 563V553.316H188.917V556.412H191.365ZM190.735 561.02C191.275 561.032 191.689 560.918 191.977 560.678C192.265 560.438 192.409 560.078 192.409 559.598C192.409 559.13 192.265 558.788 191.977 558.572C191.701 558.356 191.287 558.242 190.735 558.23L188.917 558.212V561.02H190.735ZM204.283 555.62H201.007V563H198.217V555.62H194.941V553.316H204.283V555.62ZM209.542 553.172C211.042 553.172 212.194 553.532 212.998 554.252C213.802 554.96 214.204 556.034 214.204 557.474V563H211.576V561.794C211.048 562.694 210.064 563.144 208.624 563.144C207.88 563.144 207.232 563.018 206.68 562.766C206.14 562.514 205.726 562.166 205.438 561.722C205.15 561.278 205.006 560.774 205.006 560.21C205.006 559.31 205.342 558.602 206.014 558.086C206.698 557.57 207.748 557.312 209.164 557.312H211.396C211.396 556.7 211.21 556.232 210.838 555.908C210.466 555.572 209.908 555.404 209.164 555.404C208.648 555.404 208.138 555.488 207.634 555.656C207.142 555.812 206.722 556.028 206.374 556.304L205.366 554.342C205.894 553.97 206.524 553.682 207.256 553.478C208 553.274 208.762 553.172 209.542 553.172ZM209.326 561.254C209.806 561.254 210.232 561.146 210.604 560.93C210.976 560.702 211.24 560.372 211.396 559.94V558.95H209.47C208.318 558.95 207.742 559.328 207.742 560.084C207.742 560.444 207.88 560.732 208.156 560.948C208.444 561.152 208.834 561.254 209.326 561.254ZM224.779 555.62H221.503V563H218.713V555.62H215.437V553.316H224.779V555.62ZM226.276 553.316H229.066V559.076L233.782 553.316H236.356V563H233.566V557.24L228.868 563H226.276V553.316ZM133.886 592.144C132.866 592.144 131.948 591.934 131.132 591.514C130.328 591.082 129.698 590.488 129.242 589.732C128.786 588.976 128.558 588.118 128.558 587.158C128.558 586.198 128.786 585.34 129.242 584.584C129.698 583.828 130.328 583.24 131.132 582.82C131.948 582.388 132.866 582.172 133.886 582.172C134.906 582.172 135.818 582.388 136.622 582.82C137.426 583.24 138.056 583.828 138.512 584.584C138.968 585.34 139.196 586.198 139.196 587.158C139.196 588.118 138.968 588.976 138.512 589.732C138.056 590.488 137.426 591.082 136.622 591.514C135.818 591.934 134.906 592.144 133.886 592.144ZM133.886 589.84C134.606 589.84 135.194 589.6 135.65 589.12C136.118 588.628 136.352 587.974 136.352 587.158C136.352 586.342 136.118 585.694 135.65 585.214C135.194 584.722 134.606 584.476 133.886 584.476C133.166 584.476 132.572 584.722 132.104 585.214C131.636 585.694 131.402 586.342 131.402 587.158C131.402 587.974 131.636 588.628 132.104 589.12C132.572 589.6 133.166 589.84 133.886 589.84ZM152.035 589.696V594.124H149.425V592H141.127V582.316H143.917V589.696H147.823V582.316H150.631V589.696H152.035ZM153.783 582.316H156.591V592H153.783V582.316ZM155.187 580.966C154.671 580.966 154.251 580.816 153.927 580.516C153.603 580.216 153.441 579.844 153.441 579.4C153.441 578.956 153.603 578.584 153.927 578.284C154.251 577.984 154.671 577.834 155.187 577.834C155.703 577.834 156.123 577.978 156.447 578.266C156.771 578.554 156.933 578.914 156.933 579.346C156.933 579.814 156.771 580.204 156.447 580.516C156.123 580.816 155.703 580.966 155.187 580.966ZM159.286 582.316H162.076V586.096H166.288V582.316H169.096V592H166.288V588.382H162.076V592H159.286V582.316ZM180.946 582.172C181.93 582.172 182.812 582.388 183.592 582.82C184.372 583.24 184.984 583.828 185.428 584.584C185.872 585.34 186.094 586.198 186.094 587.158C186.094 588.118 185.872 588.976 185.428 589.732C184.984 590.488 184.372 591.082 183.592 591.514C182.812 591.934 181.93 592.144 180.946 592.144C180.094 592.144 179.314 591.988 178.606 591.676C177.898 591.352 177.31 590.902 176.842 590.326C176.374 589.738 176.062 589.066 175.906 588.31H174.574V592H171.784V582.316H174.574V585.88H175.924C176.2 584.752 176.788 583.852 177.688 583.18C178.588 582.508 179.674 582.172 180.946 582.172ZM180.946 589.84C181.63 589.84 182.194 589.6 182.638 589.12C183.094 588.628 183.322 587.974 183.322 587.158C183.322 586.33 183.094 585.676 182.638 585.196C182.194 584.716 181.63 584.476 180.946 584.476C180.25 584.476 179.674 584.716 179.218 585.196C178.774 585.676 178.552 586.33 178.552 587.158C178.552 587.974 178.774 588.628 179.218 589.12C179.674 589.6 180.25 589.84 180.946 589.84ZM195.441 586.942C196.581 587.326 197.151 588.094 197.151 589.246C197.151 590.122 196.821 590.8 196.161 591.28C195.501 591.76 194.517 592 193.209 592H188.043V582.316H192.993C194.205 582.316 195.153 582.538 195.837 582.982C196.521 583.414 196.863 584.026 196.863 584.818C196.863 585.298 196.737 585.724 196.485 586.096C196.245 586.456 195.897 586.738 195.441 586.942ZM190.617 586.294H192.741C193.725 586.294 194.217 585.946 194.217 585.25C194.217 584.566 193.725 584.224 192.741 584.224H190.617V586.294ZM192.975 590.092C194.007 590.092 194.523 589.738 194.523 589.03C194.523 588.658 194.403 588.388 194.163 588.22C193.923 588.04 193.545 587.95 193.029 587.95H190.617V590.092H192.975ZM203.003 582.172C204.503 582.172 205.655 582.532 206.459 583.252C207.263 583.96 207.665 585.034 207.665 586.474V592H205.037V590.794C204.509 591.694 203.525 592.144 202.085 592.144C201.341 592.144 200.693 592.018 200.141 591.766C199.601 591.514 199.187 591.166 198.899 590.722C198.611 590.278 198.467 589.774 198.467 589.21C198.467 588.31 198.803 587.602 199.475 587.086C200.159 586.57 201.209 586.312 202.625 586.312H204.857C204.857 585.7 204.671 585.232 204.299 584.908C203.927 584.572 203.369 584.404 202.625 584.404C202.109 584.404 201.599 584.488 201.095 584.656C200.603 584.812 200.183 585.028 199.835 585.304L198.827 583.342C199.355 582.97 199.985 582.682 200.717 582.478C201.461 582.274 202.223 582.172 203.003 582.172ZM202.787 590.254C203.267 590.254 203.693 590.146 204.065 589.93C204.437 589.702 204.701 589.372 204.857 588.94V587.95H202.931C201.779 587.95 201.203 588.328 201.203 589.084C201.203 589.444 201.341 589.732 201.617 589.948C201.905 590.152 202.295 590.254 202.787 590.254ZM210.104 582.316H212.894V586.096H217.106V582.316H219.914V592H217.106V588.382H212.894V592H210.104V582.316ZM222.602 582.316H225.392V586.096H229.604V582.316H232.412V592H229.604V588.382H225.392V592H222.602V582.316ZM243.704 582.316V592H241.202V589.228H239.132L237.296 592H234.308L236.522 588.832C235.85 588.568 235.334 588.19 234.974 587.698C234.626 587.194 234.452 586.588 234.452 585.88C234.452 584.74 234.86 583.864 235.676 583.252C236.504 582.628 237.638 582.316 239.078 582.316H243.704ZM239.132 584.602C238.532 584.602 238.076 584.71 237.764 584.926C237.464 585.142 237.314 585.49 237.314 585.97C237.314 586.45 237.458 586.804 237.746 587.032C238.046 587.248 238.496 587.356 239.096 587.356H241.202V584.602H239.132Z" fill="#000428"/>
<path d="M132.92 616V630H131.48V617.28H128.18V616H132.92ZM141.027 622C142.493 622.08 143.607 622.48 144.367 623.2C145.14 623.907 145.527 624.833 145.527 625.98C145.527 626.78 145.333 627.493 144.947 628.12C144.56 628.733 143.987 629.22 143.227 629.58C142.467 629.94 141.54 630.12 140.447 630.12C139.433 630.12 138.473 629.96 137.567 629.64C136.673 629.307 135.953 628.867 135.407 628.32L136.107 627.18C136.573 627.66 137.193 628.053 137.967 628.36C138.74 628.653 139.567 628.8 140.447 628.8C141.593 628.8 142.48 628.553 143.107 628.06C143.733 627.553 144.047 626.86 144.047 625.98C144.047 625.113 143.733 624.433 143.107 623.94C142.48 623.447 141.533 623.2 140.267 623.2H139.267V622.14L143.147 617.28H135.987V616H144.987V617.02L141.027 622ZM161.17 620.74H157.19V630H155.77V620.74H151.79V619.48H161.17V620.74ZM168.643 619.4C169.63 619.4 170.523 619.627 171.323 620.08C172.123 620.52 172.75 621.147 173.203 621.96C173.656 622.773 173.883 623.7 173.883 624.74C173.883 625.793 173.656 626.727 173.203 627.54C172.75 628.353 172.123 628.987 171.323 629.44C170.536 629.88 169.643 630.1 168.643 630.1C167.79 630.1 167.016 629.927 166.323 629.58C165.643 629.22 165.083 628.7 164.643 628.02V633.88H163.223V619.48H164.583V621.56C165.01 620.867 165.57 620.333 166.263 619.96C166.97 619.587 167.763 619.4 168.643 619.4ZM168.543 628.84C169.276 628.84 169.943 628.673 170.543 628.34C171.143 627.993 171.61 627.507 171.943 626.88C172.29 626.253 172.463 625.54 172.463 624.74C172.463 623.94 172.29 623.233 171.943 622.62C171.61 621.993 171.143 621.507 170.543 621.16C169.943 620.813 169.276 620.64 168.543 620.64C167.796 620.64 167.123 620.813 166.523 621.16C165.936 621.507 165.47 621.993 165.123 622.62C164.79 623.233 164.623 623.94 164.623 624.74C164.623 625.54 164.79 626.253 165.123 626.88C165.47 627.507 165.936 627.993 166.523 628.34C167.123 628.673 167.796 628.84 168.543 628.84ZM180.495 619.4C181.869 619.4 182.922 619.747 183.655 620.44C184.389 621.12 184.755 622.133 184.755 623.48V630H183.395V628.36C183.075 628.907 182.602 629.333 181.975 629.64C181.362 629.947 180.629 630.1 179.775 630.1C178.602 630.1 177.669 629.82 176.975 629.26C176.282 628.7 175.935 627.96 175.935 627.04C175.935 626.147 176.255 625.427 176.895 624.88C177.549 624.333 178.582 624.06 179.995 624.06H183.335V623.42C183.335 622.513 183.082 621.827 182.575 621.36C182.069 620.88 181.329 620.64 180.355 620.64C179.689 620.64 179.049 620.753 178.435 620.98C177.822 621.193 177.295 621.493 176.855 621.88L176.215 620.82C176.749 620.367 177.389 620.02 178.135 619.78C178.882 619.527 179.669 619.4 180.495 619.4ZM179.995 628.98C180.795 628.98 181.482 628.8 182.055 628.44C182.629 628.067 183.055 627.533 183.335 626.84V625.12H180.035C178.235 625.12 177.335 625.747 177.335 627C177.335 627.613 177.569 628.1 178.035 628.46C178.502 628.807 179.155 628.98 179.995 628.98ZM195.236 624.56C196.662 624.893 197.376 625.753 197.376 627.14C197.376 628.06 197.036 628.767 196.356 629.26C195.676 629.753 194.662 630 193.316 630H188.536V619.48H193.176C194.376 619.48 195.316 619.713 195.996 620.18C196.676 620.647 197.016 621.313 197.016 622.18C197.016 622.753 196.856 623.247 196.536 623.66C196.229 624.06 195.796 624.36 195.236 624.56ZM189.916 624.16H193.076C193.889 624.16 194.509 624.007 194.936 623.7C195.376 623.393 195.596 622.947 195.596 622.36C195.596 621.773 195.376 621.333 194.936 621.04C194.509 620.747 193.889 620.6 193.076 620.6H189.916V624.16ZM193.256 628.88C194.162 628.88 194.842 628.733 195.296 628.44C195.749 628.147 195.976 627.687 195.976 627.06C195.976 626.433 195.769 625.973 195.356 625.68C194.942 625.373 194.289 625.22 193.396 625.22H189.916V628.88H193.256ZM200.704 619.48H202.124V624.14H208.744V619.48H210.164V630H208.744V625.36H202.124V630H200.704V619.48ZM222.28 619.48V630H220.98V626.52H217.68H217.28L214.84 630H213.3L215.92 626.32C215.106 626.093 214.48 625.707 214.04 625.16C213.6 624.613 213.38 623.92 213.38 623.08C213.38 621.907 213.78 621.013 214.58 620.4C215.38 619.787 216.473 619.48 217.86 619.48H222.28ZM214.82 623.12C214.82 624.68 215.813 625.46 217.8 625.46H220.98V620.74H217.9C215.846 620.74 214.82 621.533 214.82 623.12Z" fill="#6F838D"/>
<path d="M49.1719 543.138H86.8281C87.4754 543.138 88 543.663 88 544.31V563.138C88 563.785 87.4754 564.31 86.8281 564.31H49.1719C48.5249 564.31 48 563.785 48 563.138V544.31C48 543.663 48.5249 543.138 49.1719 543.138Z" fill="#EBF6FF"/>
<path d="M49.1719 543.138H68V564.31H49.1719C48.5249 564.31 48 563.785 48 563.138V544.31C48 543.663 48.5249 543.138 49.1719 543.138Z" fill="#B2DCFF"/>
<path d="M49.1719 543.138H58.5859C59.2332 543.138 59.7578 543.663 59.7578 544.31V552.552H66.8281V544.31C66.8281 543.663 67.353 543.138 68 543.138H77.4141C78.0613 543.138 78.5859 543.663 78.5859 544.31V552.552H86.8281C87.4754 552.552 88 553.077 88 553.724V563.138C88 563.785 87.4754 564.31 86.8281 564.31H77.4141C76.7671 564.31 76.2422 563.785 76.2422 563.138V554.896H69.1719V563.138C69.1719 563.785 68.6473 564.31 68 564.31H58.5859C57.939 564.31 57.4141 563.785 57.4141 563.138V554.896H49.1719C48.5249 554.896 48 554.371 48 553.724V544.31C48 543.663 48.5249 543.138 49.1719 543.138Z" fill="#005AB1"/>
<path d="M49.1719 543.138H58.5859C59.2332 543.138 59.7578 543.663 59.7578 544.31V552.552H66.8281V544.31C66.8281 543.663 67.353 543.138 68 543.138V564.31H58.5859C57.939 564.31 57.4141 563.785 57.4141 563.138V554.896H49.1719C48.5249 554.896 48 554.371 48 553.724V544.31C48 543.663 48.5249 543.138 49.1719 543.138Z" fill="#00345C"/>
<path d="M86.8281 580C87.4754 580 88 579.475 88 578.828V541.172C88 540.525 87.4754 540 86.8281 540C86.1812 540 85.6562 540.525 85.6562 541.172V578.828C85.6562 579.475 86.1812 580 86.8281 580Z" fill="#BB5D4C"/>
<path d="M49.1719 580C49.8192 580 50.3438 579.475 50.3438 578.828V541.172C50.3438 540.525 49.8192 540 49.1719 540C48.5249 540 48 540.525 48 541.172V578.828C48 579.475 48.5249 580 49.1719 580Z" fill="#A44F3E"/>
<circle cx="159" cy="697" r="30" transform="rotate(90 159 697)" fill="#00B1FF"/>
<g clip-path="url(#clip3)">
<path d="M159.69 707.214L165.94 700.965C166.321 700.583 166.321 699.965 165.94 699.584C165.558 699.202 164.94 699.202 164.559 699.584L159.976 704.166L159.976 687.476C159.976 686.937 159.539 686.5 159 686.5C158.461 686.5 158.023 686.937 158.023 687.476L158.023 704.166L153.441 699.584C153.06 699.203 152.442 699.203 152.06 699.584C151.87 699.775 151.774 700.025 151.774 700.274C151.774 700.524 151.87 700.774 152.06 700.965L158.309 707.214C158.691 707.595 159.309 707.595 159.69 707.214Z" fill="white"/>
</g>
<path d="M144.488 794.664C144.488 796.332 143.918 797.646 142.778 798.606C141.65 799.554 140.024 800.082 137.9 800.19V801.558H135.218V800.172C133.082 800.052 131.444 799.518 130.304 798.57C129.176 797.61 128.612 796.308 128.612 794.664C128.612 793.008 129.176 791.712 130.304 790.776C131.444 789.828 133.082 789.288 135.218 789.156V787.86H137.9V789.138C140.024 789.258 141.65 789.798 142.778 790.758C143.918 791.718 144.488 793.02 144.488 794.664ZM137.9 797.904C139.172 797.784 140.12 797.46 140.744 796.932C141.368 796.392 141.68 795.63 141.68 794.646C141.68 792.726 140.42 791.658 137.9 791.442V797.904ZM131.438 794.664C131.438 796.56 132.698 797.64 135.218 797.904V791.442C133.934 791.562 132.98 791.886 132.356 792.414C131.744 792.93 131.438 793.68 131.438 794.664ZM146.436 791.316H149.244V801H146.436V791.316ZM147.84 789.966C147.324 789.966 146.904 789.816 146.58 789.516C146.256 789.216 146.094 788.844 146.094 788.4C146.094 787.956 146.256 787.584 146.58 787.284C146.904 786.984 147.324 786.834 147.84 786.834C148.356 786.834 148.776 786.978 149.1 787.266C149.424 787.554 149.586 787.914 149.586 788.346C149.586 788.814 149.424 789.204 149.1 789.516C148.776 789.816 148.356 789.966 147.84 789.966ZM151.938 791.316H154.728V795.096H158.94V791.316H161.748V801H158.94V797.382H154.728V801H151.938V791.316ZM168.198 791.172C169.698 791.172 170.85 791.532 171.654 792.252C172.458 792.96 172.86 794.034 172.86 795.474V801H170.232V799.794C169.704 800.694 168.72 801.144 167.28 801.144C166.536 801.144 165.888 801.018 165.336 800.766C164.796 800.514 164.382 800.166 164.094 799.722C163.806 799.278 163.662 798.774 163.662 798.21C163.662 797.31 163.998 796.602 164.67 796.086C165.354 795.57 166.404 795.312 167.82 795.312H170.052C170.052 794.7 169.866 794.232 169.494 793.908C169.122 793.572 168.564 793.404 167.82 793.404C167.304 793.404 166.794 793.488 166.29 793.656C165.798 793.812 165.378 794.028 165.03 794.304L164.022 792.342C164.55 791.97 165.18 791.682 165.912 791.478C166.656 791.274 167.418 791.172 168.198 791.172ZM167.982 799.254C168.462 799.254 168.888 799.146 169.26 798.93C169.632 798.702 169.896 798.372 170.052 797.94V796.95H168.126C166.974 796.95 166.398 797.328 166.398 798.084C166.398 798.444 166.536 798.732 166.812 798.948C167.1 799.152 167.49 799.254 167.982 799.254ZM184.587 791.316V801H181.779V793.62H178.719L178.629 795.33C178.581 796.602 178.461 797.658 178.269 798.498C178.077 799.338 177.765 799.998 177.333 800.478C176.901 800.958 176.301 801.198 175.533 801.198C175.125 801.198 174.639 801.126 174.075 800.982L174.219 798.678C174.411 798.702 174.549 798.714 174.633 798.714C175.053 798.714 175.365 798.564 175.569 798.264C175.785 797.952 175.929 797.562 176.001 797.094C176.073 796.614 176.127 795.984 176.163 795.204L176.307 791.316H184.587Z" fill="#000428"/>
<path d="M133.8 849C135.267 849.08 136.38 849.48 137.14 850.2C137.913 850.907 138.3 851.833 138.3 852.98C138.3 853.78 138.107 854.493 137.72 855.12C137.333 855.733 136.76 856.22 136 856.58C135.24 856.94 134.313 857.12 133.22 857.12C132.207 857.12 131.247 856.96 130.34 856.64C129.447 856.307 128.727 855.867 128.18 855.32L128.88 854.18C129.347 854.66 129.967 855.053 130.74 855.36C131.513 855.653 132.34 855.8 133.22 855.8C134.367 855.8 135.253 855.553 135.88 855.06C136.507 854.553 136.82 853.86 136.82 852.98C136.82 852.113 136.507 851.433 135.88 850.94C135.253 850.447 134.307 850.2 133.04 850.2H132.04V849.14L135.92 844.28H128.76V843H137.76V844.02L133.8 849ZM144.209 843V857H142.769V844.28H139.469V843H144.209ZM163.27 844.28H158.35V857H156.89V844.28H151.97V843H163.27V844.28ZM170.674 846.4C171.661 846.4 172.554 846.627 173.354 847.08C174.154 847.52 174.781 848.147 175.234 848.96C175.688 849.773 175.914 850.7 175.914 851.74C175.914 852.793 175.688 853.727 175.234 854.54C174.781 855.353 174.154 855.987 173.354 856.44C172.568 856.88 171.674 857.1 170.674 857.1C169.821 857.1 169.048 856.927 168.354 856.58C167.674 856.22 167.114 855.7 166.674 855.02V860.88H165.254V846.48H166.614V848.56C167.041 847.867 167.601 847.333 168.294 846.96C169.001 846.587 169.794 846.4 170.674 846.4ZM170.574 855.84C171.308 855.84 171.974 855.673 172.574 855.34C173.174 854.993 173.641 854.507 173.974 853.88C174.321 853.253 174.494 852.54 174.494 851.74C174.494 850.94 174.321 850.233 173.974 849.62C173.641 848.993 173.174 848.507 172.574 848.16C171.974 847.813 171.308 847.64 170.574 847.64C169.828 847.64 169.154 847.813 168.554 848.16C167.968 848.507 167.501 848.993 167.154 849.62C166.821 850.233 166.654 850.94 166.654 851.74C166.654 852.54 166.821 853.253 167.154 853.88C167.501 854.507 167.968 854.993 168.554 855.34C169.154 855.673 169.828 855.84 170.574 855.84ZM182.527 846.4C183.9 846.4 184.953 846.747 185.687 847.44C186.42 848.12 186.787 849.133 186.787 850.48V857H185.427V855.36C185.107 855.907 184.633 856.333 184.007 856.64C183.393 856.947 182.66 857.1 181.807 857.1C180.633 857.1 179.7 856.82 179.007 856.26C178.313 855.7 177.967 854.96 177.967 854.04C177.967 853.147 178.287 852.427 178.927 851.88C179.58 851.333 180.613 851.06 182.027 851.06H185.367V850.42C185.367 849.513 185.113 848.827 184.607 848.36C184.1 847.88 183.36 847.64 182.387 847.64C181.72 847.64 181.08 847.753 180.467 847.98C179.853 848.193 179.327 848.493 178.887 848.88L178.247 847.82C178.78 847.367 179.42 847.02 180.167 846.78C180.913 846.527 181.7 846.4 182.527 846.4ZM182.027 855.98C182.827 855.98 183.513 855.8 184.087 855.44C184.66 855.067 185.087 854.533 185.367 853.84V852.12H182.067C180.267 852.12 179.367 852.747 179.367 854C179.367 854.613 179.6 855.1 180.067 855.46C180.533 855.807 181.187 855.98 182.027 855.98ZM197.267 851.56C198.694 851.893 199.407 852.753 199.407 854.14C199.407 855.06 199.067 855.767 198.387 856.26C197.707 856.753 196.694 857 195.347 857H190.567V846.48H195.207C196.407 846.48 197.347 846.713 198.027 847.18C198.707 847.647 199.047 848.313 199.047 849.18C199.047 849.753 198.887 850.247 198.567 850.66C198.26 851.06 197.827 851.36 197.267 851.56ZM191.947 851.16H195.107C195.92 851.16 196.54 851.007 196.967 850.7C197.407 850.393 197.627 849.947 197.627 849.36C197.627 848.773 197.407 848.333 196.967 848.04C196.54 847.747 195.92 847.6 195.107 847.6H191.947V851.16ZM195.287 855.88C196.194 855.88 196.874 855.733 197.327 855.44C197.78 855.147 198.007 854.687 198.007 854.06C198.007 853.433 197.8 852.973 197.387 852.68C196.974 852.373 196.32 852.22 195.427 852.22H191.947V855.88H195.287ZM202.735 846.48H204.155V851.14H210.775V846.48H212.195V857H210.775V852.36H204.155V857H202.735V846.48ZM224.311 846.48V857H223.011V853.52H219.711H219.311L216.871 857H215.331L217.951 853.32C217.138 853.093 216.511 852.707 216.071 852.16C215.631 851.613 215.411 850.92 215.411 850.08C215.411 848.907 215.811 848.013 216.611 847.4C217.411 846.787 218.504 846.48 219.891 846.48H224.311ZM216.851 850.12C216.851 851.68 217.844 852.46 219.831 852.46H223.011V847.74H219.931C217.878 847.74 216.851 848.533 216.851 850.12Z" fill="#6F838D"/>
<g clip-path="url(#clip4)">
<path d="M74.2238 801.137C73.5784 801.137 73.0541 800.615 73.0523 799.968C73.0501 799.321 73.5732 798.795 74.2205 798.793C77.1642 798.784 79.9648 797.007 82.1062 793.788C84.1616 790.699 85.3691 786.66 85.5532 782.309H80.3914C79.7441 782.309 79.2195 781.784 79.2195 781.137C79.2195 780.49 79.7441 779.965 80.3914 779.965H86.7497C87.397 779.965 87.9216 780.49 87.9216 781.137C87.9216 786.388 86.5492 791.342 84.0578 795.087C81.4693 798.977 77.9784 801.125 74.2278 801.137C74.2266 801.137 74.2253 801.137 74.2238 801.137Z" fill="#FF8E1D"/>
<path d="M61.6197 801.137C61.6182 801.137 61.6172 801.137 61.616 801.137C57.8654 801.125 54.3742 798.977 51.786 795.087C49.2943 791.342 47.9219 786.388 47.9219 781.137C47.9219 780.49 48.4465 779.965 49.0938 779.965H55.4521C56.0994 779.965 56.624 780.49 56.624 781.137C56.624 781.784 56.0994 782.309 55.4521 782.309H50.2903C50.4744 786.66 51.6819 790.699 53.7373 793.788C55.8787 797.007 58.6793 798.784 61.623 798.793C62.2703 798.795 62.7934 799.321 62.7913 799.968C62.7894 800.615 62.2651 801.137 61.6197 801.137Z" fill="#FFB023"/>
<path d="M80.474 777.078H55.3696C54.7227 777.078 54.1978 777.603 54.1978 778.25C54.1978 785.134 55.5475 791.624 57.9981 796.525C59.5682 799.665 61.4884 801.945 63.6118 803.25V809.63C63.6118 810.277 64.1367 810.802 64.7837 810.802H71.0599C71.7072 810.802 72.2318 810.277 72.2318 809.63V803.25C74.3552 801.945 76.2757 799.665 77.8455 796.525C80.2961 791.624 81.6459 785.134 81.6459 778.25C81.6459 777.603 81.1213 777.078 80.474 777.078Z" fill="#FFD12B"/>
<path d="M72.2319 809.63V803.25C74.3553 801.945 76.2758 799.665 77.8456 796.525C80.2961 791.624 81.6459 785.134 81.6459 778.25C81.6459 777.603 81.1213 777.078 80.4741 777.078H67.9219V810.802H71.06C71.7073 810.802 72.2319 810.277 72.2319 809.63Z" fill="#FFB023"/>
<path d="M74.1978 808.458H61.6459C59.2695 808.458 57.3359 810.392 57.3359 812.768V815.906C57.3359 816.553 57.8605 817.078 58.5078 817.078H77.3359C77.9832 817.078 78.5078 816.553 78.5078 815.906V812.768C78.5078 810.392 76.5745 808.458 74.1978 808.458Z" fill="#FF8E1D"/>
<path d="M74.1978 808.458H67.9219V817.078H77.3359C77.9832 817.078 78.5078 816.553 78.5078 815.906V812.768C78.5078 810.392 76.5745 808.458 74.1978 808.458Z" fill="#FF6D15"/>
<path d="M78.5909 817.078H57.2524C56.6055 817.078 56.0806 816.553 56.0806 815.906C56.0806 815.259 56.6055 814.734 57.2524 814.734H78.5909C79.2382 814.734 79.7628 815.259 79.7628 815.906C79.7628 816.553 79.2382 817.078 78.5909 817.078Z" fill="#FFB023"/>
<path d="M78.5911 814.734H67.9219V817.078H78.5911C79.2384 817.078 79.763 816.553 79.763 815.906C79.763 815.259 79.2384 814.734 78.5911 814.734Z" fill="#FF8E1D"/>
</g>
<path d="M138.296 82.43C139.064 82.658 139.652 83.03 140.06 83.546C140.468 84.062 140.672 84.698 140.672 85.454C140.672 86.57 140.246 87.44 139.394 88.064C138.554 88.688 137.348 89 135.776 89H129.566V76.4H135.434C136.898 76.4 138.038 76.682 138.854 77.246C139.67 77.81 140.078 78.614 140.078 79.658C140.078 80.282 139.922 80.834 139.61 81.314C139.298 81.782 138.86 82.154 138.296 82.43ZM132.464 81.62H135.182C135.818 81.62 136.298 81.494 136.622 81.242C136.946 80.978 137.108 80.594 137.108 80.09C137.108 79.598 136.94 79.22 136.604 78.956C136.28 78.692 135.806 78.56 135.182 78.56H132.464V81.62ZM135.668 86.84C137.036 86.84 137.72 86.3 137.72 85.22C137.72 84.176 137.036 83.654 135.668 83.654H132.464V86.84H135.668ZM142.744 79.316H145.552V89H142.744V79.316ZM144.148 77.966C143.632 77.966 143.212 77.816 142.888 77.516C142.564 77.216 142.402 76.844 142.402 76.4C142.402 75.956 142.564 75.584 142.888 75.284C143.212 74.984 143.632 74.834 144.148 74.834C144.664 74.834 145.084 74.978 145.408 75.266C145.732 75.554 145.894 75.914 145.894 76.346C145.894 76.814 145.732 77.204 145.408 77.516C145.084 77.816 144.664 77.966 144.148 77.966ZM159.1 86.696V91.088H156.49V89H149.686V91.088H147.076V86.696H147.472C148.072 86.684 148.486 86.33 148.714 85.634C148.942 84.938 149.086 83.948 149.146 82.664L149.272 79.316H157.714V86.696H159.1ZM151.684 82.862C151.648 83.846 151.57 84.65 151.45 85.274C151.342 85.898 151.132 86.372 150.82 86.696H154.906V81.62H151.738L151.684 82.862ZM165.134 85.328H163.676V89H160.868V79.316H163.676V83.078H165.188L167.816 79.316H170.804L167.42 83.96L171.038 89H167.726L165.134 85.328ZM178.122 79.172C179.022 79.172 179.838 79.382 180.57 79.802C181.314 80.21 181.896 80.792 182.316 81.548C182.736 82.292 182.946 83.162 182.946 84.158C182.946 85.154 182.736 86.03 182.316 86.786C181.896 87.53 181.314 88.112 180.57 88.532C179.838 88.94 179.022 89.144 178.122 89.144C176.886 89.144 175.914 88.754 175.206 87.974V92.492H172.398V79.316H175.08V80.432C175.776 79.592 176.79 79.172 178.122 79.172ZM177.636 86.84C178.356 86.84 178.944 86.6 179.4 86.12C179.868 85.628 180.102 84.974 180.102 84.158C180.102 83.342 179.868 82.694 179.4 82.214C178.944 81.722 178.356 81.476 177.636 81.476C176.916 81.476 176.322 81.722 175.854 82.214C175.398 82.694 175.17 83.342 175.17 84.158C175.17 84.974 175.398 85.628 175.854 86.12C176.322 86.6 176.916 86.84 177.636 86.84ZM184.914 79.316H187.704V85.076L192.42 79.316H194.994V89H192.204V83.24L187.506 89H184.914V79.316ZM205.83 81.62H202.554V89H199.764V81.62H196.488V79.316H205.83V81.62ZM215.55 81.62H212.274V89H209.484V81.62H206.208V79.316H215.55V81.62ZM225.563 79.316V89H223.061V86.228H220.991L219.155 89H216.167L218.381 85.832C217.709 85.568 217.193 85.19 216.833 84.698C216.485 84.194 216.311 83.588 216.311 82.88C216.311 81.74 216.719 80.864 217.535 80.252C218.363 79.628 219.497 79.316 220.937 79.316H225.563ZM220.991 81.602C220.391 81.602 219.935 81.71 219.623 81.926C219.323 82.142 219.173 82.49 219.173 82.97C219.173 83.45 219.317 83.804 219.605 84.032C219.905 84.248 220.355 84.356 220.955 84.356H223.061V81.602H220.991ZM135.056 108.172C135.956 108.172 136.772 108.382 137.504 108.802C138.248 109.21 138.83 109.792 139.25 110.548C139.67 111.292 139.88 112.162 139.88 113.158C139.88 114.154 139.67 115.03 139.25 115.786C138.83 116.53 138.248 117.112 137.504 117.532C136.772 117.94 135.956 118.144 135.056 118.144C133.82 118.144 132.848 117.754 132.14 116.974V121.492H129.332V108.316H132.014V109.432C132.71 108.592 133.724 108.172 135.056 108.172ZM134.57 115.84C135.29 115.84 135.878 115.6 136.334 115.12C136.802 114.628 137.036 113.974 137.036 113.158C137.036 112.342 136.802 111.694 136.334 111.214C135.878 110.722 135.29 110.476 134.57 110.476C133.85 110.476 133.256 110.722 132.788 111.214C132.332 111.694 132.104 112.342 132.104 113.158C132.104 113.974 132.332 114.628 132.788 115.12C133.256 115.6 133.85 115.84 134.57 115.84ZM151.262 113.194C151.262 113.23 151.244 113.482 151.208 113.95H143.882C144.014 114.55 144.326 115.024 144.818 115.372C145.31 115.72 145.922 115.894 146.654 115.894C147.158 115.894 147.602 115.822 147.986 115.678C148.382 115.522 148.748 115.282 149.084 114.958L150.578 116.578C149.666 117.622 148.334 118.144 146.582 118.144C145.49 118.144 144.524 117.934 143.684 117.514C142.844 117.082 142.196 116.488 141.74 115.732C141.284 114.976 141.056 114.118 141.056 113.158C141.056 112.21 141.278 111.358 141.722 110.602C142.178 109.834 142.796 109.24 143.576 108.82C144.368 108.388 145.25 108.172 146.222 108.172C147.17 108.172 148.028 108.376 148.796 108.784C149.564 109.192 150.164 109.78 150.596 110.548C151.04 111.304 151.262 112.186 151.262 113.194ZM146.24 110.296C145.604 110.296 145.07 110.476 144.638 110.836C144.206 111.196 143.942 111.688 143.846 112.312H148.616C148.52 111.7 148.256 111.214 147.824 110.854C147.392 110.482 146.864 110.296 146.24 110.296ZM158.076 118.18C157.032 118.18 156.096 117.97 155.268 117.55C154.452 117.118 153.81 116.518 153.342 115.75C152.874 114.982 152.64 114.118 152.64 113.158C152.64 112.198 152.874 111.334 153.342 110.566C153.81 109.798 154.452 109.204 155.268 108.784C156.096 108.352 157.032 108.136 158.076 108.136C159 108.136 159.834 108.292 160.578 108.604C161.334 108.904 161.958 109.342 162.45 109.918L160.848 111.43C160.116 110.674 159.228 110.296 158.184 110.296C157.488 110.296 156.888 110.47 156.384 110.818C155.88 111.166 155.538 111.64 155.358 112.24H159.426V114.166H155.394C155.586 114.742 155.928 115.198 156.42 115.534C156.912 115.87 157.5 116.038 158.184 116.038C159.216 116.038 160.104 115.654 160.848 114.886L162.45 116.38C161.958 116.968 161.334 117.418 160.578 117.73C159.834 118.03 159 118.18 158.076 118.18ZM168.552 118.144C167.52 118.144 166.59 117.934 165.762 117.514C164.946 117.082 164.304 116.488 163.836 115.732C163.38 114.976 163.152 114.118 163.152 113.158C163.152 112.198 163.38 111.34 163.836 110.584C164.304 109.828 164.946 109.24 165.762 108.82C166.59 108.388 167.52 108.172 168.552 108.172C169.572 108.172 170.46 108.388 171.216 108.82C171.984 109.24 172.542 109.846 172.89 110.638L170.712 111.808C170.208 110.92 169.482 110.476 168.534 110.476C167.802 110.476 167.196 110.716 166.716 111.196C166.236 111.676 165.996 112.33 165.996 113.158C165.996 113.986 166.236 114.64 166.716 115.12C167.196 115.6 167.802 115.84 168.534 115.84C169.494 115.84 170.22 115.396 170.712 114.508L172.89 115.696C172.542 116.464 171.984 117.064 171.216 117.496C170.46 117.928 169.572 118.144 168.552 118.144ZM182.697 110.62H179.421V118H176.631V110.62H173.355V108.316H182.697V110.62ZM189.9 108.172C190.8 108.172 191.616 108.382 192.348 108.802C193.092 109.21 193.674 109.792 194.094 110.548C194.514 111.292 194.724 112.162 194.724 113.158C194.724 114.154 194.514 115.03 194.094 115.786C193.674 116.53 193.092 117.112 192.348 117.532C191.616 117.94 190.8 118.144 189.9 118.144C188.664 118.144 187.692 117.754 186.984 116.974V121.492H184.176V108.316H186.858V109.432C187.554 108.592 188.568 108.172 189.9 108.172ZM189.414 115.84C190.134 115.84 190.722 115.6 191.178 115.12C191.646 114.628 191.88 113.974 191.88 113.158C191.88 112.342 191.646 111.694 191.178 111.214C190.722 110.722 190.134 110.476 189.414 110.476C188.694 110.476 188.1 110.722 187.632 111.214C187.176 111.694 186.948 112.342 186.948 113.158C186.948 113.974 187.176 114.628 187.632 115.12C188.1 115.6 188.694 115.84 189.414 115.84ZM200.296 108.172C201.796 108.172 202.948 108.532 203.752 109.252C204.556 109.96 204.958 111.034 204.958 112.474V118H202.33V116.794C201.802 117.694 200.818 118.144 199.378 118.144C198.634 118.144 197.986 118.018 197.434 117.766C196.894 117.514 196.48 117.166 196.192 116.722C195.904 116.278 195.76 115.774 195.76 115.21C195.76 114.31 196.096 113.602 196.768 113.086C197.452 112.57 198.502 112.312 199.918 112.312H202.15C202.15 111.7 201.964 111.232 201.592 110.908C201.22 110.572 200.662 110.404 199.918 110.404C199.402 110.404 198.892 110.488 198.388 110.656C197.896 110.812 197.476 111.028 197.128 111.304L196.12 109.342C196.648 108.97 197.278 108.682 198.01 108.478C198.754 108.274 199.516 108.172 200.296 108.172ZM200.08 116.254C200.56 116.254 200.986 116.146 201.358 115.93C201.73 115.702 201.994 115.372 202.15 114.94V113.95H200.224C199.072 113.95 198.496 114.328 198.496 115.084C198.496 115.444 198.634 115.732 198.91 115.948C199.198 116.152 199.588 116.254 200.08 116.254ZM218.305 115.696V120.124H215.695V118H207.397V108.316H210.187V115.696H214.093V108.316H216.901V115.696H218.305ZM220.053 108.316H222.861V118H220.053V108.316ZM221.457 106.966C220.941 106.966 220.521 106.816 220.197 106.516C219.873 106.216 219.711 105.844 219.711 105.4C219.711 104.956 219.873 104.584 220.197 104.284C220.521 103.984 220.941 103.834 221.457 103.834C221.973 103.834 222.393 103.978 222.717 104.266C223.041 104.554 223.203 104.914 223.203 105.346C223.203 105.814 223.041 106.204 222.717 106.516C222.393 106.816 221.973 106.966 221.457 106.966ZM225.501 108.316H228.309V118H225.501V108.316ZM225.429 106.966C225.093 106.966 224.811 106.852 224.583 106.624C224.367 106.396 224.259 106.102 224.259 105.742C224.259 105.382 224.367 105.088 224.583 104.86C224.811 104.632 225.093 104.518 225.429 104.518C225.765 104.518 226.047 104.632 226.275 104.86C226.503 105.088 226.617 105.382 226.617 105.742C226.617 106.102 226.503 106.396 226.275 106.624C226.047 106.852 225.765 106.966 225.429 106.966ZM228.381 106.966C228.045 106.966 227.763 106.852 227.535 106.624C227.307 106.396 227.193 106.102 227.193 105.742C227.193 105.382 227.307 105.088 227.535 104.86C227.763 104.632 228.045 104.518 228.381 104.518C228.717 104.518 228.993 104.632 229.209 104.86C229.437 105.088 229.551 105.382 229.551 105.742C229.551 106.102 229.437 106.396 229.209 106.624C228.993 106.852 228.717 106.966 228.381 106.966Z" fill="#000428"/>
<path d="M132.92 141V155H131.48V142.28H128.18V141H132.92ZM147.461 148.58H144.261V155H142.821V141H144.261V147.28H147.461L152.201 141H153.801L148.601 147.8L154.101 155H152.401L147.461 148.58ZM163.029 149.56C164.455 149.893 165.169 150.753 165.169 152.14C165.169 153.06 164.829 153.767 164.149 154.26C163.469 154.753 162.455 155 161.109 155H156.329V144.48H160.969C162.169 144.48 163.109 144.713 163.789 145.18C164.469 145.647 164.809 146.313 164.809 147.18C164.809 147.753 164.649 148.247 164.329 148.66C164.022 149.06 163.589 149.36 163.029 149.56ZM157.709 149.16H160.869C161.682 149.16 162.302 149.007 162.729 148.7C163.169 148.393 163.389 147.947 163.389 147.36C163.389 146.773 163.169 146.333 162.729 146.04C162.302 145.747 161.682 145.6 160.869 145.6H157.709V149.16ZM161.049 153.88C161.955 153.88 162.635 153.733 163.089 153.44C163.542 153.147 163.769 152.687 163.769 152.06C163.769 151.433 163.562 150.973 163.149 150.68C162.735 150.373 162.082 150.22 161.189 150.22H157.709V153.88H161.049ZM168.497 144.48H169.917V155H168.497V144.48ZM169.217 142.18C168.923 142.18 168.677 142.08 168.477 141.88C168.277 141.68 168.177 141.44 168.177 141.16C168.177 140.893 168.277 140.66 168.477 140.46C168.677 140.26 168.923 140.16 169.217 140.16C169.51 140.16 169.757 140.26 169.957 140.46C170.157 140.647 170.257 140.873 170.257 141.14C170.257 141.433 170.157 141.68 169.957 141.88C169.757 142.08 169.51 142.18 169.217 142.18ZM181.365 145.74H177.385V155H175.965V145.74H171.985V144.48H181.365V145.74ZM183.418 144.48H184.838V149.14H191.458V144.48H192.878V155H191.458V150.36H184.838V155H183.418V144.48ZM204.995 144.48V155H203.695V151.52H200.395H199.995L197.555 155H196.015L198.635 151.32C197.821 151.093 197.195 150.707 196.755 150.16C196.315 149.613 196.095 148.92 196.095 148.08C196.095 146.907 196.495 146.013 197.295 145.4C198.095 144.787 199.188 144.48 200.575 144.48H204.995ZM197.535 148.12C197.535 149.68 198.528 150.46 200.515 150.46H203.695V145.74H200.615C198.561 145.74 197.535 146.533 197.535 148.12Z" fill="#6F838D"/>
<path d="M136.73 319.43C137.462 319.682 138.032 320.078 138.44 320.618C138.86 321.146 139.07 321.764 139.07 322.472C139.07 323.24 138.818 323.906 138.314 324.47C137.81 325.034 137.126 325.466 136.262 325.766C135.41 326.066 134.474 326.216 133.454 326.216C132.59 326.216 131.726 326.108 130.862 325.892C130.01 325.676 129.2 325.346 128.432 324.902L129.332 322.814C129.884 323.15 130.49 323.408 131.15 323.588C131.822 323.756 132.476 323.84 133.112 323.84C133.976 323.84 134.69 323.684 135.254 323.372C135.83 323.06 136.118 322.622 136.118 322.058C136.118 321.59 135.92 321.236 135.524 320.996C135.14 320.756 134.612 320.636 133.94 320.636H130.862V318.44H133.724C134.312 318.44 134.768 318.32 135.092 318.08C135.428 317.84 135.596 317.51 135.596 317.09C135.596 316.598 135.356 316.214 134.876 315.938C134.408 315.662 133.802 315.524 133.058 315.524C132.506 315.524 131.936 315.602 131.348 315.758C130.76 315.902 130.202 316.124 129.674 316.424L128.792 314.156C130.124 313.472 131.564 313.13 133.112 313.13C134.096 313.13 135.002 313.274 135.83 313.562C136.658 313.85 137.318 314.27 137.81 314.822C138.302 315.374 138.548 316.016 138.548 316.748C138.548 317.348 138.386 317.882 138.062 318.35C137.738 318.818 137.294 319.178 136.73 319.43ZM144.925 316.172C146.425 316.172 147.577 316.532 148.381 317.252C149.185 317.96 149.587 319.034 149.587 320.474V326H146.959V324.794C146.431 325.694 145.447 326.144 144.007 326.144C143.263 326.144 142.615 326.018 142.062 325.766C141.523 325.514 141.109 325.166 140.821 324.722C140.533 324.278 140.389 323.774 140.389 323.21C140.389 322.31 140.725 321.602 141.397 321.086C142.081 320.57 143.131 320.312 144.547 320.312H146.779C146.779 319.7 146.593 319.232 146.221 318.908C145.849 318.572 145.291 318.404 144.547 318.404C144.031 318.404 143.521 318.488 143.017 318.656C142.525 318.812 142.105 319.028 141.757 319.304L140.749 317.342C141.277 316.97 141.907 316.682 142.639 316.478C143.383 316.274 144.145 316.172 144.925 316.172ZM144.709 324.254C145.189 324.254 145.615 324.146 145.987 323.93C146.359 323.702 146.623 323.372 146.779 322.94V321.95H144.853C143.701 321.95 143.125 322.328 143.125 323.084C143.125 323.444 143.263 323.732 143.539 323.948C143.827 324.152 144.217 324.254 144.709 324.254ZM156.292 322.328H154.834V326H152.026V316.316H154.834V320.078H156.346L158.974 316.316H161.962L158.578 320.96L162.196 326H158.884L156.292 322.328ZM169.281 316.172C170.181 316.172 170.997 316.382 171.729 316.802C172.473 317.21 173.055 317.792 173.475 318.548C173.895 319.292 174.105 320.162 174.105 321.158C174.105 322.154 173.895 323.03 173.475 323.786C173.055 324.53 172.473 325.112 171.729 325.532C170.997 325.94 170.181 326.144 169.281 326.144C168.045 326.144 167.073 325.754 166.365 324.974V329.492H163.557V316.316H166.239V317.432C166.935 316.592 167.949 316.172 169.281 316.172ZM168.795 323.84C169.515 323.84 170.103 323.6 170.559 323.12C171.027 322.628 171.261 321.974 171.261 321.158C171.261 320.342 171.027 319.694 170.559 319.214C170.103 318.722 169.515 318.476 168.795 318.476C168.075 318.476 167.481 318.722 167.013 319.214C166.557 319.694 166.329 320.342 166.329 321.158C166.329 321.974 166.557 322.628 167.013 323.12C167.481 323.6 168.075 323.84 168.795 323.84ZM176.073 316.316H178.863V322.076L183.579 316.316H186.153V326H183.363V320.24L178.665 326H176.073V316.316ZM196.988 318.62H193.712V326H190.922V318.62H187.646V316.316H196.988V318.62ZM206.709 318.62H203.433V326H200.643V318.62H197.367V316.316H206.709V318.62ZM216.722 316.316V326H214.22V323.228H212.15L210.314 326H207.326L209.54 322.832C208.868 322.568 208.352 322.19 207.992 321.698C207.644 321.194 207.47 320.588 207.47 319.88C207.47 318.74 207.878 317.864 208.694 317.252C209.522 316.628 210.656 316.316 212.096 316.316H216.722ZM212.15 318.602C211.55 318.602 211.094 318.71 210.782 318.926C210.482 319.142 210.332 319.49 210.332 319.97C210.332 320.45 210.476 320.804 210.764 321.032C211.064 321.248 211.514 321.356 212.114 321.356H214.22V318.602H212.15ZM135.056 345.172C135.956 345.172 136.772 345.382 137.504 345.802C138.248 346.21 138.83 346.792 139.25 347.548C139.67 348.292 139.88 349.162 139.88 350.158C139.88 351.154 139.67 352.03 139.25 352.786C138.83 353.53 138.248 354.112 137.504 354.532C136.772 354.94 135.956 355.144 135.056 355.144C133.82 355.144 132.848 354.754 132.14 353.974V358.492H129.332V345.316H132.014V346.432C132.71 345.592 133.724 345.172 135.056 345.172ZM134.57 352.84C135.29 352.84 135.878 352.6 136.334 352.12C136.802 351.628 137.036 350.974 137.036 350.158C137.036 349.342 136.802 348.694 136.334 348.214C135.878 347.722 135.29 347.476 134.57 347.476C133.85 347.476 133.256 347.722 132.788 348.214C132.332 348.694 132.104 349.342 132.104 350.158C132.104 350.974 132.332 351.628 132.788 352.12C133.256 352.6 133.85 352.84 134.57 352.84ZM151.262 350.194C151.262 350.23 151.244 350.482 151.208 350.95H143.882C144.014 351.55 144.326 352.024 144.818 352.372C145.31 352.72 145.922 352.894 146.654 352.894C147.158 352.894 147.602 352.822 147.986 352.678C148.382 352.522 148.748 352.282 149.084 351.958L150.578 353.578C149.666 354.622 148.334 355.144 146.582 355.144C145.49 355.144 144.524 354.934 143.684 354.514C142.844 354.082 142.196 353.488 141.74 352.732C141.284 351.976 141.056 351.118 141.056 350.158C141.056 349.21 141.278 348.358 141.722 347.602C142.178 346.834 142.796 346.24 143.576 345.82C144.368 345.388 145.25 345.172 146.222 345.172C147.17 345.172 148.028 345.376 148.796 345.784C149.564 346.192 150.164 346.78 150.596 347.548C151.04 348.304 151.262 349.186 151.262 350.194ZM146.24 347.296C145.604 347.296 145.07 347.476 144.638 347.836C144.206 348.196 143.942 348.688 143.846 349.312H148.616C148.52 348.7 148.256 348.214 147.824 347.854C147.392 347.482 146.864 347.296 146.24 347.296ZM158.076 355.18C157.032 355.18 156.096 354.97 155.268 354.55C154.452 354.118 153.81 353.518 153.342 352.75C152.874 351.982 152.64 351.118 152.64 350.158C152.64 349.198 152.874 348.334 153.342 347.566C153.81 346.798 154.452 346.204 155.268 345.784C156.096 345.352 157.032 345.136 158.076 345.136C159 345.136 159.834 345.292 160.578 345.604C161.334 345.904 161.958 346.342 162.45 346.918L160.848 348.43C160.116 347.674 159.228 347.296 158.184 347.296C157.488 347.296 156.888 347.47 156.384 347.818C155.88 348.166 155.538 348.64 155.358 349.24H159.426V351.166H155.394C155.586 351.742 155.928 352.198 156.42 352.534C156.912 352.87 157.5 353.038 158.184 353.038C159.216 353.038 160.104 352.654 160.848 351.886L162.45 353.38C161.958 353.968 161.334 354.418 160.578 354.73C159.834 355.03 159 355.18 158.076 355.18ZM168.552 355.144C167.52 355.144 166.59 354.934 165.762 354.514C164.946 354.082 164.304 353.488 163.836 352.732C163.38 351.976 163.152 351.118 163.152 350.158C163.152 349.198 163.38 348.34 163.836 347.584C164.304 346.828 164.946 346.24 165.762 345.82C166.59 345.388 167.52 345.172 168.552 345.172C169.572 345.172 170.46 345.388 171.216 345.82C171.984 346.24 172.542 346.846 172.89 347.638L170.712 348.808C170.208 347.92 169.482 347.476 168.534 347.476C167.802 347.476 167.196 347.716 166.716 348.196C166.236 348.676 165.996 349.33 165.996 350.158C165.996 350.986 166.236 351.64 166.716 352.12C167.196 352.6 167.802 352.84 168.534 352.84C169.494 352.84 170.22 352.396 170.712 351.508L172.89 352.696C172.542 353.464 171.984 354.064 171.216 354.496C170.46 354.928 169.572 355.144 168.552 355.144ZM182.697 347.62H179.421V355H176.631V347.62H173.355V345.316H182.697V347.62ZM189.9 345.172C190.8 345.172 191.616 345.382 192.348 345.802C193.092 346.21 193.674 346.792 194.094 347.548C194.514 348.292 194.724 349.162 194.724 350.158C194.724 351.154 194.514 352.03 194.094 352.786C193.674 353.53 193.092 354.112 192.348 354.532C191.616 354.94 190.8 355.144 189.9 355.144C188.664 355.144 187.692 354.754 186.984 353.974V358.492H184.176V345.316H186.858V346.432C187.554 345.592 188.568 345.172 189.9 345.172ZM189.414 352.84C190.134 352.84 190.722 352.6 191.178 352.12C191.646 351.628 191.88 350.974 191.88 350.158C191.88 349.342 191.646 348.694 191.178 348.214C190.722 347.722 190.134 347.476 189.414 347.476C188.694 347.476 188.1 347.722 187.632 348.214C187.176 348.694 186.948 349.342 186.948 350.158C186.948 350.974 187.176 351.628 187.632 352.12C188.1 352.6 188.694 352.84 189.414 352.84ZM200.296 345.172C201.796 345.172 202.948 345.532 203.752 346.252C204.556 346.96 204.958 348.034 204.958 349.474V355H202.33V353.794C201.802 354.694 200.818 355.144 199.378 355.144C198.634 355.144 197.986 355.018 197.434 354.766C196.894 354.514 196.48 354.166 196.192 353.722C195.904 353.278 195.76 352.774 195.76 352.21C195.76 351.31 196.096 350.602 196.768 350.086C197.452 349.57 198.502 349.312 199.918 349.312H202.15C202.15 348.7 201.964 348.232 201.592 347.908C201.22 347.572 200.662 347.404 199.918 347.404C199.402 347.404 198.892 347.488 198.388 347.656C197.896 347.812 197.476 348.028 197.128 348.304L196.12 346.342C196.648 345.97 197.278 345.682 198.01 345.478C198.754 345.274 199.516 345.172 200.296 345.172ZM200.08 353.254C200.56 353.254 200.986 353.146 201.358 352.93C201.73 352.702 201.994 352.372 202.15 351.94V350.95H200.224C199.072 350.95 198.496 351.328 198.496 352.084C198.496 352.444 198.634 352.732 198.91 352.948C199.198 353.152 199.588 353.254 200.08 353.254ZM218.305 352.696V357.124H215.695V355H207.397V345.316H210.187V352.696H214.093V345.316H216.901V352.696H218.305ZM220.053 345.316H222.861V355H220.053V345.316ZM221.457 343.966C220.941 343.966 220.521 343.816 220.197 343.516C219.873 343.216 219.711 342.844 219.711 342.4C219.711 341.956 219.873 341.584 220.197 341.284C220.521 340.984 220.941 340.834 221.457 340.834C221.973 340.834 222.393 340.978 222.717 341.266C223.041 341.554 223.203 341.914 223.203 342.346C223.203 342.814 223.041 343.204 222.717 343.516C222.393 343.816 221.973 343.966 221.457 343.966ZM225.501 345.316H228.309V355H225.501V345.316ZM225.429 343.966C225.093 343.966 224.811 343.852 224.583 343.624C224.367 343.396 224.259 343.102 224.259 342.742C224.259 342.382 224.367 342.088 224.583 341.86C224.811 341.632 225.093 341.518 225.429 341.518C225.765 341.518 226.047 341.632 226.275 341.86C226.503 342.088 226.617 342.382 226.617 342.742C226.617 343.102 226.503 343.396 226.275 343.624C226.047 343.852 225.765 343.966 225.429 343.966ZM228.381 343.966C228.045 343.966 227.763 343.852 227.535 343.624C227.307 343.396 227.193 343.102 227.193 342.742C227.193 342.382 227.307 342.088 227.535 341.86C227.763 341.632 228.045 341.518 228.381 341.518C228.717 341.518 228.993 341.632 229.209 341.86C229.437 342.088 229.551 342.382 229.551 342.742C229.551 343.102 229.437 343.396 229.209 343.624C228.993 343.852 228.717 343.966 228.381 343.966Z" fill="#000428"/>
<path d="M138.6 388.72V390H128.78V388.98L134.6 383.28C135.333 382.56 135.827 381.94 136.08 381.42C136.347 380.887 136.48 380.353 136.48 379.82C136.48 378.993 136.193 378.353 135.62 377.9C135.06 377.433 134.253 377.2 133.2 377.2C131.56 377.2 130.287 377.72 129.38 378.76L128.36 377.88C128.907 377.24 129.6 376.747 130.44 376.4C131.293 376.053 132.253 375.88 133.32 375.88C134.747 375.88 135.873 376.22 136.7 376.9C137.54 377.567 137.96 378.487 137.96 379.66C137.96 380.38 137.8 381.073 137.48 381.74C137.16 382.407 136.553 383.173 135.66 384.04L130.9 388.72H138.6ZM151.838 386.32H149.038V390H147.598V386.32H139.698V385.28L147.118 376H148.718L141.558 385.04H147.638V381.8H149.038V385.04H151.838V386.32ZM164.355 383.58H161.155V390H159.715V376H161.155V382.28H164.355L169.095 376H170.695L165.495 382.8L170.995 390H169.295L164.355 383.58ZM179.923 384.56C181.35 384.893 182.063 385.753 182.063 387.14C182.063 388.06 181.723 388.767 181.043 389.26C180.363 389.753 179.35 390 178.003 390H173.223V379.48H177.863C179.063 379.48 180.003 379.713 180.683 380.18C181.363 380.647 181.703 381.313 181.703 382.18C181.703 382.753 181.543 383.247 181.223 383.66C180.916 384.06 180.483 384.36 179.923 384.56ZM174.603 384.16H177.763C178.576 384.16 179.196 384.007 179.623 383.7C180.063 383.393 180.283 382.947 180.283 382.36C180.283 381.773 180.063 381.333 179.623 381.04C179.196 380.747 178.576 380.6 177.763 380.6H174.603V384.16ZM177.943 388.88C178.85 388.88 179.53 388.733 179.983 388.44C180.436 388.147 180.663 387.687 180.663 387.06C180.663 386.433 180.456 385.973 180.043 385.68C179.63 385.373 178.976 385.22 178.083 385.22H174.603V388.88H177.943ZM185.391 379.48H186.811V390H185.391V379.48ZM186.111 377.18C185.818 377.18 185.571 377.08 185.371 376.88C185.171 376.68 185.071 376.44 185.071 376.16C185.071 375.893 185.171 375.66 185.371 375.46C185.571 375.26 185.818 375.16 186.111 375.16C186.404 375.16 186.651 375.26 186.851 375.46C187.051 375.647 187.151 375.873 187.151 376.14C187.151 376.433 187.051 376.68 186.851 376.88C186.651 377.08 186.404 377.18 186.111 377.18ZM198.26 380.74H194.28V390H192.86V380.74H188.88V379.48H198.26V380.74ZM200.313 379.48H201.733V384.14H208.353V379.48H209.773V390H208.353V385.36H201.733V390H200.313V379.48ZM221.889 379.48V390H220.589V386.52H217.289H216.889L214.449 390H212.909L215.529 386.32C214.716 386.093 214.089 385.707 213.649 385.16C213.209 384.613 212.989 383.92 212.989 383.08C212.989 381.907 213.389 381.013 214.189 380.4C214.989 379.787 216.082 379.48 217.469 379.48H221.889ZM214.429 383.12C214.429 384.68 215.422 385.46 217.409 385.46H220.589V380.74H217.509C215.456 380.74 214.429 381.533 214.429 383.12Z" fill="#6F838D"/>
<path d="M51.3335 306.333V309.667H59.6668V316.333H51.3335V319.667H59.6668C61.5168 319.667 63.0002 318.183 63.0002 316.333V314.667H71.3335V331.333H63.0002V329.667C63.0002 327.817 61.5168 326.333 59.6668 326.333H51.3335V329.667H59.6668V336.333H51.3335V339.667H59.6668C61.5168 339.667 63.0002 338.183 63.0002 336.333V334.667H71.3335C73.1835 334.667 74.6668 333.183 74.6668 331.333V324.667H84.6668V321.333H74.6668V314.667C74.6668 312.817 73.1835 311.333 71.3335 311.333H63.0002V309.667C63.0002 307.817 61.5168 306.333 59.6668 306.333H51.3335Z" fill="#B45F4A"/>
<defs>
<linearGradient id="paint0_linear" x1="-119" y1="248" x2="380" y2="248" gradientUnits="userSpaceOnUse">
<stop stop-color="#ACFCFA"/>
<stop offset="1" stop-color="white" stop-opacity="0"/>
</linearGradient>
<linearGradient id="paint1_linear" x1="-119" y1="248" x2="380" y2="248" gradientUnits="userSpaceOnUse">
<stop stop-color="#ACFCFA"/>
<stop offset="1" stop-color="white" stop-opacity="0"/>
</linearGradient>
<linearGradient id="paint2_linear" x1="-119" y1="248" x2="380" y2="248" gradientUnits="userSpaceOnUse">
<stop stop-color="#ACFCFA"/>
<stop offset="1" stop-color="white" stop-opacity="0"/>
</linearGradient>
<linearGradient id="paint3_linear" x1="-119" y1="498" x2="380" y2="498" gradientUnits="userSpaceOnUse">
<stop stop-color="#ACFCFA"/>
<stop offset="1" stop-color="white" stop-opacity="0"/>
</linearGradient>
<linearGradient id="paint4_linear" x1="-119" y1="498" x2="380" y2="498" gradientUnits="userSpaceOnUse">
<stop stop-color="#ACFCFA"/>
<stop offset="1" stop-color="white" stop-opacity="0"/>
</linearGradient>
<linearGradient id="paint5_linear" x1="-119" y1="498" x2="380" y2="498" gradientUnits="userSpaceOnUse">
<stop stop-color="#ACFCFA"/>
<stop offset="1" stop-color="white" stop-opacity="0"/>
</linearGradient>
<linearGradient id="paint6_linear" x1="-119" y1="738" x2="380" y2="738" gradientUnits="userSpaceOnUse">
<stop stop-color="#ACFCFA"/>
<stop offset="1" stop-color="white" stop-opacity="0"/>
</linearGradient>
<linearGradient id="paint7_linear" x1="-119" y1="738" x2="380" y2="738" gradientUnits="userSpaceOnUse">
<stop stop-color="#ACFCFA"/>
<stop offset="1" stop-color="white" stop-opacity="0"/>
</linearGradient>
<linearGradient id="paint8_linear" x1="-119" y1="738" x2="380" y2="738" gradientUnits="userSpaceOnUse">
<stop stop-color="#ACFCFA"/>
<stop offset="1" stop-color="white" stop-opacity="0"/>
</linearGradient>
<linearGradient id="paint9_linear" x1="-119" y1="978" x2="380" y2="978" gradientUnits="userSpaceOnUse">
<stop stop-color="#ACFCFA"/>
<stop offset="1" stop-color="white" stop-opacity="0"/>
</linearGradient>
<linearGradient id="paint10_linear" x1="-119" y1="978" x2="380" y2="978" gradientUnits="userSpaceOnUse">
<stop stop-color="#ACFCFA"/>
<stop offset="1" stop-color="white" stop-opacity="0"/>
</linearGradient>
<linearGradient id="paint11_linear" x1="-119" y1="978" x2="380" y2="978" gradientUnits="userSpaceOnUse">
<stop stop-color="#ACFCFA"/>
<stop offset="1" stop-color="white" stop-opacity="0"/>
</linearGradient>
<clipPath id="clip0">
<rect x="48" y="68" width="40" height="40" fill="white"/>
</clipPath>
<clipPath id="clip1">
<rect x="170.5" y="212.5" width="21" height="21" transform="rotate(90 170.5 212.5)" fill="white"/>
</clipPath>
<clipPath id="clip2">
<rect x="169.5" y="449.5" width="21" height="21" transform="rotate(90 169.5 449.5)" fill="white"/>
</clipPath>
<clipPath id="clip3">
<rect x="169.5" y="686.5" width="21" height="21" transform="rotate(90 169.5 686.5)" fill="white"/>
</clipPath>
<clipPath id="clip4">
<rect x="48" y="777" width="40" height="40" fill="white"/>
</clipPath>
</defs>
</svg>
