<svg width="1476" height="276" viewBox="0 0 1476 276" fill="none" xmlns="http://www.w3.org/2000/svg">
<rect x="18" y="17.999" width="1440" height="240" rx="26" fill="white"/>
<mask id="mask0" mask-type="alpha" maskUnits="userSpaceOnUse" x="18" y="17" width="1440" height="241">
<rect x="18" y="17.999" width="1440" height="240" rx="26" fill="white"/>
</mask>
<g mask="url(#mask0)">
<circle cx="248" cy="137.999" r="279" fill="url(#paint0_linear)"/>
<circle cx="248" cy="137.999" r="279" fill="url(#paint1_linear)"/>
<circle cx="248" cy="137.999" r="279" fill="url(#paint2_linear)"/>
<circle cx="618" cy="137.999" r="279" fill="url(#paint3_linear)"/>
<circle cx="618" cy="137.999" r="279" fill="url(#paint4_linear)"/>
<circle cx="618" cy="137.999" r="279" fill="url(#paint5_linear)"/>
<circle cx="988" cy="137.999" r="279" fill="url(#paint6_linear)"/>
<circle cx="988" cy="137.999" r="279" fill="url(#paint7_linear)"/>
<circle cx="988" cy="137.999" r="279" fill="url(#paint8_linear)"/>
<circle cx="1358" cy="137.999" r="279" fill="url(#paint9_linear)"/>
<circle cx="1358" cy="137.999" r="279" fill="url(#paint10_linear)"/>
<circle cx="1358" cy="137.999" r="279" fill="url(#paint11_linear)"/>
</g>
<circle cx="342" cy="137.999" r="30" fill="#00B1FF"/>
<g clip-path="url(#clip0)">
<path d="M352.214 137.309L345.965 131.059C345.583 130.678 344.965 130.678 344.584 131.059C344.202 131.441 344.202 132.059 344.584 132.44L349.166 137.023H332.476C331.937 137.023 331.5 137.46 331.5 137.999C331.5 138.538 331.937 138.976 332.476 138.976H349.166L344.584 143.558C344.203 143.939 344.203 144.557 344.584 144.939C344.775 145.129 345.025 145.225 345.274 145.225C345.524 145.225 345.774 145.129 345.965 144.939L352.214 138.69C352.595 138.308 352.595 137.69 352.214 137.309Z" fill="white"/>
</g>
<g clip-path="url(#clip1)">
<path d="M97.9959 114.473V136.159C97.9959 137.272 97.5226 138.273 96.7667 138.975C96.0809 139.61 95.1636 139.999 94.1556 139.999H61.8399C60.8319 139.999 59.9146 139.61 59.2297 138.975C58.4738 138.273 58.0005 137.272 58.0005 136.159V114.473H97.9959Z" fill="#FEC970"/>
<path d="M97.9954 114.472L82.6222 101.671C79.9427 99.4403 76.0527 99.4403 73.3732 101.671L58 114.472H58.0003L62.5312 118.245L73.3732 127.272C76.053 129.504 79.9431 129.504 82.6219 127.272L93.4648 118.245L97.9957 114.472" fill="#FBA028"/>
<path d="M93.4648 106.484V118.245L82.6219 127.273C79.9431 129.505 76.053 129.505 73.3732 127.273L62.5312 118.245V106.484C62.5312 104.032 64.5195 102.044 66.9722 102.044H89.0245C91.4772 102.044 93.4648 104.032 93.4648 106.484Z" fill="#BFDADD"/>
<path d="M93.4648 106.484V115.552L82.6219 124.579C79.9431 126.811 76.053 126.811 73.3732 124.579L62.5312 115.552V106.484C62.5312 104.032 64.5195 102.044 66.9722 102.044H89.0245C91.4772 102.044 93.4648 104.032 93.4648 106.484Z" fill="#E4F5F7"/>
<path d="M86.9762 117.57H69.0194C68.6813 117.57 68.4072 117.295 68.4072 116.957C68.4072 116.62 68.6813 116.345 69.0194 116.345H86.9762C87.3144 116.345 87.5884 116.62 87.5884 116.957C87.5884 117.295 87.3144 117.57 86.9762 117.57Z" fill="#4B5051"/>
<path d="M86.9762 121.125H69.0194C68.6813 121.125 68.4072 120.851 68.4072 120.513C68.4072 120.175 68.6813 119.901 69.0194 119.901H86.9762C87.3144 119.901 87.5884 120.175 87.5884 120.513C87.5884 120.851 87.3144 121.125 86.9762 121.125Z" fill="#4B5051"/>
<path d="M86.9762 110.459H69.0194C68.6813 110.459 68.4072 110.185 68.4072 109.847C68.4072 109.509 68.6813 109.235 69.0194 109.235H86.9762C87.3144 109.235 87.5884 109.509 87.5884 109.847C87.5884 110.185 87.3144 110.459 86.9762 110.459Z" fill="#4B5051"/>
<path d="M86.9762 114.014H69.0194C68.6813 114.014 68.4072 113.74 68.4072 113.402C68.4072 113.064 68.6813 112.79 69.0194 112.79H86.9762C87.3144 112.79 87.5884 113.064 87.5884 113.402C87.5884 113.74 87.3144 114.014 86.9762 114.014Z" fill="#4B5051"/>
<path d="M97.1793 108.57C97.1793 113.281 93.3603 117.1 88.6496 117.1C83.9386 117.1 80.1196 113.281 80.1196 108.57C80.1196 103.859 83.9386 100.04 88.6496 100.04C93.3603 100.04 97.1793 103.859 97.1793 108.57Z" fill="#26BF64"/>
<path d="M97.1793 108.57C97.1793 113.034 93.7512 116.696 89.3845 117.068C85.0168 116.696 81.5894 113.034 81.5894 108.57C81.5894 104.106 85.0168 100.444 89.3845 100.072C93.7512 100.444 97.1793 104.106 97.1793 108.57Z" fill="#49D685"/>
<path d="M88.6086 113.817C88.4295 113.817 88.2574 113.738 88.1402 113.599L84.5901 109.371C84.3728 109.112 84.4064 108.726 84.6652 108.509C84.9243 108.291 85.3103 108.325 85.5276 108.584L88.438 112.05L91.7193 104.394C91.8524 104.083 92.2125 103.939 92.5231 104.072C92.8338 104.205 92.9778 104.565 92.8445 104.876L89.1714 113.446C89.0878 113.642 88.9086 113.78 88.6984 113.811C88.6685 113.815 88.6385 113.817 88.6086 113.817Z" fill="white"/>
<path d="M94.2678 137.507C94.1298 137.507 93.991 137.461 93.8765 137.365L84.1149 129.238C83.8552 129.022 83.8201 128.635 84.0361 128.376C84.2525 128.116 84.6385 128.081 84.8982 128.297L94.6596 136.424C94.9196 136.641 94.955 137.026 94.7386 137.286C94.6175 137.432 94.4432 137.507 94.2678 137.507Z" fill="#FBA028"/>
<path d="M71.8619 129.254L63.8397 136.106C62.7347 137.05 63.2288 138.855 64.6609 139.104C66.9647 139.504 69.6567 139.954 70.3806 139.999H61.8402C60.8319 139.999 59.9146 139.611 59.2297 138.975C58.4738 138.274 58.0005 137.272 58.0005 136.16V114.473H60.899V129.256C60.9268 132.244 64.4299 133.848 66.727 131.936L71.0977 128.297C71.3623 128.077 71.7581 128.117 71.972 128.391C72.1786 128.654 72.1188 129.04 71.8619 129.254Z" fill="#FBA028"/>
</g>
<path d="M148.296 103.429C149.064 103.657 149.652 104.029 150.06 104.545C150.468 105.061 150.672 105.697 150.672 106.453C150.672 107.569 150.246 108.439 149.394 109.063C148.554 109.687 147.348 109.999 145.776 109.999H139.566V97.399H145.434C146.898 97.399 148.038 97.681 148.854 98.245C149.67 98.809 150.078 99.613 150.078 100.657C150.078 101.281 149.922 101.833 149.61 102.313C149.298 102.781 148.86 103.153 148.296 103.429ZM142.464 102.619H145.182C145.818 102.619 146.298 102.493 146.622 102.241C146.946 101.977 147.108 101.593 147.108 101.089C147.108 100.597 146.94 100.219 146.604 99.955C146.28 99.691 145.806 99.559 145.182 99.559H142.464V102.619ZM145.668 107.839C147.036 107.839 147.72 107.299 147.72 106.219C147.72 105.175 147.036 104.653 145.668 104.653H142.464V107.839H145.668ZM152.744 100.315H155.552V109.999H152.744V100.315ZM154.148 98.965C153.632 98.965 153.212 98.815 152.888 98.515C152.564 98.215 152.402 97.843 152.402 97.399C152.402 96.955 152.564 96.583 152.888 96.283C153.212 95.983 153.632 95.833 154.148 95.833C154.664 95.833 155.084 95.977 155.408 96.265C155.732 96.553 155.894 96.913 155.894 97.345C155.894 97.813 155.732 98.203 155.408 98.515C155.084 98.815 154.664 98.965 154.148 98.965ZM169.1 107.695V112.087H166.49V109.999H159.686V112.087H157.076V107.695H157.472C158.072 107.683 158.486 107.329 158.714 106.633C158.942 105.937 159.086 104.947 159.146 103.663L159.272 100.315H167.714V107.695H169.1ZM161.684 103.861C161.648 104.845 161.57 105.649 161.45 106.273C161.342 106.897 161.132 107.371 160.82 107.695H164.906V102.619H161.738L161.684 103.861ZM175.134 106.327H173.676V109.999H170.868V100.315H173.676V104.077H175.188L177.816 100.315H180.804L177.42 104.959L181.038 109.999H177.726L175.134 106.327ZM188.122 100.171C189.022 100.171 189.838 100.381 190.57 100.801C191.314 101.209 191.896 101.791 192.316 102.547C192.736 103.291 192.946 104.161 192.946 105.157C192.946 106.153 192.736 107.029 192.316 107.785C191.896 108.529 191.314 109.111 190.57 109.531C189.838 109.939 189.022 110.143 188.122 110.143C186.886 110.143 185.914 109.753 185.206 108.973V113.491H182.398V100.315H185.08V101.431C185.776 100.591 186.79 100.171 188.122 100.171ZM187.636 107.839C188.356 107.839 188.944 107.599 189.4 107.119C189.868 106.627 190.102 105.973 190.102 105.157C190.102 104.341 189.868 103.693 189.4 103.213C188.944 102.721 188.356 102.475 187.636 102.475C186.916 102.475 186.322 102.721 185.854 103.213C185.398 103.693 185.17 104.341 185.17 105.157C185.17 105.973 185.398 106.627 185.854 107.119C186.322 107.599 186.916 107.839 187.636 107.839ZM194.914 100.315H197.704V106.075L202.42 100.315H204.994V109.999H202.204V104.239L197.506 109.999H194.914V100.315ZM215.83 102.619H212.554V109.999H209.764V102.619H206.488V100.315H215.83V102.619ZM225.55 102.619H222.274V109.999H219.484V102.619H216.208V100.315H225.55V102.619ZM235.563 100.315V109.999H233.061V107.227H230.991L229.155 109.999H226.167L228.381 106.831C227.709 106.567 227.193 106.189 226.833 105.697C226.485 105.193 226.311 104.587 226.311 103.879C226.311 102.739 226.719 101.863 227.535 101.251C228.363 100.627 229.497 100.315 230.937 100.315H235.563ZM230.991 102.601C230.391 102.601 229.935 102.709 229.623 102.925C229.323 103.141 229.173 103.489 229.173 103.969C229.173 104.449 229.317 104.803 229.605 105.031C229.905 105.247 230.355 105.355 230.955 105.355H233.061V102.601H230.991ZM145.056 129.171C145.956 129.171 146.772 129.381 147.504 129.801C148.248 130.209 148.83 130.791 149.25 131.547C149.67 132.291 149.88 133.161 149.88 134.157C149.88 135.153 149.67 136.029 149.25 136.785C148.83 137.529 148.248 138.111 147.504 138.531C146.772 138.939 145.956 139.143 145.056 139.143C143.82 139.143 142.848 138.753 142.14 137.973V142.491H139.332V129.315H142.014V130.431C142.71 129.591 143.724 129.171 145.056 129.171ZM144.57 136.839C145.29 136.839 145.878 136.599 146.334 136.119C146.802 135.627 147.036 134.973 147.036 134.157C147.036 133.341 146.802 132.693 146.334 132.213C145.878 131.721 145.29 131.475 144.57 131.475C143.85 131.475 143.256 131.721 142.788 132.213C142.332 132.693 142.104 133.341 142.104 134.157C142.104 134.973 142.332 135.627 142.788 136.119C143.256 136.599 143.85 136.839 144.57 136.839ZM161.262 134.193C161.262 134.229 161.244 134.481 161.208 134.949H153.882C154.014 135.549 154.326 136.023 154.818 136.371C155.31 136.719 155.922 136.893 156.654 136.893C157.158 136.893 157.602 136.821 157.986 136.677C158.382 136.521 158.748 136.281 159.084 135.957L160.578 137.577C159.666 138.621 158.334 139.143 156.582 139.143C155.49 139.143 154.524 138.933 153.684 138.513C152.844 138.081 152.196 137.487 151.74 136.731C151.284 135.975 151.056 135.117 151.056 134.157C151.056 133.209 151.278 132.357 151.722 131.601C152.178 130.833 152.796 130.239 153.576 129.819C154.368 129.387 155.25 129.171 156.222 129.171C157.17 129.171 158.028 129.375 158.796 129.783C159.564 130.191 160.164 130.779 160.596 131.547C161.04 132.303 161.262 133.185 161.262 134.193ZM156.24 131.295C155.604 131.295 155.07 131.475 154.638 131.835C154.206 132.195 153.942 132.687 153.846 133.311H158.616C158.52 132.699 158.256 132.213 157.824 131.853C157.392 131.481 156.864 131.295 156.24 131.295ZM168.076 139.179C167.032 139.179 166.096 138.969 165.268 138.549C164.452 138.117 163.81 137.517 163.342 136.749C162.874 135.981 162.64 135.117 162.64 134.157C162.64 133.197 162.874 132.333 163.342 131.565C163.81 130.797 164.452 130.203 165.268 129.783C166.096 129.351 167.032 129.135 168.076 129.135C169 129.135 169.834 129.291 170.578 129.603C171.334 129.903 171.958 130.341 172.45 130.917L170.848 132.429C170.116 131.673 169.228 131.295 168.184 131.295C167.488 131.295 166.888 131.469 166.384 131.817C165.88 132.165 165.538 132.639 165.358 133.239H169.426V135.165H165.394C165.586 135.741 165.928 136.197 166.42 136.533C166.912 136.869 167.5 137.037 168.184 137.037C169.216 137.037 170.104 136.653 170.848 135.885L172.45 137.379C171.958 137.967 171.334 138.417 170.578 138.729C169.834 139.029 169 139.179 168.076 139.179ZM178.552 139.143C177.52 139.143 176.59 138.933 175.762 138.513C174.946 138.081 174.304 137.487 173.836 136.731C173.38 135.975 173.152 135.117 173.152 134.157C173.152 133.197 173.38 132.339 173.836 131.583C174.304 130.827 174.946 130.239 175.762 129.819C176.59 129.387 177.52 129.171 178.552 129.171C179.572 129.171 180.46 129.387 181.216 129.819C181.984 130.239 182.542 130.845 182.89 131.637L180.712 132.807C180.208 131.919 179.482 131.475 178.534 131.475C177.802 131.475 177.196 131.715 176.716 132.195C176.236 132.675 175.996 133.329 175.996 134.157C175.996 134.985 176.236 135.639 176.716 136.119C177.196 136.599 177.802 136.839 178.534 136.839C179.494 136.839 180.22 136.395 180.712 135.507L182.89 136.695C182.542 137.463 181.984 138.063 181.216 138.495C180.46 138.927 179.572 139.143 178.552 139.143ZM192.697 131.619H189.421V138.999H186.631V131.619H183.355V129.315H192.697V131.619ZM199.9 129.171C200.8 129.171 201.616 129.381 202.348 129.801C203.092 130.209 203.674 130.791 204.094 131.547C204.514 132.291 204.724 133.161 204.724 134.157C204.724 135.153 204.514 136.029 204.094 136.785C203.674 137.529 203.092 138.111 202.348 138.531C201.616 138.939 200.8 139.143 199.9 139.143C198.664 139.143 197.692 138.753 196.984 137.973V142.491H194.176V129.315H196.858V130.431C197.554 129.591 198.568 129.171 199.9 129.171ZM199.414 136.839C200.134 136.839 200.722 136.599 201.178 136.119C201.646 135.627 201.88 134.973 201.88 134.157C201.88 133.341 201.646 132.693 201.178 132.213C200.722 131.721 200.134 131.475 199.414 131.475C198.694 131.475 198.1 131.721 197.632 132.213C197.176 132.693 196.948 133.341 196.948 134.157C196.948 134.973 197.176 135.627 197.632 136.119C198.1 136.599 198.694 136.839 199.414 136.839ZM210.296 129.171C211.796 129.171 212.948 129.531 213.752 130.251C214.556 130.959 214.958 132.033 214.958 133.473V138.999H212.33V137.793C211.802 138.693 210.818 139.143 209.378 139.143C208.634 139.143 207.986 139.017 207.434 138.765C206.894 138.513 206.48 138.165 206.192 137.721C205.904 137.277 205.76 136.773 205.76 136.209C205.76 135.309 206.096 134.601 206.768 134.085C207.452 133.569 208.502 133.311 209.918 133.311H212.15C212.15 132.699 211.964 132.231 211.592 131.907C211.22 131.571 210.662 131.403 209.918 131.403C209.402 131.403 208.892 131.487 208.388 131.655C207.896 131.811 207.476 132.027 207.128 132.303L206.12 130.341C206.648 129.969 207.278 129.681 208.01 129.477C208.754 129.273 209.516 129.171 210.296 129.171ZM210.08 137.253C210.56 137.253 210.986 137.145 211.358 136.929C211.73 136.701 211.994 136.371 212.15 135.939V134.949H210.224C209.072 134.949 208.496 135.327 208.496 136.083C208.496 136.443 208.634 136.731 208.91 136.947C209.198 137.151 209.588 137.253 210.08 137.253ZM228.305 136.695V141.123H225.695V138.999H217.397V129.315H220.187V136.695H224.093V129.315H226.901V136.695H228.305ZM230.053 129.315H232.861V138.999H230.053V129.315ZM231.457 127.965C230.941 127.965 230.521 127.815 230.197 127.515C229.873 127.215 229.711 126.843 229.711 126.399C229.711 125.955 229.873 125.583 230.197 125.283C230.521 124.983 230.941 124.833 231.457 124.833C231.973 124.833 232.393 124.977 232.717 125.265C233.041 125.553 233.203 125.913 233.203 126.345C233.203 126.813 233.041 127.203 232.717 127.515C232.393 127.815 231.973 127.965 231.457 127.965ZM235.501 129.315H238.309V138.999H235.501V129.315ZM235.429 127.965C235.093 127.965 234.811 127.851 234.583 127.623C234.367 127.395 234.259 127.101 234.259 126.741C234.259 126.381 234.367 126.087 234.583 125.859C234.811 125.631 235.093 125.517 235.429 125.517C235.765 125.517 236.047 125.631 236.275 125.859C236.503 126.087 236.617 126.381 236.617 126.741C236.617 127.101 236.503 127.395 236.275 127.623C236.047 127.851 235.765 127.965 235.429 127.965ZM238.381 127.965C238.045 127.965 237.763 127.851 237.535 127.623C237.307 127.395 237.193 127.101 237.193 126.741C237.193 126.381 237.307 126.087 237.535 125.859C237.763 125.631 238.045 125.517 238.381 125.517C238.717 125.517 238.993 125.631 239.209 125.859C239.437 126.087 239.551 126.381 239.551 126.741C239.551 127.101 239.437 127.395 239.209 127.623C238.993 127.851 238.717 127.965 238.381 127.965Z" fill="#000428"/>
<path d="M142.92 157.999V171.999H141.48V159.279H138.18V157.999H142.92ZM157.461 165.579H154.261V171.999H152.821V157.999H154.261V164.279H157.461L162.201 157.999H163.801L158.601 164.799L164.101 171.999H162.401L157.461 165.579ZM173.029 166.559C174.455 166.892 175.169 167.752 175.169 169.139C175.169 170.059 174.829 170.766 174.149 171.259C173.469 171.752 172.455 171.999 171.109 171.999H166.329V161.479H170.969C172.169 161.479 173.109 161.712 173.789 162.179C174.469 162.646 174.809 163.312 174.809 164.179C174.809 164.752 174.649 165.246 174.329 165.659C174.022 166.059 173.589 166.359 173.029 166.559ZM167.709 166.159H170.869C171.682 166.159 172.302 166.006 172.729 165.699C173.169 165.392 173.389 164.946 173.389 164.359C173.389 163.772 173.169 163.332 172.729 163.039C172.302 162.746 171.682 162.599 170.869 162.599H167.709V166.159ZM171.049 170.879C171.955 170.879 172.635 170.732 173.089 170.439C173.542 170.146 173.769 169.686 173.769 169.059C173.769 168.432 173.562 167.972 173.149 167.679C172.735 167.372 172.082 167.219 171.189 167.219H167.709V170.879H171.049ZM178.497 161.479H179.917V171.999H178.497V161.479ZM179.217 159.179C178.923 159.179 178.677 159.079 178.477 158.879C178.277 158.679 178.177 158.439 178.177 158.159C178.177 157.892 178.277 157.659 178.477 157.459C178.677 157.259 178.923 157.159 179.217 157.159C179.51 157.159 179.757 157.259 179.957 157.459C180.157 157.646 180.257 157.872 180.257 158.139C180.257 158.432 180.157 158.679 179.957 158.879C179.757 159.079 179.51 159.179 179.217 159.179ZM191.365 162.739H187.385V171.999H185.965V162.739H181.985V161.479H191.365V162.739ZM193.418 161.479H194.838V166.139H201.458V161.479H202.878V171.999H201.458V167.359H194.838V171.999H193.418V161.479ZM214.995 161.479V171.999H213.695V168.519H210.395H209.995L207.555 171.999H206.015L208.635 168.319C207.821 168.092 207.195 167.706 206.755 167.159C206.315 166.612 206.095 165.919 206.095 165.079C206.095 163.906 206.495 163.012 207.295 162.399C208.095 161.786 209.188 161.479 210.575 161.479H214.995ZM207.535 165.119C207.535 166.679 208.528 167.459 210.515 167.459H213.695V162.739H210.615C208.561 162.739 207.535 163.532 207.535 165.119Z" fill="#6F838D"/>
<path d="M500.73 103.43C501.462 103.682 502.032 104.078 502.44 104.618C502.86 105.146 503.07 105.764 503.07 106.472C503.07 107.24 502.818 107.906 502.314 108.47C501.81 109.034 501.126 109.466 500.262 109.766C499.41 110.066 498.474 110.216 497.454 110.216C496.59 110.216 495.726 110.108 494.862 109.892C494.01 109.676 493.2 109.346 492.432 108.902L493.332 106.814C493.884 107.15 494.49 107.408 495.15 107.588C495.822 107.756 496.476 107.84 497.112 107.84C497.976 107.84 498.69 107.684 499.254 107.372C499.83 107.06 500.118 106.622 500.118 106.058C500.118 105.59 499.92 105.236 499.524 104.996C499.14 104.756 498.612 104.636 497.94 104.636H494.862V102.44H497.724C498.312 102.44 498.768 102.32 499.092 102.08C499.428 101.84 499.596 101.51 499.596 101.09C499.596 100.598 499.356 100.214 498.876 99.938C498.408 99.662 497.802 99.524 497.058 99.524C496.506 99.524 495.936 99.602 495.348 99.758C494.76 99.902 494.202 100.124 493.674 100.424L492.792 98.156C494.124 97.472 495.564 97.13 497.112 97.13C498.096 97.13 499.002 97.274 499.83 97.562C500.658 97.85 501.318 98.27 501.81 98.822C502.302 99.374 502.548 100.016 502.548 100.748C502.548 101.348 502.386 101.882 502.062 102.35C501.738 102.818 501.294 103.178 500.73 103.43ZM508.925 100.172C510.425 100.172 511.577 100.532 512.381 101.252C513.185 101.96 513.587 103.034 513.587 104.474V110H510.959V108.794C510.431 109.694 509.447 110.144 508.007 110.144C507.263 110.144 506.615 110.018 506.062 109.766C505.523 109.514 505.109 109.166 504.821 108.722C504.533 108.278 504.389 107.774 504.389 107.21C504.389 106.31 504.725 105.602 505.397 105.086C506.081 104.57 507.131 104.312 508.547 104.312H510.779C510.779 103.7 510.593 103.232 510.221 102.908C509.849 102.572 509.291 102.404 508.547 102.404C508.031 102.404 507.521 102.488 507.017 102.656C506.525 102.812 506.105 103.028 505.757 103.304L504.749 101.342C505.277 100.97 505.907 100.682 506.639 100.478C507.383 100.274 508.145 100.172 508.925 100.172ZM508.709 108.254C509.189 108.254 509.615 108.146 509.987 107.93C510.359 107.702 510.623 107.372 510.779 106.94V105.95H508.853C507.701 105.95 507.125 106.328 507.125 107.084C507.125 107.444 507.263 107.732 507.539 107.948C507.827 108.152 508.217 108.254 508.709 108.254ZM520.292 106.328H518.834V110H516.026V100.316H518.834V104.078H520.346L522.974 100.316H525.962L522.578 104.96L526.196 110H522.884L520.292 106.328ZM533.281 100.172C534.181 100.172 534.997 100.382 535.729 100.802C536.473 101.21 537.055 101.792 537.475 102.548C537.895 103.292 538.105 104.162 538.105 105.158C538.105 106.154 537.895 107.03 537.475 107.786C537.055 108.53 536.473 109.112 535.729 109.532C534.997 109.94 534.181 110.144 533.281 110.144C532.045 110.144 531.073 109.754 530.365 108.974V113.492H527.557V100.316H530.239V101.432C530.935 100.592 531.949 100.172 533.281 100.172ZM532.795 107.84C533.515 107.84 534.103 107.6 534.559 107.12C535.027 106.628 535.261 105.974 535.261 105.158C535.261 104.342 535.027 103.694 534.559 103.214C534.103 102.722 533.515 102.476 532.795 102.476C532.075 102.476 531.481 102.722 531.013 103.214C530.557 103.694 530.329 104.342 530.329 105.158C530.329 105.974 530.557 106.628 531.013 107.12C531.481 107.6 532.075 107.84 532.795 107.84ZM540.073 100.316H542.863V106.076L547.579 100.316H550.153V110H547.363V104.24L542.665 110H540.073V100.316ZM560.988 102.62H557.712V110H554.922V102.62H551.646V100.316H560.988V102.62ZM570.709 102.62H567.433V110H564.643V102.62H561.367V100.316H570.709V102.62ZM580.722 100.316V110H578.22V107.228H576.15L574.314 110H571.326L573.54 106.832C572.868 106.568 572.352 106.19 571.992 105.698C571.644 105.194 571.47 104.588 571.47 103.88C571.47 102.74 571.878 101.864 572.694 101.252C573.522 100.628 574.656 100.316 576.096 100.316H580.722ZM576.15 102.602C575.55 102.602 575.094 102.71 574.782 102.926C574.482 103.142 574.332 103.49 574.332 103.97C574.332 104.45 574.476 104.804 574.764 105.032C575.064 105.248 575.514 105.356 576.114 105.356H578.22V102.602H576.15ZM499.056 129.172C499.956 129.172 500.772 129.382 501.504 129.802C502.248 130.21 502.83 130.792 503.25 131.548C503.67 132.292 503.88 133.162 503.88 134.158C503.88 135.154 503.67 136.03 503.25 136.786C502.83 137.53 502.248 138.112 501.504 138.532C500.772 138.94 499.956 139.144 499.056 139.144C497.82 139.144 496.848 138.754 496.14 137.974V142.492H493.332V129.316H496.014V130.432C496.71 129.592 497.724 129.172 499.056 129.172ZM498.57 136.84C499.29 136.84 499.878 136.6 500.334 136.12C500.802 135.628 501.036 134.974 501.036 134.158C501.036 133.342 500.802 132.694 500.334 132.214C499.878 131.722 499.29 131.476 498.57 131.476C497.85 131.476 497.256 131.722 496.788 132.214C496.332 132.694 496.104 133.342 496.104 134.158C496.104 134.974 496.332 135.628 496.788 136.12C497.256 136.6 497.85 136.84 498.57 136.84ZM515.262 134.194C515.262 134.23 515.244 134.482 515.208 134.95H507.882C508.014 135.55 508.326 136.024 508.818 136.372C509.31 136.72 509.922 136.894 510.654 136.894C511.158 136.894 511.602 136.822 511.986 136.678C512.382 136.522 512.748 136.282 513.084 135.958L514.578 137.578C513.666 138.622 512.334 139.144 510.582 139.144C509.49 139.144 508.524 138.934 507.684 138.514C506.844 138.082 506.196 137.488 505.74 136.732C505.284 135.976 505.056 135.118 505.056 134.158C505.056 133.21 505.278 132.358 505.722 131.602C506.178 130.834 506.796 130.24 507.576 129.82C508.368 129.388 509.25 129.172 510.222 129.172C511.17 129.172 512.028 129.376 512.796 129.784C513.564 130.192 514.164 130.78 514.596 131.548C515.04 132.304 515.262 133.186 515.262 134.194ZM510.24 131.296C509.604 131.296 509.07 131.476 508.638 131.836C508.206 132.196 507.942 132.688 507.846 133.312H512.616C512.52 132.7 512.256 132.214 511.824 131.854C511.392 131.482 510.864 131.296 510.24 131.296ZM522.076 139.18C521.032 139.18 520.096 138.97 519.268 138.55C518.452 138.118 517.81 137.518 517.342 136.75C516.874 135.982 516.64 135.118 516.64 134.158C516.64 133.198 516.874 132.334 517.342 131.566C517.81 130.798 518.452 130.204 519.268 129.784C520.096 129.352 521.032 129.136 522.076 129.136C523 129.136 523.834 129.292 524.578 129.604C525.334 129.904 525.958 130.342 526.45 130.918L524.848 132.43C524.116 131.674 523.228 131.296 522.184 131.296C521.488 131.296 520.888 131.47 520.384 131.818C519.88 132.166 519.538 132.64 519.358 133.24H523.426V135.166H519.394C519.586 135.742 519.928 136.198 520.42 136.534C520.912 136.87 521.5 137.038 522.184 137.038C523.216 137.038 524.104 136.654 524.848 135.886L526.45 137.38C525.958 137.968 525.334 138.418 524.578 138.73C523.834 139.03 523 139.18 522.076 139.18ZM532.552 139.144C531.52 139.144 530.59 138.934 529.762 138.514C528.946 138.082 528.304 137.488 527.836 136.732C527.38 135.976 527.152 135.118 527.152 134.158C527.152 133.198 527.38 132.34 527.836 131.584C528.304 130.828 528.946 130.24 529.762 129.82C530.59 129.388 531.52 129.172 532.552 129.172C533.572 129.172 534.46 129.388 535.216 129.82C535.984 130.24 536.542 130.846 536.89 131.638L534.712 132.808C534.208 131.92 533.482 131.476 532.534 131.476C531.802 131.476 531.196 131.716 530.716 132.196C530.236 132.676 529.996 133.33 529.996 134.158C529.996 134.986 530.236 135.64 530.716 136.12C531.196 136.6 531.802 136.84 532.534 136.84C533.494 136.84 534.22 136.396 534.712 135.508L536.89 136.696C536.542 137.464 535.984 138.064 535.216 138.496C534.46 138.928 533.572 139.144 532.552 139.144ZM546.697 131.62H543.421V139H540.631V131.62H537.355V129.316H546.697V131.62ZM553.9 129.172C554.8 129.172 555.616 129.382 556.348 129.802C557.092 130.21 557.674 130.792 558.094 131.548C558.514 132.292 558.724 133.162 558.724 134.158C558.724 135.154 558.514 136.03 558.094 136.786C557.674 137.53 557.092 138.112 556.348 138.532C555.616 138.94 554.8 139.144 553.9 139.144C552.664 139.144 551.692 138.754 550.984 137.974V142.492H548.176V129.316H550.858V130.432C551.554 129.592 552.568 129.172 553.9 129.172ZM553.414 136.84C554.134 136.84 554.722 136.6 555.178 136.12C555.646 135.628 555.88 134.974 555.88 134.158C555.88 133.342 555.646 132.694 555.178 132.214C554.722 131.722 554.134 131.476 553.414 131.476C552.694 131.476 552.1 131.722 551.632 132.214C551.176 132.694 550.948 133.342 550.948 134.158C550.948 134.974 551.176 135.628 551.632 136.12C552.1 136.6 552.694 136.84 553.414 136.84ZM564.296 129.172C565.796 129.172 566.948 129.532 567.752 130.252C568.556 130.96 568.958 132.034 568.958 133.474V139H566.33V137.794C565.802 138.694 564.818 139.144 563.378 139.144C562.634 139.144 561.986 139.018 561.434 138.766C560.894 138.514 560.48 138.166 560.192 137.722C559.904 137.278 559.76 136.774 559.76 136.21C559.76 135.31 560.096 134.602 560.768 134.086C561.452 133.57 562.502 133.312 563.918 133.312H566.15C566.15 132.7 565.964 132.232 565.592 131.908C565.22 131.572 564.662 131.404 563.918 131.404C563.402 131.404 562.892 131.488 562.388 131.656C561.896 131.812 561.476 132.028 561.128 132.304L560.12 130.342C560.648 129.97 561.278 129.682 562.01 129.478C562.754 129.274 563.516 129.172 564.296 129.172ZM564.08 137.254C564.56 137.254 564.986 137.146 565.358 136.93C565.73 136.702 565.994 136.372 566.15 135.94V134.95H564.224C563.072 134.95 562.496 135.328 562.496 136.084C562.496 136.444 562.634 136.732 562.91 136.948C563.198 137.152 563.588 137.254 564.08 137.254ZM582.305 136.696V141.124H579.695V139H571.397V129.316H574.187V136.696H578.093V129.316H580.901V136.696H582.305ZM584.053 129.316H586.861V139H584.053V129.316ZM585.457 127.966C584.941 127.966 584.521 127.816 584.197 127.516C583.873 127.216 583.711 126.844 583.711 126.4C583.711 125.956 583.873 125.584 584.197 125.284C584.521 124.984 584.941 124.834 585.457 124.834C585.973 124.834 586.393 124.978 586.717 125.266C587.041 125.554 587.203 125.914 587.203 126.346C587.203 126.814 587.041 127.204 586.717 127.516C586.393 127.816 585.973 127.966 585.457 127.966ZM589.501 129.316H592.309V139H589.501V129.316ZM589.429 127.966C589.093 127.966 588.811 127.852 588.583 127.624C588.367 127.396 588.259 127.102 588.259 126.742C588.259 126.382 588.367 126.088 588.583 125.86C588.811 125.632 589.093 125.518 589.429 125.518C589.765 125.518 590.047 125.632 590.275 125.86C590.503 126.088 590.617 126.382 590.617 126.742C590.617 127.102 590.503 127.396 590.275 127.624C590.047 127.852 589.765 127.966 589.429 127.966ZM592.381 127.966C592.045 127.966 591.763 127.852 591.535 127.624C591.307 127.396 591.193 127.102 591.193 126.742C591.193 126.382 591.307 126.088 591.535 125.86C591.763 125.632 592.045 125.518 592.381 125.518C592.717 125.518 592.993 125.632 593.209 125.86C593.437 126.088 593.551 126.382 593.551 126.742C593.551 127.102 593.437 127.396 593.209 127.624C592.993 127.852 592.717 127.966 592.381 127.966Z" fill="#000428"/>
<path d="M502.6 172.719V173.999H492.78V172.979L498.6 167.279C499.333 166.559 499.827 165.939 500.08 165.419C500.347 164.886 500.48 164.352 500.48 163.819C500.48 162.992 500.193 162.352 499.62 161.899C499.06 161.432 498.253 161.199 497.2 161.199C495.56 161.199 494.287 161.719 493.38 162.759L492.36 161.879C492.907 161.239 493.6 160.746 494.44 160.399C495.293 160.052 496.253 159.879 497.32 159.879C498.747 159.879 499.873 160.219 500.7 160.899C501.54 161.566 501.96 162.486 501.96 163.659C501.96 164.379 501.8 165.072 501.48 165.739C501.16 166.406 500.553 167.172 499.66 168.039L494.9 172.719H502.6ZM515.838 170.319H513.038V173.999H511.598V170.319H503.698V169.279L511.118 159.999H512.718L505.558 169.039H511.638V165.799H513.038V169.039H515.838V170.319ZM528.355 167.579H525.155V173.999H523.715V159.999H525.155V166.279H528.355L533.095 159.999H534.695L529.495 166.799L534.995 173.999H533.295L528.355 167.579ZM543.923 168.559C545.35 168.892 546.063 169.752 546.063 171.139C546.063 172.059 545.723 172.766 545.043 173.259C544.363 173.752 543.35 173.999 542.003 173.999H537.223V163.479H541.863C543.063 163.479 544.003 163.712 544.683 164.179C545.363 164.646 545.703 165.312 545.703 166.179C545.703 166.752 545.543 167.246 545.223 167.659C544.916 168.059 544.483 168.359 543.923 168.559ZM538.603 168.159H541.763C542.576 168.159 543.196 168.006 543.623 167.699C544.063 167.392 544.283 166.946 544.283 166.359C544.283 165.772 544.063 165.332 543.623 165.039C543.196 164.746 542.576 164.599 541.763 164.599H538.603V168.159ZM541.943 172.879C542.85 172.879 543.53 172.732 543.983 172.439C544.436 172.146 544.663 171.686 544.663 171.059C544.663 170.432 544.456 169.972 544.043 169.679C543.63 169.372 542.976 169.219 542.083 169.219H538.603V172.879H541.943ZM549.391 163.479H550.811V173.999H549.391V163.479ZM550.111 161.179C549.818 161.179 549.571 161.079 549.371 160.879C549.171 160.679 549.071 160.439 549.071 160.159C549.071 159.892 549.171 159.659 549.371 159.459C549.571 159.259 549.818 159.159 550.111 159.159C550.404 159.159 550.651 159.259 550.851 159.459C551.051 159.646 551.151 159.872 551.151 160.139C551.151 160.432 551.051 160.679 550.851 160.879C550.651 161.079 550.404 161.179 550.111 161.179ZM562.26 164.739H558.28V173.999H556.86V164.739H552.88V163.479H562.26V164.739ZM564.313 163.479H565.733V168.139H572.353V163.479H573.773V173.999H572.353V169.359H565.733V173.999H564.313V163.479ZM585.889 163.479V173.999H584.589V170.519H581.289H580.889L578.449 173.999H576.909L579.529 170.319C578.716 170.092 578.089 169.706 577.649 169.159C577.209 168.612 576.989 167.919 576.989 167.079C576.989 165.906 577.389 165.012 578.189 164.399C578.989 163.786 580.082 163.479 581.469 163.479H585.889ZM578.429 167.119C578.429 168.679 579.422 169.459 581.409 169.459H584.589V164.739H581.509C579.456 164.739 578.429 165.532 578.429 167.119Z" fill="#6F838D"/>
<path d="M415.333 103.332V106.666H423.667V113.332H415.333V116.666H423.667C425.517 116.666 427 115.182 427 113.332V111.666H435.333V128.332H427V126.666C427 124.816 425.517 123.332 423.667 123.332H415.333V126.666H423.667V133.332H415.333V136.666H423.667C425.517 136.666 427 135.182 427 133.332V131.666H435.333C437.183 131.666 438.667 130.182 438.667 128.332V121.666H448.667V118.332H438.667V111.666C438.667 109.816 437.183 108.332 435.333 108.332H427V106.666C427 104.816 425.517 103.332 423.667 103.332H415.333Z" fill="#B45F4A"/>
<circle cx="714" cy="137.999" r="30" fill="#00B1FF"/>
<g clip-path="url(#clip2)">
<path d="M724.214 137.309L717.965 131.059C717.583 130.678 716.965 130.678 716.584 131.059C716.202 131.441 716.202 132.059 716.584 132.44L721.166 137.023H704.476C703.937 137.023 703.5 137.46 703.5 137.999C703.5 138.538 703.937 138.976 704.476 138.976H721.166L716.584 143.558C716.203 143.939 716.203 144.557 716.584 144.939C716.775 145.129 717.025 145.225 717.274 145.225C717.524 145.225 717.774 145.129 717.965 144.939L724.214 138.69C724.595 138.308 724.595 137.69 724.214 137.309Z" fill="white"/>
</g>
<path d="M881.02 97.4C882.136 97.4 883.102 97.586 883.918 97.958C884.746 98.33 885.382 98.858 885.826 99.542C886.27 100.226 886.492 101.036 886.492 101.972C886.492 102.896 886.27 103.706 885.826 104.402C885.382 105.086 884.746 105.614 883.918 105.986C883.102 106.346 882.136 106.526 881.02 106.526H878.482V110H875.566V97.4H881.02ZM880.858 104.15C881.734 104.15 882.4 103.964 882.856 103.592C883.312 103.208 883.54 102.668 883.54 101.972C883.54 101.264 883.312 100.724 882.856 100.352C882.4 99.968 881.734 99.776 880.858 99.776H878.482V104.15H880.858ZM897.596 105.194C897.596 105.23 897.578 105.482 897.542 105.95H890.216C890.348 106.55 890.66 107.024 891.152 107.372C891.644 107.72 892.256 107.894 892.988 107.894C893.492 107.894 893.936 107.822 894.32 107.678C894.716 107.522 895.082 107.282 895.418 106.958L896.912 108.578C896 109.622 894.668 110.144 892.916 110.144C891.824 110.144 890.858 109.934 890.018 109.514C889.178 109.082 888.53 108.488 888.074 107.732C887.618 106.976 887.39 106.118 887.39 105.158C887.39 104.21 887.612 103.358 888.056 102.602C888.512 101.834 889.13 101.24 889.91 100.82C890.702 100.388 891.584 100.172 892.556 100.172C893.504 100.172 894.362 100.376 895.13 100.784C895.898 101.192 896.498 101.78 896.93 102.548C897.374 103.304 897.596 104.186 897.596 105.194ZM892.574 102.296C891.938 102.296 891.404 102.476 890.972 102.836C890.54 103.196 890.276 103.688 890.18 104.312H894.95C894.854 103.7 894.59 103.214 894.158 102.854C893.726 102.482 893.198 102.296 892.574 102.296ZM905.907 104.96C906.483 105.14 906.927 105.416 907.239 105.788C907.563 106.16 907.725 106.604 907.725 107.12C907.725 107.732 907.515 108.272 907.095 108.74C906.675 109.196 906.099 109.55 905.367 109.802C904.635 110.054 903.807 110.18 902.883 110.18C902.127 110.18 901.383 110.102 900.651 109.946C899.919 109.79 899.241 109.556 898.617 109.244L899.373 107.282C900.393 107.774 901.521 108.02 902.757 108.02C903.417 108.02 903.933 107.924 904.305 107.732C904.689 107.528 904.881 107.246 904.881 106.886C904.881 106.574 904.749 106.34 904.485 106.184C904.221 106.016 903.837 105.932 903.333 105.932H901.353V104.186H903.081C903.573 104.186 903.951 104.108 904.215 103.952C904.479 103.796 904.611 103.568 904.611 103.268C904.611 102.956 904.443 102.716 904.107 102.548C903.783 102.38 903.315 102.296 902.703 102.296C901.767 102.296 900.747 102.518 899.643 102.962L898.959 101.018C900.303 100.43 901.611 100.136 902.883 100.136C903.759 100.136 904.539 100.244 905.223 100.46C905.919 100.676 906.465 100.994 906.861 101.414C907.257 101.822 907.455 102.302 907.455 102.854C907.455 103.31 907.317 103.724 907.041 104.096C906.765 104.456 906.387 104.744 905.907 104.96ZM919.47 100.316L915.096 110.594C914.652 111.71 914.1 112.496 913.44 112.952C912.792 113.408 912.006 113.636 911.082 113.636C910.578 113.636 910.08 113.558 909.588 113.402C909.096 113.246 908.694 113.03 908.382 112.754L909.408 110.756C909.624 110.948 909.87 111.098 910.146 111.206C910.434 111.314 910.716 111.368 910.992 111.368C911.376 111.368 911.688 111.272 911.928 111.08C912.168 110.9 912.384 110.594 912.576 110.162L912.612 110.072L908.418 100.316H911.316L914.034 106.886L916.77 100.316H919.47ZM929.427 100.316V110H926.619V102.62H923.559L923.469 104.33C923.421 105.602 923.301 106.658 923.109 107.498C922.917 108.338 922.605 108.998 922.173 109.478C921.741 109.958 921.141 110.198 920.373 110.198C919.965 110.198 919.479 110.126 918.915 109.982L919.059 107.678C919.251 107.702 919.389 107.714 919.473 107.714C919.893 107.714 920.205 107.564 920.409 107.264C920.625 106.952 920.769 106.562 920.841 106.094C920.913 105.614 920.967 104.984 921.003 104.204L921.147 100.316H929.427ZM937.365 103.412C938.625 103.424 939.591 103.712 940.263 104.276C940.935 104.828 941.271 105.614 941.271 106.634C941.271 107.702 940.893 108.536 940.137 109.136C939.393 109.724 938.343 110.018 936.987 110.018L932.127 110V100.316H934.917V103.412H937.365ZM936.735 108.02C937.275 108.032 937.689 107.918 937.977 107.678C938.265 107.438 938.409 107.078 938.409 106.598C938.409 106.13 938.265 105.788 937.977 105.572C937.701 105.356 937.287 105.242 936.735 105.23L934.917 105.212V108.02H936.735ZM950.283 102.62H947.007V110H944.217V102.62H940.941V100.316H950.283V102.62ZM955.542 100.172C957.042 100.172 958.194 100.532 958.998 101.252C959.802 101.96 960.204 103.034 960.204 104.474V110H957.576V108.794C957.048 109.694 956.064 110.144 954.624 110.144C953.88 110.144 953.232 110.018 952.68 109.766C952.14 109.514 951.726 109.166 951.438 108.722C951.15 108.278 951.006 107.774 951.006 107.21C951.006 106.31 951.342 105.602 952.014 105.086C952.698 104.57 953.748 104.312 955.164 104.312H957.396C957.396 103.7 957.21 103.232 956.838 102.908C956.466 102.572 955.908 102.404 955.164 102.404C954.648 102.404 954.138 102.488 953.634 102.656C953.142 102.812 952.722 103.028 952.374 103.304L951.366 101.342C951.894 100.97 952.524 100.682 953.256 100.478C954 100.274 954.762 100.172 955.542 100.172ZM955.326 108.254C955.806 108.254 956.232 108.146 956.604 107.93C956.976 107.702 957.24 107.372 957.396 106.94V105.95H955.47C954.318 105.95 953.742 106.328 953.742 107.084C953.742 107.444 953.88 107.732 954.156 107.948C954.444 108.152 954.834 108.254 955.326 108.254ZM970.779 102.62H967.503V110H964.713V102.62H961.437V100.316H970.779V102.62ZM972.276 100.316H975.066V106.076L979.782 100.316H982.356V110H979.566V104.24L974.868 110H972.276V100.316ZM879.886 139.144C878.866 139.144 877.948 138.934 877.132 138.514C876.328 138.082 875.698 137.488 875.242 136.732C874.786 135.976 874.558 135.118 874.558 134.158C874.558 133.198 874.786 132.34 875.242 131.584C875.698 130.828 876.328 130.24 877.132 129.82C877.948 129.388 878.866 129.172 879.886 129.172C880.906 129.172 881.818 129.388 882.622 129.82C883.426 130.24 884.056 130.828 884.512 131.584C884.968 132.34 885.196 133.198 885.196 134.158C885.196 135.118 884.968 135.976 884.512 136.732C884.056 137.488 883.426 138.082 882.622 138.514C881.818 138.934 880.906 139.144 879.886 139.144ZM879.886 136.84C880.606 136.84 881.194 136.6 881.65 136.12C882.118 135.628 882.352 134.974 882.352 134.158C882.352 133.342 882.118 132.694 881.65 132.214C881.194 131.722 880.606 131.476 879.886 131.476C879.166 131.476 878.572 131.722 878.104 132.214C877.636 132.694 877.402 133.342 877.402 134.158C877.402 134.974 877.636 135.628 878.104 136.12C878.572 136.6 879.166 136.84 879.886 136.84ZM898.035 136.696V141.124H895.425V139H887.127V129.316H889.917V136.696H893.823V129.316H896.631V136.696H898.035ZM899.783 129.316H902.591V139H899.783V129.316ZM901.187 127.966C900.671 127.966 900.251 127.816 899.927 127.516C899.603 127.216 899.441 126.844 899.441 126.4C899.441 125.956 899.603 125.584 899.927 125.284C900.251 124.984 900.671 124.834 901.187 124.834C901.703 124.834 902.123 124.978 902.447 125.266C902.771 125.554 902.933 125.914 902.933 126.346C902.933 126.814 902.771 127.204 902.447 127.516C902.123 127.816 901.703 127.966 901.187 127.966ZM905.286 129.316H908.076V133.096H912.288V129.316H915.096V139H912.288V135.382H908.076V139H905.286V129.316ZM926.946 129.172C927.93 129.172 928.812 129.388 929.592 129.82C930.372 130.24 930.984 130.828 931.428 131.584C931.872 132.34 932.094 133.198 932.094 134.158C932.094 135.118 931.872 135.976 931.428 136.732C930.984 137.488 930.372 138.082 929.592 138.514C928.812 138.934 927.93 139.144 926.946 139.144C926.094 139.144 925.314 138.988 924.606 138.676C923.898 138.352 923.31 137.902 922.842 137.326C922.374 136.738 922.062 136.066 921.906 135.31H920.574V139H917.784V129.316H920.574V132.88H921.924C922.2 131.752 922.788 130.852 923.688 130.18C924.588 129.508 925.674 129.172 926.946 129.172ZM926.946 136.84C927.63 136.84 928.194 136.6 928.638 136.12C929.094 135.628 929.322 134.974 929.322 134.158C929.322 133.33 929.094 132.676 928.638 132.196C928.194 131.716 927.63 131.476 926.946 131.476C926.25 131.476 925.674 131.716 925.218 132.196C924.774 132.676 924.552 133.33 924.552 134.158C924.552 134.974 924.774 135.628 925.218 136.12C925.674 136.6 926.25 136.84 926.946 136.84ZM941.441 133.942C942.581 134.326 943.151 135.094 943.151 136.246C943.151 137.122 942.821 137.8 942.161 138.28C941.501 138.76 940.517 139 939.209 139H934.043V129.316H938.993C940.205 129.316 941.153 129.538 941.837 129.982C942.521 130.414 942.863 131.026 942.863 131.818C942.863 132.298 942.737 132.724 942.485 133.096C942.245 133.456 941.897 133.738 941.441 133.942ZM936.617 133.294H938.741C939.725 133.294 940.217 132.946 940.217 132.25C940.217 131.566 939.725 131.224 938.741 131.224H936.617V133.294ZM938.975 137.092C940.007 137.092 940.523 136.738 940.523 136.03C940.523 135.658 940.403 135.388 940.163 135.22C939.923 135.04 939.545 134.95 939.029 134.95H936.617V137.092H938.975ZM949.003 129.172C950.503 129.172 951.655 129.532 952.459 130.252C953.263 130.96 953.665 132.034 953.665 133.474V139H951.037V137.794C950.509 138.694 949.525 139.144 948.085 139.144C947.341 139.144 946.693 139.018 946.141 138.766C945.601 138.514 945.187 138.166 944.899 137.722C944.611 137.278 944.467 136.774 944.467 136.21C944.467 135.31 944.803 134.602 945.475 134.086C946.159 133.57 947.209 133.312 948.625 133.312H950.857C950.857 132.7 950.671 132.232 950.299 131.908C949.927 131.572 949.369 131.404 948.625 131.404C948.109 131.404 947.599 131.488 947.095 131.656C946.603 131.812 946.183 132.028 945.835 132.304L944.827 130.342C945.355 129.97 945.985 129.682 946.717 129.478C947.461 129.274 948.223 129.172 949.003 129.172ZM948.787 137.254C949.267 137.254 949.693 137.146 950.065 136.93C950.437 136.702 950.701 136.372 950.857 135.94V134.95H948.931C947.779 134.95 947.203 135.328 947.203 136.084C947.203 136.444 947.341 136.732 947.617 136.948C947.905 137.152 948.295 137.254 948.787 137.254ZM956.104 129.316H958.894V133.096H963.106V129.316H965.914V139H963.106V135.382H958.894V139H956.104V129.316ZM968.602 129.316H971.392V133.096H975.604V129.316H978.412V139H975.604V135.382H971.392V139H968.602V129.316ZM989.704 129.316V139H987.202V136.228H985.132L983.296 139H980.308L982.522 135.832C981.85 135.568 981.334 135.19 980.974 134.698C980.626 134.194 980.452 133.588 980.452 132.88C980.452 131.74 980.86 130.864 981.676 130.252C982.504 129.628 983.638 129.316 985.078 129.316H989.704ZM985.132 131.602C984.532 131.602 984.076 131.71 983.764 131.926C983.464 132.142 983.314 132.49 983.314 132.97C983.314 133.45 983.458 133.804 983.746 134.032C984.046 134.248 984.496 134.356 985.096 134.356H987.202V131.602H985.132Z" fill="#000428"/>
<path d="M878.92 159.999V173.999H877.48V161.279H874.18V159.999H878.92ZM887.027 165.999C888.493 166.079 889.607 166.479 890.367 167.199C891.14 167.906 891.527 168.832 891.527 169.979C891.527 170.779 891.333 171.492 890.947 172.119C890.56 172.732 889.987 173.219 889.227 173.579C888.467 173.939 887.54 174.119 886.447 174.119C885.433 174.119 884.473 173.959 883.567 173.639C882.673 173.306 881.953 172.866 881.407 172.319L882.107 171.179C882.573 171.659 883.193 172.052 883.967 172.359C884.74 172.652 885.567 172.799 886.447 172.799C887.593 172.799 888.48 172.552 889.107 172.059C889.733 171.552 890.047 170.859 890.047 169.979C890.047 169.112 889.733 168.432 889.107 167.939C888.48 167.446 887.533 167.199 886.267 167.199H885.267V166.139L889.147 161.279H881.987V159.999H890.987V161.019L887.027 165.999ZM909.27 161.279H904.35V173.999H902.89V161.279H897.97V159.999H909.27V161.279ZM916.674 163.399C917.661 163.399 918.554 163.626 919.354 164.079C920.154 164.519 920.781 165.146 921.234 165.959C921.688 166.772 921.914 167.699 921.914 168.739C921.914 169.792 921.688 170.726 921.234 171.539C920.781 172.352 920.154 172.986 919.354 173.439C918.568 173.879 917.674 174.099 916.674 174.099C915.821 174.099 915.048 173.926 914.354 173.579C913.674 173.219 913.114 172.699 912.674 172.019V177.879H911.254V163.479H912.614V165.559C913.041 164.866 913.601 164.332 914.294 163.959C915.001 163.586 915.794 163.399 916.674 163.399ZM916.574 172.839C917.308 172.839 917.974 172.672 918.574 172.339C919.174 171.992 919.641 171.506 919.974 170.879C920.321 170.252 920.494 169.539 920.494 168.739C920.494 167.939 920.321 167.232 919.974 166.619C919.641 165.992 919.174 165.506 918.574 165.159C917.974 164.812 917.308 164.639 916.574 164.639C915.828 164.639 915.154 164.812 914.554 165.159C913.968 165.506 913.501 165.992 913.154 166.619C912.821 167.232 912.654 167.939 912.654 168.739C912.654 169.539 912.821 170.252 913.154 170.879C913.501 171.506 913.968 171.992 914.554 172.339C915.154 172.672 915.828 172.839 916.574 172.839ZM928.527 163.399C929.9 163.399 930.953 163.746 931.687 164.439C932.42 165.119 932.787 166.132 932.787 167.479V173.999H931.427V172.359C931.107 172.906 930.633 173.332 930.007 173.639C929.393 173.946 928.66 174.099 927.807 174.099C926.633 174.099 925.7 173.819 925.007 173.259C924.313 172.699 923.967 171.959 923.967 171.039C923.967 170.146 924.287 169.426 924.927 168.879C925.58 168.332 926.613 168.059 928.027 168.059H931.367V167.419C931.367 166.512 931.113 165.826 930.607 165.359C930.1 164.879 929.36 164.639 928.387 164.639C927.72 164.639 927.08 164.752 926.467 164.979C925.853 165.192 925.327 165.492 924.887 165.879L924.247 164.819C924.78 164.366 925.42 164.019 926.167 163.779C926.913 163.526 927.7 163.399 928.527 163.399ZM928.027 172.979C928.827 172.979 929.513 172.799 930.087 172.439C930.66 172.066 931.087 171.532 931.367 170.839V169.119H928.067C926.267 169.119 925.367 169.746 925.367 170.999C925.367 171.612 925.6 172.099 926.067 172.459C926.533 172.806 927.187 172.979 928.027 172.979ZM943.267 168.559C944.694 168.892 945.407 169.752 945.407 171.139C945.407 172.059 945.067 172.766 944.387 173.259C943.707 173.752 942.694 173.999 941.347 173.999H936.567V163.479H941.207C942.407 163.479 943.347 163.712 944.027 164.179C944.707 164.646 945.047 165.312 945.047 166.179C945.047 166.752 944.887 167.246 944.567 167.659C944.26 168.059 943.827 168.359 943.267 168.559ZM937.947 168.159H941.107C941.92 168.159 942.54 168.006 942.967 167.699C943.407 167.392 943.627 166.946 943.627 166.359C943.627 165.772 943.407 165.332 942.967 165.039C942.54 164.746 941.92 164.599 941.107 164.599H937.947V168.159ZM941.287 172.879C942.194 172.879 942.874 172.732 943.327 172.439C943.78 172.146 944.007 171.686 944.007 171.059C944.007 170.432 943.8 169.972 943.387 169.679C942.974 169.372 942.32 169.219 941.427 169.219H937.947V172.879H941.287ZM948.735 163.479H950.155V168.139H956.775V163.479H958.195V173.999H956.775V169.359H950.155V173.999H948.735V163.479ZM970.311 163.479V173.999H969.011V170.519H965.711H965.311L962.871 173.999H961.331L963.951 170.319C963.138 170.092 962.511 169.706 962.071 169.159C961.631 168.612 961.411 167.919 961.411 167.079C961.411 165.906 961.811 165.012 962.611 164.399C963.411 163.786 964.504 163.479 965.891 163.479H970.311ZM962.851 167.119C962.851 168.679 963.844 169.459 965.831 169.459H969.011V164.739H965.931C963.878 164.739 962.851 165.532 962.851 167.119Z" fill="#6F838D"/>
<circle cx="1082" cy="138.999" r="30" fill="#00B1FF"/>
<g clip-path="url(#clip3)">
<path d="M1092.21 138.309L1085.96 132.059C1085.58 131.678 1084.97 131.678 1084.58 132.059C1084.2 132.441 1084.2 133.059 1084.58 133.44L1089.17 138.023H1072.48C1071.94 138.023 1071.5 138.46 1071.5 138.999C1071.5 139.538 1071.94 139.976 1072.48 139.976H1089.17L1084.58 144.558C1084.2 144.939 1084.2 145.557 1084.58 145.939C1084.77 146.129 1085.02 146.225 1085.27 146.225C1085.52 146.225 1085.77 146.129 1085.96 145.939L1092.21 139.69C1092.6 139.308 1092.6 138.69 1092.21 138.309Z" fill="white"/>
</g>
<path d="M1258.49 117.663C1258.49 119.331 1257.92 120.645 1256.78 121.605C1255.65 122.553 1254.02 123.081 1251.9 123.189V124.557H1249.22V123.171C1247.08 123.051 1245.44 122.517 1244.3 121.569C1243.18 120.609 1242.61 119.307 1242.61 117.663C1242.61 116.007 1243.18 114.711 1244.3 113.775C1245.44 112.827 1247.08 112.287 1249.22 112.155V110.859H1251.9V112.137C1254.02 112.257 1255.65 112.797 1256.78 113.757C1257.92 114.717 1258.49 116.019 1258.49 117.663ZM1251.9 120.903C1253.17 120.783 1254.12 120.459 1254.74 119.931C1255.37 119.391 1255.68 118.629 1255.68 117.645C1255.68 115.725 1254.42 114.657 1251.9 114.441V120.903ZM1245.44 117.663C1245.44 119.559 1246.7 120.639 1249.22 120.903V114.441C1247.93 114.561 1246.98 114.885 1246.36 115.413C1245.74 115.929 1245.44 116.679 1245.44 117.663ZM1260.67 111.399H1263.57V123.999H1260.67V111.399ZM1266.48 114.315H1269.27V118.095H1273.48V114.315H1276.29V123.999H1273.48V120.381H1269.27V123.999H1266.48V114.315ZM1282.74 114.171C1284.24 114.171 1285.39 114.531 1286.2 115.251C1287 115.959 1287.4 117.033 1287.4 118.473V123.999H1284.78V122.793C1284.25 123.693 1283.26 124.143 1281.82 124.143C1281.08 124.143 1280.43 124.017 1279.88 123.765C1279.34 123.513 1278.93 123.165 1278.64 122.721C1278.35 122.277 1278.21 121.773 1278.21 121.209C1278.21 120.309 1278.54 119.601 1279.21 119.085C1279.9 118.569 1280.95 118.311 1282.36 118.311H1284.6C1284.6 117.699 1284.41 117.231 1284.04 116.907C1283.67 116.571 1283.11 116.403 1282.36 116.403C1281.85 116.403 1281.34 116.487 1280.83 116.655C1280.34 116.811 1279.92 117.027 1279.57 117.303L1278.57 115.341C1279.09 114.969 1279.72 114.681 1280.46 114.477C1281.2 114.273 1281.96 114.171 1282.74 114.171ZM1282.53 122.253C1283.01 122.253 1283.43 122.145 1283.8 121.929C1284.18 121.701 1284.44 121.371 1284.6 120.939V119.949H1282.67C1281.52 119.949 1280.94 120.327 1280.94 121.083C1280.94 121.443 1281.08 121.731 1281.36 121.947C1281.64 122.151 1282.03 122.253 1282.53 122.253ZM1299.13 114.315V123.999H1296.32V116.619H1293.26L1293.17 118.329C1293.13 119.601 1293.01 120.657 1292.81 121.497C1292.62 122.337 1292.31 122.997 1291.88 123.477C1291.45 123.957 1290.85 124.197 1290.08 124.197C1289.67 124.197 1289.18 124.125 1288.62 123.981L1288.76 121.677C1288.96 121.701 1289.09 121.713 1289.18 121.713C1289.6 121.713 1289.91 121.563 1290.11 121.263C1290.33 120.951 1290.47 120.561 1290.55 120.093C1290.62 119.613 1290.67 118.983 1290.71 118.203L1290.85 114.315H1299.13Z" fill="#000428"/>
<path d="M1247.8 166.999C1249.27 167.079 1250.38 167.479 1251.14 168.199C1251.91 168.906 1252.3 169.832 1252.3 170.979C1252.3 171.779 1252.11 172.492 1251.72 173.119C1251.33 173.732 1250.76 174.219 1250 174.579C1249.24 174.939 1248.31 175.119 1247.22 175.119C1246.21 175.119 1245.25 174.959 1244.34 174.639C1243.45 174.306 1242.73 173.866 1242.18 173.319L1242.88 172.179C1243.35 172.659 1243.97 173.052 1244.74 173.359C1245.51 173.652 1246.34 173.799 1247.22 173.799C1248.37 173.799 1249.25 173.552 1249.88 173.059C1250.51 172.552 1250.82 171.859 1250.82 170.979C1250.82 170.112 1250.51 169.432 1249.88 168.939C1249.25 168.446 1248.31 168.199 1247.04 168.199H1246.04V167.139L1249.92 162.279H1242.76V160.999H1251.76V162.019L1247.8 166.999ZM1258.21 160.999V174.999H1256.77V162.279H1253.47V160.999H1258.21ZM1277.27 162.279H1272.35V174.999H1270.89V162.279H1265.97V160.999H1277.27V162.279ZM1284.67 164.399C1285.66 164.399 1286.55 164.626 1287.35 165.079C1288.15 165.519 1288.78 166.146 1289.23 166.959C1289.69 167.772 1289.91 168.699 1289.91 169.739C1289.91 170.792 1289.69 171.726 1289.23 172.539C1288.78 173.352 1288.15 173.986 1287.35 174.439C1286.57 174.879 1285.67 175.099 1284.67 175.099C1283.82 175.099 1283.05 174.926 1282.35 174.579C1281.67 174.219 1281.11 173.699 1280.67 173.019V178.879H1279.25V164.479H1280.61V166.559C1281.04 165.866 1281.6 165.332 1282.29 164.959C1283 164.586 1283.79 164.399 1284.67 164.399ZM1284.57 173.839C1285.31 173.839 1285.97 173.672 1286.57 173.339C1287.17 172.992 1287.64 172.506 1287.97 171.879C1288.32 171.252 1288.49 170.539 1288.49 169.739C1288.49 168.939 1288.32 168.232 1287.97 167.619C1287.64 166.992 1287.17 166.506 1286.57 166.159C1285.97 165.812 1285.31 165.639 1284.57 165.639C1283.83 165.639 1283.15 165.812 1282.55 166.159C1281.97 166.506 1281.5 166.992 1281.15 167.619C1280.82 168.232 1280.65 168.939 1280.65 169.739C1280.65 170.539 1280.82 171.252 1281.15 171.879C1281.5 172.506 1281.97 172.992 1282.55 173.339C1283.15 173.672 1283.83 173.839 1284.57 173.839ZM1296.53 164.399C1297.9 164.399 1298.95 164.746 1299.69 165.439C1300.42 166.119 1300.79 167.132 1300.79 168.479V174.999H1299.43V173.359C1299.11 173.906 1298.63 174.332 1298.01 174.639C1297.39 174.946 1296.66 175.099 1295.81 175.099C1294.63 175.099 1293.7 174.819 1293.01 174.259C1292.31 173.699 1291.97 172.959 1291.97 172.039C1291.97 171.146 1292.29 170.426 1292.93 169.879C1293.58 169.332 1294.61 169.059 1296.03 169.059H1299.37V168.419C1299.37 167.512 1299.11 166.826 1298.61 166.359C1298.1 165.879 1297.36 165.639 1296.39 165.639C1295.72 165.639 1295.08 165.752 1294.47 165.979C1293.85 166.192 1293.33 166.492 1292.89 166.879L1292.25 165.819C1292.78 165.366 1293.42 165.019 1294.17 164.779C1294.91 164.526 1295.7 164.399 1296.53 164.399ZM1296.03 173.979C1296.83 173.979 1297.51 173.799 1298.09 173.439C1298.66 173.066 1299.09 172.532 1299.37 171.839V170.119H1296.07C1294.27 170.119 1293.37 170.746 1293.37 171.999C1293.37 172.612 1293.6 173.099 1294.07 173.459C1294.53 173.806 1295.19 173.979 1296.03 173.979ZM1311.27 169.559C1312.69 169.892 1313.41 170.752 1313.41 172.139C1313.41 173.059 1313.07 173.766 1312.39 174.259C1311.71 174.752 1310.69 174.999 1309.35 174.999H1304.57V164.479H1309.21C1310.41 164.479 1311.35 164.712 1312.03 165.179C1312.71 165.646 1313.05 166.312 1313.05 167.179C1313.05 167.752 1312.89 168.246 1312.57 168.659C1312.26 169.059 1311.83 169.359 1311.27 169.559ZM1305.95 169.159H1309.11C1309.92 169.159 1310.54 169.006 1310.97 168.699C1311.41 168.392 1311.63 167.946 1311.63 167.359C1311.63 166.772 1311.41 166.332 1310.97 166.039C1310.54 165.746 1309.92 165.599 1309.11 165.599H1305.95V169.159ZM1309.29 173.879C1310.19 173.879 1310.87 173.732 1311.33 173.439C1311.78 173.146 1312.01 172.686 1312.01 172.059C1312.01 171.432 1311.8 170.972 1311.39 170.679C1310.97 170.372 1310.32 170.219 1309.43 170.219H1305.95V173.879H1309.29ZM1316.73 164.479H1318.15V169.139H1324.77V164.479H1326.19V174.999H1324.77V170.359H1318.15V174.999H1316.73V164.479ZM1338.31 164.479V174.999H1337.01V171.519H1333.71H1333.31L1330.87 174.999H1329.33L1331.95 171.319C1331.14 171.092 1330.51 170.706 1330.07 170.159C1329.63 169.612 1329.41 168.919 1329.41 168.079C1329.41 166.906 1329.81 166.012 1330.61 165.399C1331.41 164.786 1332.5 164.479 1333.89 164.479H1338.31ZM1330.85 168.119C1330.85 169.679 1331.84 170.459 1333.83 170.459H1337.01V165.739H1333.93C1331.88 165.739 1330.85 166.532 1330.85 168.119Z" fill="#6F838D"/>
<g clip-path="url(#clip4)">
<path d="M1188.22 124.136C1187.58 124.136 1187.05 123.614 1187.05 122.967C1187.05 122.32 1187.57 121.794 1188.22 121.792C1191.16 121.783 1193.96 120.006 1196.11 116.787C1198.16 113.698 1199.37 109.659 1199.55 105.308H1194.39C1193.74 105.308 1193.22 104.783 1193.22 104.136C1193.22 103.489 1193.74 102.964 1194.39 102.964H1200.75C1201.4 102.964 1201.92 103.489 1201.92 104.136C1201.92 109.387 1200.55 114.341 1198.06 118.086C1195.47 121.976 1191.98 124.124 1188.23 124.136C1188.23 124.136 1188.23 124.136 1188.22 124.136Z" fill="#FF8E1D"/>
<path d="M1175.62 124.136C1175.62 124.136 1175.62 124.136 1175.62 124.136C1171.87 124.124 1168.37 121.976 1165.79 118.086C1163.29 114.341 1161.92 109.387 1161.92 104.136C1161.92 103.489 1162.45 102.964 1163.09 102.964H1169.45C1170.1 102.964 1170.62 103.489 1170.62 104.136C1170.62 104.783 1170.1 105.308 1169.45 105.308H1164.29C1164.47 109.659 1165.68 113.698 1167.74 116.787C1169.88 120.006 1172.68 121.783 1175.62 121.792C1176.27 121.794 1176.79 122.32 1176.79 122.967C1176.79 123.614 1176.27 124.136 1175.62 124.136Z" fill="#FFB023"/>
<path d="M1194.47 100.077H1169.37C1168.72 100.077 1168.2 100.602 1168.2 101.249C1168.2 108.133 1169.55 114.623 1172 119.524C1173.57 122.664 1175.49 124.944 1177.61 126.249V132.629C1177.61 133.276 1178.14 133.801 1178.78 133.801H1185.06C1185.71 133.801 1186.23 133.276 1186.23 132.629V126.249C1188.36 124.944 1190.28 122.664 1191.85 119.524C1194.3 114.623 1195.65 108.133 1195.65 101.249C1195.65 100.602 1195.12 100.077 1194.47 100.077Z" fill="#FFD12B"/>
<path d="M1186.23 132.629V126.249C1188.36 124.944 1190.28 122.664 1191.85 119.524C1194.3 114.623 1195.65 108.133 1195.65 101.249C1195.65 100.602 1195.12 100.077 1194.47 100.077H1181.92V133.801H1185.06C1185.71 133.801 1186.23 133.276 1186.23 132.629Z" fill="#FFB023"/>
<path d="M1188.2 131.457H1175.65C1173.27 131.457 1171.34 133.391 1171.34 135.767V138.905C1171.34 139.552 1171.86 140.077 1172.51 140.077H1191.34C1191.98 140.077 1192.51 139.552 1192.51 138.905V135.767C1192.51 133.391 1190.57 131.457 1188.2 131.457Z" fill="#FF8E1D"/>
<path d="M1188.2 131.457H1181.92V140.077H1191.34C1191.98 140.077 1192.51 139.552 1192.51 138.905V135.767C1192.51 133.391 1190.57 131.457 1188.2 131.457Z" fill="#FF6D15"/>
<path d="M1192.59 140.077H1171.25C1170.61 140.077 1170.08 139.552 1170.08 138.905C1170.08 138.258 1170.61 137.733 1171.25 137.733H1192.59C1193.24 137.733 1193.76 138.258 1193.76 138.905C1193.76 139.552 1193.24 140.077 1192.59 140.077Z" fill="#FFB023"/>
<path d="M1192.59 137.733H1181.92V140.077H1192.59C1193.24 140.077 1193.76 139.552 1193.76 138.905C1193.76 138.258 1193.24 137.733 1192.59 137.733Z" fill="#FF8E1D"/>
</g>
<g clip-path="url(#clip5)">
<path d="M795.172 103.137H832.828C833.475 103.137 834 103.662 834 104.309V123.137C834 123.784 833.475 124.309 832.828 124.309H795.172C794.525 124.309 794 123.784 794 123.137V104.309C794 103.662 794.525 103.137 795.172 103.137Z" fill="#EBF6FF"/>
<path d="M795.172 103.137H814V124.309H795.172C794.525 124.309 794 123.784 794 123.137V104.309C794 103.662 794.525 103.137 795.172 103.137Z" fill="#B2DCFF"/>
<path d="M795.172 103.137H804.586C805.233 103.137 805.758 103.662 805.758 104.309V112.551H812.828V104.309C812.828 103.662 813.353 103.137 814 103.137H823.414C824.061 103.137 824.586 103.662 824.586 104.309V112.551H832.828C833.475 112.551 834 113.076 834 113.723V123.137C834 123.784 833.475 124.309 832.828 124.309H823.414C822.767 124.309 822.242 123.784 822.242 123.137V114.895H815.172V123.137C815.172 123.784 814.647 124.309 814 124.309H804.586C803.939 124.309 803.414 123.784 803.414 123.137V114.895H795.172C794.525 114.895 794 114.37 794 113.723V104.309C794 103.662 794.525 103.137 795.172 103.137Z" fill="#005AB1"/>
<path d="M795.172 103.137H804.586C805.233 103.137 805.758 103.662 805.758 104.309V112.551H812.828V104.309C812.828 103.662 813.353 103.137 814 103.137V124.309H804.586C803.939 124.309 803.414 123.784 803.414 123.137V114.895H795.172C794.525 114.895 794 114.37 794 113.723V104.309C794 103.662 794.525 103.137 795.172 103.137Z" fill="#00345C"/>
<path d="M832.828 139.999C833.475 139.999 834 139.474 834 138.827V101.171C834 100.524 833.475 99.999 832.828 99.999C832.181 99.999 831.656 100.524 831.656 101.171V138.827C831.656 139.474 832.181 139.999 832.828 139.999Z" fill="#BB5D4C"/>
<path d="M795.172 139.999C795.819 139.999 796.344 139.474 796.344 138.827V101.171C796.344 100.524 795.819 99.999 795.172 99.999C794.525 99.999 794 100.524 794 101.171V138.827C794 139.474 794.525 139.999 795.172 139.999Z" fill="#A44F3E"/>
</g>
<defs>
<linearGradient id="paint0_linear" x1="-31" y1="137.999" x2="468" y2="137.999" gradientUnits="userSpaceOnUse">
<stop stop-color="#ACFCFA"/>
<stop offset="1" stop-color="white" stop-opacity="0"/>
</linearGradient>
<linearGradient id="paint1_linear" x1="-31" y1="137.999" x2="468" y2="137.999" gradientUnits="userSpaceOnUse">
<stop stop-color="#ACFCFA"/>
<stop offset="1" stop-color="white" stop-opacity="0"/>
</linearGradient>
<linearGradient id="paint2_linear" x1="-31" y1="137.999" x2="468" y2="137.999" gradientUnits="userSpaceOnUse">
<stop stop-color="#ACFCFA"/>
<stop offset="1" stop-color="white" stop-opacity="0"/>
</linearGradient>
<linearGradient id="paint3_linear" x1="339" y1="137.999" x2="838" y2="137.999" gradientUnits="userSpaceOnUse">
<stop stop-color="#ACFCFA"/>
<stop offset="1" stop-color="white" stop-opacity="0"/>
</linearGradient>
<linearGradient id="paint4_linear" x1="339" y1="137.999" x2="838" y2="137.999" gradientUnits="userSpaceOnUse">
<stop stop-color="#ACFCFA"/>
<stop offset="1" stop-color="white" stop-opacity="0"/>
</linearGradient>
<linearGradient id="paint5_linear" x1="339" y1="137.999" x2="838" y2="137.999" gradientUnits="userSpaceOnUse">
<stop stop-color="#ACFCFA"/>
<stop offset="1" stop-color="white" stop-opacity="0"/>
</linearGradient>
<linearGradient id="paint6_linear" x1="709" y1="137.999" x2="1208" y2="137.999" gradientUnits="userSpaceOnUse">
<stop stop-color="#ACFCFA"/>
<stop offset="1" stop-color="white" stop-opacity="0"/>
</linearGradient>
<linearGradient id="paint7_linear" x1="709" y1="137.999" x2="1208" y2="137.999" gradientUnits="userSpaceOnUse">
<stop stop-color="#ACFCFA"/>
<stop offset="1" stop-color="white" stop-opacity="0"/>
</linearGradient>
<linearGradient id="paint8_linear" x1="709" y1="137.999" x2="1208" y2="137.999" gradientUnits="userSpaceOnUse">
<stop stop-color="#ACFCFA"/>
<stop offset="1" stop-color="white" stop-opacity="0"/>
</linearGradient>
<linearGradient id="paint9_linear" x1="1079" y1="137.999" x2="1578" y2="137.999" gradientUnits="userSpaceOnUse">
<stop stop-color="#ACFCFA"/>
<stop offset="1" stop-color="white" stop-opacity="0"/>
</linearGradient>
<linearGradient id="paint10_linear" x1="1079" y1="137.999" x2="1578" y2="137.999" gradientUnits="userSpaceOnUse">
<stop stop-color="#ACFCFA"/>
<stop offset="1" stop-color="white" stop-opacity="0"/>
</linearGradient>
<linearGradient id="paint11_linear" x1="1079" y1="137.999" x2="1578" y2="137.999" gradientUnits="userSpaceOnUse">
<stop stop-color="#ACFCFA"/>
<stop offset="1" stop-color="white" stop-opacity="0"/>
</linearGradient>
<clipPath id="clip0">
<rect x="331.5" y="127.499" width="21" height="21" fill="white"/>
</clipPath>
<clipPath id="clip1">
<rect x="58" y="99.999" width="40" height="40" fill="white"/>
</clipPath>
<clipPath id="clip2">
<rect x="703.5" y="127.499" width="21" height="21" fill="white"/>
</clipPath>
<clipPath id="clip3">
<rect x="1071.5" y="128.499" width="21" height="21" fill="white"/>
</clipPath>
<clipPath id="clip4">
<rect x="1162" y="99.999" width="40" height="40" fill="white"/>
</clipPath>
<clipPath id="clip5">
<rect width="40" height="40" transform="matrix(-1 0 0 1 834 99.999)" fill="white"/>
</clipPath>
</defs>
</svg>
