<svg width="890" height="971" viewBox="0 0 890 971" fill="none" xmlns="http://www.w3.org/2000/svg">
<path opacity="0.388" d="M-61.0802 886.881C-339.907 844.066 -415.029 758.52 -275.816 639.421C-151.406 532.987 -253.32 578.298 -61.0802 485.852C131.16 393.407 693.5 223.5 859.216 463.045C890.5 506 816.61 618.135 671.749 639.421C568.241 654.631 480.872 752.318 671.749 781.587C843.452 819.599 585.378 943.447 463.404 961.005C196.688 999.397 134.483 916.91 -61.0802 886.881Z" fill="url(#paint0_linear)"/>
<g opacity="0.464" filter="url(#filter0_f)">
<ellipse cx="461" cy="501.5" rx="363" ry="17.5" fill="#131C38"/>
</g>
<g clip-path="url(#clip0)">
<path opacity="0.18" d="M251.609 584.767C245.82 582.714 235.459 583.487 235.459 583.487C236.862 583.177 237.088 582.482 236.126 581.946C234.998 581.318 232.78 581.196 231.613 581.361C230.436 581.525 230.691 581.921 229.651 582.573C227.924 583.652 225.697 583.494 225.098 584.261C224.961 584.438 224.912 584.676 225.098 584.999C222.027 587.168 212.324 592.17 206.319 594.206C199.009 596.679 187.893 602.529 185.744 604.881C183.596 607.227 181.594 607.44 181.594 607.44C180.966 607.611 180.23 607.812 179.396 608.025C180.063 606.63 179.602 604.973 179.328 603.961C178.896 602.401 180.946 599.3 183.429 597.764C185.921 596.229 200.648 583.737 202.914 581.422C203.14 581.19 203.199 580.989 203.169 580.794L204.847 580.928C204.847 580.928 204.926 580.879 205.063 580.806C208.419 580.873 212.981 581.099 214.943 581.068C215.1 581.202 215.188 581.294 215.188 581.294C215.188 581.294 221.016 581.074 221.664 580.672C222.321 580.27 225.549 580.526 219.761 578.473C213.972 576.419 203.611 577.193 203.611 577.193C205.014 576.882 205.24 576.188 204.278 575.651C203.15 575.024 200.932 574.902 199.765 575.066C198.587 575.231 198.843 575.627 197.803 576.279C196.076 577.357 193.849 577.199 193.25 577.967C193.073 578.198 193.024 578.527 193.495 579.015H193.485C193.485 579.015 193.485 579.015 191.435 582.11C189.384 585.206 169.133 593.322 166.278 595.552C160.686 599.921 162 604.601 162 604.601C159.155 606.142 154.524 608.257 147.862 609.677C142.819 610.749 141.357 610.42 135.774 611.651C132.38 612.4 125.217 613.985 120.802 617.238C119.301 618.341 118.447 619.408 117.937 620.34C115.474 620.901 114.091 621.321 114.091 621.321C113.718 622.674 109.293 628.785 105.143 631.351C104.289 631.875 103.073 632.533 101.66 633.252C98.6968 633.282 98.0198 633.313 96.6757 632.082C96.6757 632.082 94.7036 635.147 91.9171 638.023C88.7774 639.546 85.9223 640.972 84.323 641.965C83.6264 642.398 83.2339 642.843 83.0377 643.281C76.7289 645.14 66.4661 649.874 68.193 653.037C70.0277 656.406 72.6866 659.264 81.252 660.727C83.9894 661.196 87.1978 661.488 90.3473 661.561C90.2295 661.823 90.0529 662.037 89.8076 662.189C86.4914 664.236 90.0725 668.782 96.0477 669.586L124.177 676.789C125.718 677.185 127.768 677.008 128.759 676.393L132.389 674.15C132.949 674.223 133.508 674.266 134.057 674.248C138.551 674.089 140.425 670.653 140.69 670.147C141.691 668.307 140.896 667.009 140.513 665.754C139.336 661.848 143.005 661.056 143.565 657.113C144.232 652.452 139.748 648.887 134.734 645.353C138.07 643.872 140.356 642.105 139.081 640.747C136.422 637.889 140.935 633.977 147.941 628.523C152.827 623.253 170.595 621.284 170.595 621.284C169.791 621.035 168.976 620.803 168.172 620.584C176.551 618.183 191.955 613.826 195.418 613.15C200.236 612.211 200.883 608.75 202.208 606.916C203.532 605.082 230.749 590.312 233.722 587.448C233.85 587.326 233.909 587.223 233.987 587.107C234.272 587.095 234.596 587.082 234.959 587.082L236.676 587.217C236.676 587.217 236.754 587.168 236.891 587.095C240.247 587.162 244.809 587.387 246.772 587.357C246.938 587.491 247.017 587.582 247.017 587.582C247.017 587.582 252.845 587.363 253.492 586.961C254.169 586.565 257.397 586.82 251.609 584.767ZM103.632 662.841C103.2 662.731 102.72 662.67 102.239 662.646C102.013 662 101.866 661.251 101.886 660.452C103.22 660.014 104.181 659.447 104.535 658.728C105.467 656.821 104.456 654.932 103.485 653.707C103.377 652.098 102.955 650.337 102.415 648.747C103.76 648.558 105.143 648.467 106.958 648.022C111.128 648.113 115.17 648.199 118.281 648.247C118.536 648.394 118.771 648.54 118.997 648.662C124.972 652.007 128.975 651.903 130.672 653.829C132.458 655.846 128.229 656.151 129.191 659.246C130.005 661.884 133.41 662.768 132.399 665.144C132.272 665.437 131.644 666.131 130.368 667.521C129.711 668.24 129.161 668.806 128.7 669.269L103.632 662.841Z" fill="url(#paint1_linear)"/>
<path d="M755.055 454.935H135.285C126.853 454.935 120.007 448.099 120.007 439.657V15.7685C120.007 7.33581 126.843 0.489746 135.285 0.489746H755.055C763.488 0.489746 770.334 7.32602 770.334 15.7685V439.657C770.334 448.099 763.498 454.935 755.055 454.935Z" stroke="black" stroke-miterlimit="10"/>
<path d="M794.721 454.935H135.834C127.401 454.935 120.555 448.099 120.555 439.657V15.7685C120.555 7.33581 127.391 0.489746 135.834 0.489746H794.721C803.154 0.489746 810 7.32602 810 15.7685V439.657C810 448.099 803.164 454.935 794.721 454.935Z" fill="url(#paint2_linear)"/>
<path d="M793.683 454.935H134.796C126.363 454.935 119.517 448.099 119.517 439.657V100.977C119.517 92.5443 126.353 85.6982 134.796 85.6982H793.693C802.125 85.6982 808.972 92.5345 808.972 100.977V439.657C808.962 448.099 802.125 454.935 793.683 454.935Z" fill="url(#paint3_linear)"/>
<path d="M809.481 23.9956H120.036V15.7685C120.036 7.33581 126.872 0.489746 135.315 0.489746H794.212C802.645 0.489746 809.491 7.32602 809.491 15.7685V23.9956H809.481Z" fill="#2C335E"/>
<path d="M794.202 455.425H633.707V85.6982H809.481V440.146C809.481 448.589 802.645 455.425 794.202 455.425Z" fill="url(#paint4_linear)"/>
<path d="M226.615 47.041L223.736 52.5845V55.3464H221.718V52.5845L218.829 47.041H221.131L222.727 50.4298L224.324 47.041H226.615Z" fill="white"/>
<path d="M233.471 47.4523C234.108 47.8147 234.617 48.324 234.98 48.9704C235.352 49.6168 235.528 50.3513 235.528 51.1642C235.528 51.9771 235.342 52.7117 234.97 53.3581C234.598 54.0045 234.088 54.5138 233.452 54.8762C232.815 55.2386 232.11 55.4247 231.326 55.4247C230.553 55.4247 229.848 55.2386 229.201 54.8762C228.564 54.5138 228.055 54.0045 227.683 53.3581C227.311 52.7117 227.125 51.9771 227.125 51.1642C227.125 50.3513 227.311 49.6168 227.683 48.9704C228.055 48.324 228.564 47.8147 229.201 47.4523C229.838 47.0899 230.543 46.9038 231.326 46.9038C232.12 46.9038 232.835 47.0899 233.471 47.4523ZM229.769 49.4209C229.377 49.8518 229.191 50.4297 229.191 51.1642C229.191 51.889 229.387 52.4766 229.769 52.9076C230.151 53.3385 230.68 53.554 231.336 53.554C231.983 53.554 232.512 53.3385 232.903 52.9076C233.295 52.4766 233.491 51.8988 233.491 51.1642C233.491 50.4297 233.295 49.8518 232.913 49.4209C232.521 48.9899 232.002 48.7745 231.346 48.7745C230.68 48.7745 230.151 48.9899 229.769 49.4209Z" fill="white"/>
<path d="M238.613 47.041V51.8401C238.613 52.3886 238.741 52.8098 238.985 53.0938C239.23 53.3876 239.593 53.5345 240.063 53.5345C240.533 53.5345 240.895 53.3876 241.14 53.0938C241.385 52.8098 241.512 52.3886 241.512 51.8401V47.041H243.52V51.8401C243.52 52.6237 243.363 53.2799 243.06 53.8186C242.756 54.3572 242.335 54.7588 241.806 55.033C241.277 55.3073 240.68 55.4346 240.014 55.4346C239.348 55.4346 238.76 55.2975 238.251 55.033C237.742 54.7686 237.34 54.367 237.056 53.8186C236.762 53.2799 236.625 52.6139 236.625 51.8303V47.0312H238.613V47.041Z" fill="white"/>
<path d="M250.817 47.041V48.6375H248.564V55.3464H246.546V48.6375H244.313V47.041H250.817Z" fill="white"/>
<path d="M253.618 47.041V51.8401C253.618 52.3886 253.745 52.8098 253.99 53.0938C254.235 53.3876 254.597 53.5345 255.067 53.5345C255.537 53.5345 255.9 53.3876 256.144 53.0938C256.389 52.8098 256.517 52.3886 256.517 51.8401V47.041H258.524V51.8401C258.524 52.6237 258.368 53.2799 258.064 53.8186C257.761 54.3572 257.339 54.7588 256.81 55.033C256.282 55.3073 255.684 55.4346 255.018 55.4346C254.352 55.4346 253.765 55.2975 253.255 55.033C252.746 54.7686 252.344 54.367 252.06 53.8186C251.776 53.2799 251.629 52.6139 251.629 51.8303V47.0312H253.618V47.041Z" fill="white"/>
<path d="M266.037 51.8009C266.33 52.1731 266.477 52.5942 266.477 53.0839C266.477 53.7989 266.242 54.3572 265.762 54.7587C265.292 55.1603 264.607 55.3562 263.725 55.3562H259.856V47.0508H263.627C264.469 47.0508 265.126 47.2369 265.586 47.5992C266.046 47.9616 266.281 48.4905 266.281 49.1761C266.281 49.6756 266.144 50.0967 265.88 50.4297C265.615 50.7627 265.263 50.9782 264.832 51.0859C265.341 51.1839 265.743 51.4287 266.037 51.8009ZM261.864 50.4297H263.177C263.872 50.4297 264.225 50.1359 264.225 49.5385C264.225 48.941 263.872 48.6472 263.157 48.6472H261.864V50.4297ZM264.42 52.7999C264.42 52.5061 264.323 52.271 264.127 52.1045C263.931 51.938 263.657 51.8499 263.294 51.8499H261.874V53.7206H263.304C264.048 53.7108 264.42 53.4071 264.42 52.7999Z" fill="white"/>
<path d="M269.543 48.6375V50.3808H272.354V51.8989H269.543V53.7402H272.706V55.3464H267.535V47.041H272.706V48.6375H269.543Z" fill="white"/>
<path d="M169.457 51.5266H154.452C154.09 51.5266 153.796 51.8204 153.796 52.1828C153.796 52.5452 154.09 52.839 154.452 52.839H169.457C169.819 52.839 170.113 52.5452 170.113 52.1828C170.123 51.8204 169.829 51.5266 169.457 51.5266Z" fill="white"/>
<path d="M169.457 46.522H154.452C154.09 46.522 153.796 46.8158 153.796 47.1782C153.796 47.5406 154.09 47.8344 154.452 47.8344H169.457C169.819 47.8344 170.113 47.5406 170.113 47.1782C170.123 46.8158 169.829 46.522 169.457 46.522Z" fill="white"/>
<path d="M169.457 56.5217H154.452C154.09 56.5217 153.796 56.8156 153.796 57.1779C153.796 57.5403 154.09 57.8341 154.452 57.8341H169.457C169.819 57.8341 170.113 57.5403 170.113 57.1779C170.113 56.8156 169.829 56.5217 169.457 56.5217Z" fill="white"/>
<path d="M206.106 41.7424H187.664C186.264 41.7424 185.127 42.8785 185.127 44.2791V58.2944C185.127 59.695 186.264 60.8311 187.664 60.8311H206.106C207.507 60.8311 208.643 59.695 208.643 58.2944V44.2791C208.643 42.8785 207.507 41.7424 206.106 41.7424Z" fill="#FF4949"/>
<path d="M206.106 41.7424H196.89V60.8213H206.106C207.507 60.8213 208.643 59.6852 208.643 58.2846V44.2791C208.643 42.8785 207.507 41.7424 206.106 41.7424Z" fill="#F30051"/>
<path d="M201.082 49.842L195.529 47.0703C195.196 46.9038 194.872 46.8254 194.549 46.8254C193.57 46.8254 192.884 47.5992 192.884 48.7059V53.8674C192.884 54.9741 193.57 55.7478 194.549 55.7478C194.872 55.7478 195.196 55.6597 195.529 55.503L201.082 52.7313C201.758 52.3983 202.14 51.8694 202.14 51.2915C202.14 50.7039 201.758 50.175 201.082 49.842Z" fill="#E7F0EF"/>
<path d="M201.082 49.842L196.89 47.7461V54.8174L201.082 52.7215C201.758 52.3885 202.14 51.8596 202.14 51.2818C202.14 50.7039 201.758 50.175 201.082 49.842Z" fill="#C5E1E6"/>
<path opacity="0.18" d="M564.139 60.5176H332.078C330.442 60.5176 329.11 59.1856 329.11 57.55V46.8353C329.11 45.1997 330.442 43.8677 332.078 43.8677H564.139C565.775 43.8677 567.107 45.1997 567.107 46.8353V57.55C567.107 59.1856 565.775 60.5176 564.139 60.5176Z" fill="white"/>
<path opacity="0.18" d="M564.139 60.2337H542.651C541.015 60.2337 539.683 58.9017 539.683 57.2661V46.5513C539.683 44.9157 541.015 43.5837 542.651 43.5837H564.139C565.775 43.5837 567.107 44.9157 567.107 46.5513V57.2661C567.107 58.9017 565.775 60.2337 564.139 60.2337Z" fill="white"/>
<path d="M552.416 54.3572C554.038 54.3572 555.354 53.0417 555.354 51.4189C555.354 49.7962 554.038 48.4807 552.416 48.4807C550.793 48.4807 549.477 49.7962 549.477 51.4189C549.477 53.0417 550.793 54.3572 552.416 54.3572Z" stroke="white" stroke-miterlimit="10"/>
<path d="M555.844 55.8264L554.002 53.9851" stroke="white" stroke-miterlimit="10" stroke-linecap="round"/>
<path d="M342.087 53.4662C341.99 53.6327 341.852 53.7698 341.657 53.8776C341.461 53.9853 341.226 54.0343 340.942 54.0343C340.667 54.0343 340.422 53.9853 340.207 53.8874C339.992 53.7894 339.825 53.6523 339.698 53.476C339.57 53.2997 339.492 53.1038 339.472 52.8786H340.041C340.05 52.9961 340.089 53.1136 340.158 53.2214C340.227 53.3389 340.325 53.427 340.452 53.4956C340.579 53.5642 340.736 53.6033 340.912 53.6033C341.147 53.6033 341.324 53.5446 341.451 53.4172C341.578 53.2899 341.637 53.1332 341.637 52.9373C341.637 52.7708 341.598 52.6337 341.51 52.526C341.421 52.4182 341.314 52.3399 341.186 52.2811C341.059 52.2224 340.883 52.1538 340.658 52.0852C340.393 51.9971 340.187 51.9187 340.021 51.8404C339.854 51.762 339.727 51.6445 339.619 51.4976C339.512 51.3409 339.453 51.145 339.453 50.8904C339.453 50.6749 339.502 50.4888 339.61 50.3223C339.717 50.1558 339.864 50.0285 340.06 49.9403C340.256 49.8522 340.481 49.8032 340.746 49.8032C341.157 49.8032 341.48 49.9012 341.715 50.097C341.95 50.2929 342.097 50.5476 342.136 50.8512H341.559C341.529 50.6847 341.441 50.5378 341.304 50.4105C341.167 50.2831 340.981 50.2244 340.746 50.2244C340.53 50.2244 340.354 50.2831 340.227 50.3909C340.099 50.4986 340.031 50.6553 340.031 50.861C340.031 51.0177 340.07 51.1548 340.158 51.2528C340.246 51.3507 340.344 51.429 340.471 51.4878C340.599 51.5466 340.765 51.6053 340.991 51.6837C341.255 51.7718 341.47 51.8502 341.637 51.9285C341.803 52.0069 341.941 52.1244 342.048 52.2811C342.166 52.4378 342.215 52.6533 342.215 52.9079C342.225 53.1136 342.176 53.2899 342.087 53.4662Z" fill="white"/>
<path d="M345.888 52.4964H343.312C343.322 52.8686 343.429 53.1428 343.625 53.3289C343.821 53.515 344.066 53.6031 344.35 53.6031C344.605 53.6031 344.83 53.5346 344.996 53.4072C345.173 53.2799 345.28 53.1036 345.32 52.8784H345.888C345.849 53.1036 345.76 53.2995 345.623 53.4758C345.486 53.6521 345.31 53.7892 345.094 53.8872C344.879 53.9851 344.634 54.0341 344.37 54.0341C344.056 54.0341 343.782 53.9655 343.547 53.8284C343.312 53.7011 343.126 53.5052 342.989 53.2603C342.852 53.0155 342.783 52.7217 342.783 52.3789C342.783 52.0361 342.852 51.752 342.989 51.4974C343.126 51.2428 343.312 51.0567 343.547 50.9195C343.782 50.7824 344.056 50.7139 344.37 50.7139C344.683 50.7139 344.957 50.7824 345.192 50.9195C345.427 51.0469 345.604 51.233 345.731 51.4484C345.858 51.6639 345.917 51.9185 345.917 52.1928C345.907 52.3103 345.897 52.4082 345.888 52.4964ZM345.251 51.6345C345.163 51.4778 345.036 51.3505 344.879 51.2721C344.722 51.1938 344.556 51.1546 344.37 51.1546C344.076 51.1546 343.831 51.2427 343.625 51.4288C343.429 51.6149 343.322 51.8794 343.302 52.232H345.369C345.378 51.9969 345.339 51.7912 345.251 51.6345Z" fill="white"/>
<path d="M348.728 50.9587C348.943 51.1155 349.1 51.3309 349.188 51.5856V50.7629H349.727V53.9851H349.188V53.1624C349.1 53.4269 348.953 53.6325 348.728 53.7892C348.512 53.9459 348.248 54.0243 347.934 54.0243C347.65 54.0243 347.396 53.9557 347.171 53.8186C346.945 53.6913 346.769 53.4954 346.642 53.2506C346.514 53.0057 346.456 52.7119 346.456 52.3691C346.456 52.0263 346.514 51.7423 346.642 51.4876C346.769 51.233 346.945 51.0469 347.171 50.9098C347.396 50.7727 347.65 50.7041 347.934 50.7041C348.248 50.7237 348.512 50.802 348.728 50.9587ZM347.288 51.517C347.092 51.7227 346.994 52.0165 346.994 52.3887C346.994 52.7609 347.092 53.0449 347.288 53.2506C347.484 53.4562 347.748 53.564 348.081 53.564C348.297 53.564 348.483 53.515 348.649 53.4171C348.816 53.3191 348.943 53.182 349.041 53.0057C349.139 52.8294 349.178 52.6237 349.178 52.3887C349.178 52.1536 349.129 51.9479 349.041 51.7619C348.953 51.5758 348.816 51.4485 348.649 51.3505C348.483 51.2526 348.297 51.2036 348.081 51.2036C347.758 51.2036 347.494 51.3015 347.288 51.517Z" fill="white"/>
<path d="M351.568 50.9C351.774 50.7726 352.019 50.7139 352.293 50.7139V51.2917H352.126C351.823 51.2917 351.578 51.3701 351.382 51.5268C351.186 51.6835 351.098 51.9381 351.098 52.2907V53.9851H350.559V50.7628H351.098V51.419C351.206 51.1938 351.362 51.0175 351.568 50.9Z" fill="white"/>
<path d="M355.28 51.0567C355.554 51.2722 355.721 51.5758 355.78 51.9382H355.211C355.172 51.7031 355.065 51.5268 354.888 51.3995C354.712 51.2722 354.497 51.2036 354.242 51.2036C354.056 51.2036 353.879 51.2428 353.733 51.3309C353.576 51.4191 353.449 51.5464 353.36 51.7227C353.262 51.899 353.223 52.1242 353.223 52.3887C353.223 52.6531 353.272 52.8686 353.36 53.0449C353.458 53.2212 353.576 53.3583 353.733 53.4367C353.889 53.5248 354.056 53.564 354.242 53.564C354.497 53.564 354.722 53.4954 354.888 53.3681C355.065 53.231 355.172 53.0547 355.211 52.8196H355.78C355.721 53.1918 355.554 53.4856 355.28 53.7011C355.006 53.9166 354.673 54.0243 354.261 54.0243C353.948 54.0243 353.674 53.9557 353.439 53.8186C353.204 53.6913 353.018 53.4954 352.88 53.2506C352.743 53.0057 352.675 52.7119 352.675 52.3691C352.675 52.0263 352.743 51.7423 352.88 51.4876C353.018 51.233 353.204 51.0469 353.439 50.9098C353.674 50.7727 353.948 50.7041 354.261 50.7041C354.663 50.7237 355.006 50.8314 355.28 51.0567Z" fill="white"/>
<path d="M359.08 51.0762C359.315 51.3211 359.423 51.6638 359.423 52.1144V53.985H358.884V52.1536C358.884 51.8303 358.806 51.5855 358.64 51.4092C358.473 51.2329 358.248 51.1546 357.974 51.1546C357.68 51.1546 357.445 51.2525 357.268 51.4386C357.092 51.6247 357.004 51.9087 357.004 52.2711V53.985H356.465V49.6365H357.004V51.5267C357.082 51.2623 357.229 51.0664 357.445 50.9195C357.65 50.7824 357.895 50.704 358.17 50.704C358.551 50.7138 358.855 50.8314 359.08 51.0762Z" fill="white"/>
<path d="M362.098 53.3582V53.9858H361.45V53.3582H362.098Z" fill="white"/>
<path d="M363.107 53.3582V53.9858H362.459V53.3582H363.107Z" fill="white"/>
<path d="M364.106 53.3582V53.9858H363.458V53.3582H364.106Z" fill="white"/>
<path d="M592.16 361.51H160.877C156.646 361.51 153.208 358.082 153.208 353.841V129.223C153.208 124.992 156.636 121.554 160.877 121.554H592.16C596.391 121.554 599.829 124.982 599.829 129.223V353.851C599.819 358.082 596.391 361.51 592.16 361.51Z" fill="url(#paint5_linear)"/>
<path d="M364.428 223.746L390.294 240.21C391.264 240.827 391.264 242.237 390.294 242.854L364.428 259.318C363.38 259.984 362.019 259.23 362.019 257.996V225.068C362.009 223.834 363.38 223.08 364.428 223.746Z" fill="white"/>
<path d="M574.452 351.118H167.018C165.128 351.118 163.59 349.58 163.59 347.69C163.59 345.8 165.128 344.262 167.018 344.262H574.452C576.343 344.262 577.88 345.8 577.88 347.69C577.88 349.58 576.343 351.118 574.452 351.118Z" fill="#293362"/>
<path d="M299.238 351.118H167.018C165.128 351.118 163.59 349.58 163.59 347.69C163.59 345.8 165.128 344.262 167.018 344.262H299.238C301.129 344.262 302.666 345.8 302.666 347.69C302.666 349.58 301.129 351.118 299.238 351.118Z" fill="url(#paint6_linear)"/>
<path d="M373.674 399.109H159.183C155.667 399.109 152.817 396.259 152.817 392.743C152.817 389.227 155.667 386.377 159.183 386.377H373.674C377.19 386.377 380.04 389.227 380.04 392.743C380.04 396.259 377.19 399.109 373.674 399.109Z" fill="#111B3A"/>
<path opacity="0.53" d="M244.391 410.862H156.245C154.893 410.862 153.796 409.765 153.796 408.413C153.796 407.062 154.893 405.965 156.245 405.965H244.391C245.743 405.965 246.84 407.062 246.84 408.413C246.84 409.765 245.743 410.862 244.391 410.862Z" fill="#111B3A"/>
<path d="M162.121 442.203C167.26 442.203 171.426 438.037 171.426 432.899C171.426 427.76 167.26 423.594 162.121 423.594C156.983 423.594 152.817 427.76 152.817 432.899C152.817 438.037 156.983 442.203 162.121 442.203Z" fill="url(#paint7_linear)"/>
<path d="M702.079 133.689H652.511C651.865 133.689 651.346 133.17 651.346 132.524V103.523C651.346 102.877 651.865 102.358 652.511 102.358H702.079C702.725 102.358 703.245 102.877 703.245 103.523V132.524C703.245 133.17 702.716 133.689 702.079 133.689Z" fill="url(#paint8_linear)"/>
<path d="M714.645 109.802C715.532 109.802 716.251 109.069 716.251 108.166C716.251 107.263 715.532 106.53 714.645 106.53C713.758 106.53 713.039 107.263 713.039 108.166C713.039 109.069 713.758 109.802 714.645 109.802Z" fill="#C676F3"/>
<path d="M742.989 109.802H719.493C718.592 109.802 717.857 109.067 717.857 108.166C717.857 107.265 718.592 106.53 719.493 106.53H742.989C743.89 106.53 744.625 107.265 744.625 108.166C744.634 109.067 743.9 109.802 742.989 109.802Z" fill="#131C38"/>
<path d="M757.455 109.802H747.876C746.975 109.802 746.24 109.067 746.24 108.166C746.24 107.265 746.975 106.53 747.876 106.53H757.455C758.356 106.53 759.09 107.265 759.09 108.166C759.09 109.067 758.356 109.802 757.455 109.802Z" fill="url(#paint9_linear)"/>
<path d="M779.942 109.802H761.803C760.902 109.802 760.168 109.067 760.168 108.166C760.168 107.265 760.902 106.53 761.803 106.53H779.942C780.843 106.53 781.578 107.265 781.578 108.166C781.578 109.067 780.853 109.802 779.942 109.802Z" fill="url(#paint10_linear)"/>
<path d="M785.838 109.802H784.829C783.928 109.802 783.194 109.067 783.194 108.166C783.194 107.265 783.928 106.53 784.829 106.53H785.838C786.739 106.53 787.474 107.265 787.474 108.166C787.474 109.067 786.739 109.802 785.838 109.802Z" fill="#131C38"/>
<path d="M724.253 116.364H714.674C713.773 116.364 713.039 115.629 713.039 114.728C713.039 113.827 713.773 113.092 714.674 113.092H724.253C725.154 113.092 725.888 113.827 725.888 114.728C725.888 115.629 725.154 116.364 724.253 116.364Z" fill="url(#paint11_linear)"/>
<path d="M732.284 116.364H729.14C728.239 116.364 727.504 115.629 727.504 114.728C727.504 113.827 728.239 113.092 729.14 113.092H732.284C733.185 113.092 733.919 113.827 733.919 114.728C733.919 115.629 733.185 116.364 732.284 116.364Z" fill="#131C38"/>
<path d="M742.989 116.364H737.161C736.26 116.364 735.526 115.629 735.526 114.728C735.526 113.827 736.26 113.092 737.161 113.092H742.989C743.89 113.092 744.625 113.827 744.625 114.728C744.634 115.629 743.9 116.364 742.989 116.364Z" fill="#131C38"/>
<path d="M733.89 122.916H714.674C713.773 122.916 713.039 122.181 713.039 121.28C713.039 120.379 713.773 119.645 714.674 119.645H733.89C734.791 119.645 735.526 120.379 735.526 121.28C735.526 122.181 734.791 122.916 733.89 122.916Z" fill="url(#paint12_linear)"/>
<path d="M745.672 122.916H738.777C737.876 122.916 737.142 122.181 737.142 121.28C737.142 120.379 737.876 119.645 738.777 119.645H745.672C746.574 119.645 747.308 120.379 747.308 121.28C747.308 122.181 746.574 122.916 745.672 122.916Z" fill="url(#paint13_linear)"/>
<path d="M763.88 122.916H750.56C749.659 122.916 748.924 122.181 748.924 121.28C748.924 120.379 749.659 119.645 750.56 119.645H763.88C764.781 119.645 765.515 120.379 765.515 121.28C765.515 122.181 764.781 122.916 763.88 122.916Z" fill="url(#paint14_linear)"/>
<path d="M703.058 181.68H653.49C652.844 181.68 652.325 181.161 652.325 180.515V151.515C652.325 150.868 652.844 150.349 653.49 150.349H703.058C703.705 150.349 704.224 150.868 704.224 151.515V180.515C704.224 181.161 703.695 181.68 703.058 181.68Z" fill="url(#paint15_linear)"/>
<path d="M715.624 157.792C716.511 157.792 717.231 157.06 717.231 156.157C717.231 155.254 716.511 154.521 715.624 154.521C714.737 154.521 714.018 155.254 714.018 156.157C714.018 157.06 714.737 157.792 715.624 157.792Z" fill="#C676F3"/>
<path d="M743.968 157.792H720.472C719.571 157.792 718.837 157.058 718.837 156.157C718.837 155.256 719.571 154.521 720.472 154.521H743.968C744.869 154.521 745.604 155.256 745.604 156.157C745.614 157.058 744.879 157.792 743.968 157.792Z" fill="#131C38"/>
<path d="M758.434 157.792H748.856C747.955 157.792 747.22 157.058 747.22 156.157C747.22 155.256 747.955 154.521 748.856 154.521H758.434C759.335 154.521 760.07 155.256 760.07 156.157C760.07 157.058 759.335 157.792 758.434 157.792Z" fill="url(#paint16_linear)"/>
<path d="M780.921 157.792H762.783C761.882 157.792 761.147 157.058 761.147 156.157C761.147 155.256 761.882 154.521 762.783 154.521H780.921C781.822 154.521 782.557 155.256 782.557 156.157C782.557 157.058 781.832 157.792 780.921 157.792Z" fill="url(#paint17_linear)"/>
<path d="M786.817 157.792H785.809C784.908 157.792 784.173 157.058 784.173 156.157C784.173 155.256 784.908 154.521 785.809 154.521H786.817C787.719 154.521 788.453 155.256 788.453 156.157C788.453 157.058 787.719 157.792 786.817 157.792Z" fill="#131C38"/>
<path d="M725.232 164.354H715.654C714.753 164.354 714.018 163.62 714.018 162.719C714.018 161.818 714.753 161.083 715.654 161.083H725.232C726.133 161.083 726.868 161.818 726.868 162.719C726.868 163.62 726.133 164.354 725.232 164.354Z" fill="url(#paint18_linear)"/>
<path d="M733.263 164.354H730.119C729.218 164.354 728.484 163.62 728.484 162.719C728.484 161.818 729.218 161.083 730.119 161.083H733.263C734.165 161.083 734.899 161.818 734.899 162.719C734.899 163.62 734.165 164.354 733.263 164.354Z" fill="#131C38"/>
<path d="M743.968 164.354H738.141C737.24 164.354 736.505 163.62 736.505 162.719C736.505 161.818 737.24 161.083 738.141 161.083H743.968C744.869 161.083 745.604 161.818 745.604 162.719C745.614 163.62 744.879 164.354 743.968 164.354Z" fill="#131C38"/>
<path d="M734.87 170.907H715.654C714.753 170.907 714.018 170.172 714.018 169.271C714.018 168.37 714.753 167.635 715.654 167.635H734.87C735.771 167.635 736.505 168.37 736.505 169.271C736.505 170.172 735.771 170.907 734.87 170.907Z" fill="url(#paint19_linear)"/>
<path d="M746.652 170.907H739.757C738.856 170.907 738.121 170.172 738.121 169.271C738.121 168.37 738.856 167.635 739.757 167.635H746.652C747.553 167.635 748.287 168.37 748.287 169.271C748.287 170.172 747.553 170.907 746.652 170.907Z" fill="url(#paint20_linear)"/>
<path d="M764.859 170.907H751.539C750.638 170.907 749.904 170.172 749.904 169.271C749.904 168.37 750.638 167.635 751.539 167.635H764.859C765.76 167.635 766.495 168.37 766.495 169.271C766.495 170.172 765.76 170.907 764.859 170.907Z" fill="url(#paint21_linear)"/>
<path d="M703.058 227.713H653.49C652.844 227.713 652.325 227.194 652.325 226.547V197.547C652.325 196.9 652.844 196.381 653.49 196.381H703.058C703.705 196.381 704.224 196.9 704.224 197.547V226.547C704.224 227.194 703.695 227.713 703.058 227.713Z" fill="url(#paint22_linear)"/>
<path d="M715.624 203.825C716.511 203.825 717.231 203.092 717.231 202.189C717.231 201.286 716.511 200.553 715.624 200.553C714.737 200.553 714.018 201.286 714.018 202.189C714.018 203.092 714.737 203.825 715.624 203.825Z" fill="#C676F3"/>
<path d="M743.968 203.825H720.472C719.571 203.825 718.837 203.09 718.837 202.189C718.837 201.288 719.571 200.553 720.472 200.553H743.968C744.869 200.553 745.604 201.288 745.604 202.189C745.614 203.09 744.879 203.825 743.968 203.825Z" fill="#131C38"/>
<path d="M758.434 203.825H748.856C747.955 203.825 747.22 203.09 747.22 202.189C747.22 201.288 747.955 200.553 748.856 200.553H758.434C759.335 200.553 760.07 201.288 760.07 202.189C760.07 203.09 759.335 203.825 758.434 203.825Z" fill="url(#paint23_linear)"/>
<path d="M780.921 203.825H762.783C761.882 203.825 761.147 203.09 761.147 202.189C761.147 201.288 761.882 200.553 762.783 200.553H780.921C781.822 200.553 782.557 201.288 782.557 202.189C782.557 203.09 781.832 203.825 780.921 203.825Z" fill="url(#paint24_linear)"/>
<path d="M786.817 203.825H785.809C784.908 203.825 784.173 203.09 784.173 202.189C784.173 201.288 784.908 200.553 785.809 200.553H786.817C787.719 200.553 788.453 201.288 788.453 202.189C788.453 203.09 787.719 203.825 786.817 203.825Z" fill="#131C38"/>
<path d="M725.232 210.387H715.654C714.753 210.387 714.018 209.652 714.018 208.751C714.018 207.85 714.753 207.115 715.654 207.115H725.232C726.133 207.115 726.868 207.85 726.868 208.751C726.868 209.652 726.133 210.387 725.232 210.387Z" fill="url(#paint25_linear)"/>
<path d="M733.263 210.387H730.119C729.218 210.387 728.484 209.652 728.484 208.751C728.484 207.85 729.218 207.115 730.119 207.115H733.263C734.165 207.115 734.899 207.85 734.899 208.751C734.899 209.652 734.165 210.387 733.263 210.387Z" fill="#131C38"/>
<path d="M743.968 210.387H738.141C737.24 210.387 736.505 209.652 736.505 208.751C736.505 207.85 737.24 207.115 738.141 207.115H743.968C744.869 207.115 745.604 207.85 745.604 208.751C745.614 209.652 744.879 210.387 743.968 210.387Z" fill="#131C38"/>
<path d="M734.87 216.939H715.654C714.753 216.939 714.018 216.204 714.018 215.303C714.018 214.402 714.753 213.668 715.654 213.668H734.87C735.771 213.668 736.505 214.402 736.505 215.303C736.505 216.204 735.771 216.939 734.87 216.939Z" fill="url(#paint26_linear)"/>
<path d="M746.652 216.939H739.757C738.856 216.939 738.121 216.204 738.121 215.303C738.121 214.402 738.856 213.668 739.757 213.668H746.652C747.553 213.668 748.287 214.402 748.287 215.303C748.287 216.204 747.553 216.939 746.652 216.939Z" fill="url(#paint27_linear)"/>
<path d="M764.859 216.939H751.539C750.638 216.939 749.904 216.204 749.904 215.303C749.904 214.402 750.638 213.668 751.539 213.668H764.859C765.76 213.668 766.495 214.402 766.495 215.303C766.495 216.204 765.76 216.939 764.859 216.939Z" fill="url(#paint28_linear)"/>
<path d="M704.038 275.704H654.47C653.824 275.704 653.304 275.185 653.304 274.538V245.538C653.304 244.891 653.824 244.372 654.47 244.372H704.038C704.684 244.372 705.203 244.891 705.203 245.538V274.538C705.203 275.185 704.674 275.704 704.038 275.704Z" fill="url(#paint29_linear)"/>
<path d="M716.604 251.816C717.491 251.816 718.21 251.083 718.21 250.18C718.21 249.277 717.491 248.544 716.604 248.544C715.716 248.544 714.997 249.277 714.997 250.18C714.997 251.083 715.716 251.816 716.604 251.816Z" fill="#C676F3"/>
<path d="M744.948 251.816H721.452C720.551 251.816 719.816 251.081 719.816 250.18C719.816 249.279 720.551 248.544 721.452 248.544H744.948C745.849 248.544 746.583 249.279 746.583 250.18C746.593 251.081 745.859 251.816 744.948 251.816Z" fill="#131C38"/>
<path d="M759.413 251.816H749.835C748.934 251.816 748.199 251.081 748.199 250.18C748.199 249.279 748.934 248.544 749.835 248.544H759.413C760.314 248.544 761.049 249.279 761.049 250.18C761.049 251.081 760.314 251.816 759.413 251.816Z" fill="url(#paint30_linear)"/>
<path d="M781.901 251.816H763.762C762.861 251.816 762.126 251.081 762.126 250.18C762.126 249.279 762.861 248.544 763.762 248.544H781.901C782.802 248.544 783.536 249.279 783.536 250.18C783.536 251.081 782.812 251.816 781.901 251.816Z" fill="url(#paint31_linear)"/>
<path d="M787.797 251.816H786.788C785.887 251.816 785.152 251.081 785.152 250.18C785.152 249.279 785.887 248.544 786.788 248.544H787.797C788.698 248.544 789.432 249.279 789.432 250.18C789.432 251.081 788.698 251.816 787.797 251.816Z" fill="#131C38"/>
<path d="M726.212 258.378H716.633C715.732 258.378 714.997 257.643 714.997 256.742C714.997 255.841 715.732 255.107 716.633 255.107H726.212C727.113 255.107 727.847 255.841 727.847 256.742C727.847 257.643 727.113 258.378 726.212 258.378Z" fill="url(#paint32_linear)"/>
<path d="M734.243 258.378H731.099C730.198 258.378 729.463 257.643 729.463 256.742C729.463 255.841 730.198 255.107 731.099 255.107H734.243C735.144 255.107 735.878 255.841 735.878 256.742C735.878 257.643 735.144 258.378 734.243 258.378Z" fill="#131C38"/>
<path d="M744.948 258.378H739.12C738.219 258.378 737.485 257.643 737.485 256.742C737.485 255.841 738.219 255.107 739.12 255.107H744.948C745.849 255.107 746.583 255.841 746.583 256.742C746.593 257.643 745.859 258.378 744.948 258.378Z" fill="#131C38"/>
<path d="M735.849 264.93H716.633C715.732 264.93 714.997 264.196 714.997 263.295C714.997 262.393 715.732 261.659 716.633 261.659H735.849C736.75 261.659 737.484 262.393 737.484 263.295C737.484 264.196 736.75 264.93 735.849 264.93Z" fill="url(#paint33_linear)"/>
<path d="M747.631 264.93H740.736C739.835 264.93 739.101 264.196 739.101 263.295C739.101 262.393 739.835 261.659 740.736 261.659H747.631C748.532 261.659 749.267 262.393 749.267 263.295C749.267 264.196 748.532 264.93 747.631 264.93Z" fill="url(#paint34_linear)"/>
<path d="M765.838 264.93H752.518C751.617 264.93 750.883 264.196 750.883 263.295C750.883 262.393 751.617 261.659 752.518 261.659H765.838C766.739 261.659 767.474 262.393 767.474 263.295C767.474 264.196 766.739 264.93 765.838 264.93Z" fill="url(#paint35_linear)"/>
<path d="M704.038 320.756H654.47C653.824 320.756 653.304 320.237 653.304 319.591V290.591C653.304 289.944 653.824 289.425 654.47 289.425H704.038C704.684 289.425 705.203 289.944 705.203 290.591V319.591C705.203 320.237 704.674 320.756 704.038 320.756Z" fill="url(#paint36_linear)"/>
<path d="M716.604 296.869C717.491 296.869 718.21 296.136 718.21 295.233C718.21 294.33 717.491 293.597 716.604 293.597C715.716 293.597 714.997 294.33 714.997 295.233C714.997 296.136 715.716 296.869 716.604 296.869Z" fill="#C676F3"/>
<path d="M744.948 296.869H721.452C720.551 296.869 719.816 296.134 719.816 295.233C719.816 294.332 720.551 293.597 721.452 293.597H744.948C745.849 293.597 746.583 294.332 746.583 295.233C746.593 296.134 745.859 296.869 744.948 296.869Z" fill="#131C38"/>
<path d="M759.413 296.869H749.835C748.934 296.869 748.199 296.134 748.199 295.233C748.199 294.332 748.934 293.597 749.835 293.597H759.413C760.314 293.597 761.049 294.332 761.049 295.233C761.049 296.134 760.314 296.869 759.413 296.869Z" fill="url(#paint37_linear)"/>
<path d="M781.901 296.869H763.762C762.861 296.869 762.126 296.134 762.126 295.233C762.126 294.332 762.861 293.597 763.762 293.597H781.901C782.802 293.597 783.536 294.332 783.536 295.233C783.536 296.134 782.812 296.869 781.901 296.869Z" fill="url(#paint38_linear)"/>
<path d="M787.797 296.869H786.788C785.887 296.869 785.152 296.134 785.152 295.233C785.152 294.332 785.887 293.597 786.788 293.597H787.797C788.698 293.597 789.432 294.332 789.432 295.233C789.432 296.134 788.698 296.869 787.797 296.869Z" fill="#131C38"/>
<path d="M726.212 303.431H716.633C715.732 303.431 714.997 302.696 714.997 301.795C714.997 300.894 715.732 300.159 716.633 300.159H726.212C727.113 300.159 727.847 300.894 727.847 301.795C727.847 302.696 727.113 303.431 726.212 303.431Z" fill="url(#paint39_linear)"/>
<path d="M734.243 303.431H731.099C730.198 303.431 729.463 302.696 729.463 301.795C729.463 300.894 730.198 300.159 731.099 300.159H734.243C735.144 300.159 735.878 300.894 735.878 301.795C735.878 302.696 735.144 303.431 734.243 303.431Z" fill="#131C38"/>
<path d="M744.948 303.431H739.12C738.219 303.431 737.485 302.696 737.485 301.795C737.485 300.894 738.219 300.159 739.12 300.159H744.948C745.849 300.159 746.583 300.894 746.583 301.795C746.593 302.696 745.859 303.431 744.948 303.431Z" fill="#131C38"/>
<path d="M735.849 309.983H716.633C715.732 309.983 714.997 309.248 714.997 308.347C714.997 307.446 715.732 306.712 716.633 306.712H735.849C736.75 306.712 737.484 307.446 737.484 308.347C737.484 309.248 736.75 309.983 735.849 309.983Z" fill="url(#paint40_linear)"/>
<path d="M747.631 309.983H740.736C739.835 309.983 739.101 309.248 739.101 308.347C739.101 307.446 739.835 306.712 740.736 306.712H747.631C748.532 306.712 749.267 307.446 749.267 308.347C749.267 309.248 748.532 309.983 747.631 309.983Z" fill="url(#paint41_linear)"/>
<path d="M765.838 309.983H752.518C751.617 309.983 750.883 309.248 750.883 308.347C750.883 307.446 751.617 306.712 752.518 306.712H765.838C766.739 306.712 767.474 307.446 767.474 308.347C767.474 309.248 766.739 309.983 765.838 309.983Z" fill="url(#paint42_linear)"/>
<path d="M705.017 368.747H655.449C654.803 368.747 654.284 368.228 654.284 367.582V338.582C654.284 337.935 654.803 337.416 655.449 337.416H705.017C705.663 337.416 706.183 337.935 706.183 338.582V367.582C706.183 368.228 705.654 368.747 705.017 368.747Z" fill="url(#paint43_linear)"/>
<path d="M717.583 344.86C718.47 344.86 719.189 344.127 719.189 343.224C719.189 342.321 718.47 341.588 717.583 341.588C716.696 341.588 715.977 342.321 715.977 343.224C715.977 344.127 716.696 344.86 717.583 344.86Z" fill="#C676F3"/>
<path d="M745.927 344.86H722.431C721.53 344.86 720.795 344.125 720.795 343.224C720.795 342.323 721.53 341.588 722.431 341.588H745.927C746.828 341.588 747.563 342.323 747.563 343.224C747.572 344.125 746.838 344.86 745.927 344.86Z" fill="#131C38"/>
<path d="M760.393 344.86H750.814C749.913 344.86 749.179 344.125 749.179 343.224C749.179 342.323 749.913 341.588 750.814 341.588H760.393C761.294 341.588 762.029 342.323 762.029 343.224C762.029 344.125 761.294 344.86 760.393 344.86Z" fill="url(#paint44_linear)"/>
<path d="M782.88 344.86H764.742C763.841 344.86 763.106 344.125 763.106 343.224C763.106 342.323 763.841 341.588 764.742 341.588H782.88C783.781 341.588 784.516 342.323 784.516 343.224C784.516 344.125 783.791 344.86 782.88 344.86Z" fill="url(#paint45_linear)"/>
<path d="M788.776 344.86H787.767C786.866 344.86 786.132 344.125 786.132 343.224C786.132 342.323 786.866 341.588 787.767 341.588H788.776C789.677 341.588 790.412 342.323 790.412 343.224C790.412 344.125 789.677 344.86 788.776 344.86Z" fill="#131C38"/>
<path d="M727.191 351.422H717.612C716.711 351.422 715.977 350.687 715.977 349.786C715.977 348.885 716.711 348.15 717.612 348.15H727.191C728.092 348.15 728.827 348.885 728.827 349.786C728.827 350.687 728.092 351.422 727.191 351.422Z" fill="url(#paint46_linear)"/>
<path d="M735.222 351.422H732.078C731.177 351.422 730.443 350.687 730.443 349.786C730.443 348.885 731.177 348.15 732.078 348.15H735.222C736.123 348.15 736.858 348.885 736.858 349.786C736.858 350.687 736.123 351.422 735.222 351.422Z" fill="#131C38"/>
<path d="M745.927 351.422H740.099C739.198 351.422 738.464 350.687 738.464 349.786C738.464 348.885 739.198 348.15 740.099 348.15H745.927C746.828 348.15 747.563 348.885 747.563 349.786C747.572 350.687 746.838 351.422 745.927 351.422Z" fill="#131C38"/>
<path d="M736.829 357.974H717.612C716.711 357.974 715.977 357.239 715.977 356.338C715.977 355.437 716.711 354.703 717.612 354.703H736.829C737.73 354.703 738.464 355.437 738.464 356.338C738.464 357.239 737.73 357.974 736.829 357.974Z" fill="url(#paint47_linear)"/>
<path d="M748.611 357.974H741.716C740.815 357.974 740.08 357.239 740.08 356.338C740.08 355.437 740.815 354.703 741.716 354.703H748.611C749.512 354.703 750.246 355.437 750.246 356.338C750.246 357.239 749.512 357.974 748.611 357.974Z" fill="url(#paint48_linear)"/>
<path d="M766.818 357.974H753.498C752.597 357.974 751.862 357.239 751.862 356.338C751.862 355.437 752.597 354.703 753.498 354.703H766.818C767.719 354.703 768.453 355.437 768.453 356.338C768.453 357.239 767.719 357.974 766.818 357.974Z" fill="url(#paint49_linear)"/>
<path d="M777.19 65.1306C784.492 65.1306 790.412 59.2109 790.412 51.9085C790.412 44.6062 784.492 38.6865 777.19 38.6865C769.887 38.6865 763.968 44.6062 763.968 51.9085C763.968 59.2109 769.887 65.1306 777.19 65.1306Z" fill="url(#paint50_linear)"/>
<path d="M742.323 58.9213C742.323 58.1965 741.735 57.6089 741.01 57.6089C740.286 57.6089 739.698 58.1965 739.698 58.9213C739.698 59.6461 740.286 60.2337 741.01 60.2337C741.725 60.2337 742.323 59.6461 742.323 58.9213Z" fill="#F7C92B"/>
<path d="M741.001 57.5991C740.864 57.5991 740.736 57.6187 740.619 57.6579C741.157 57.8244 741.549 58.3239 741.549 58.9115C741.549 59.509 741.157 60.0085 740.619 60.1652C740.736 60.2043 740.864 60.2239 741.001 60.2239C741.725 60.2239 742.313 59.6363 742.313 58.9115C742.323 58.1966 741.725 57.5991 741.001 57.5991Z" fill="#F2B51D"/>
<path d="M741.157 51.2426C740.736 51.3308 740.325 51.0565 740.237 50.6354C740.149 50.2142 740.423 49.8029 740.844 49.7147C741.265 49.6266 741.676 49.9008 741.765 50.322C741.853 50.7431 741.578 51.1545 741.157 51.2426Z" fill="#F7C92B"/>
<path d="M741.765 50.322C741.677 49.9008 741.265 49.6266 740.844 49.7147C740.805 49.7245 740.766 49.7343 740.727 49.7441C740.971 49.8323 741.167 50.0477 741.226 50.322C741.304 50.7039 741.089 51.0761 740.727 51.2132C740.854 51.2622 741.001 51.272 741.148 51.2426C741.579 51.1545 741.853 50.7431 741.765 50.322Z" fill="#F2B51D"/>
<path d="M744.262 58.696H737.739C737.152 58.696 736.681 58.2259 736.681 57.6383C736.681 57.3151 736.828 57.0115 737.083 56.8058L737.289 56.6393C737.778 56.2475 738.053 55.6599 738.053 55.0428V53.9361C738.053 52.3005 739.385 50.9685 741.02 50.9685C742.656 50.9685 743.988 52.2907 743.988 53.9361V55.0624C743.988 55.6697 744.262 56.2475 744.732 56.6393L744.938 56.8058C745.183 57.0115 745.32 57.3053 745.32 57.6285V57.6383C745.32 58.2259 744.85 58.696 744.262 58.696Z" fill="#F7E249"/>
<path d="M744.938 56.8155L744.732 56.649C744.262 56.2573 743.988 55.6794 743.988 55.0722V53.9459C743.988 52.3103 742.656 50.9783 741.02 50.9783C740.726 50.9783 740.452 51.0174 740.188 51.0958C741.422 51.4582 742.323 52.5943 742.323 53.9361V55.0624C742.323 55.6696 742.597 56.2475 743.067 56.6393L743.273 56.8058C743.518 57.0114 743.655 57.3053 743.655 57.6285V57.6383C743.655 58.2259 743.185 58.696 742.597 58.696H744.272C744.859 58.696 745.33 58.2259 745.33 57.6383V57.6285C745.32 57.315 745.183 57.0114 744.938 56.8155Z" fill="#F7C92B"/>
<path d="M746.339 51.5267C746.339 50.1261 745.202 48.9802 743.792 48.9802C742.382 48.9802 741.246 50.1163 741.246 51.5267C741.246 52.937 742.382 54.0732 743.792 54.0732C745.202 54.0732 746.339 52.937 746.339 51.5267Z" fill="#FC476E"/>
<path d="M744.477 49.0781C745.124 49.5384 745.555 50.2926 745.555 51.1545C745.555 52.555 744.419 53.7009 743.008 53.7009C742.773 53.7009 742.538 53.6716 742.323 53.6128C742.734 53.9066 743.243 54.0829 743.792 54.0829C745.202 54.0829 746.338 52.9468 746.338 51.5364C746.338 50.3611 745.545 49.3817 744.477 49.0781Z" fill="#CC2B5A"/>
<path d="M743.792 52.7217C743.694 52.7217 743.616 52.6433 743.616 52.5454V50.8314L743.547 50.8902C743.478 50.9587 743.361 50.9489 743.292 50.8804C743.224 50.8118 743.234 50.6943 743.302 50.6257L743.665 50.2927C743.714 50.2438 743.792 50.234 743.86 50.2634C743.929 50.2927 743.968 50.3515 743.968 50.4299V52.5454C743.968 52.6433 743.89 52.7217 743.792 52.7217Z" fill="#E3FAFF"/>
<path d="M714.968 59.2934C714.968 59.5285 715.125 59.7636 715.36 59.8321C715.409 59.8419 715.468 59.8517 715.517 59.8517C715.693 59.8517 715.859 59.7733 715.947 59.6166C718.043 56.0908 720.815 55.983 721.844 56.0908V58.8135C721.844 59.029 721.971 59.2249 722.167 59.3032C722.363 59.3816 722.588 59.3424 722.745 59.1857L727.514 54.416C727.72 54.2103 727.72 53.8773 727.514 53.6716L722.745 48.9019C722.598 48.755 722.363 48.706 722.167 48.7844C721.971 48.8627 721.844 49.0586 721.844 49.2741V51.3994C718.817 51.5365 716.212 53.5639 715.35 56.4629C715.086 57.3836 714.958 58.3336 714.968 59.2934Z" fill="url(#paint51_linear)"/>
<path d="M700.061 49.4602H697.368V52.1536H700.061V49.4602Z" fill="#F7C92B"/>
<path d="M704.096 49.4602H701.403V52.1536H704.096V49.4602Z" fill="#F7C92B"/>
<path d="M708.142 49.4602H705.448V52.1536H708.142V49.4602Z" fill="#F7C92B"/>
<path d="M700.061 53.5051H697.368V56.1985H700.061V53.5051Z" fill="#F7C92B"/>
<path d="M704.096 53.5051H701.403V56.1985H704.096V53.5051Z" fill="#F7C92B"/>
<path d="M708.142 53.5051H705.448V56.1985H708.142V53.5051Z" fill="#F7C92B"/>
<path d="M700.061 57.5403H697.368V60.2337H700.061V57.5403Z" fill="#F7C92B"/>
<path d="M704.096 57.5403H701.403V60.2337H704.096V57.5403Z" fill="#F7C92B"/>
<path d="M708.142 57.5403H705.448V60.2337H708.142V57.5403Z" fill="#F7C92B"/>
<path d="M678.392 49.5331C676.001 49.1849 673.568 49 671.167 49C668.766 49 666.343 49.1849 663.942 49.5331C663.818 49.5548 663.714 49.6527 663.683 49.7833C662.772 53.6343 662.772 57.3657 663.683 61.2167C663.714 61.3473 663.818 61.4452 663.942 61.4669C666.343 61.8259 668.776 62 671.167 62C673.558 62 675.991 61.8151 678.392 61.4669C678.516 61.4452 678.62 61.3473 678.651 61.2167C679.562 57.3766 679.562 53.6343 678.651 49.7833C678.63 49.6527 678.527 49.5548 678.392 49.5331Z" fill="#F7C92B"/>
<path d="M685.824 49.5439C685.721 49.4895 685.586 49.5003 685.493 49.5656L680.421 53.4058C680.328 53.4711 680.276 53.5907 680.286 53.7104C680.4 54.8962 680.4 56.1037 680.286 57.3003C680.276 57.42 680.328 57.5288 680.421 57.6049L685.493 61.4451C685.545 61.4886 685.617 61.5104 685.679 61.5104C685.731 61.5104 685.783 61.4995 685.824 61.4778C685.928 61.4234 686 61.3037 686 61.184V49.8376C686 49.7179 685.928 49.5983 685.824 49.5439Z" fill="#F7C92B"/>
<path d="M671.5 59C671.221 59 671 58.7736 671 58.488V52.512C671 52.2264 671.221 52 671.5 52C671.779 52 672 52.2264 672 52.512V58.488C672 58.7736 671.769 59 671.5 59Z" fill="white"/>
<path d="M668 55.5C668 55.2212 668.226 55 668.512 55H674.488C674.774 55 675 55.2212 675 55.5C675 55.7788 674.774 56 674.488 56H668.512C668.226 55.9904 668 55.7692 668 55.5Z" fill="white"/>
<path d="M733.606 15.1809C735.229 15.1809 736.544 13.8654 736.544 12.2427C736.544 10.6199 735.229 9.30444 733.606 9.30444C731.983 9.30444 730.668 10.6199 730.668 12.2427C730.668 13.8654 731.983 15.1809 733.606 15.1809Z" fill="url(#paint52_linear)"/>
<path d="M766.906 15.1809C768.529 15.1809 769.844 13.8654 769.844 12.2427C769.844 10.6199 768.529 9.30444 766.906 9.30444C765.283 9.30444 763.968 10.6199 763.968 12.2427C763.968 13.8654 765.283 15.1809 766.906 15.1809Z" fill="url(#paint53_linear)"/>
<path d="M750.256 15.1809C751.879 15.1809 753.194 13.8654 753.194 12.2427C753.194 10.6199 751.879 9.30444 750.256 9.30444C748.633 9.30444 747.318 10.6199 747.318 12.2427C747.318 13.8654 748.633 15.1809 750.256 15.1809Z" fill="url(#paint54_linear)"/>
<path d="M210.602 451.018C211.581 451.018 222.355 439.265 224.314 433.388C226.272 427.512 231.169 423.594 231.169 423.594C231.169 423.594 235.087 415.759 231.169 414.78C227.252 413.8 221.375 418.697 221.375 422.615C221.375 426.532 205.705 440.244 203.746 446.121C201.787 451.997 210.602 451.018 210.602 451.018Z" fill="#FFB1C7"/>
<path d="M228.231 573.444C228.231 573.444 233.128 582.259 236.066 582.259C239.005 582.259 241.943 579.32 240.964 578.341C239.984 577.361 233.128 574.423 233.128 573.444C233.128 572.464 228.231 573.444 228.231 573.444Z" fill="#FEADCF"/>
<path d="M199.828 569.526C199.828 569.526 204.725 578.341 207.664 578.341C210.602 578.341 213.54 575.403 212.561 574.423C211.581 573.444 204.725 570.506 204.725 569.526C204.725 568.547 199.828 569.526 199.828 569.526Z" fill="#FEADCF"/>
<path d="M200.808 568.547C198.643 569.379 198.036 570.251 197.87 570.858C197.527 572.102 198.859 572.66 198.849 574.717C198.839 575.951 198.359 576.402 198.849 577.029C199.339 577.655 200.632 578.263 201.787 577.802C202.776 577.411 203.247 576.392 202.767 575.491C202.767 575.491 207.664 580.114 212.561 579.35C217.458 578.576 215.499 577.812 215.499 577.038C215.499 576.265 212.561 573.953 212.561 573.953C212.561 573.953 210.602 575.491 208.643 574.727C206.684 573.963 206.684 570.868 206.684 570.868L200.808 568.547Z" fill="url(#paint55_linear)"/>
<path d="M229.211 572.464C227.046 573.297 226.439 574.169 226.272 574.776C225.93 576.02 227.262 576.578 227.252 578.635C227.242 579.869 226.762 580.319 227.252 580.946C227.742 581.573 229.034 582.18 230.19 581.72C231.179 581.328 231.649 580.309 231.17 579.408C231.17 579.408 236.067 584.031 240.964 583.267C245.861 582.494 243.902 581.73 243.902 580.956C243.902 580.182 240.964 577.871 240.964 577.871C240.964 577.871 239.005 579.408 237.046 578.644C235.087 577.881 235.087 574.786 235.087 574.786L229.211 572.464Z" fill="url(#paint56_linear)"/>
<path d="M201.288 486.276C200.367 487.922 199.172 490.615 198.898 494.112C198.438 500.037 200.915 504.65 202.081 506.844C204.01 510.448 205.078 510.497 206.86 513.7C209.201 517.921 209.857 522.387 210.044 525.453C210.044 525.453 205.264 531.329 204.471 539.164C204.059 543.17 202.081 559.732 200.494 564.629C198.908 569.526 198.898 569.526 198.898 569.526C198.898 569.526 205.264 573.444 206.067 569.526C206.86 565.608 215.626 545.041 215.626 542.103C215.626 539.164 217.223 534.267 218.809 532.309C220.396 530.35 223.589 526.432 222.786 523.494C221.983 520.556 213.227 491.173 213.227 491.173L201.288 486.276Z" fill="url(#paint57_linear)"/>
<path d="M201.787 489.215C201.777 492.368 202.169 497.099 204.451 501.947C205.734 504.679 207.38 506.707 210.661 510.762C215.029 516.168 216.802 517.255 219.524 521.535C221.287 524.307 222.414 526.785 223.07 528.391C223.07 528.391 223.961 529.37 223.07 533.288C222.179 537.206 223.07 548.959 224.843 554.835C226.615 560.711 227.507 574.423 226.615 575.403C226.615 575.403 232.825 578.341 233.706 573.444C234.597 568.547 232.815 539.164 233.706 536.226C234.597 533.288 237.252 528.391 235.479 525.453C233.706 522.515 225.724 501.947 225.724 501.947L201.787 489.215Z" fill="url(#paint58_linear)"/>
<path d="M252.56 426.532H229.377C228.212 426.532 227.262 425.582 227.262 424.417V416.905C227.262 415.739 228.212 414.789 229.377 414.789H252.56C253.725 414.789 254.675 415.739 254.675 416.905V424.417C254.675 425.582 253.725 426.532 252.56 426.532Z" fill="url(#paint59_linear)"/>
<path d="M206.684 441.224C206.684 441.224 200.808 443.182 200.808 448.079C200.808 452.977 202.767 464.729 202.767 469.626C202.767 474.524 199.829 484.318 198.849 486.276C198.849 486.276 206.684 507.823 229.211 505.865C229.211 505.865 221.376 497.05 223.334 488.235C224.314 478.441 225.293 471.585 229.211 468.647C233.128 465.709 230.19 454.935 227.252 452.977C224.314 451.018 206.684 441.224 206.684 441.224Z" fill="url(#paint60_linear)"/>
<path d="M255.655 421.636C254.186 420.49 251.267 421.077 249.778 422.615C248.799 423.634 248.936 424.544 247.82 429.471C247.291 431.792 247.026 432.948 246.84 433.388C245.312 436.944 242.717 436.963 239.984 440.244C236.772 444.103 238.78 445.974 236.067 448.08C233.471 450.097 231.414 448.559 225.293 451.018C224.284 451.419 222.923 452.036 221.376 452.977C218.339 454.837 215.509 456.561 215.499 458.853C215.489 461.057 218.085 463.065 220.396 463.75C222.796 464.465 225.234 463.858 229.211 461.791C235.577 458.481 241.806 455.229 245.861 448.08C248.985 442.565 247.702 440.215 251.737 435.347C253.03 433.78 254.587 432.301 255.655 429.471C255.939 428.697 257.927 423.408 255.655 421.636Z" fill="#FFC7D4"/>
<path d="M214.519 454.935C217.154 455.974 222.169 450.166 224.314 445.141C225.009 443.516 228.143 436.15 224.314 431.43C223.226 430.088 220.719 427.914 218.437 428.491C211.993 430.137 209.906 453.124 214.519 454.935Z" fill="#FFB1C7"/>
<path d="M219.417 440.244C218.594 436.934 217.908 436.327 217.458 436.327C216.341 436.317 214.725 439.96 215.499 443.182C216.057 445.533 217.399 445.631 218.437 448.079C219.554 450.714 221.777 453.574 221.376 457.874C221.17 460.136 218.065 462.496 218.437 466.688C218.437 466.688 214.52 471.585 207.664 468.647C200.808 465.709 201.787 463.75 198.849 465.709C198.849 465.709 203.746 451.018 201.787 447.1C199.829 443.182 197.752 431.547 201.787 427.512C205.705 423.594 209.623 420.656 215.499 421.635C221.376 422.615 228.231 427.512 226.273 432.409C224.314 437.306 219.417 440.244 219.417 440.244Z" fill="url(#paint61_linear)"/>
</g>
<g clip-path="url(#clip1)">
<path opacity="0.64" d="M484.27 677.421L533.241 660.634C534.9 660.759 536.4 660.868 537.547 660.961C537.396 661.212 537.329 661.446 537.38 661.681C537.807 663.716 542.984 666.623 546.452 668.366C548.244 669.27 551.034 669.672 554.209 669.48C552.91 671.415 552.86 672.931 552.86 672.931C552.86 672.931 551.545 679.122 553.019 679.884C553.07 679.909 553.128 679.934 553.195 679.959C553.12 680.118 553.103 680.261 553.128 680.403C553.346 681.434 559.017 683.461 566.766 682.9C574.514 682.338 579.314 680.252 585.153 676.868C590.221 673.936 588.018 669.295 587.348 668.123C588.872 667.511 589.727 666.674 588.001 665.518C584.952 663.474 582.439 664.001 581.291 664.78C581.291 664.78 580.621 664.537 579.49 664.227C580.487 663.691 581.459 663.13 582.02 662.695C584.206 662.066 585.999 661.539 587.096 661.203C592.03 659.729 597.651 655.331 598.707 654.108C598.782 654.024 598.791 653.798 598.74 653.463C599.218 652.483 599.117 651.344 597.836 649.987C597.785 649.937 597.727 649.878 597.677 649.828C595.272 642.917 589.71 630.125 589.71 630.125C589.174 630.125 588.629 630.134 588.085 630.15C591.159 628.199 593.413 626.414 593.756 625.208C594.988 620.844 588.144 619.612 582.581 619.973C580.973 620.073 576.366 620.726 570.644 621.598C570.535 621.531 570.418 621.464 570.292 621.397C570.351 621.204 570.351 621.011 570.225 620.819C569.036 619.051 558.23 615.173 554.41 618.456C552.894 619.763 553.262 620.869 554.242 621.723C552.291 622.678 549.719 623.935 546.812 625.367C543.143 625.962 540.06 626.473 538.083 626.8C535.981 626.565 524.747 625.484 519.671 628.643C515.926 630.971 523.96 632.437 531.516 632.948C523.524 636.944 516.404 640.58 514.737 641.685C513.229 642.682 512.006 643.855 511.453 644.994L486.113 654.77C485.56 654.979 484.17 656.018 484.145 656.286L482 677.128C481.95 677.647 483.156 677.806 484.27 677.421Z" fill="url(#paint62_linear)"/>
<path d="M511.26 569.494C511.26 569.494 502.012 571.546 503.043 575.659C504.073 579.772 513.313 580.794 516.396 577.711C519.478 574.629 533.861 569.494 535.914 568.463C537.966 567.433 549.266 555.11 549.266 552.028C549.266 548.945 541.049 543.81 541.049 543.81C541.049 543.81 536.936 545.862 534.883 552.028C532.831 558.193 532.831 558.193 532.831 558.193C532.831 558.193 517.426 569.494 515.374 569.494C513.321 569.494 511.26 569.494 511.26 569.494Z" fill="#FFC8D2"/>
<path d="M557.216 618.104C557.216 618.104 563.918 619.152 563.281 623.013C562.644 626.875 554.812 638.645 551.277 633.903C547.742 629.162 553.715 622.016 553.715 622.016L557.216 618.104Z" fill="url(#paint63_linear)"/>
<path d="M529.857 595.663C529.857 595.663 542.129 599.667 547.206 603.369C552.282 607.064 564.588 610.205 564.253 618.021C563.918 625.836 553.924 629.757 553.924 629.757C553.924 629.757 520.107 609.166 516.337 605.522C512.567 601.878 510.247 594.817 517.049 589.02C523.843 583.223 555.867 584.597 555.867 584.597L563.113 598.829C563.113 598.829 559.863 613.48 554.636 613.254C549.409 613.036 529.857 595.663 529.857 595.663Z" fill="url(#paint64_linear)"/>
<path d="M542.9 619.361C542.9 619.361 543.118 610.448 538.284 611.579C533.451 612.71 517.392 624.052 522.36 628.458C527.336 632.865 537.354 624.337 537.354 624.337L542.9 619.361Z" fill="url(#paint65_linear)"/>
<path d="M536.785 541.766C538.468 538.499 541.677 536.204 545.338 535.944C546.544 535.86 547.624 536.011 548.244 536.631C550.297 538.683 554.41 540.744 552.357 548.962C550.305 557.179 546.192 566.428 546.192 566.428C546.192 566.428 530.787 564.375 530.787 558.21C530.779 554.13 534.355 546.499 536.785 541.766Z" fill="url(#paint66_linear)"/>
<path d="M568.893 605.489C568.893 605.489 558.498 603.797 553.162 604.852C547.826 605.908 537.849 603.453 534.113 610.322C530.376 617.191 535.193 624.764 535.193 624.764C535.193 624.764 568.684 621.204 573.099 619.654C577.513 618.096 582.673 612.986 580.99 605.145C579.306 597.305 556.78 585.058 556.78 585.058L544.626 594.281C544.626 594.281 539.407 608.262 543.084 610.264C546.762 612.266 568.893 605.489 568.893 605.489Z" fill="url(#paint67_linear)"/>
<path d="M541.057 595.696C541.057 595.696 562.628 604.861 577.011 597.363C577.011 597.363 581.023 549.64 580.093 547.923C579.063 546.021 573.928 539.89 569.823 539.052C565.71 538.223 550.079 535.324 545.17 536.556C531.809 539.89 541.057 595.696 541.057 595.696Z" fill="url(#paint68_linear)"/>
<path d="M562.1 596.241L543.939 610.942C543.428 611.353 542.732 611.47 542.121 611.244L491.281 591.382C489.816 590.838 489.623 588.844 490.963 588.031L512.45 575.081C512.927 574.796 513.514 574.737 514.041 574.922L561.555 593.024C562.921 593.527 563.231 595.328 562.1 596.241Z" fill="url(#paint69_linear)"/>
<path d="M560.575 534.57C560.575 534.57 567.763 538.683 565.71 539.705C563.658 540.727 558.523 548.953 552.357 547.923C543.637 546.474 545.17 540.736 547.222 537.653C549.275 534.57 560.575 534.57 560.575 534.57Z" fill="#FEB1C7"/>
<path d="M564.68 531.488C564.68 531.488 563.65 525.322 565.71 525.322C567.771 525.322 571.876 525.322 569.823 530.457C567.771 535.592 565.71 535.592 564.688 534.57C564.688 534.57 556.471 546.901 549.283 543.818C542.096 540.736 541.057 530.457 541.057 530.457C541.057 530.457 539.005 519.157 540.027 517.105C541.057 515.052 551.327 506.835 555.432 508.887C559.537 510.939 565.702 517.105 565.702 520.187C565.702 523.27 564.68 531.488 564.68 531.488Z" fill="#FFC7D4"/>
<path d="M562.627 531.488C562.627 531.488 564.68 525.322 565.71 525.322C567.762 525.322 568.793 526.353 568.793 526.353C568.793 526.353 570.845 514.022 565.71 509.917C560.575 505.804 556.462 503.752 550.297 505.804C544.131 507.857 540.027 514.022 540.027 516.074C540.027 518.127 542.079 520.187 551.327 520.187C553.622 520.187 557.601 516.644 558.514 517.105C560.567 518.135 561.597 518.135 561.597 519.157C561.597 520.179 560.567 523.27 560.567 526.344C560.567 529.419 561.597 532.51 561.597 532.51L562.627 531.488Z" fill="url(#paint70_linear)"/>
<path d="M564.68 531.488C564.68 531.488 563.65 525.322 565.71 525.322C567.771 525.322 571.876 525.322 569.823 530.457C567.771 535.592 565.71 535.592 564.688 534.57" fill="#FFC7D4"/>
<path d="M538.996 580.794C538.996 580.794 529.748 582.846 530.779 586.959C531.809 591.072 541.049 592.094 544.131 589.012C547.214 585.929 561.597 580.794 563.65 579.763C565.702 578.733 577.002 566.411 577.002 563.328C577.002 560.245 568.785 555.11 568.785 555.11C568.785 555.11 564.671 557.163 562.619 563.328C560.567 569.493 560.567 569.493 560.567 569.493C560.567 569.493 545.162 580.794 543.109 580.794C541.057 580.794 538.996 580.794 538.996 580.794Z" fill="#FFC8D2"/>
<path d="M566.732 544.84C566.732 544.84 573.92 541.758 575.98 543.81C578.041 545.862 582.146 547.923 580.093 556.141C578.041 564.359 573.928 573.607 573.928 573.607C573.928 573.607 558.523 571.554 558.523 565.389C558.523 559.223 566.732 544.84 566.732 544.84Z" fill="url(#paint71_linear)"/>
<path d="M542.908 567.416L544.123 610.683C544.131 611.629 543.185 612.291 542.297 611.956L491.742 592.094C491.273 591.918 490.017 590.494 489.95 590L484.823 551.023C484.697 550.051 485.61 549.263 486.557 549.548L541.945 566.126C542.515 566.302 542.908 566.821 542.908 567.416Z" fill="url(#paint72_linear)"/>
<path opacity="0.64" d="M513.162 580.287C514.487 578.809 514.019 576.229 512.118 574.525C510.216 572.82 507.601 572.636 506.276 574.114C504.951 575.592 505.419 578.172 507.32 579.876C509.222 581.581 511.837 581.765 513.162 580.287Z" fill="white"/>
</g>
<defs>
<filter id="filter0_f" x="32" y="418" width="858" height="167" filterUnits="userSpaceOnUse" color-interpolation-filters="sRGB">
<feFlood flood-opacity="0" result="BackgroundImageFix"/>
<feBlend mode="normal" in="SourceGraphic" in2="BackgroundImageFix" result="shape"/>
<feGaussianBlur stdDeviation="33" result="effect1_foregroundBlur"/>
</filter>
<linearGradient id="paint0_linear" x1="327" y1="428" x2="327" y2="971" gradientUnits="userSpaceOnUse">
<stop stop-color="#74EBD5"/>
<stop offset="0.364583" stop-color="#ACB6E5" stop-opacity="0.635417"/>
<stop offset="1" stop-color="#ACB6E5" stop-opacity="0"/>
</linearGradient>
<linearGradient id="paint1_linear" x1="67.9967" y1="626" x2="255.002" y2="626" gradientUnits="userSpaceOnUse">
<stop stop-color="#482EB2"/>
<stop offset="0.9947" stop-color="#442073"/>
</linearGradient>
<linearGradient id="paint2_linear" x1="798.701" y1="2.81506" x2="126.094" y2="456.494" gradientUnits="userSpaceOnUse">
<stop offset="0.069" stop-color="#385093"/>
<stop offset="0.3373" stop-color="#354B8B"/>
<stop offset="0.7524" stop-color="#2E3C75"/>
<stop offset="1" stop-color="#283165"/>
</linearGradient>
<linearGradient id="paint3_linear" x1="778.141" y1="58.5864" x2="144.914" y2="485.704" gradientUnits="userSpaceOnUse">
<stop stop-color="#304287"/>
<stop offset="0.3572" stop-color="#2E3E7F"/>
<stop offset="0.9097" stop-color="#293369"/>
<stop offset="1" stop-color="#283165"/>
</linearGradient>
<linearGradient id="paint4_linear" x1="721.592" y1="455.425" x2="721.592" y2="85.6982" gradientUnits="userSpaceOnUse">
<stop stop-color="#2A407D"/>
<stop offset="1" stop-color="#2C335E"/>
</linearGradient>
<linearGradient id="paint5_linear" x1="153.211" y1="241.536" x2="599.822" y2="241.536" gradientUnits="userSpaceOnUse">
<stop stop-color="#02B7F9"/>
<stop offset="0.2679" stop-color="#03BFF2"/>
<stop offset="0.6822" stop-color="#05D5DE"/>
<stop offset="1" stop-color="#08EACB"/>
</linearGradient>
<linearGradient id="paint6_linear" x1="163.589" y1="347.69" x2="302.665" y2="347.69" gradientUnits="userSpaceOnUse">
<stop stop-color="#FD72AC"/>
<stop offset="0.2717" stop-color="#FD7AA8"/>
<stop offset="0.6919" stop-color="#FE909D"/>
<stop offset="1" stop-color="#FEA492"/>
</linearGradient>
<linearGradient id="paint7_linear" x1="152.816" y1="432.899" x2="171.424" y2="432.899" gradientUnits="userSpaceOnUse">
<stop stop-color="#FD72AC"/>
<stop offset="0.2717" stop-color="#FD7AA8"/>
<stop offset="0.6919" stop-color="#FE909D"/>
<stop offset="1" stop-color="#FEA492"/>
</linearGradient>
<linearGradient id="paint8_linear" x1="651.335" y1="118.019" x2="703.243" y2="118.019" gradientUnits="userSpaceOnUse">
<stop stop-color="#6090D6"/>
<stop offset="1" stop-color="#4D63FF"/>
</linearGradient>
<linearGradient id="paint9_linear" x1="746.238" y1="108.165" x2="759.09" y2="108.165" gradientUnits="userSpaceOnUse">
<stop stop-color="#BE76FC"/>
<stop offset="1" stop-color="#FB78B7"/>
</linearGradient>
<linearGradient id="paint10_linear" x1="760.162" y1="108.165" x2="781.582" y2="108.165" gradientUnits="userSpaceOnUse">
<stop stop-color="#02B7F9"/>
<stop offset="1" stop-color="#03ECCB"/>
</linearGradient>
<linearGradient id="paint11_linear" x1="713.037" y1="114.721" x2="725.889" y2="114.721" gradientUnits="userSpaceOnUse">
<stop stop-color="#02B7F9"/>
<stop offset="1" stop-color="#06E7CD"/>
</linearGradient>
<linearGradient id="paint12_linear" x1="713.037" y1="121.277" x2="735.528" y2="121.277" gradientUnits="userSpaceOnUse">
<stop stop-color="#02B7F9"/>
<stop offset="1" stop-color="#06E7CD"/>
</linearGradient>
<linearGradient id="paint13_linear" x1="737.135" y1="121.277" x2="747.309" y2="121.277" gradientUnits="userSpaceOnUse">
<stop stop-color="#FF70AA"/>
<stop offset="1" stop-color="#D677E2"/>
</linearGradient>
<linearGradient id="paint14_linear" x1="748.916" y1="121.277" x2="765.517" y2="121.277" gradientUnits="userSpaceOnUse">
<stop stop-color="#4D66FF"/>
<stop offset="1" stop-color="#4F9AFE"/>
</linearGradient>
<linearGradient id="paint15_linear" x1="652.314" y1="166.01" x2="704.222" y2="166.01" gradientUnits="userSpaceOnUse">
<stop stop-color="#6090D6"/>
<stop offset="1" stop-color="#4D63FF"/>
</linearGradient>
<linearGradient id="paint16_linear" x1="747.218" y1="156.156" x2="760.07" y2="156.156" gradientUnits="userSpaceOnUse">
<stop stop-color="#BE76FC"/>
<stop offset="1" stop-color="#FB78B7"/>
</linearGradient>
<linearGradient id="paint17_linear" x1="761.141" y1="156.156" x2="782.561" y2="156.156" gradientUnits="userSpaceOnUse">
<stop stop-color="#02B7F9"/>
<stop offset="1" stop-color="#03ECCB"/>
</linearGradient>
<linearGradient id="paint18_linear" x1="714.017" y1="162.712" x2="726.869" y2="162.712" gradientUnits="userSpaceOnUse">
<stop stop-color="#02B7F9"/>
<stop offset="1" stop-color="#06E7CD"/>
</linearGradient>
<linearGradient id="paint19_linear" x1="714.017" y1="169.268" x2="736.508" y2="169.268" gradientUnits="userSpaceOnUse">
<stop stop-color="#02B7F9"/>
<stop offset="1" stop-color="#06E7CD"/>
</linearGradient>
<linearGradient id="paint20_linear" x1="738.114" y1="169.268" x2="748.289" y2="169.268" gradientUnits="userSpaceOnUse">
<stop stop-color="#FF70AA"/>
<stop offset="1" stop-color="#D677E2"/>
</linearGradient>
<linearGradient id="paint21_linear" x1="749.895" y1="169.268" x2="766.496" y2="169.268" gradientUnits="userSpaceOnUse">
<stop stop-color="#4D66FF"/>
<stop offset="1" stop-color="#4F9AFE"/>
</linearGradient>
<linearGradient id="paint22_linear" x1="652.314" y1="212.042" x2="704.222" y2="212.042" gradientUnits="userSpaceOnUse">
<stop stop-color="#6090D6"/>
<stop offset="1" stop-color="#4D63FF"/>
</linearGradient>
<linearGradient id="paint23_linear" x1="747.218" y1="202.189" x2="760.07" y2="202.189" gradientUnits="userSpaceOnUse">
<stop stop-color="#BE76FC"/>
<stop offset="1" stop-color="#FB78B7"/>
</linearGradient>
<linearGradient id="paint24_linear" x1="761.141" y1="202.189" x2="782.561" y2="202.189" gradientUnits="userSpaceOnUse">
<stop stop-color="#02B7F9"/>
<stop offset="1" stop-color="#03ECCB"/>
</linearGradient>
<linearGradient id="paint25_linear" x1="714.017" y1="208.744" x2="726.869" y2="208.744" gradientUnits="userSpaceOnUse">
<stop stop-color="#02B7F9"/>
<stop offset="1" stop-color="#06E7CD"/>
</linearGradient>
<linearGradient id="paint26_linear" x1="714.017" y1="215.3" x2="736.508" y2="215.3" gradientUnits="userSpaceOnUse">
<stop stop-color="#02B7F9"/>
<stop offset="1" stop-color="#06E7CD"/>
</linearGradient>
<linearGradient id="paint27_linear" x1="738.114" y1="215.3" x2="748.289" y2="215.3" gradientUnits="userSpaceOnUse">
<stop stop-color="#FF70AA"/>
<stop offset="1" stop-color="#D677E2"/>
</linearGradient>
<linearGradient id="paint28_linear" x1="749.895" y1="215.3" x2="766.496" y2="215.3" gradientUnits="userSpaceOnUse">
<stop stop-color="#4D66FF"/>
<stop offset="1" stop-color="#4F9AFE"/>
</linearGradient>
<linearGradient id="paint29_linear" x1="653.293" y1="260.033" x2="705.202" y2="260.033" gradientUnits="userSpaceOnUse">
<stop stop-color="#6090D6"/>
<stop offset="1" stop-color="#4D63FF"/>
</linearGradient>
<linearGradient id="paint30_linear" x1="748.197" y1="250.18" x2="761.049" y2="250.18" gradientUnits="userSpaceOnUse">
<stop stop-color="#BE76FC"/>
<stop offset="1" stop-color="#FB78B7"/>
</linearGradient>
<linearGradient id="paint31_linear" x1="762.12" y1="250.18" x2="783.54" y2="250.18" gradientUnits="userSpaceOnUse">
<stop stop-color="#02B7F9"/>
<stop offset="1" stop-color="#03ECCB"/>
</linearGradient>
<linearGradient id="paint32_linear" x1="714.996" y1="256.736" x2="727.848" y2="256.736" gradientUnits="userSpaceOnUse">
<stop stop-color="#02B7F9"/>
<stop offset="1" stop-color="#06E7CD"/>
</linearGradient>
<linearGradient id="paint33_linear" x1="714.996" y1="263.291" x2="737.487" y2="263.291" gradientUnits="userSpaceOnUse">
<stop stop-color="#02B7F9"/>
<stop offset="1" stop-color="#06E7CD"/>
</linearGradient>
<linearGradient id="paint34_linear" x1="739.094" y1="263.291" x2="749.268" y2="263.291" gradientUnits="userSpaceOnUse">
<stop stop-color="#FF70AA"/>
<stop offset="1" stop-color="#D677E2"/>
</linearGradient>
<linearGradient id="paint35_linear" x1="750.875" y1="263.291" x2="767.475" y2="263.291" gradientUnits="userSpaceOnUse">
<stop stop-color="#4D66FF"/>
<stop offset="1" stop-color="#4F9AFE"/>
</linearGradient>
<linearGradient id="paint36_linear" x1="653.293" y1="305.086" x2="705.202" y2="305.086" gradientUnits="userSpaceOnUse">
<stop stop-color="#6090D6"/>
<stop offset="1" stop-color="#4D63FF"/>
</linearGradient>
<linearGradient id="paint37_linear" x1="748.197" y1="295.233" x2="761.049" y2="295.233" gradientUnits="userSpaceOnUse">
<stop stop-color="#BE76FC"/>
<stop offset="1" stop-color="#FB78B7"/>
</linearGradient>
<linearGradient id="paint38_linear" x1="762.12" y1="295.233" x2="783.54" y2="295.233" gradientUnits="userSpaceOnUse">
<stop stop-color="#02B7F9"/>
<stop offset="1" stop-color="#03ECCB"/>
</linearGradient>
<linearGradient id="paint39_linear" x1="714.996" y1="301.788" x2="727.848" y2="301.788" gradientUnits="userSpaceOnUse">
<stop stop-color="#02B7F9"/>
<stop offset="1" stop-color="#06E7CD"/>
</linearGradient>
<linearGradient id="paint40_linear" x1="714.996" y1="308.344" x2="737.487" y2="308.344" gradientUnits="userSpaceOnUse">
<stop stop-color="#02B7F9"/>
<stop offset="1" stop-color="#06E7CD"/>
</linearGradient>
<linearGradient id="paint41_linear" x1="739.094" y1="308.344" x2="749.268" y2="308.344" gradientUnits="userSpaceOnUse">
<stop stop-color="#FF70AA"/>
<stop offset="1" stop-color="#D677E2"/>
</linearGradient>
<linearGradient id="paint42_linear" x1="750.875" y1="308.344" x2="767.475" y2="308.344" gradientUnits="userSpaceOnUse">
<stop stop-color="#4D66FF"/>
<stop offset="1" stop-color="#4F9AFE"/>
</linearGradient>
<linearGradient id="paint43_linear" x1="654.273" y1="353.077" x2="706.181" y2="353.077" gradientUnits="userSpaceOnUse">
<stop stop-color="#6090D6"/>
<stop offset="1" stop-color="#4D63FF"/>
</linearGradient>
<linearGradient id="paint44_linear" x1="749.177" y1="343.224" x2="762.029" y2="343.224" gradientUnits="userSpaceOnUse">
<stop stop-color="#BE76FC"/>
<stop offset="1" stop-color="#FB78B7"/>
</linearGradient>
<linearGradient id="paint45_linear" x1="763.1" y1="343.224" x2="784.52" y2="343.224" gradientUnits="userSpaceOnUse">
<stop stop-color="#02B7F9"/>
<stop offset="1" stop-color="#03ECCB"/>
</linearGradient>
<linearGradient id="paint46_linear" x1="715.975" y1="349.779" x2="728.828" y2="349.779" gradientUnits="userSpaceOnUse">
<stop stop-color="#02B7F9"/>
<stop offset="1" stop-color="#06E7CD"/>
</linearGradient>
<linearGradient id="paint47_linear" x1="715.975" y1="356.335" x2="738.467" y2="356.335" gradientUnits="userSpaceOnUse">
<stop stop-color="#02B7F9"/>
<stop offset="1" stop-color="#06E7CD"/>
</linearGradient>
<linearGradient id="paint48_linear" x1="740.073" y1="356.335" x2="750.248" y2="356.335" gradientUnits="userSpaceOnUse">
<stop stop-color="#FF70AA"/>
<stop offset="1" stop-color="#D677E2"/>
</linearGradient>
<linearGradient id="paint49_linear" x1="751.854" y1="356.335" x2="768.455" y2="356.335" gradientUnits="userSpaceOnUse">
<stop stop-color="#4D66FF"/>
<stop offset="1" stop-color="#4F9AFE"/>
</linearGradient>
<linearGradient id="paint50_linear" x1="763.966" y1="51.9085" x2="790.41" y2="51.9085" gradientUnits="userSpaceOnUse">
<stop stop-color="#FD72AC"/>
<stop offset="0.2717" stop-color="#FD7AA8"/>
<stop offset="0.6919" stop-color="#FE909D"/>
<stop offset="1" stop-color="#FEA492"/>
</linearGradient>
<linearGradient id="paint51_linear" x1="714.966" y1="54.298" x2="727.677" y2="54.298" gradientUnits="userSpaceOnUse">
<stop stop-color="#FD72AC"/>
<stop offset="0.2717" stop-color="#FD7AA8"/>
<stop offset="0.6919" stop-color="#FE909D"/>
<stop offset="1" stop-color="#FEA492"/>
</linearGradient>
<linearGradient id="paint52_linear" x1="730.667" y1="12.2427" x2="736.543" y2="12.2427" gradientUnits="userSpaceOnUse">
<stop stop-color="#456EA9"/>
<stop offset="1" stop-color="#4C8FFF"/>
</linearGradient>
<linearGradient id="paint53_linear" x1="763.966" y1="12.2427" x2="769.843" y2="12.2427" gradientUnits="userSpaceOnUse">
<stop stop-color="#FF77AE"/>
<stop offset="1" stop-color="#44284E"/>
</linearGradient>
<linearGradient id="paint54_linear" x1="747.316" y1="12.2427" x2="753.193" y2="12.2427" gradientUnits="userSpaceOnUse">
<stop stop-color="#00EDB3"/>
<stop offset="0.9947" stop-color="#6ADCCB"/>
</linearGradient>
<linearGradient id="paint55_linear" x1="197.812" y1="573.989" x2="215.884" y2="573.989" gradientUnits="userSpaceOnUse">
<stop stop-color="#3A5BC1"/>
<stop offset="1" stop-color="#8EA4E8"/>
</linearGradient>
<linearGradient id="paint56_linear" x1="226.215" y1="577.906" x2="244.287" y2="577.906" gradientUnits="userSpaceOnUse">
<stop stop-color="#3A5BC1"/>
<stop offset="1" stop-color="#8EA4E8"/>
</linearGradient>
<linearGradient id="paint57_linear" x1="207.894" y1="529.096" x2="202.238" y2="566.235" gradientUnits="userSpaceOnUse">
<stop stop-color="#443FCD"/>
<stop offset="1" stop-color="#541EB4"/>
</linearGradient>
<linearGradient id="paint58_linear" x1="238.883" y1="498.534" x2="197.968" y2="562.596" gradientUnits="userSpaceOnUse">
<stop stop-color="#443FCD"/>
<stop offset="0.5833" stop-color="#3B5ADD"/>
<stop offset="1" stop-color="#541EB4"/>
</linearGradient>
<linearGradient id="paint59_linear" x1="227.251" y1="420.656" x2="254.674" y2="420.656" gradientUnits="userSpaceOnUse">
<stop stop-color="#3A5BC1"/>
<stop offset="1" stop-color="#8EA4E8"/>
</linearGradient>
<linearGradient id="paint60_linear" x1="198.848" y1="473.607" x2="231.098" y2="473.607" gradientUnits="userSpaceOnUse">
<stop stop-color="#F375B4"/>
<stop offset="0.9947" stop-color="#F2AAA3"/>
</linearGradient>
<linearGradient id="paint61_linear" x1="198.848" y1="445.516" x2="226.613" y2="445.516" gradientUnits="userSpaceOnUse">
<stop stop-color="#482EB2"/>
<stop offset="0.9947" stop-color="#442073"/>
</linearGradient>
<linearGradient id="paint62_linear" x1="597.874" y1="642.725" x2="479.984" y2="667.606" gradientUnits="userSpaceOnUse">
<stop stop-color="#BAB1D8"/>
<stop offset="1" stop-color="#67A4DD"/>
</linearGradient>
<linearGradient id="paint63_linear" x1="552.926" y1="620.745" x2="559.675" y2="631.654" gradientUnits="userSpaceOnUse">
<stop stop-color="#3C73DC"/>
<stop offset="1" stop-color="#7981F3"/>
</linearGradient>
<linearGradient id="paint64_linear" x1="512.349" y1="605.341" x2="564.693" y2="607.588" gradientUnits="userSpaceOnUse">
<stop stop-color="#4714B3"/>
<stop offset="1" stop-color="#381DA3"/>
</linearGradient>
<linearGradient id="paint65_linear" x1="538.709" y1="625.316" x2="526.947" y2="617.038" gradientUnits="userSpaceOnUse">
<stop stop-color="#3C73DC"/>
<stop offset="1" stop-color="#7981F3"/>
</linearGradient>
<linearGradient id="paint66_linear" x1="552.913" y1="551.167" x2="530.781" y2="551.167" gradientUnits="userSpaceOnUse">
<stop stop-color="#BAB1D8"/>
<stop offset="1" stop-color="#67A4DD"/>
</linearGradient>
<linearGradient id="paint67_linear" x1="575.903" y1="621.164" x2="539.098" y2="601.151" gradientUnits="userSpaceOnUse">
<stop stop-color="#3C73DC"/>
<stop offset="1" stop-color="#541EB2"/>
</linearGradient>
<linearGradient id="paint68_linear" x1="580.23" y1="568.286" x2="537.936" y2="568.286" gradientUnits="userSpaceOnUse">
<stop stop-color="#0BC8C8"/>
<stop offset="0.9947" stop-color="#BCFF97"/>
</linearGradient>
<linearGradient id="paint69_linear" x1="562.788" y1="593.093" x2="490.056" y2="593.093" gradientUnits="userSpaceOnUse">
<stop stop-color="#3C73DC"/>
<stop offset="1" stop-color="#7981F3"/>
</linearGradient>
<linearGradient id="paint70_linear" x1="569.196" y1="518.758" x2="540.026" y2="518.758" gradientUnits="userSpaceOnUse">
<stop stop-color="#3F3399"/>
<stop offset="0.9947" stop-color="#5D2DBB"/>
</linearGradient>
<linearGradient id="paint71_linear" x1="580.65" y1="558.357" x2="558.517" y2="558.357" gradientUnits="userSpaceOnUse">
<stop stop-color="#BAB1D8"/>
<stop offset="1" stop-color="#67A4DD"/>
</linearGradient>
<linearGradient id="paint72_linear" x1="544.126" y1="580.769" x2="484.814" y2="580.769" gradientUnits="userSpaceOnUse">
<stop stop-color="#3C30BB"/>
<stop offset="0.9947" stop-color="#32A7D6"/>
</linearGradient>
<clipPath id="clip0">
<rect x="68" width="742" height="732.705" fill="white"/>
</clipPath>
<clipPath id="clip1">
<rect x="482" y="505" width="117" height="178" fill="white"/>
</clipPath>
</defs>
</svg>
