<svg width="30" height="30" viewBox="0 0 30 30" fill="none" xmlns="http://www.w3.org/2000/svg">
<path d="M27.5816 25.6635H2.41842C1.08539 25.6635 0 24.5791 0 23.2451V6.75436C0 5.42036 1.08539 4.33594 2.41842 4.33594H27.5816C28.9146 4.33594 30 5.42036 30 6.75436V23.2451C30 24.5791 28.9146 25.6635 27.5816 25.6635ZM2.41842 5.3033C1.61841 5.3033 0.967367 5.95434 0.967367 6.75436V23.2451C0.967367 24.0451 1.61841 24.6961 2.41842 24.6961H27.5816C28.3816 24.6961 29.0326 24.0451 29.0326 23.2451V6.75436C29.0326 5.95434 28.3816 5.3033 27.5816 5.3033H2.41842Z" fill="white"/>
<path d="M14.9997 17.4302C14.3564 17.4302 13.7131 17.2164 13.2236 16.7898L0.861633 6.01626C0.660421 5.8402 0.639138 5.53548 0.815199 5.33427C0.99126 5.13112 1.29695 5.11177 1.49816 5.28687L13.8592 16.0604C14.4783 16.5993 15.5231 16.5983 16.1402 16.0604L28.4984 5.28784C28.6986 5.11081 29.0033 5.13112 29.1813 5.33524C29.3574 5.53645 29.3361 5.84117 29.1349 6.01723L16.7758 16.7889C16.2863 17.2164 15.643 17.4302 14.9997 17.4302Z" fill="white"/>
</svg>
