<svg width="70" height="70" viewBox="0 0 70 70" fill="none" xmlns="http://www.w3.org/2000/svg">
<circle cx="35" cy="35" r="33" fill="white" stroke="url(#paint0_linear)" stroke-width="4"/>
<path d="M50.6727 16.7485H38.7825C37.2932 16.7485 36.0859 17.9558 36.0859 19.4451V25.2913C36.0859 26.7806 37.2932 27.9879 38.7825 27.9879H39.4944C39.2532 28.6877 38.7507 29.391 37.752 29.8213C37.4789 29.9388 37.5202 30.3383 37.8121 30.3944C39.1298 30.6474 41.4684 30.6338 43.0085 27.9879H50.6727C52.162 27.9879 53.3693 26.7806 53.3693 25.2913V19.4451C53.3693 17.9558 52.1619 16.7485 50.6727 16.7485Z" fill="#FFF4C1"/>
<path d="M40.0248 29.8213C41.0235 29.391 41.5259 28.6877 41.7672 27.9879H41.0553C39.566 27.9879 38.3588 26.7806 38.3588 25.2913V19.4451C38.3588 17.9558 39.566 16.7485 41.0553 16.7485H38.7825C37.2932 16.7485 36.0859 17.9558 36.0859 19.4451V25.2913C36.0859 26.7806 37.2932 27.9879 38.7825 27.9879H39.4944C39.2532 28.6877 38.7507 29.391 37.752 29.8213C37.4789 29.9388 37.5202 30.3383 37.8121 30.3944C38.3959 30.5065 39.1803 30.566 40.0068 30.3677C39.7886 30.2617 39.7786 29.9274 40.0248 29.8213Z" fill="#FCE575"/>
<path d="M52.39 20.8567C52.3803 20.8567 52.3705 20.8565 52.3608 20.8558C52.1023 20.8399 51.9058 20.6175 51.9217 20.3592C52.0465 18.3301 49.8196 18.0901 49.7247 18.0809C49.467 18.0559 49.2784 17.8267 49.3035 17.569C49.3286 17.3114 49.5558 17.1221 49.8155 17.1479C49.8477 17.151 50.6162 17.2297 51.368 17.654C52.4172 18.2461 52.9322 19.2015 52.8573 20.4168C52.8421 20.6653 52.6357 20.8567 52.39 20.8567Z" fill="#FCF9DE"/>
<path d="M38.8173 53.2511H16.6309V50.9634C16.6309 46.8644 19.9537 43.5415 24.0527 43.5415H31.3955C35.4945 43.5415 38.8173 46.8644 38.8173 50.9634V53.2511Z" fill="#00B1FF"/>
<path d="M37.4504 52.7881C37.435 52.7881 37.4195 52.7874 37.4037 52.7858C37.1461 52.7603 36.9579 52.5308 36.9834 52.2731C37.366 48.4044 35.7512 47.5231 35.7348 47.5153C35.5011 47.4041 35.4016 47.1244 35.5129 46.8906C35.6241 46.6567 35.9038 46.5574 36.1375 46.6686C36.2288 46.712 38.3693 47.7853 37.9164 52.3654C37.8925 52.6074 37.6886 52.7881 37.4504 52.7881Z" fill="white"/>
<path d="M19.7559 52.0571C19.7559 47.9581 23.0787 44.6353 27.1777 44.6353H34.5205C34.8006 44.6353 35.077 44.6513 35.349 44.6816C34.2043 43.9596 32.8488 43.5415 31.3955 43.5415H24.0527C19.9537 43.5415 16.6309 46.8644 16.6309 50.9634V53.2511H19.7559V52.0571Z" fill="#3999C4"/>
<path d="M21.3722 36.4194H23.91V27.3576C23.91 26.5194 23.2304 25.8398 22.3922 25.8398H21.3722C20.534 25.8398 19.8545 26.5194 19.8545 27.3576V34.9016C19.8545 35.7398 20.534 36.4194 21.3722 36.4194Z" fill="#8C4C17"/>
<path d="M34.1115 25.0625H33.0787C32.244 25.0625 31.5674 25.7391 31.5674 26.5738V27.8898C33.203 29.1064 34.2627 31.0539 34.2627 33.249V35.6343C35.0264 35.5584 35.6229 34.9143 35.6229 34.1305V26.5737C35.6229 25.7391 34.9462 25.0625 34.1115 25.0625Z" fill="#8C4C17"/>
<path d="M34.4139 35.9815C35.6062 35.9815 36.5729 35.0149 36.5729 33.8226C36.5729 32.6302 35.6062 31.6636 34.4139 31.6636C33.2215 31.6636 32.2549 32.6302 32.2549 33.8226C32.2549 35.0149 33.2215 35.9815 34.4139 35.9815Z" fill="#FFEACF"/>
<path d="M20.8118 36.7628C22.0042 36.7628 22.9708 35.7962 22.9708 34.6038C22.9708 33.4114 22.0042 32.4448 20.8118 32.4448C19.6194 32.4448 18.6528 33.4114 18.6528 34.6038C18.6528 35.7962 19.6194 36.7628 20.8118 36.7628Z" fill="#FFD59A"/>
<path d="M27.7243 47.6217C26.0261 47.6217 24.6494 46.2451 24.6494 44.5468V37.2144H30.7992V44.5468C30.7992 46.245 29.4225 47.6217 27.7243 47.6217Z" fill="#FFEACF"/>
<path d="M26.7782 44.5468V37.2144H24.6494V44.5468C24.6494 46.245 26.0261 47.6217 27.7243 47.6217C28.0986 47.6217 28.4571 47.5547 28.7887 47.4323C27.6151 46.9992 26.7782 45.8708 26.7782 44.5468Z" fill="#FFD59A"/>
<path d="M27.7391 42.2901C24.0526 42.2901 21.064 39.3015 21.064 35.6149V32.2167C21.064 28.5301 24.0526 25.5415 27.7391 25.5415C31.4257 25.5415 34.4143 28.5301 34.4143 32.2167V35.6149C34.4143 39.3015 31.4257 42.2901 27.7391 42.2901Z" fill="#FFEACF"/>
<path d="M23.4064 34.7745V31.461C23.4064 31.2082 23.4205 30.9588 23.448 30.7134C23.4905 30.3335 23.8162 30.0484 24.1986 30.0484H34.0537C33.1536 27.4263 30.6664 25.5415 27.7389 25.5415C27.4524 25.5415 27.1702 25.5602 26.8931 25.5952C26.8935 25.5949 26.8939 25.5947 26.8943 25.5945C26.873 25.5971 26.852 25.6011 26.8307 25.604C26.7603 25.6135 26.6901 25.6238 26.6205 25.6355C26.5868 25.6412 26.5532 25.6477 26.5197 25.6538C26.4581 25.6652 26.3966 25.6771 26.3356 25.6903C26.3002 25.6978 26.265 25.7058 26.2297 25.7139C26.1703 25.7277 26.1112 25.7423 26.0524 25.7576C26.0179 25.7666 25.9835 25.7755 25.9493 25.785C25.8883 25.802 25.8279 25.8201 25.7676 25.8387C25.7369 25.8481 25.7061 25.8572 25.6755 25.8671C25.6033 25.8906 25.5319 25.9156 25.4608 25.9413C25.4432 25.9478 25.4254 25.9535 25.4079 25.96C25.3196 25.993 25.2321 26.0278 25.1456 26.0643C25.123 26.0738 25.101 26.0842 25.0785 26.094C25.0151 26.1216 24.9521 26.1496 24.8897 26.1791C24.8586 26.1938 24.8278 26.2093 24.7969 26.2246C24.7439 26.2506 24.6912 26.2771 24.639 26.3045C24.606 26.3218 24.5732 26.3396 24.5404 26.3575C24.4909 26.3846 24.4418 26.4123 24.393 26.4406C24.3604 26.4596 24.3277 26.4787 24.2954 26.4981C24.2464 26.5277 24.1981 26.5581 24.15 26.5888C24.1196 26.6083 24.0889 26.6274 24.0589 26.6474C24.0058 26.6824 23.9537 26.7188 23.9018 26.7553C23.8779 26.7721 23.8536 26.7883 23.83 26.8053C23.7564 26.8585 23.6841 26.9131 23.6129 26.9692C23.5907 26.9866 23.5693 27.0049 23.5475 27.0226C23.4978 27.0628 23.4483 27.1031 23.3998 27.1446C23.3708 27.1693 23.3426 27.1949 23.3141 27.2202C23.2736 27.256 23.2334 27.292 23.1939 27.3288C23.1639 27.3566 23.1346 27.3849 23.1051 27.4133C23.068 27.4491 23.0314 27.4852 22.9951 27.5218C22.9658 27.5514 22.9368 27.5811 22.9079 27.6113C22.8725 27.6485 22.8378 27.6862 22.8032 27.7241C22.7754 27.7546 22.7475 27.7849 22.7204 27.816C22.6848 27.8564 22.6503 27.8978 22.6157 27.9392C22.5911 27.9686 22.566 27.9977 22.5418 28.0275C22.4912 28.0903 22.4419 28.154 22.3936 28.2186C22.3684 28.2521 22.3443 28.2863 22.3198 28.3203C22.286 28.3672 22.2521 28.4142 22.2195 28.462C22.1956 28.4971 22.1727 28.5328 22.1494 28.5685C22.1222 28.61 22.095 28.6517 22.0688 28.6938C22.0453 28.7317 22.0224 28.7699 21.9996 28.8082C21.975 28.8495 21.9508 28.8909 21.9271 28.9327C21.9049 28.9721 21.8829 29.0116 21.8614 29.0514C21.8387 29.0935 21.8167 29.136 21.7948 29.1786C21.7742 29.2188 21.7536 29.259 21.7338 29.2997C21.7122 29.3439 21.6918 29.3888 21.6712 29.4335C21.6529 29.4734 21.6341 29.5129 21.6166 29.5531C21.5929 29.6074 21.5708 29.6625 21.5486 29.7175C21.5243 29.7774 21.5011 29.8378 21.4786 29.8986C21.4601 29.9484 21.4411 29.9979 21.4239 30.0483H21.4244C21.191 30.7283 21.0635 31.4574 21.0635 32.2166V35.5342C21.0635 39.2066 23.9958 42.2517 27.6679 42.2897C28.8486 42.3019 29.9593 42.0075 30.9258 41.4813C30.6344 41.5181 30.3371 41.5363 30.0353 41.5342C26.353 41.5093 23.4064 38.4571 23.4064 34.7745Z" fill="#FFD59A"/>
<path d="M31.8507 29.0657H20.6818C19.4332 29.0657 18.4209 28.0535 18.4209 26.8048V25.2854C18.4209 24.0367 19.4332 23.0244 20.6818 23.0244H31.8507C33.0994 23.0244 34.1117 24.0367 34.1117 25.2854V26.8048C34.1118 28.0535 33.0995 29.0657 31.8507 29.0657Z" fill="#A56021"/>
<path d="M33.0084 26.869C32.7579 26.869 32.5502 26.671 32.5404 26.4185C32.5164 25.8065 32.3241 25.3368 31.9686 25.0223C31.3136 24.4429 30.289 24.5215 30.2787 24.5222C30.0222 24.5435 29.7943 24.3532 29.7718 24.096C29.7493 23.8388 29.9383 23.6118 30.1954 23.5885C30.2533 23.5832 31.6211 23.4694 32.5831 24.3142C33.142 24.805 33.4429 25.5007 33.4771 26.382C33.4872 26.6407 33.2857 26.8585 33.027 26.8686C33.0207 26.8689 33.0145 26.869 33.0084 26.869Z" fill="#BF6C0D"/>
<path d="M23.9606 34.747C24.4197 34.747 24.7919 34.3748 24.7919 33.9157C24.7919 33.4566 24.4197 33.0845 23.9606 33.0845C23.5016 33.0845 23.1294 33.4566 23.1294 33.9157C23.1294 34.3748 23.5016 34.747 23.9606 34.747Z" fill="#A56021"/>
<path d="M31.5173 34.747C31.9764 34.747 32.3485 34.3748 32.3485 33.9157C32.3485 33.4566 31.9764 33.0845 31.5173 33.0845C31.0582 33.0845 30.686 33.4566 30.686 33.9157C30.686 34.3748 31.0582 34.747 31.5173 34.747Z" fill="#A56021"/>
<path d="M22.3271 26.8049V25.2854C22.3271 24.0368 23.3394 23.0244 24.5881 23.0244H20.6818C19.4332 23.0244 18.4209 24.0367 18.4209 25.2854V26.8049C18.4209 28.0536 19.4332 29.0658 20.6818 29.0658H24.5881C23.3394 29.0658 22.3271 28.0536 22.3271 26.8049Z" fill="#8C4C17"/>
<path d="M22.9709 50.0932C23.6533 50.0932 24.2064 49.54 24.2064 48.8576C24.2064 48.1752 23.6533 47.6221 22.9709 47.6221C22.2885 47.6221 21.7354 48.1752 21.7354 48.8576C21.7354 49.54 22.2885 50.0932 22.9709 50.0932Z" fill="#3999C3"/>
<path d="M25.9899 51.8207C26.6723 51.8207 27.2255 51.2675 27.2255 50.5852C27.2255 49.9028 26.6723 49.3496 25.9899 49.3496C25.3076 49.3496 24.7544 49.9028 24.7544 50.5852C24.7544 51.2675 25.3076 51.8207 25.9899 51.8207Z" fill="#3999C3"/>
<path d="M45.5051 18.2549C47.115 18.2549 48.2082 19.2039 48.2082 20.7658C48.2082 22.4598 47.0068 23.2046 45.3971 23.2046L45.3742 23.6569C45.3601 23.9353 45.1303 24.1537 44.8516 24.1537H44.6665C44.384 24.1537 44.1525 23.9295 44.1435 23.6471L44.1122 22.6637C44.1053 22.4469 44.2791 22.2675 44.496 22.2675C45.8536 22.2675 46.8988 22.0272 46.8988 20.7657C46.8988 19.9247 46.3822 19.4082 45.5172 19.4082C44.8351 19.4082 44.3529 19.7154 44.1869 20.2684C44.1051 20.5411 43.8567 20.7296 43.572 20.7296C43.1359 20.7296 42.8275 20.3037 42.962 19.8888C43.2832 18.8975 44.2089 18.2549 45.5051 18.2549ZM44.7362 26.8087C44.2616 26.8087 43.8874 26.4518 43.8607 25.9851C43.8336 25.5103 44.2025 25.0875 44.6771 25.0566C45.1849 25.0236 45.6012 25.4191 45.6012 25.9317C45.6012 26.4243 45.2168 26.8087 44.7362 26.8087Z" fill="#FF4B34"/>
<defs>
<linearGradient id="paint0_linear" x1="35" y1="0" x2="35" y2="70" gradientUnits="userSpaceOnUse">
<stop stop-color="#4AE1F8"/>
<stop offset="1" stop-color="#91EAE4"/>
</linearGradient>
</defs>
</svg>
