<svg width="70" height="70" viewBox="0 0 70 70" fill="none" xmlns="http://www.w3.org/2000/svg">
<g clip-path="url(#clip0)">
<path d="M70 35C70 40.1772 68.8758 45.0916 66.8587 49.513C63.4103 57.0715 57.3514 63.187 49.8356 66.7102C48.4743 67.3473 47.0644 67.9001 45.6128 68.3599C43.9802 68.8817 42.2958 69.2828 40.567 69.5583C40.5601 69.5599 40.5515 69.5615 40.5441 69.5615C39.696 69.6972 38.8399 69.8013 37.9731 69.8745C37.7883 69.89 37.603 69.9044 37.4171 69.9172C37.1555 69.9343 36.8927 69.9498 36.6283 69.9615C36.0884 69.9872 35.5458 70 35 70C34.4398 70 33.8844 69.9872 33.3316 69.9599C33.0817 69.9487 32.8312 69.9343 32.5813 69.9156C32.3943 69.9028 32.2085 69.89 32.0226 69.8745C31.1356 69.8003 30.257 69.6913 29.3903 69.5514C28.9758 69.4841 28.563 69.4115 28.1544 69.3298C26.3814 68.9783 24.6585 68.4945 22.9944 67.8857C22.0299 67.5343 21.0857 67.1412 20.1628 66.7086C19.8488 66.5612 19.5358 66.4085 19.2255 66.2498C18.4287 65.8472 17.6501 65.414 16.8901 64.9526C13.0828 62.6471 9.75136 59.6355 7.07413 56.1001C5.46715 53.9772 4.09729 51.6658 3.00301 49.2027C1.07292 44.863 0 40.057 0 35C0 15.6698 15.6698 0 35 0C54.3302 0 70 15.6698 70 35Z" fill="#FFE152"/>
<path d="M28.1544 45.42V69.3298C26.3813 68.9784 24.6584 68.4945 22.9943 67.8857C22.0298 67.5343 21.0856 67.1412 20.1627 66.7086C19.8487 66.5612 19.5358 66.4085 19.2255 66.2499C18.4286 65.8472 17.65 65.4141 16.89 64.9526C13.0827 62.6471 9.75128 59.6356 7.07405 56.1001C5.46707 53.9772 4.09721 51.6658 3.00293 49.2027V45.42C3.00293 41.0317 5.98297 37.3387 10.0301 36.2572C10.1785 36.2171 10.327 36.1797 10.4787 36.1488C10.8797 36.0601 11.2926 35.9998 11.7129 35.9656C11.9687 35.9458 12.2272 35.9341 12.4883 35.9341H18.6668C19.3568 35.9341 20.0298 36.0072 20.6786 36.1488C20.7155 36.1557 20.7529 36.1643 20.7897 36.1728C20.8987 36.1974 21.0087 36.2241 21.1155 36.2529C21.1187 36.2545 21.1214 36.2545 21.124 36.2556C22.1927 36.5413 23.1855 37.0086 24.0699 37.6228C26.5383 39.3355 28.1544 42.1884 28.1544 45.42Z" fill="#2BA1CF"/>
<path d="M28.1545 45.42V69.3298C26.3815 68.9784 24.6586 68.4945 22.9945 67.8857C22.03 67.5343 21.0858 67.1412 20.1629 66.7086C19.8489 66.5612 19.5359 66.4085 19.2256 66.2499C18.4288 65.8472 17.6502 65.4141 16.8902 64.9526C13.0829 62.6471 9.75145 59.6356 7.07422 56.1001V45.42C7.07422 41.0317 10.0543 37.3387 14.1013 36.2572C14.2504 36.2171 14.3988 36.1797 14.55 36.1488C14.9516 36.0601 15.3644 35.9998 15.7842 35.9656C16.04 35.9458 16.2985 35.9341 16.5602 35.9341H18.667C19.357 35.9341 20.0299 36.0072 20.6788 36.1488C20.7157 36.1557 20.753 36.1643 20.7899 36.1728C20.8988 36.1974 21.0089 36.2241 21.1157 36.2529C21.1189 36.2545 21.1215 36.2545 21.1242 36.2556C22.1929 36.5413 23.1857 37.0086 24.0701 37.6228C26.5385 39.3355 28.1545 42.1884 28.1545 45.42Z" fill="#66BAED"/>
<path d="M21.1477 36.1482L21.1252 36.2555L18.2873 49.4548C18.0149 50.7232 16.8987 51.6428 15.602 51.6439C15.594 51.6439 15.5865 51.6439 15.5791 51.6439C15.5705 51.6439 15.5625 51.6439 15.554 51.6439C14.2567 51.6428 13.1411 50.7232 12.8687 49.4548L10.0307 36.2566L10.0083 36.1482H21.1477Z" fill="#F2F0EC"/>
<path d="M15.578 39.8177L11.3071 42.1911L10.0083 36.1482L12.662 34.5856" fill="#D8D5D0"/>
<path d="M15.5781 39.8177L19.849 42.1911L21.1478 36.1482L18.4941 34.5856" fill="#D8D5D0"/>
<path d="M2.82666 33.6478V19.3415C2.82666 17.8878 3.06912 16.4635 3.54764 15.108C5.33833 10.0131 10.1732 6.58875 15.5784 6.58875C16.2481 6.58875 16.9162 6.64055 17.5656 6.74309C20.5349 7.20718 23.2597 8.72284 25.2352 11.0113C27.2315 13.3243 28.3311 16.2824 28.3311 19.3415V33.6478" fill="#CC7A3B"/>
<path d="M8.07222 19.9C8.07222 24.9602 11.0357 30.8146 12.663 33.6478H2.82617V19.3414C2.82617 17.8882 3.06917 16.4639 3.54715 15.1079C5.32716 10.0424 10.1177 6.62817 15.4855 6.58972C11.565 6.68745 8.07222 12.9776 8.07222 19.9Z" fill="#A35418"/>
<path d="M18.9635 32.28V36.4339C18.9635 37.9544 17.961 39.2399 16.58 39.6666C16.2638 39.7648 15.9268 39.8177 15.5786 39.8177C13.7094 39.8177 12.1948 38.3031 12.1948 36.4339V32.28H18.9635Z" fill="#EAB599"/>
<path d="M18.9634 36.1707V36.4339C18.9634 37.9544 17.9609 39.2399 16.5799 39.6666C15.3339 39.2837 14.3972 38.2001 14.2241 36.8745C14.45 36.8884 14.6775 36.8954 14.9056 36.8954C15.5459 36.8954 16.174 36.8446 16.7849 36.7442C17.5385 36.623 18.2669 36.4291 18.9634 36.1707Z" fill="#F6CAAE"/>
<path d="M6.29494 25.4729C6.29494 27.0398 5.15045 28.3392 3.65135 28.58C3.48793 28.6067 3.31917 28.6206 3.1472 28.6206C1.40884 28.6206 0 27.2118 0 25.4729C0 23.7345 1.40884 22.3257 3.1472 22.3257C3.31917 22.3257 3.48793 22.3396 3.65135 22.3663C5.15045 22.6071 6.29494 23.906 6.29494 25.4729Z" fill="#F6CAAE"/>
<path d="M6.29462 25.4729C6.29462 27.0399 5.15013 28.3392 3.65103 28.5801C3.3792 27.5905 3.2334 26.5485 3.2334 25.4729C3.2334 24.3979 3.3792 23.3559 3.65103 22.3663C5.15013 22.6072 6.29462 23.906 6.29462 25.4729Z" fill="#EAB599"/>
<path d="M4.27245 25.473C4.27245 26.0946 3.76883 26.5983 3.14719 26.5983C2.52608 26.5983 2.02246 26.0946 2.02246 25.473C2.02246 24.8519 2.52608 24.3483 3.14719 24.3483C3.76883 24.3483 4.27245 24.8519 4.27245 25.473Z" fill="#EAB599"/>
<path d="M23.6603 21.4541V32.2731C21.9882 33.8694 19.8439 34.9749 17.4583 35.3594C17.4396 35.3626 17.4193 35.3658 17.4006 35.369C16.8078 35.4635 16.1995 35.5105 15.5784 35.5105C9.1115 35.5105 3.86865 30.2677 3.86865 23.8008V19.3414C3.86865 18.7705 3.90924 18.2087 3.98828 17.6597C6.77446 19.6635 10.7692 19.4653 13.3145 17.0599C14.1573 16.2636 14.7431 15.3157 15.0743 14.3101C15.2585 16.0708 16.0639 17.7846 17.4914 19.1342C19.1908 20.7385 21.4359 21.5124 23.6603 21.4541Z" fill="#EAB599"/>
<path d="M23.6602 21.4541V32.2731C21.9881 33.8694 19.8439 34.9749 17.4582 35.3594C17.4395 35.3626 17.4192 35.3658 17.4005 35.369C11.7993 34.4937 7.51514 29.6466 7.51514 23.8008V19.3414C7.51514 19.2229 7.51727 19.1048 7.52155 18.9873C9.58621 19.1988 11.731 18.5569 13.3145 17.0594C14.1572 16.2636 14.7431 15.3152 15.0742 14.3101C15.2584 16.0708 16.0638 17.7846 17.4913 19.1342C19.1907 20.7385 21.4359 21.5124 23.6602 21.4541Z" fill="#F6CAAE"/>
<path d="M21.8681 22.8117C21.8681 21.7372 20.9971 20.8667 19.9231 20.8667C18.8491 20.8667 17.978 21.7372 17.978 22.8117" fill="#EAB599"/>
<path d="M13.181 22.8117C13.181 21.7372 12.31 20.8667 11.236 20.8667C10.162 20.8667 9.2915 21.7372 9.2915 22.8117" fill="#EAB599"/>
<path d="M12.5647 23.6396C12.5647 24.3734 11.9697 24.9683 11.2359 24.9683C10.5021 24.9683 9.90771 24.3734 9.90771 23.6396C9.90771 22.9058 10.5021 22.3114 11.2359 22.3114C11.9697 22.3114 12.5647 22.9058 12.5647 23.6396Z" fill="#3D4159"/>
<path d="M21.2511 23.6396C21.2511 24.3734 20.6567 24.9683 19.9229 24.9683C19.1891 24.9683 18.5947 24.3734 18.5947 23.6396C18.5947 22.9058 19.1891 22.3114 19.9229 22.3114C20.6567 22.3114 21.2511 22.9058 21.2511 23.6396Z" fill="#3D4159"/>
<path d="M16.9082 26.9843H14.2513C13.9346 26.9843 13.6782 26.7275 13.6782 26.4113C13.6782 26.0951 13.9346 25.8383 14.2513 25.8383H16.9082C17.2244 25.8383 17.4807 26.0951 17.4807 26.4113C17.4807 26.7275 17.2244 26.9843 16.9082 26.9843Z" fill="#EAB599"/>
<path d="M15.5797 30.6101C14.5991 30.6101 13.6186 30.3645 12.7246 29.8726C12.4725 29.7343 12.3807 29.4176 12.519 29.1655C12.6578 28.9134 12.9745 28.8216 13.2266 28.9599C14.7001 29.77 16.4592 29.77 17.9327 28.9599C18.1848 28.821 18.5015 28.9134 18.6403 29.1655C18.7787 29.4176 18.6868 29.7343 18.4347 29.8726C17.5407 30.3645 16.5602 30.6101 15.5797 30.6101Z" fill="#EAB599"/>
<path d="M12.2939 23.4051C12.2939 23.7197 12.0386 23.9744 11.7246 23.9744C11.41 23.9744 11.1553 23.7197 11.1553 23.4051C11.1553 23.0906 11.41 22.8358 11.7246 22.8358C12.0386 22.8358 12.2939 23.0906 12.2939 23.4051Z" fill="white"/>
<path d="M21.0458 23.4051C21.0458 23.7197 20.791 23.9744 20.477 23.9744C20.1625 23.9744 19.9077 23.7197 19.9077 23.4051C19.9077 23.0906 20.1625 22.8358 20.477 22.8358C20.791 22.8358 21.0458 23.0906 21.0458 23.4051Z" fill="white"/>
<path d="M23.5499 26.8754C23.5499 27.6808 22.8967 28.3339 22.0908 28.3339C21.2855 28.3339 20.6323 27.6808 20.6323 26.8754C20.6323 26.0695 21.2855 25.4164 22.0908 25.4164C22.8967 25.4164 23.5499 26.0695 23.5499 26.8754Z" fill="#EAB599"/>
<path d="M10.5254 26.8754C10.5254 27.6808 9.8728 28.3339 9.06691 28.3339C8.26155 28.3339 7.6084 27.6808 7.6084 26.8754C7.6084 26.0695 8.26155 25.4164 9.06691 25.4164C9.8728 25.4164 10.5254 26.0695 10.5254 26.8754Z" fill="#EAB599"/>
<path d="M66.8586 45.1317V49.5131C63.4102 57.0716 57.3513 63.1871 49.8355 66.7102C48.4742 67.3474 47.0643 67.9001 45.6127 68.36C43.9801 68.8817 42.2957 69.2828 40.5669 69.5584C40.56 69.56 40.5514 69.5616 40.5439 69.5616V45.1317C40.5439 39.9246 44.5542 35.6527 49.6571 35.2414C49.9257 35.2185 50.1954 35.2089 50.4683 35.2089H56.9315C57.6957 35.2089 58.4397 35.2927 59.1543 35.4572C63.5656 36.4655 66.8586 40.4159 66.8586 45.1317Z" fill="#BFD5DE"/>
<path d="M66.8587 45.1317V49.5131C63.4103 57.0716 57.3514 63.1871 49.8356 66.7102C48.4743 67.3474 47.0644 67.9001 45.6128 68.36V45.1317C45.6128 39.6517 50.0572 35.2089 55.5388 35.2089H56.9327C62.4158 35.2089 66.8587 39.6517 66.8587 45.1317Z" fill="#DDE8ED"/>
<path d="M43.9874 24.2628C43.9874 25.9024 42.79 27.2616 41.222 27.5137C41.0506 27.5414 40.8743 27.5558 40.6944 27.5558C38.8754 27.5558 37.4014 26.0818 37.4014 24.2628C37.4014 22.4438 38.8754 20.9698 40.6944 20.9698C40.8743 20.9698 41.0506 20.9843 41.222 21.012C42.79 21.2646 43.9874 22.6238 43.9874 24.2628Z" fill="#D3A489"/>
<path d="M56.3654 38.7886L53.701 43.0621L51.0366 38.7886" fill="#F74F4F"/>
<path d="M57.2859 55.1339L53.7013 59.6574L50.1162 55.1339L53.7019 41.9502L57.2859 55.1339Z" fill="#F74F4F"/>
<path d="M43.9874 24.2628C43.9874 25.9023 42.79 27.2615 41.222 27.5136C40.9374 26.478 40.7852 25.388 40.7852 24.2628C40.7852 23.138 40.9374 22.048 41.222 21.012C42.79 21.2646 43.9874 22.6237 43.9874 24.2628Z" fill="#BF8E75"/>
<path d="M41.8712 24.2627C41.8712 24.9127 41.3441 25.4398 40.6941 25.4398C40.0442 25.4398 39.5176 24.9127 39.5176 24.2627C39.5176 23.6128 40.0442 23.0862 40.6941 23.0862C41.3441 23.0862 41.8712 23.6128 41.8712 24.2627Z" fill="#BF8E75"/>
<path d="M53.7001 39.2709L49.2322 41.7543L47.873 35.4315L50.6491 33.7963" fill="#BFD5DE"/>
<path d="M53.7002 39.2709L58.1687 41.7543L59.5278 35.4315L56.7513 33.7963" fill="#BFD5DE"/>
<path d="M63.4141 24.2628C63.4141 25.9024 64.6114 27.2616 66.1794 27.5137C66.3508 27.5414 66.5271 27.5558 66.7071 27.5558C68.5261 27.5558 70.0001 26.0818 70.0001 24.2628C70.0001 22.4438 68.5261 20.9698 66.7071 20.9698C66.5271 20.9698 66.3508 20.9843 66.1794 21.012C64.6114 21.2646 63.4141 22.6238 63.4141 24.2628Z" fill="#D3A489"/>
<path d="M63.4141 24.2628C63.4141 25.9023 64.6114 27.2615 66.1794 27.5136C66.4646 26.478 66.6163 25.388 66.6163 24.2628C66.6163 23.138 66.4646 22.048 66.1794 21.012C64.6114 21.2646 63.4141 22.6237 63.4141 24.2628Z" fill="#BF8E75"/>
<path d="M67.8839 24.2628C67.8839 24.9128 67.3568 25.4399 66.7068 25.4399C66.0569 25.4399 65.5298 24.9128 65.5298 24.2628C65.5298 23.6129 66.0569 23.0863 66.7068 23.0863C67.3568 23.0863 67.8839 23.6129 67.8839 24.2628Z" fill="#BF8E75"/>
<path d="M65.9529 22.5127C65.9529 28.6095 61.4989 33.6676 55.6669 34.6065C55.0277 34.7117 54.3708 34.7645 53.7005 34.7645C46.9335 34.7645 41.4487 29.2798 41.4487 22.5127C41.4487 19.3111 42.5606 14.5045 44.5714 12.3218C46.8101 9.89135 50.1352 10.2604 53.7005 10.2604C54.3708 10.2604 55.0271 10.3138 55.6669 10.419C61.4989 11.3579 65.9529 16.4154 65.9529 22.5127Z" fill="#BF8E75"/>
<path d="M57.2418 31.385V35.7306C57.2418 37.3216 56.1929 38.6664 54.7478 39.1128C54.4172 39.2154 54.0647 39.2709 53.6999 39.2709C51.7448 39.2709 50.1597 37.6858 50.1597 35.7306V31.385H57.2418Z" fill="#BF8E75"/>
<path d="M57.2419 35.4551V35.7307C57.2419 37.3216 56.193 38.6664 54.7479 39.1128C53.4442 38.7123 52.4642 37.5785 52.2832 36.1915C52.5198 36.206 52.7574 36.2134 52.9967 36.2134C53.6664 36.2134 54.3233 36.16 54.9631 36.0554C55.7514 35.9283 56.5129 35.7258 57.2419 35.4551Z" fill="#D3A489"/>
<path d="M65.9532 22.5127C65.9532 28.6095 61.4992 33.6676 55.6672 34.6065C49.8359 33.6676 45.3818 28.6095 45.3818 22.5127C45.3818 18.7583 47.0705 15.398 49.7307 13.1502C51.3894 11.7477 53.4269 10.7795 55.6672 10.4185C61.104 11.2938 65.3449 15.7505 65.8928 21.2908C65.9329 21.6929 65.9532 22.101 65.9532 22.5127Z" fill="#D3A489"/>
<path d="M53.7011 28.547C52.6746 28.547 51.6492 28.2901 50.7141 27.7758C50.4497 27.6311 50.3536 27.2994 50.4989 27.0356C50.6436 26.7718 50.9752 26.6756 51.2391 26.8209C52.7804 27.6679 54.6212 27.6679 56.1631 26.8209C56.4264 26.6756 56.758 26.7718 56.9027 27.0356C57.048 27.2994 56.9519 27.6311 56.6881 27.7758C55.7529 28.2901 54.7265 28.547 53.7011 28.547Z" fill="#BF8E75"/>
<path d="M51.0918 21.7997C51.0918 22.5671 50.4696 23.1893 49.7016 23.1893C48.9342 23.1893 48.312 22.5671 48.312 21.7997C48.312 21.0317 48.9342 20.4095 49.7016 20.4095C50.4696 20.4095 51.0918 21.0317 51.0918 21.7997Z" fill="#3D4159"/>
<path d="M59.0898 21.7997C59.0898 22.5671 58.4677 23.1893 57.7002 23.1893C56.9322 23.1893 56.3101 22.5671 56.3101 21.7997C56.3101 21.0317 56.9322 20.4095 57.7002 20.4095C58.4677 20.4095 59.0898 21.0317 59.0898 21.7997Z" fill="#3D4159"/>
<path d="M50.8081 21.554C50.8081 21.8829 50.5416 22.15 50.2127 22.15C49.8837 22.15 49.6172 21.8829 49.6172 21.554C49.6172 21.2255 49.8837 20.9585 50.2127 20.9585C50.5416 20.9585 50.8081 21.2255 50.8081 21.554Z" fill="white"/>
<path d="M58.8745 21.554C58.8745 21.8829 58.608 22.15 58.2791 22.15C57.9501 22.15 57.6836 21.8829 57.6836 21.554C57.6836 21.2255 57.9501 20.9585 58.2791 20.9585C58.608 20.9585 58.8745 21.2255 58.8745 21.554Z" fill="white"/>
<path d="M55.0909 25.2988H52.3112C51.9801 25.2988 51.7114 25.0302 51.7114 24.6991C51.7114 24.368 51.9801 24.0999 52.3112 24.0999H55.0909C55.4221 24.0999 55.6907 24.368 55.6907 24.6991C55.6902 25.0302 55.4221 25.2988 55.0909 25.2988Z" fill="#BF8E75"/>
<path d="M57.7349 44.8064H63.076V46.4412H57.7349V44.8064Z" fill="#BFD5DE"/>
<path d="M52.9839 6.76061C56.6956 7.02551 59.6756 10.0237 59.8642 13.7979L59.8994 14.5066H62.0346L63.1844 22.1532L65.9695 21.2913L65.5957 13.7984C65.3981 9.83358 62.1189 6.72643 58.1509 6.74139L52.9839 6.76061Z" fill="#2A2F4F"/>
<path d="M65.3593 3.8031C68.3148 6.75858 68.3148 11.5507 65.3593 14.5061C62.4038 17.4616 57.6117 17.4616 54.6562 14.5061L65.3593 3.8031Z" fill="#3D4159"/>
<path d="M54.6564 14.5061H45.3681L44.2177 22.1533L41.4326 21.2913L41.8059 13.7979C42.0035 9.83416 45.2826 6.72594 49.2512 6.7409L62.6662 6.79163L64.4398 9.9837" fill="#3D4159"/>
<path d="M54.4177 6.76061C50.706 7.02551 47.726 10.0237 47.5375 13.7979L47.5022 14.5066H45.3676L44.2172 22.1532L41.4321 21.2913L41.806 13.7984C42.0036 9.83358 45.2827 6.72643 49.2507 6.74139L54.4177 6.76061Z" fill="#2A2F4F"/>
<path d="M49.8359 64.0859V66.7102C45.3316 68.8203 40.3045 70 35.0003 70C29.696 70 24.6673 68.8203 20.1631 66.7086V64.0859C20.1631 58.9071 23.6788 54.5513 28.4543 53.2744C28.629 53.2274 28.8047 53.1842 28.983 53.1457C29.4573 53.0426 29.9443 52.9716 30.4389 52.9315C30.7417 52.907 31.0461 52.8942 31.3548 52.8942H38.6431C39.4586 52.8942 40.2517 52.9801 41.0175 53.1457C41.0618 53.1543 41.1062 53.1644 41.1489 53.1745C41.2776 53.2045 41.4058 53.236 41.5329 53.2701C41.5377 53.2712 41.5387 53.2712 41.543 53.2728C42.8034 53.6098 43.9762 54.1615 45.0176 54.8857C47.9303 56.906 49.8359 60.2727 49.8359 64.0859Z" fill="#3D4159"/>
<path d="M41.5699 53.1456L41.5426 53.2727L37.973 69.8745C37.7882 69.8899 37.6029 69.9044 37.417 69.9172C37.1554 69.9343 36.8926 69.9498 36.6282 69.9615C36.0883 69.9871 35.5457 70 34.9999 70C34.4397 70 33.8842 69.9871 33.3315 69.9599C33.0816 69.9487 32.8311 69.9343 32.5811 69.9156C32.3942 69.9028 32.2084 69.8899 32.0225 69.8745L28.4539 53.2743L28.4272 53.1456H41.5699Z" fill="#66BAED"/>
<path d="M38.0033 56.9326L34.9987 61.7509L31.9946 56.9326" fill="#3D4159"/>
<path d="M37.4169 69.9172C37.1553 69.9343 36.8925 69.9498 36.6281 69.9615C36.0882 69.9872 35.5456 70 34.9998 70C34.4396 70 33.8842 69.9872 33.3314 69.9599C33.0815 69.9487 32.831 69.9343 32.5811 69.9156L34.9998 60.4969L37.4169 69.9172Z" fill="#3D4159"/>
<path d="M34.9983 57.4758L29.9595 60.2758L28.4268 53.1467L31.5574 51.3026" fill="#2BA1CF"/>
<path d="M34.9985 57.4758L40.0368 60.2758L41.5696 53.1467L38.4389 51.3026" fill="#2BA1CF"/>
<path d="M41.7602 62.7672H43.3586L40.5671 69.5583C39.2757 69.7655 37.9614 69.9012 36.6284 69.9615L41.5327 53.2701L41.5701 53.1456L45.0174 54.2714L41.7602 62.7672Z" fill="#2A2F4F"/>
<path d="M33.3319 69.9599C31.9973 69.8985 30.6819 69.7602 29.3906 69.5513L26.6017 62.7672H28.2002L24.9419 54.2714L28.3903 53.1456L28.4277 53.2701L33.3319 69.9599Z" fill="#2A2F4F"/>
<path d="M38.9922 48.5833V53.4832C38.9922 55.2777 37.8092 56.7939 36.1798 57.2975C35.8065 57.4134 35.4092 57.4758 34.9979 57.4758C32.7928 57.4758 31.0059 55.6884 31.0059 53.4832V48.5833H38.9922Z" fill="#EAB599"/>
<path d="M38.992 53.1729V53.4837C38.992 55.2776 37.8091 56.7938 36.1797 57.2979C34.7094 56.8456 33.6039 55.5676 33.3999 54.0033C33.6669 54.0199 33.935 54.0279 34.2042 54.0279C34.9599 54.0279 35.7006 53.9681 36.4216 53.85C37.3108 53.7069 38.1696 53.4778 38.992 53.1729Z" fill="#F6CAAE"/>
<path d="M24.0453 40.5521C24.0453 42.4005 22.6947 43.9332 20.9264 44.2179C20.7331 44.2488 20.5344 44.2654 20.332 44.2654C18.2807 44.2654 16.6182 42.6034 16.6182 40.5521C16.6182 38.5008 18.2802 36.8383 20.332 36.8383C20.5344 36.8383 20.7331 36.8548 20.9264 36.8863C22.6947 37.171 24.0453 38.7037 24.0453 40.5521Z" fill="#F6CAAE"/>
<path d="M24.0454 40.552C24.0454 42.4004 22.6947 43.9331 20.9265 44.2178C20.6055 43.0498 20.4341 41.8204 20.4341 40.552C20.4341 39.2831 20.6055 38.0542 20.9265 36.8862C22.6947 37.1709 24.0454 38.7036 24.0454 40.552Z" fill="#EAB599"/>
<path d="M21.6591 40.5521C21.6591 41.2848 21.0647 41.8792 20.332 41.8792C19.5988 41.8792 19.0049 41.2848 19.0049 40.5521C19.0049 39.8188 19.5988 39.225 20.332 39.225C21.0647 39.225 21.6591 39.8188 21.6591 40.5521Z" fill="#EAB599"/>
<path d="M45.9517 40.5521C45.9517 42.4005 47.3023 43.9332 49.0706 44.2179C49.2634 44.2488 49.4626 44.2654 49.665 44.2654C51.7163 44.2654 53.3788 42.6034 53.3788 40.5521C53.3788 38.5008 51.7168 36.8383 49.665 36.8383C49.4626 36.8383 49.2634 36.8548 49.0706 36.8863C47.3023 37.171 45.9517 38.7037 45.9517 40.5521Z" fill="#F6CAAE"/>
<path d="M45.9517 40.552C45.9517 42.4004 47.3023 43.9331 49.0706 44.2178C49.3915 43.0498 49.563 41.8204 49.563 40.552C49.563 39.2831 49.3915 38.0542 49.0706 36.8862C47.3023 37.1709 45.9517 38.7036 45.9517 40.552Z" fill="#EAB599"/>
<path d="M48.8152 33.3177V38.5787C48.8152 45.4542 43.7924 51.1574 37.216 52.2159C37.1941 52.2196 37.1706 52.2233 37.1487 52.2271C36.4491 52.3392 35.7313 52.3942 34.9986 52.3942C27.3685 52.3942 21.1836 46.2088 21.1836 38.5792V33.3177C21.1836 31.7113 21.4576 30.1673 21.9639 28.7328C23.8533 23.3559 28.9766 19.5011 34.9986 19.5011H34.9997C35.7313 19.5011 36.4502 19.5577 37.1508 19.6683C43.7593 20.7006 48.8152 26.4193 48.8152 33.3177Z" fill="#EAB599"/>
<path d="M50.9922 40.5521C50.9922 41.2848 50.3983 41.8792 49.665 41.8792C48.9323 41.8792 48.3379 41.2848 48.3379 40.5521C48.3379 39.8188 48.9323 39.225 49.665 39.225C50.3983 39.225 50.9922 39.8188 50.9922 40.5521Z" fill="#EAB599"/>
<path d="M48.8146 33.3177V38.5787C48.8146 45.4536 43.7923 51.1573 37.2159 52.2158C37.1935 52.2196 37.1705 52.2233 37.1481 52.227C30.5402 51.1942 25.4854 45.476 25.4854 38.5787V33.3177C25.4854 26.4192 30.5413 20.7005 37.1508 19.6682C43.7592 20.7005 48.8146 26.4192 48.8146 33.3177Z" fill="#F6CAAE"/>
<path d="M32.0563 37.774C32.0563 38.6397 31.3545 39.3414 30.4893 39.3414C29.6236 39.3414 28.9219 38.6397 28.9219 37.774C28.9219 36.9088 29.6236 36.207 30.4893 36.207C31.3545 36.207 32.0563 36.9088 32.0563 37.774Z" fill="#3D4159"/>
<path d="M41.0758 37.774C41.0758 38.6397 40.3741 39.3414 39.5084 39.3414C38.6427 39.3414 37.9409 38.6397 37.9409 37.774C37.9409 36.9088 38.6427 36.207 39.5084 36.207C40.3741 36.207 41.0758 36.9088 41.0758 37.774Z" fill="#3D4159"/>
<path d="M31.7367 37.4978C31.7367 37.8684 31.436 38.1691 31.0649 38.1691C30.6942 38.1691 30.3936 37.8684 30.3936 37.4978C30.3936 37.1266 30.6942 36.8259 31.0649 36.8259C31.436 36.8259 31.7367 37.1266 31.7367 37.4978Z" fill="white"/>
<path d="M40.8329 37.4978C40.8329 37.8684 40.5322 38.1691 40.1616 38.1691C39.7904 38.1691 39.4897 37.8684 39.4897 37.4978C39.4897 37.1266 39.7904 36.8259 40.1616 36.8259C40.5322 36.8259 40.8329 37.1266 40.8329 37.4978Z" fill="white"/>
<path d="M36.5664 41.1059H33.4315C33.0582 41.1059 32.7554 40.8031 32.7554 40.4298C32.7554 40.0559 33.0582 39.7537 33.4315 39.7537H36.5664C36.9397 39.7537 37.2425 40.0559 37.2425 40.4298C37.242 40.8031 36.9392 41.1059 36.5664 41.1059Z" fill="#EAB599"/>
<path d="M34.9986 45.3831C33.8419 45.3831 32.6846 45.0931 31.6303 44.5131C31.3329 44.3497 31.2239 43.9759 31.3879 43.6789C31.5513 43.3815 31.9251 43.2731 32.2226 43.4359C33.961 44.3919 36.0363 44.3919 37.7747 43.4359C38.0721 43.2725 38.446 43.3809 38.6094 43.6789C38.7733 43.9759 38.6644 44.3497 38.3669 44.5131C37.3122 45.0931 36.1554 45.3831 34.9986 45.3831Z" fill="#EAB599"/>
<path d="M48.8148 28.5432V33.9324H46.2433V29.7117L27.6816 26.2628L23.7541 25.5327V33.9324H21.1826V28.5427C21.1826 22.3989 26.1622 17.4193 32.3049 17.4193H37.6925C37.8388 17.4193 37.9851 17.422 38.1315 17.4295C44.0697 17.658 48.8148 22.5457 48.8148 28.5432Z" fill="#2A2F4F"/>
<path d="M48.8148 28.5432V33.9324H46.2433V29.7117L27.6816 26.2628C28.7044 21.3505 32.9661 17.6286 38.1315 17.4294C44.0697 17.658 48.8148 22.5457 48.8148 28.5432Z" fill="#3D4159"/>
</g>
<defs>
<clipPath id="clip0">
<rect width="70" height="70" fill="white"/>
</clipPath>
</defs>
</svg>
