<svg width="70" height="64" viewBox="0 0 70 64" fill="none" xmlns="http://www.w3.org/2000/svg">
<path d="M20.7782 37.7173C20.1787 42.188 16.3516 45.6366 11.7167 45.6366C7.08182 45.6366 3.25492 42.188 2.65527 37.7173H20.7782Z" fill="#FECA57"/>
<path d="M20.2522 35.9612L12.3627 14.6289C12.1604 14.0817 12.4399 13.474 12.9871 13.2717C13.5342 13.0691 14.142 13.3488 14.3443 13.8961L22.2338 35.2284C22.4362 35.7756 22.1567 36.3833 21.6094 36.5856C21.063 36.7878 20.4549 36.5089 20.2522 35.9612Z" fill="#CCD2DB"/>
<path d="M2.67511 36.5856C2.12796 36.3833 1.84837 35.7756 2.05072 35.2284L9.94021 13.896C10.1426 13.3489 10.7499 13.069 11.2974 13.2717C11.8446 13.474 12.1242 14.0817 11.9218 14.6289L4.03232 35.9612C3.82997 36.5084 3.22226 36.788 2.67511 36.5856Z" fill="#CCD2DB"/>
<path d="M48.3868 36.5843C47.8403 36.3799 47.563 35.7711 47.7674 35.2248L55.6569 14.1321C55.8615 13.5856 56.4701 13.3085 57.0165 13.5127C57.5629 13.7171 57.8403 14.3259 57.6358 14.8723L49.7463 35.965C49.5419 36.5114 48.9331 36.7886 48.3868 36.5843Z" fill="#CCD2DB"/>
<path d="M65.9689 35.965L58.0794 14.8723C57.8751 14.3258 58.1523 13.7171 58.6988 13.5127C59.2454 13.3085 59.8539 13.5856 60.0583 14.1321L67.9478 35.2248C68.1522 35.7712 67.8749 36.3799 67.3285 36.5843C66.7824 36.7886 66.1735 36.5117 65.9689 35.965Z" fill="#CCD2DB"/>
<path d="M13.8526 15.3858C13.3137 15.3858 12.8535 14.9754 12.8021 14.4281C12.7475 13.8472 13.1742 13.332 13.7551 13.2775C17.2655 12.9479 18.2007 12.5482 32.1158 8.73158C32.6784 8.57737 33.2597 8.90823 33.4141 9.47096C33.5684 10.0336 33.2374 10.6149 32.6747 10.7692C18.6864 14.606 17.6449 15.0345 13.9527 15.3812C13.9191 15.3843 13.8857 15.3858 13.8526 15.3858Z" fill="#3E4B5A"/>
<path d="M56.4064 15.4597C56.3733 15.4597 56.34 15.4582 56.3064 15.4551C52.4736 15.0951 51.448 14.6659 36.8403 10.6594C36.2777 10.505 35.9465 9.92382 36.1009 9.36109C36.2552 8.79849 36.8367 8.46749 37.3992 8.62171C52.0275 12.6339 52.9059 13.0135 56.504 13.3514C57.0849 13.4059 57.5116 13.9211 57.457 14.502C57.4056 15.0493 56.9453 15.4597 56.4064 15.4597Z" fill="#3E4B5A"/>
<path d="M34.9301 4.90639C35.6861 4.90639 36.394 5.11078 37.0032 5.46571V1.5457C37.0032 0.755196 36.3624 0.114258 35.5718 0.114258H34.2884C33.4979 0.114258 32.8569 0.755196 32.8569 1.5457V5.46571C33.4664 5.11051 34.1742 4.90639 34.9301 4.90639Z" fill="#C46F5F"/>
<path d="M37.0036 55.8184V12.5966C36.3943 12.9516 35.6864 13.1559 34.9305 13.1559C34.1746 13.1559 33.4666 12.9515 32.8574 12.5966V55.8184H37.0036Z" fill="#C46F5F"/>
<path d="M35.648 1.5457C35.648 1.03205 35.9194 0.58293 36.3258 0.33041C36.1068 0.194238 35.8491 0.114258 35.5722 0.114258H34.2889C33.4984 0.114258 32.8574 0.755196 32.8574 1.5457V5.46571C33.4666 5.11051 34.1746 4.90639 34.9305 4.90639C35.1755 4.90639 35.4148 4.93004 35.648 4.97106V1.5457Z" fill="#B45F4A"/>
<path d="M34.9305 13.156C34.1746 13.156 33.4666 12.9517 32.8574 12.5967V55.8185H35.648V13.0912C35.4147 13.1323 35.1755 13.156 34.9305 13.156Z" fill="#B45F4A"/>
<path d="M47.4923 33.4724H68.2229C69.2002 33.4724 69.9998 34.2719 69.9998 35.2494V35.9405C69.9998 36.9177 69.2002 37.7174 68.2229 37.7174H47.4923C46.515 37.7174 45.7153 36.9179 45.7153 35.9405V35.2494C45.7153 34.2719 46.515 33.4724 47.4923 33.4724Z" fill="#F4B537"/>
<path d="M68.2228 34.9001H47.4923C46.9133 34.9001 46.3982 34.6182 46.0733 34.1862C45.8497 34.4834 45.7153 34.8509 45.7153 35.2491V35.9403C45.7153 36.9175 46.5149 37.7172 47.4923 37.7172H68.2228C69.2001 37.7172 69.9997 36.9177 69.9997 35.9403V35.2491C69.9997 34.8509 69.8653 34.4832 69.6418 34.1862C69.3168 34.6182 68.8019 34.9001 68.2228 34.9001Z" fill="#E59D1F"/>
<path d="M67.3446 37.7173C66.7451 42.188 62.918 45.6366 58.2831 45.6366C53.6482 45.6366 49.8213 42.188 49.2217 37.7173H67.3446Z" fill="#FECA57"/>
<path d="M6.88098 37.7173H2.65527C3.25492 42.188 7.08182 45.6366 11.7167 45.6366C12.4441 45.6366 13.1513 45.5516 13.8296 45.391C10.186 44.5289 7.38643 41.4865 6.88098 37.7173Z" fill="#F4B537"/>
<path d="M53.4477 37.7173H49.2222C49.8218 42.188 53.6487 45.6366 58.2836 45.6366C59.011 45.6366 59.7182 45.5516 60.3965 45.391C56.7528 44.5289 53.9533 41.4865 53.4477 37.7173Z" fill="#F4B537"/>
<path d="M12.1423 17.0942C13.7062 17.0942 14.974 15.8264 14.974 14.2625C14.974 12.6986 13.7062 11.4308 12.1423 11.4308C10.5784 11.4308 9.31055 12.6986 9.31055 14.2625C9.31055 15.8264 10.5784 17.0942 12.1423 17.0942Z" fill="#FECA57"/>
<path d="M57.8581 17.0942C59.422 17.0942 60.6898 15.8264 60.6898 14.2625C60.6898 12.6986 59.422 11.4308 57.8581 11.4308C56.2942 11.4308 55.0264 12.6986 55.0264 14.2625C55.0264 15.8264 56.2942 17.0942 57.8581 17.0942Z" fill="#FECA57"/>
<path d="M42.9263 55.396H26.9342C25.9569 55.396 25.1572 56.1955 25.1572 57.1729V60.0634H44.7032V57.1729C44.7032 56.1955 43.9036 55.396 42.9263 55.396Z" fill="#3E4B5A"/>
<path d="M25.1924 56.8236C25.1695 56.9367 25.1572 57.0533 25.1572 57.1727V60.0632H44.7032V57.1727C44.7032 57.0532 44.6909 56.9365 44.6681 56.8236H25.1924Z" fill="#303F49"/>
<path d="M45.3333 59.6407H24.6026C23.6254 59.6407 22.8257 60.4403 22.8257 61.4177V62.1088C22.8257 63.0861 23.6254 63.8857 24.6026 63.8857H45.3333C46.3105 63.8857 47.1102 63.0862 47.1102 62.1088V61.4177C47.1102 60.4403 46.3105 59.6407 45.3333 59.6407Z" fill="#576574"/>
<path d="M45.3331 61.0686H24.6025C24.0235 61.0686 23.5085 60.7866 23.1836 60.3546C22.9601 60.6518 22.8257 61.0193 22.8257 61.4176V62.1087C22.8257 63.086 23.6254 63.8857 24.6026 63.8857H45.3333C46.3105 63.8857 47.1102 63.0861 47.1102 62.1087V61.4176C47.1102 61.0193 46.9758 60.6517 46.7523 60.3546C46.4272 60.7866 45.9121 61.0686 45.3331 61.0686Z" fill="#3E4B5A"/>
<path d="M34.9305 13.1559C37.2085 13.1559 39.0553 11.3091 39.0553 9.03106C39.0553 6.75299 37.2085 4.90625 34.9305 4.90625C32.6524 4.90625 30.8057 6.75299 30.8057 9.03106C30.8057 11.3091 32.6524 13.1559 34.9305 13.1559Z" fill="#FECA57"/>
<path d="M13.5358 14.2625C13.5358 13.5397 13.8089 12.8822 14.2546 12.3818C13.7359 11.7997 12.9829 11.4308 12.1418 11.4308C10.5779 11.4308 9.31006 12.6986 9.31006 14.2625C9.31006 15.8264 10.5779 17.0942 12.1418 17.0942C12.9829 17.0942 13.7359 16.7255 14.2546 16.1432C13.8089 15.6428 13.5358 14.9853 13.5358 14.2625Z" fill="#F4B537"/>
<path d="M59.2521 14.2625C59.2521 13.5397 59.5252 12.8822 59.9709 12.3818C59.4524 11.7997 58.6992 11.4308 57.8581 11.4308C56.2942 11.4308 55.0264 12.6986 55.0264 14.2625C55.0264 15.8264 56.2942 17.0942 57.8581 17.0942C58.6992 17.0942 59.4522 16.7255 59.9709 16.1432C59.5251 15.6428 59.2521 14.9853 59.2521 14.2625Z" fill="#F4B537"/>
<path d="M35.0314 9.03106C35.0314 7.52537 35.8386 6.20863 37.0433 5.4884C36.4254 5.11898 35.7029 4.90625 34.9305 4.90625C32.6525 4.90625 30.8057 6.75305 30.8057 9.03106C30.8057 11.3091 32.6525 13.1559 34.9305 13.1559C35.7028 13.1559 36.4252 12.9431 37.0433 12.5737C35.8384 11.8536 35.0314 10.5367 35.0314 9.03106Z" fill="#F4B537"/>
<path d="M1.77693 33.4724H22.5076C23.4849 33.4724 24.2845 34.2719 24.2845 35.2494V35.9405C24.2845 36.9177 23.4849 37.7174 22.5076 37.7174H1.77693C0.799531 37.7173 0 36.9176 0 35.9403V35.2492C0 34.2719 0.799531 33.4724 1.77693 33.4724Z" fill="#F4B537"/>
<path d="M22.5075 34.9001H1.77693C1.19793 34.9001 0.68291 34.6182 0.35793 34.1862C0.134395 34.4834 0 34.8509 0 35.2491V35.9403C0 36.9175 0.799531 37.7172 1.77693 37.7172H22.5075C23.4847 37.7172 24.2844 36.9177 24.2844 35.9403V35.2491C24.2844 34.8509 24.15 34.4832 23.9265 34.1862C23.6015 34.6182 23.0865 34.9001 22.5075 34.9001Z" fill="#E59D1F"/>
</svg>
