<svg id="Capa_1" enable-background="new 0 0 512 512" height="512" viewBox="0 0 512 512" width="512" xmlns="http://www.w3.org/2000/svg"><path d="m256 72.5-21.333 183.5 21.333 183.5c16.964 0 33.399-2.314 49.003-6.643 77.469-21.49 134.293-186.909 133.89-191.857-7.656-94.193-86.76-168.5-182.893-168.5z" fill="#9ccefd"/><path d="m76.113 292.335c16.907 83.838 91.141 147.165 179.887 147.165v-72.5l-10-15 10.001-15v-264.5c-59.5 0-112.476 28.465-146.026 72.493-23.505 30.843-36.232 135.594-33.862 147.342z" fill="#c4e2fe"/><path d="m305 166.334h57.666v30h-57.666z" fill="#f7f0eb"/><path d="m213.333 263.333c0-36.588-26.104-67.195-60.666-74.173v-44.16h-42.684c-23.503 30.844-37.483 69.318-37.483 111 0 12.436 1.25 24.585 3.619 36.333h137.214z" fill="#1fbd66"/><path d="m439.5 256c0-5.05-.214-10.051-.616-15h-91.217v15c0 15.256-12.411 27.667-27.666 27.667h-15v149.18c77.467-21.491 134.499-92.629 134.499-176.847z" fill="#06b24b"/><path d="m213.333 337h42.667v30h-42.667z" fill="#fffbf5"/><path d="m464.626 107.556-21.551 21.551c25.306 37.14 38.925 80.967 38.925 126.893 0 60.367-23.508 117.12-66.194 159.806-42.685 42.686-99.438 66.194-159.806 66.194l-10.667 19.333 10.667 10.667c68.38 0 132.667-26.629 181.02-74.981 48.352-48.352 74.98-112.639 74.98-181.019 0-53.975-16.604-105.393-47.374-148.444z" fill="#7982e9"/><path d="m256 30c45.926 0 89.753 13.62 126.893 38.925l21.551-21.551c-43.051-30.77-94.468-47.374-148.444-47.374l-10.667 21.333z" fill="#7982e9"/><g fill="#8993ed"><path d="m129.107 443.075-21.551 21.551c43.051 30.77 94.469 47.374 148.444 47.374v-30c-45.926 0-89.753-13.619-126.893-38.925z"/><path d="m0 256c0 53.975 16.604 105.393 47.374 148.444l21.551-21.551c-25.305-37.14-38.925-80.967-38.925-126.893 0-60.367 23.508-117.12 66.194-159.806s99.439-66.194 159.806-66.194v-30c-68.38 0-132.667 26.629-181.019 74.981s-74.981 112.639-74.981 181.019z"/></g></svg>